<svg xmlns="http://www.w3.org/2000/svg" xmlns:xlink="http://www.w3.org/1999/xlink" width="157" height="157" viewBox="0 0 157 157">
  <defs>
    <clipPath id="clip-path">
      <rect id="長方形_361" data-name="長方形 361" width="157" height="157" transform="translate(-0.084 -0.254)" fill="#a92c3d" stroke="#707070" stroke-width="1"/>
    </clipPath>
  </defs>
  <g id="マスクグループ_79" data-name="マスクグループ 79" transform="translate(0.084 0.254)" clip-path="url(#clip-path)">
    <path id="card-payment" d="M42.633,156.49a3.334,3.334,0,0,1-.394.246,3.045,3.045,0,0,1-1.424.35H3.071A3.071,3.071,0,0,1,0,154.015V82.08a3.064,3.064,0,0,1,1.232-2.458L52.588,33.055V18.138A18.184,18.184,0,0,1,70.727,0h55.06a18.184,18.184,0,0,1,18.138,18.138V123.29a18.184,18.184,0,0,1-18.138,18.139H70.727a17.617,17.617,0,0,1-6.4-1.286,20.928,20.928,0,0,1-3.513-1.786L43.008,156.163a3.044,3.044,0,0,1-.375.327ZM121.35,79.919a3.068,3.068,0,0,1,3.068,3.068h0v52.3h1.366a12.04,12.04,0,0,0,12-12V18.138a12.043,12.043,0,0,0-12-12H124.42v52.3h0a3.068,3.068,0,0,1-6.136,0h0V6.141H70.726a12.043,12.043,0,0,0-12,12V91.769L72.939,77.56A17.209,17.209,0,0,1,97.276,101.9L65.3,133.869q.611.309,1.257.566a11.532,11.532,0,0,0,4.167.852h47.553v-52.3h0a3.068,3.068,0,0,1,3.068-3.068Zm0-12.272a3.068,3.068,0,1,0,3.068,3.068A3.068,3.068,0,0,0,121.35,67.647ZM32.173,119.6a3.068,3.068,0,1,0,3.068,3.068A3.068,3.068,0,0,0,32.173,119.6Zm20.415-78.29L6.142,83.423v67.522h33.4L92.934,97.554A11.068,11.068,0,0,0,77.281,81.9L42.987,116.2a3.07,3.07,0,1,1-4.342-4.342L52.588,97.91ZM94.264,20.215V64.891a3.07,3.07,0,1,0,6.141,0V20.215a3.07,3.07,0,1,0-6.141,0Zm-13.82,0V64.891a3.071,3.071,0,0,0,6.142,0V20.215a3.071,3.071,0,1,0-6.142,0Zm0,0" transform="translate(6.965 -0.183)" fill="#a92c3d" fill-rule="evenodd"/>
  </g>
</svg>
