<svg id="sleep" xmlns="http://www.w3.org/2000/svg" width="157.939" height="130.841" viewBox="0 0 157.939 130.841">
  <path id="パス_260" data-name="パス 260" d="M239.641,99.958H252.7l-.8,1.433-1.306,2.356-11.5,20.538h19.965v-4.458H246.71l.8-1.433,1.306-2.356,11.5-20.538H239.641Z" transform="translate(-165.511 -81.33)" fill="#a92c3d"/>
  <path id="パス_261" data-name="パス 261" d="M344.642,55.458h8.884l-.8,1.433-1.337,2.356L342.7,74.818h17.45V70.36h-9.871l.8-1.4,1.337-2.388L361.137,51H344.642Z" transform="translate(-236.123 -51)" fill="#a92c3d"/>
  <rect id="長方形_133" data-name="長方形 133" width="143.929" height="11.049" transform="translate(7.006 100.591)" fill="none"/>
  <rect id="長方形_134" data-name="長方形 134" width="11.145" height="54.451" transform="translate(7.006 36.587)" fill="none"/>
  <ellipse id="楕円形_62" data-name="楕円形 62" cx="10" cy="8.5" rx="10" ry="8.5" transform="translate(27.542 72.913)" fill="none"/>
  <path id="パス_262" data-name="パス 262" d="M270.366,301.971a9.173,9.173,0,0,0-9.171-9.171H184.9v14.074h85.466Z" transform="translate(-128.57 -215.805)" fill="none"/>
  <path id="パス_263" data-name="パス 263" d="M15.005,232.964H158.934a2.555,2.555,0,0,1,2.547,2.547v9.648h4.458V207.9h-6.591a2.555,2.555,0,0,1-2.547-2.547v-4.872a16.2,16.2,0,0,0-16.176-16.176H58.12a2.487,2.487,0,0,1-1.719-.669,16.451,16.451,0,0,0-19.392-2.1,2.547,2.547,0,0,1-3.821-2.2V143.9H8V245.159h4.458v-9.648A2.555,2.555,0,0,1,15.005,232.964Zm46.777-41.65a2.555,2.555,0,0,1,2.547-2.547h76.295a11.728,11.728,0,0,1,11.718,11.718v4.872A2.555,2.555,0,0,1,149.8,207.9H64.33a2.555,2.555,0,0,1-2.547-2.547Zm-16.526-7.579a12.1,12.1,0,1,1-12.1,12.1A12.115,12.115,0,0,1,45.256,183.735Zm-32.8-32.83a2.555,2.555,0,0,1,2.547-2.547H26.15a2.555,2.555,0,0,1,2.547,2.547v54.451A2.555,2.555,0,0,1,26.15,207.9H15.005a2.555,2.555,0,0,1-2.547-2.547Zm0,64a2.555,2.555,0,0,1,2.547-2.547H158.934a2.555,2.555,0,0,1,2.547,2.547v11.049a2.555,2.555,0,0,1-2.547,2.547H15.005a2.555,2.555,0,0,1-2.547-2.547Z" transform="translate(-8 -114.318)" fill="#a92c3d"/>
</svg>
