<svg xmlns="http://www.w3.org/2000/svg" xmlns:xlink="http://www.w3.org/1999/xlink" width="734.956" height="750.44" viewBox="0 0 734.956 750.44">
  <defs>
    <clipPath id="clip-path">
      <path id="パス_623" data-name="パス 623" d="M.06.9H735.016V751.34H.06Z" transform="translate(-0.06 -0.9)"/>
    </clipPath>
  </defs>
  <g id="illust" transform="translate(-0.06 -0.9)">
    <path id="パス_620" data-name="パス 620" d="M189.413,71.919l130.8,302.253a16.671,16.671,0,0,1-8.677,21.92L199.6,444.534a16.67,16.67,0,0,1-21.92-8.679L46.877,133.6a16.67,16.67,0,0,1,8.677-21.92L167.494,63.24a16.672,16.672,0,0,1,21.92,8.679" transform="translate(39.591 53.115)" fill="#3d4f54"/>
    <g id="グループ_20" data-name="グループ 20" transform="translate(0.06 0.9)" clip-path="url(#clip-path)">
      <path id="パス_621" data-name="パス 621" d="M75.528,197.433l-.765-1.707,141.724-63.558.767,1.707L75.528,197.433" transform="translate(65.024 113.465)" fill="#c4c4c4"/>
      <path id="パス_622" data-name="パス 622" d="M370.635,563.9,199.967,509.026a21.5,21.5,0,0,1-13.886-27.052l81.041-252.067a21.5,21.5,0,0,1,27.052-13.888l170.668,54.872a21.5,21.5,0,0,1,13.89,27.051L397.687,550.008a21.5,21.5,0,0,1-27.052,13.89" transform="translate(161.103 185.615)" fill="#1e2a2d"/>
    </g>
    <g id="グループ_21" data-name="グループ 21" transform="translate(327.195 1.207)">
      <path id="パス_624" data-name="パス 624" d="M183.483,137.776s2.91,18.207,4.165,22.184,7.324,20.3,5.442,30.134-7,15.2-16.684,14.19l-.228-5.608s10.215,0,10.634-8.162-1.884-21.345-6.7-25.95c0,0-1.465-1.882-5.232-2.3V137.776h8.6" transform="translate(-174.883 118.044)" fill="#3d4f54"/>
      <path id="パス_625" data-name="パス 625" d="M313.033,31.484s-51.71-2.478-63.7-2.176-24.358.677-39.345,4.049-25.247,7.6-30.61,12.792l3.778-12.257s26.457-32.011,40.7-32.762S263.947,6,279.684,13.5s33.349,17.986,33.349,17.986" transform="translate(-170.967 -1.064)" fill="#c95c6a"/>
    </g>
    <path id="パス_626" data-name="パス 626" d="M179.378,46.149l3.778-12.257s26.457-32.011,40.7-32.762c.855-.045,1.753-.065,2.687-.065,14.622,0,38.353,5.389,53.145,12.432,15.737,7.494,33.349,17.986,33.349,17.986s-45.946-2.2-61.262-2.2c-.932,0-1.751.007-2.438.024-11.991.3-24.358.677-39.345,4.049s-25.247,7.6-30.61,12.792" transform="translate(156.228 0.144)" fill="#c95c6a"/>
    <path id="パス_627" data-name="パス 627" d="M425.656,345.949l-39.444-54.234-54.494-66.173-49.565-64.973L223.765,89.043S198.333,62.574,181.984,71.4a16.175,16.175,0,0,0-4.137,11.635l2.3,22.724c-.159-1.591,18.448,21.433,18.448,21.433l63.317,84.078L328.6,294.31s59.167,69.8,64.616,76.292,14.016,16.356,22.838,11.424a15.791,15.791,0,0,0,7.264-19.208c-1.817-4.931,2.335-16.869,2.335-16.869" transform="translate(154.861 59.851)" fill="#c95c6a"/>
    <g id="グループ_22" data-name="グループ 22" transform="translate(0.06 0.9)" clip-path="url(#clip-path)">
      <path id="パス_628" data-name="パス 628" d="M411.115,383.358c-7,0-13.473-7.492-17.9-12.756-5.449-6.488-64.616-76.292-64.616-76.292l-1.3-1.624V235.207l-45.81.442-19.581-24.38L198.593,127.19s-17.388-21.512-18.4-21.512c-.032,0-.047.019-.047.06v.019l-2.3-22.724c-.024-.352-.037-.7-.037-1.037a16.3,16.3,0,0,1,4.175-10.6,15.483,15.483,0,0,1,7.462-1.8c15.634,0,34.318,19.446,34.318,19.446l58.388,71.526,49.565,64.973,54.494,66.173,39.444,54.234s-2.794,8.033-2.8,13.643a9.584,9.584,0,0,0,.46,3.226,15.8,15.8,0,0,1,.9,5.367,15.407,15.407,0,0,1-8.164,13.842,10,10,0,0,1-4.942,1.332" transform="translate(154.801 58.951)" fill="#c95c6a"/>
      <path id="パス_629" data-name="パス 629" d="M448.921,376.577h0c-.32-2.3-.518-3.692-.518-3.692l-14.242-64.226-24.687-113.6s-15.507-68.381-20.378-80.748-41.573-56.356-55.609-67.05c-4.461-3.4-15.477-10.786-21.083-13.98h0s-37.8-22.947-64.614-28.639S210.96-3.866,187.747,23.75l-3.039,6.615S211.22,7.229,215.252,5.53,240.5,5.1,256.206,9.987c15.673,4.871,50.063,23.422,50.19,23.491,8.273,5.125,28.834,18.256,31.222,23.63,3,6.744,4.8,9.9,6.744,21.733,2.524,15.339,8.334,35.473,11.894,50.608,0,0,14.573,66.97,16.119,72.387,7.88,27.629,24.495,128.086,24.495,128.086s15.462,83.964,15.98,88.637,4.126,18.684-7.666,24.652l44.777-10.378s3.892-1.039,4.152-9.6c.211-7.01-3.746-36.264-5.191-46.654" transform="translate(160.812 -0.9)" fill="#efb6bf"/>
    </g>
    <path id="パス_631" data-name="パス 631" d="M343.386,191.3H313.03a6.106,6.106,0,0,1,0-12.212h30.355a6.106,6.106,0,1,1,0,12.212m-94.209,0a8.2,8.2,0,1,1,8.2-8.2,8.2,8.2,0,0,1-8.2,8.2m-64.049,0H154.771a6.106,6.106,0,1,1,0-12.212h30.357a6.106,6.106,0,0,1,0,12.212M90.853,571.178H402.608V159.71H90.853Z" transform="translate(79.102 138.361)" fill="#fffffe"/>
    <path id="パス_632" data-name="パス 632" d="M93.621,410.163c2.73-18.795,22.895-30.851,41.867-31.708s37.2,6.491,55.246,12.423,37.848,10.505,55.767,4.21c22.672-7.966,36.044-30.787,54.262-46.459,27.363-23.536,68.122-30.254,101.593-16.74v95.3H90.853l2.768-17.023" transform="translate(79.102 282.355)" fill="#c95c6a"/>
    <path id="パス_633" data-name="パス 633" d="M149.635,344.7H253.717v5.526H149.635Z" transform="translate(130.315 299.533)" fill="#1e2a2d"/>
    <path id="パス_634" data-name="パス 634" d="M131.2,351.648H304.283v5.528H131.2Z" transform="translate(114.251 305.584)" fill="#1e2a2d"/>
    <path id="パス_635" data-name="パス 635" d="M361.076,264.538c-16.718,0-33.46-5.5-46.206-16.362-16.413-13.986-26.274-35.252-44.829-46.24-11.139-6.6-24.163-8.694-37.247-8.694-4.637,0-9.285.264-13.855.685-15.054,1.383-30.073,4.281-45.138,4.281-2.408,0-4.82-.073-7.23-.24-26.235-1.809-59.365-16.263-75.718-36.856L403.059,158.1v93.107l-.03.022c-.279.206-.558.408-.84.61a70.87,70.87,0,0,1-41.113,12.7M306.925,186.6h0a6.106,6.106,0,0,0,6.106,6.106h30.355a6.106,6.106,0,1,0,0-12.212H313.03a6.106,6.106,0,0,0-6.106,6.106m-65.948-2.094h0a8.2,8.2,0,1,0,8.2-8.2,8.2,8.2,0,0,0-8.2,8.2M148.665,186.6h0a6.106,6.106,0,0,0,6.106,6.106h30.357a6.106,6.106,0,0,0,0-12.212H154.771a6.106,6.106,0,0,0-6.106,6.106" transform="translate(79.102 136.958)" fill="#efb6bf"/>
    <path id="パス_636" data-name="パス 636" d="M177.953,122.215a12.09,12.09,0,1,0,0,24.18h24.786a12.09,12.09,0,1,0,0-24.18Zm24.786,31.665H177.953a19.575,19.575,0,1,1,0-39.15h24.786a19.575,19.575,0,1,1,0,39.15" transform="translate(137.932 99.173)" fill="#1e2a2d"/>
    <path id="パス_637" data-name="パス 637" d="M176.626,137.776s-2.908,18.207-4.165,22.184-7.324,20.3-5.442,30.134,7,15.2,16.684,14.19l.228-5.608s-10.213,0-10.632-8.162,1.882-21.345,6.7-25.95c0,0,1.463-1.882,5.23-2.3V137.776h-8.6" transform="translate(145.148 119.251)" fill="#3d4f54"/>
    <path id="パス_638" data-name="パス 638" d="M170.27,130.72V141.8h2.236v4.135H187.4V142.38h2.3V130.72H170.27" transform="translate(148.293 113.104)" fill="#1e2a2d"/>
    <path id="パス_639" data-name="パス 639" d="M171.829,128.567h13.059v6.62H171.829Z" transform="translate(149.651 111.228)" fill="#1e2a2d"/>
    <path id="パス_640" data-name="パス 640" d="M167.638,221.806,165.05,132.2s-.786-26.223.124-47.223c.582-13.437,2.2-23.093,8.87-32.028C181.558,42.881,217.4,6.835,217.4,6.835s-12.8,27.6-13.074,43.37c-.333,19.266.249,31.446.846,54.889.365,14.36,1.766,31.063,2.2,41.448.574,13.653,1.763,45.119,1.763,45.119v30.146h-41.5" transform="translate(143.47 5.171)" fill="#efb6bf"/>
    <g id="icon" transform="translate(239.058 417.415)">
      <path id="パス_12" data-name="パス 12" d="M132.785,103.172H126.33A58.425,58.425,0,0,1,50.51,127.68q-1.171-.55-2.33-1.138c-.9-.478-1.809-.953-2.692-1.476a58.631,58.631,0,0,1-8.669-6.275c-1.012-.88-2-1.791-2.95-2.744-.676-.672-1.327-1.362-1.961-2.063-.237-.26-.466-.53-.7-.795-.381-.431-.757-.866-1.121-1.31-.291-.352-.572-.707-.854-1.069s-.553-.7-.821-1.062c-.322-.428-.639-.856-.946-1.289-.184-.258-.36-.52-.539-.783a58.884,58.884,0,0,1-4.7-8.231c-.587-1.261-1.152-2.536-1.653-3.848A58.581,58.581,0,0,1,46.747,23.551V17.094a64.3,64.3,0,0,0-31.5,80.548c.542,1.417,1.154,2.8,1.788,4.173l-5.171,2.41a69.443,69.443,0,0,0,10.405,16.087l4.329-3.728h0l-.014.014c.1.116.211.22.31.336q1.2,1.366,2.474,2.673c.121.118.232.244.35.362.035.038.073.078.111.116.986.986,2,1.933,3.044,2.855.019.017.038.035.062.054.125.111.253.222.378.331l.014-.012-3.721,4.324A69.931,69.931,0,0,0,39.674,134.9c1.959,1.157,3.976,2.178,6.027,3.134l2.41-5.171a64.14,64.14,0,0,0,84.673-29.688" transform="translate(15.044 23.34)" fill="#787978"/>
      <path id="パス_13" data-name="パス 13" d="M64.259,45.055a58.256,58.256,0,0,1-2.827,11.38l6.027,0a64.057,64.057,0,0,0,2.564-11.373Z" transform="translate(83.877 61.517)" fill="#787978"/>
      <path id="パス_14" data-name="パス 14" d="M180.281,101.945h-9.566A80.877,80.877,0,0,1,33.1,150.57,80.879,80.879,0,0,1,81.728,12.956l0-9.566A90.4,90.4,0,0,0,0,89.1H4.759v0q-.106,2.129-.106,4.286t.106,4.286v0H0a90.392,90.392,0,0,0,86.012,86.007v-4.759h0c1.419.071,2.85.1,4.284.109s2.867-.038,4.291-.109h-.009l0,4.759a90.393,90.393,0,0,0,85.7-81.726" transform="translate(0 4.629)" fill="#787978"/>
      <path id="パス_15" data-name="パス 15" d="M41.119,14.541a63.857,63.857,0,0,0-11.377,2.545v6.022a58.011,58.011,0,0,1,11.377-2.8Z" transform="translate(40.609 19.854)" fill="#787978"/>
      <path id="パス_16" data-name="パス 16" d="M107.89,75.34l-9.786,0A35.206,35.206,0,1,1,55.419,32.657l0-9.783A44.725,44.725,0,1,0,107.89,75.34" transform="translate(26.306 31.231)" fill="#787978"/>
      <path id="パス_17" data-name="パス 17" d="M107.476,28.7A97.363,97.363,0,0,0,38.175,0l0,17.13a80.872,80.872,0,0,1,80.879,80.877h17.13a97.37,97.37,0,0,0-28.706-69.3" transform="translate(52.12)" fill="#a92c3d"/>
      <path id="パス_18" data-name="パス 18" d="M38.173,11.264V26.49a56.131,56.131,0,0,1,56.14,56.137l15.223,0A71.366,71.366,0,0,0,38.173,11.264" transform="translate(52.12 15.379)" fill="#a92c3d"/>
      <path id="パス_19" data-name="パス 19" d="M71.141,35.38A46.337,46.337,0,0,0,38.173,21.722V35.046a33.309,33.309,0,0,1,33.307,33.3l0,0,13.319,0h0A46.321,46.321,0,0,0,71.141,35.38" transform="translate(52.12 29.659)" fill="#a92c3d"/>
      <path id="パス_20" data-name="パス 20" d="M74.192,54.618A22.838,22.838,0,1,1,51.357,31.78,22.843,22.843,0,0,1,74.192,54.618" transform="translate(38.936 43.391)" fill="#a92c3d"/>
    </g>
  </g>
</svg>
