<svg xmlns="http://www.w3.org/2000/svg" width="688.085" height="519.402" viewBox="0 0 688.085 519.402">
  <g id="グループ_282" data-name="グループ 282" transform="translate(-159.507 -10643.091)">
    <path id="パス_593" data-name="パス 593" d="M321.556,71.465c19.777-17.624,50.829-21.2,79.087-19.815,88.769,4.414,168.9,47.263,238.2,95.734,25.09,17.547,49.795,36.456,66.082,60.621,33.154,49.2,23.323,117.342-22.783,157.865-15.684,13.788-34.7,24.358-54.222,33.732-34.7,16.66-72.16,30.031-111.553,33.841-28.1,2.711-56.541.508-84.465-3.283-78.039-10.576-154.62-34-218.814-74.011-28.155-17.56-54.7-39.386-66.3-67.8s-4.176-64.38,24.6-81.213c11.893-6.952,26.112-10.094,40.028-13.043,20.49-4.343,41.307-8.622,59.792-17.444,19.1-9.117,41.712-26.748,37.908-46.9C305.037,108.082,301.825,89.044,321.556,71.465Z" transform="translate(17.956 10690.62)" fill="#a92c3d" opacity="0.1"/>
    <g id="undraw_mobile_ux_o0e1" transform="translate(323.404 10643.091)">
      <path id="パス_880" data-name="パス 880" d="M64.005,690.9H51.827L40.809,613.772,32.69,569.118l29-6.379.29,40.014Z" transform="translate(-10.653 -183.387)" fill="#9f616a"/>
      <path id="パス_881" data-name="パス 881" d="M121.513,690.9H108.175L97.156,613.772l-8.119-44.653,29-6.379.29,40.014Z" transform="translate(-29.016 -183.387)" fill="#9f616a"/>
      <path id="パス_882" data-name="パス 882" d="M105.219,589.542l-34.8,6.379-5.8-10.438-1.159,9.858L30.409,596.5l-1.16-80.609,66.111-3.48Z" transform="translate(-9.532 -166.987)" fill="#2f2e41"/>
      <path id="パス_883" data-name="パス 883" d="M354.643,826.028H327.983a4.084,4.084,0,0,1-4.084-4.084v-7.791a3.392,3.392,0,0,1,3.392-3.392c3.246,3.177,6.986,2.926,11.112,0l.2-1.139a3.222,3.222,0,0,1,5.185-1.956L351,813.433l1.974-.512a6.66,6.66,0,0,1,8.332,6.447h0a6.66,6.66,0,0,1-6.659,6.66Z" transform="translate(-247.929 -306.626)" fill="#2f2e41"/>
      <path id="パス_884" data-name="パス 884" d="M297.006,826.028h-26.66a4.084,4.084,0,0,1-4.084-4.084v-7.791a3.392,3.392,0,0,1,3.392-3.392c3.246,3.177,6.986,2.926,11.112,0l.2-1.139a3.222,3.222,0,0,1,5.186-1.956l7.209,5.767,1.974-.512a6.66,6.66,0,0,1,8.332,6.447h0a6.66,6.66,0,0,1-6.66,6.66Z" transform="translate(-229.146 -306.626)" fill="#2f2e41"/>
      <circle id="楕円形_183" data-name="楕円形 183" cx="21.457" cy="21.457" r="21.457" transform="translate(50.453 153.474)" fill="#9f616a"/>
      <path id="パス_885" data-name="パス 885" d="M78.215,294.871,58.5,289.651,72.416,259.5l18.558,13.338Z" transform="translate(-19.064 -84.565)" fill="#9f616a"/>
      <path id="パス_886" data-name="パス 886" d="M299.351,511.236c-17.434-9.286-29.507-3.585-45.163,7.651-12.194,8.751-29.4-.957-42.984-3.592l10.515-119.784A48.583,48.583,0,0,1,255.278,353.5h0l19.137,8.7c8.826,12.567,11.64,38.9,16.238,69.59C294.618,458.262,296.039,481.962,299.351,511.236Z" transform="translate(-211.204 -158.851)" fill="#a92c3d"/>
      <path id="パス_887" data-name="パス 887" d="M296.417,521.931l2.694,14.482a10.163,10.163,0,0,1-8.587,11.924h0a10.162,10.162,0,0,1-11.338-12.208l3.313-15.358L266.261,457.56l2.32-22.617,23.2-.58c2.207,6.655,1.417,13.637-1.74,20.877Z" transform="translate(-229.146 -185.203)" fill="#9f616a"/>
      <path id="パス_888" data-name="パス 888" d="M293.126,310.5a26.782,26.782,0,0,1,5.051.7,12.784,12.784,0,0,0,13.664-9.531,7.313,7.313,0,0,1,.7-2.277c.93-1.519,3.048-1.808,4.794-1.459s3.4,1.166,5.18,1.26a7.931,7.931,0,0,0,6.845-3.874,13.138,13.138,0,0,0,1.68-7.934l-1.316,1.381a6.686,6.686,0,0,1-.6-3.634,4.216,4.216,0,0,0-3.994,1.022c-1.161.124-.285-2.153-1.147-2.939a2,2,0,0,0-1.4-.263c-2.469.024-4.466-1.865-6.412-3.385a27.248,27.248,0,0,0-11.508-5.249,15.141,15.141,0,0,0-8.4.407,17.939,17.939,0,0,0-5.671,4.022c-4.14,3.981-7.805,8.658-9.527,14.136a23.8,23.8,0,0,0-.114,13.8c.694,2.342,2.785,10.363,5.847,10.55C290.648,317.469,288.338,310.79,293.126,310.5Z" transform="translate(-233.619 -132.919)" fill="#2f2e41"/>
      <path id="パス_889" data-name="パス 889" d="M296.194,426.318c-11.48-8.516-23.443-10.185-35.955-4.059l4.969-33.125a15.579,15.579,0,0,1,15.407-13.268h0a15.579,15.579,0,0,1,15.579,15.579Z" transform="translate(-227.184 -166.14)" fill="#a92c3d"/>
      <path id="パス_890" data-name="パス 890" d="M790.411,241.656l-2.556-.856,23.457-70.022a42.74,42.74,0,0,0-26.951-54.1h0L636.01,66.979a42.74,42.74,0,0,0-54.1,26.951h0L453.222,478.075a42.74,42.74,0,0,0,26.951,54.1h0l148.351,49.7a42.74,42.74,0,0,0,54.1-26.951h0l88.531-264.281,2.556.856Z" transform="translate(-289.349 -64.754)" fill="#3f3d56"/>
      <path id="パス_891" data-name="パス 891" d="M788.187,133.285,768.823,126.8a15.164,15.164,0,0,1-19.949,15.35l-84.989-28.47a15.164,15.164,0,0,1-6.677-24.269L639.122,83.35a31.918,31.918,0,0,0-40.4,20.126l-128.5,383.582a31.918,31.918,0,0,0,20.127,40.4h0L639.415,577.4a31.918,31.918,0,0,0,40.4-20.126h0l128.5-383.582a31.918,31.918,0,0,0-20.126-40.4Z" transform="translate(-295.072 -70.272)" fill="#fff"/>
      <path id="パス_892" data-name="パス 892" d="M809.473,301.362l-159.082-53.29a3.11,3.11,0,0,1-1.959-3.933l13.219-39.461a3.111,3.111,0,0,1,3.933-1.959l159.082,53.29a3.11,3.11,0,0,1,1.959,3.933L813.406,299.4a3.111,3.111,0,0,1-3.933,1.959ZM665.189,203.9a1.866,1.866,0,0,0-2.36,1.175l-13.219,39.461a1.866,1.866,0,0,0,1.175,2.36l159.081,53.291a1.866,1.866,0,0,0,2.36-1.175l13.219-39.461a1.866,1.866,0,0,0-1.175-2.36Z" transform="translate(-353.637 -109.662)" fill="#3f3d56"/>
      <path id="パス_893" data-name="パス 893" d="M731.885,516.742,572.8,463.451a3.111,3.111,0,0,1-1.959-3.933l24.469-73.045a3.11,3.11,0,0,1,3.933-1.959L758.328,437.8a3.111,3.111,0,0,1,1.959,3.933l-24.469,73.045A3.111,3.111,0,0,1,731.885,516.742ZM598.852,385.692a1.866,1.866,0,0,0-2.36,1.175l-24.469,73.045a1.866,1.866,0,0,0,1.175,2.36L732.28,515.563a1.866,1.866,0,0,0,2.36-1.175l24.469-73.045a1.866,1.866,0,0,0-1.175-2.36Z" transform="translate(-328.352 -168.906)" fill="#3f3d56"/>
      <path id="パス_894" data-name="パス 894" d="M820,405.987,749.3,382.3a3.111,3.111,0,0,1-1.959-3.933l13.22-39.461a3.111,3.111,0,0,1,3.933-1.959l70.7,23.685a3.11,3.11,0,0,1,1.959,3.933l-13.219,39.461A3.111,3.111,0,0,1,820,405.987Zm-55.905-67.86a1.866,1.866,0,0,0-2.36,1.175l-13.219,39.462a1.866,1.866,0,0,0,1.175,2.36l70.7,23.685a1.866,1.866,0,0,0,2.36-1.175l13.219-39.461a1.866,1.866,0,0,0-1.175-2.36Z" transform="translate(-385.868 -153.405)" fill="#e6e6e6"/>
      <path id="パス_895" data-name="パス 895" d="M596.075,628.442l-70.7-23.684a3.11,3.11,0,0,1-1.959-3.933L548.08,527.19a3.11,3.11,0,0,1,3.933-1.959l70.7,23.685a3.111,3.111,0,0,1,1.959,3.933l-24.667,73.634A3.111,3.111,0,0,1,596.075,628.442ZM551.618,526.409a1.866,1.866,0,0,0-2.36,1.175l-24.667,73.634a1.866,1.866,0,0,0,1.175,2.36l70.7,23.685a1.866,1.866,0,0,0,2.36-1.175L623.5,552.453a1.866,1.866,0,0,0-1.175-2.36Z" transform="translate(-312.895 -214.763)" fill="#e6e6e6"/>
      <path id="パス_896" data-name="パス 896" d="M725.43,671.775l-70.7-23.685a3.111,3.111,0,0,1-1.959-3.933l24.667-73.634a3.111,3.111,0,0,1,3.933-1.959l70.7,23.685a3.11,3.11,0,0,1,1.959,3.933l-24.667,73.634a3.11,3.11,0,0,1-3.933,1.96ZM680.972,569.742a1.866,1.866,0,0,0-2.36,1.176l-24.667,73.634a1.866,1.866,0,0,0,1.175,2.36l70.7,23.685a1.866,1.866,0,0,0,2.36-1.175l24.667-73.634a1.866,1.866,0,0,0-1.175-2.36Z" transform="translate(-355.05 -228.884)" fill="#e6e6e6"/>
      <circle id="楕円形_184" data-name="楕円形 184" cx="12.656" cy="12.656" r="12.656" transform="translate(273.11 236.714)" fill="#a92c3d"/>
      <path id="パス_897" data-name="パス 897" d="M678.859,436.526a2.109,2.109,0,1,0-1.34,4l94.288,31.585a2.109,2.109,0,1,0,1.34-4Z" transform="translate(-362.699 -185.872)" fill="#e6e6e6"/>
      <path id="パス_898" data-name="パス 898" d="M672.9,454.327a2.109,2.109,0,1,0-1.34,4l40.572,13.591a2.109,2.109,0,1,0,1.34-4Z" transform="translate(-360.756 -191.673)" fill="#e6e6e6"/>
      <path id="パス_899" data-name="パス 899" d="M608.242,464.395c-1.521-.51-3.06-.027-3.429,1.076s.568,2.415,2.089,2.924l130.088,43.578c1.521.51,3.06.027,3.429-1.076s-.568-2.415-2.089-2.924Z" transform="translate(-339.448 -194.924)" fill="#e6e6e6"/>
      <path id="パス_900" data-name="パス 900" d="M602.279,482.2c-1.521-.51-3.06-.027-3.429,1.076s.568,2.415,2.089,2.924l130.088,43.578c1.521.51,3.06.027,3.429-1.076s-.568-2.415-2.089-2.924Z" transform="translate(-337.505 -200.725)" fill="#e6e6e6"/>
      <circle id="楕円形_185" data-name="楕円形 185" cx="12.656" cy="12.656" r="12.656" transform="translate(316.921 109.844)" fill="#a92c3d"/>
      <path id="パス_901" data-name="パス 901" d="M743.849,248.323a2.109,2.109,0,1,0-1.34,4L836.8,283.908a2.109,2.109,0,1,0,1.34-4Z" transform="translate(-383.878 -124.54)" fill="#e6e6e6"/>
      <path id="パス_902" data-name="パス 902" d="M737.886,266.125a2.109,2.109,0,1,0-1.34,4l40.572,13.591a2.109,2.109,0,1,0,1.34-4Z" transform="translate(-381.935 -130.341)" fill="#e6e6e6"/>
      <path id="パス_903" data-name="パス 903" d="M693.69,374.193l-66.326-22.218,24.665-21.807a3.361,3.361,0,0,1,5.521,1.849l2.8,13.783,17.916-15.839a4.209,4.209,0,0,1,6.912,2.315ZM629.8,351.48l62.244,20.851-8.085-39.807a2.965,2.965,0,0,0-4.871-1.632L659.56,348.157l-3.228-15.892a2.118,2.118,0,0,0-3.479-1.166Z" transform="translate(-346.824 -150.836)" fill="#e6e6e6"/>
      <path id="パス_904" data-name="パス 904" d="M819.549,416.354l-66.326-22.218,24.665-21.807a3.361,3.361,0,0,1,5.521,1.849l2.8,13.783,17.916-15.839a4.209,4.209,0,0,1,6.912,2.315Zm-63.89-22.713L817.9,414.492l-8.085-39.807a2.965,2.965,0,0,0-4.871-1.632l-19.529,17.265-3.228-15.892a2.118,2.118,0,0,0-3.479-1.166Z" transform="translate(-387.839 -164.576)" fill="#e6e6e6"/>
      <path id="パス_905" data-name="パス 905" d="M690.645,362.654l-70.7-23.684a3.111,3.111,0,0,1-1.959-3.933L631.2,295.575a3.111,3.111,0,0,1,3.933-1.959l70.7,23.685a3.11,3.11,0,0,1,1.959,3.933l-13.219,39.461A3.111,3.111,0,0,1,690.645,362.654Zm-55.9-67.86a1.866,1.866,0,0,0-2.36,1.175l-13.219,39.461a1.866,1.866,0,0,0,1.175,2.36l70.7,23.685a1.866,1.866,0,0,0,2.36-1.175l13.219-39.461a1.866,1.866,0,0,0-1.175-2.36Z" transform="translate(-343.714 -139.284)" fill="#e6e6e6"/>
      <path id="パス_906" data-name="パス 906" d="M579.374,555.267a2.109,2.109,0,1,0-1.34,4l40.572,13.591a2.109,2.109,0,1,0,1.34-4Z" transform="translate(-330.279 -224.568)" fill="#e6e6e6"/>
      <path id="パス_907" data-name="パス 907" d="M573.518,572.748a2.109,2.109,0,1,0-1.34,4l40.572,13.591a2.109,2.109,0,1,0,1.34-4Z" transform="translate(-328.37 -230.265)" fill="#e6e6e6"/>
      <path id="パス_908" data-name="パス 908" d="M582,625.815a13.277,13.277,0,1,1,16.807-8.372A13.277,13.277,0,0,1,582,625.815Zm8.04-24a12.034,12.034,0,1,0,7.588,15.234,12.034,12.034,0,0,0-7.588-15.234Z" transform="translate(-329.087 -239.164)" fill="#e6e6e6"/>
      <path id="パス_909" data-name="パス 909" d="M725.521,683.178a2.109,2.109,0,0,0,1.34-4l-40.572-13.591a2.109,2.109,0,0,0-1.34,4Z" transform="translate(-365.12 -260.519)" fill="#e6e6e6"/>
      <path id="パス_910" data-name="パス 910" d="M731.377,665.7a2.109,2.109,0,1,0,1.34-4l-40.572-13.591a2.109,2.109,0,1,0-1.34,4Z" transform="translate(-367.029 -254.823)" fill="#e6e6e6"/>
      <path id="パス_911" data-name="パス 911" d="M731.707,608.4a13.277,13.277,0,1,1-16.807,8.372A13.277,13.277,0,0,1,731.707,608.4Zm-8.04,24a12.034,12.034,0,1,0-7.588-15.234A12.034,12.034,0,0,0,723.667,632.4Z" transform="translate(-375.125 -241.695)" fill="#e6e6e6"/>
    </g>
  </g>
</svg>
