<svg xmlns="http://www.w3.org/2000/svg" xmlns:xlink="http://www.w3.org/1999/xlink" width="793.076" height="672.072" viewBox="0 0 793.076 672.072">
  <defs>
    <clipPath id="clip-path">
      <rect id="長方形_244" data-name="長方形 244" width="126.37" height="126.37" transform="translate(0 0)" fill="#a92c3d" stroke="#707070" stroke-width="1"/>
    </clipPath>
  </defs>
  <g id="グループ_277" data-name="グループ 277" transform="translate(-955.924 -9750.28)">
    <g id="undraw_shared_goals_3d12" transform="translate(955.924 9940.354)">
      <path id="パス_560" data-name="パス 560" d="M792.711,522.185H0v-2.013H793.076Z" transform="translate(0 -40.186)" fill="#3f3d56"/>
      <path id="パス_561" data-name="パス 561" d="M911.337,363.22l-20.06,39.712L831.3,430.2c-6.405,10.825-26.759,11.653-28.239,4.653C801.4,427,827.776,414.36,827.776,414.36l50.167-33.933,4.39-29.211Z" transform="translate(-219.144 -201.369)" fill="#a0616a"/>
      <path id="パス_562" data-name="パス 562" d="M745.909,464.215l3.7,29.6-21.457,1.48-2.219-31.075Z" transform="translate(-56.083 -35.863)" fill="#a0616a"/>
      <path id="パス_563" data-name="パス 563" d="M909.957,679.121a58.1,58.1,0,0,0,5.295-6.475c3.075-4.255,5.8,17.573,5.8,17.573s2.959,8.879,2.22,13.318-17.757,4.439-20.717,3.7-17.757,0-17.757,0H862.6c-19.237-8.879,0-14.8,0-14.8,5.919-.74,25.9-19.237,25.9-19.237l4.439-8.139c2.959-.74,5.919,10.358,5.919,10.358Z" transform="translate(-223.089 -225.613)" fill="#2f2e41"/>
      <path id="パス_564" data-name="パス 564" d="M806.045,464.616l3.7,29.6-21.457,1.48-2.22-31.075Z" transform="translate(-60.729 -35.894)" fill="#a0616a"/>
      <path id="パス_565" data-name="パス 565" d="M970.093,679.522a58.1,58.1,0,0,0,5.295-6.475c3.075-4.255,5.8,17.573,5.8,17.573s2.96,8.139,2.22,12.578-17.757,4.439-20.716,3.7-17.757.74-17.757.74h-22.2c-19.237-8.879,0-14.8,0-14.8,5.919-.74,25.9-19.237,25.9-19.237l4.439-8.139c2.959-.74,5.919,10.358,5.919,10.358Z" transform="translate(-227.735 -225.644)" fill="#2f2e41"/>
      <path id="パス_566" data-name="パス 566" d="M944.521,446.432c2.96,3.7,1.48,16.277,1.48,16.277S951.18,503.4,948.96,507.1s1.48,6.659,3.7,11.838S957.1,536.7,957.1,536.7c12.578,10.358,11.838,57.71,11.838,57.71l4.439,42.173c-1.48,4.439-22.2,5.179-25.156,4.439s-11.838-67.329-11.838-67.329l-19.977-37.734s1.48,100.623,1.48,105.063-19.976,2.22-24.416,2.22-4.439-73.988-4.439-73.988l-4.44-19.237-23.676-88.045V451.612l3.7-5.179S941.561,442.733,944.521,446.432Z" transform="translate(-223.619 -208.598)" fill="#2f2e41"/>
      <circle id="楕円形_107" data-name="楕円形 107" cx="22.936" cy="22.936" r="22.936" transform="translate(665.41 24.01)" fill="#a0616a"/>
      <path id="パス_567" data-name="パス 567" d="M903.193,251.326c4.649,10.353,1.9,24.813-7.4,40.693l37.734-17.757-5.919-5.179,1.48-14.8Z" transform="translate(-226.314 -193.652)" fill="#a0616a"/>
      <path id="パス_568" data-name="パス 568" d="M900.529,276.489c-4.941,2.938-7.9,8.335-9.594,13.828a131.033,131.033,0,0,0-5.631,31.308l-1.792,31.812-22.2,84.346c19.237,16.277,30.335,12.578,56.231-.74s28.855,4.439,28.855,4.439,2.22-.74,0-2.96,0,0,2.22-2.22,0,0-.74-2.22,0-.74.74-1.48-2.959-7.4-2.959-7.4l5.919-55.491,7.4-78.427c-8.879-11.1-34.034-20.716-34.034-20.716l-22.936,16.277c-7.4,2.959-1.48-8.879-1.48-8.879Z" transform="translate(-223.65 -195.139)" fill="#a92c3d"/>
      <path id="パス_569" data-name="パス 569" d="M976.258,343.937l2.96,44.393-37.734,54.011c0,12.578-6.659,15.537-6.659,15.537a97.788,97.788,0,0,1-6.659-12.578c-3.7-8.139,2.22-14.8,2.22-14.8l25.9-54.751-11.1-27.375Z" transform="translate(-228.721 -200.807)" fill="#a0616a"/>
      <path id="パス_570" data-name="パス 570" d="M964.491,293.294c12.578,4.439,14.8,52.531,14.8,52.531-14.8-8.139-32.555,5.179-32.555,5.179s-3.7-12.578-8.139-28.855a28.277,28.277,0,0,1,5.919-26.636S951.914,288.855,964.491,293.294Z" transform="translate(-229.533 -196.776)" fill="#a92c3d"/>
      <path id="パス_571" data-name="パス 571" d="M935.371,244.059c-2.92-2.336-6.9,1.91-6.9,1.91l-2.336-21.023s-14.6,1.752-23.943-.584-10.8,8.468-10.8,8.468a74.982,74.982,0,0,1-.292-13.139c.584-5.256,8.176-10.512,21.607-14.015s20.439,11.68,20.439,11.68C942.484,222.027,938.292,246.4,935.371,244.059Z" transform="translate(-225.938 -190.085)" fill="#2f2e41"/>
      <path id="パス_572" data-name="パス 572" d="M210.665,571.559c2.522,10.01,24.025,32.522,46.212,53.661-34.215-84.511-14.718-177-14.718-177-6.353,36.325,80.715,219.124,80.715,219.124l-19.831,11.694-6.7,9.427C229.187,657.621,210.665,571.559,210.665,571.559Z" transform="translate(-173.384 -208.863)" fill="#e6e6e6"/>
      <rect id="長方形_235" data-name="長方形 235" width="280.487" height="55.378" transform="translate(335.405 175.296)" fill="#e6e6e6"/>
      <rect id="長方形_236" data-name="長方形 236" width="280.487" height="55.378" transform="translate(335.405 87.792)" fill="#e6e6e6"/>
      <rect id="長方形_237" data-name="長方形 237" width="280.487" height="55.378" transform="translate(335.405)" fill="#e6e6e6"/>
      <path id="パス_573" data-name="パス 573" d="M540.23,238.723H808.759V195.3H540.23Z" transform="translate(-198.844 -189.324)" fill="#fff"/>
      <path id="パス_574" data-name="パス 574" d="M540.23,334.074H808.759V290.655H540.23Z" transform="translate(-198.844 -196.69)" fill="#fff"/>
      <path id="パス_575" data-name="パス 575" d="M540.23,428.695H808.758V385.276H540.23Z" transform="translate(-198.844 -204)" fill="#fff"/>
      <circle id="楕円形_108" data-name="楕円形 108" cx="16.542" cy="16.542" r="16.542" transform="translate(348.351 10.788)" fill="#a92c3d"/>
      <rect id="長方形_238" data-name="長方形 238" width="163.258" height="3.596" transform="translate(404.449 20.857)" fill="#a92c3d"/>
      <rect id="長方形_239" data-name="長方形 239" width="163.258" height="3.596" transform="translate(404.449 30.206)" fill="#a92c3d"/>
      <circle id="楕円形_109" data-name="楕円形 109" cx="16.542" cy="16.542" r="16.542" transform="translate(348.351 99.299)" fill="#ccc"/>
      <rect id="長方形_240" data-name="長方形 240" width="163.258" height="3.596" transform="translate(404.449 109.368)" fill="#ccc"/>
      <rect id="長方形_241" data-name="長方形 241" width="163.258" height="3.596" transform="translate(404.449 118.717)" fill="#ccc"/>
      <circle id="楕円形_110" data-name="楕円形 110" cx="16.542" cy="16.542" r="16.542" transform="translate(348.351 186.803)" fill="#ccc"/>
      <rect id="長方形_242" data-name="長方形 242" width="163.258" height="3.596" transform="translate(404.449 196.872)" fill="#ccc"/>
      <rect id="長方形_243" data-name="長方形 243" width="163.258" height="3.596" transform="translate(404.449 206.221)" fill="#ccc"/>
      <path id="パス_576" data-name="パス 576" d="M309.607,361.377s-3.867,24.309,12.155,22.1c0,0,63.536-14.365,66.851-11.05s23.923,4.443,22.848-9.532c-1.079-14.023-21.743-5.938-21.743-5.938s-32.044,4.42-38.674,1.1-25.414-2.21-25.414-2.21Z" transform="translate(-180.996 -201.633)" fill="#a0616a"/>
      <path id="パス_577" data-name="パス 577" d="M358.3,447.853l-8.81,83.588s-2.762,33.149-11.05,40.331c0,0,0,10.5-2.762,13.812l-3.867,43.646s5.525,16.022,4.972,18.784,2.21,11.6,1.657,12.707-26.519,0-26.519,0l5.525-88.95,17.127-123.757Z" transform="translate(-181.206 -208.835)" fill="#2f2e41"/>
      <path id="パス_578" data-name="パス 578" d="M309.12,673.448s-11.587,29.219-5.541,32.745S373.1,707.2,373.1,707.2s10.579-6.549-1.511-11.083c0,0-10.075-.5-16.624-4.534S340.858,680,340.858,680s-.5-11.083-4.534-8.564a10.353,10.353,0,0,0-4.534,7.053Z" transform="translate(-180.427 -226.079)" fill="#2f2e41"/>
      <path id="パス_579" data-name="パス 579" d="M289.7,669.136s-12.707,32.044-6.077,35.911,76.243,1.1,76.243,1.1,11.6-7.182-1.657-12.155c0,0-11.05-.552-18.232-4.972s-15.469-12.708-15.469-12.708-.552-12.155-4.972-9.392a11.354,11.354,0,0,0-4.972,7.735Z" transform="translate(-178.872 -225.728)" fill="#2f2e41"/>
      <path id="パス_580" data-name="パス 580" d="M341.011,445.42s-6.077,56.906-8.84,69.061a157.132,157.132,0,0,0-3.315,24.309s-.552,17.68-5.525,22.652a14.933,14.933,0,0,0-4.42,11.05s-4.972,55.8-2.21,62.431,6.513,15.243,3.75,19.663-34.137,1.331-34.137-1.983,0-6.077-1.657-7.735,0-12.155,0-12.155-6.63-49.171-.552-63.536,8.84-53.591,8.84-53.591-4.42-44.751-9.945-51.933,1.105-32.6,1.105-32.6Z" transform="translate(-178.802 -207.537)" fill="#2f2e41"/>
      <path id="パス_581" data-name="パス 581" d="M329.2,253.779c.642,1.463,2.18,2.278,3.579,3.049,8.112,4.469,14.9,10.948,21.591,17.352a25.346,25.346,0,0,1,1.006-17.141c.8-1.85,1.845-3.838,1.275-5.77a7.183,7.183,0,0,0-2.8-3.352,86.864,86.864,0,0,0-8.544-5.829c-2.069-1.238-6.322-4.532-8.7-4.174-.125,3.207-.19,6.075-1.594,9.073C334.677,247.7,329.44,254.34,329.2,253.779Z" transform="translate(-182.541 -192.614)" fill="#a0616a"/>
      <circle id="楕円形_111" data-name="楕円形 111" cx="22.652" cy="22.652" r="22.652" transform="translate(152.264 22.967)" fill="#a0616a"/>
      <path id="パス_582" data-name="パス 582" d="M354.274,292.962s3.867-19.337-7.182-25.967-23.757-14.365-23.757-14.365-3.867-.552-5.525,7.735c0,0-31.492,6.077-34.807,35.912s2.21,73.48,2.21,73.48-4.972,38.121-11.05,58.563c0,0-4.972,4.42,17.127-2.21S352.064,444.9,352.064,444.9s3.867-3.867,3.867-6.63,8.287-86.74,9.945-94.475S359.245,294.067,354.274,292.962Z" transform="translate(-178.252 -193.752)" fill="#e6e6e6"/>
      <path id="パス_583" data-name="パス 583" d="M351.978,237.625a9.446,9.446,0,0,1,4.443-1.183,8.454,8.454,0,0,0,4.395-1.309c2.14-1.643,2.3-4.817,3.862-7.014,2.266-3.181,6.787-3.564,10.69-3.4,2.387.1,4.957.24,6.967-1.051,2.063-1.325,3-3.822,3.694-6.174.823-2.781,1.355-6.181-.684-8.244-1.416-1.432-3.65-1.715-5.223-2.973-.851-.681-12.1-3.414-22.664-5.872a22.076,22.076,0,0,0-25.749,13.974c-2.439,6.706-4.529,13.008-4.313,14.369,1.033,6.514,6.793,11.692,7.19,18.275a11.219,11.219,0,0,1,6.848-8.142,2.143,2.143,0,0,1,1.4-.169c.572.183.907.755,1.268,1.235.946,1.258,3.919,3.167,5.6,2.275C351.208,241.419,350.082,238.911,351.978,237.625Z" transform="translate(-182.4 -189.673)" fill="#3f3d56"/>
      <path id="パス_584" data-name="パス 584" d="M365.2,366.08a2.52,2.52,0,0,0-.052,3.546l15.928,16.486a2.514,2.514,0,0,0,3.582.035l48.6-48.394a2.514,2.514,0,0,0-.4-3.888l-19.112-12.448a2.5,2.5,0,0,0-3.129.308Z" transform="translate(-185.264 -199.035)" fill="#3f3d56"/>
      <path id="パス_585" data-name="パス 585" d="M433.586,335.737a2.534,2.534,0,0,1-.333.41l-48.49,49.308a2.514,2.514,0,0,1-3.582-.035L364.909,368.25a2.5,2.5,0,0,1-.3-.375,2.256,2.256,0,0,0,.526,2.889l15.928,16.486a2.514,2.514,0,0,0,3.582.035l48.6-48.394a2.515,2.515,0,0,0,.333-3.153Z" transform="translate(-185.253 -200.173)" fill="#a92c3d"/>
      <path id="パス_586" data-name="パス 586" d="M429.309,335.4l-1.978-1.261a1.885,1.885,0,0,1-2.712,2.474l-12.8-8.8a1.883,1.883,0,0,1,.5-3.349l-1.019-.65a.686.686,0,0,0-.856.1L367.384,366.23a.686.686,0,0,0,.017.981l15.638,15.237a.686.686,0,0,0,.954-.013l45.431-45.967a.686.686,0,0,0-.115-1.064Z" transform="translate(-185.476 -199.244)" fill="#fff"/>
      <path id="パス_587" data-name="パス 587" d="M210.391,168.416,223.6,180.87l31.418-31.041-15.945-10.378Z" transform="translate(-16.254 -10.773)" fill="#e6e6e6"/>
      <path id="パス_588" data-name="パス 588" d="M427.682,347.528a.468.468,0,0,0,.647,0l2.747-2.747a.458.458,0,0,0,0-.646.468.468,0,0,0-.647,0l-2.748,2.747a.458.458,0,0,0,0,.646Z" transform="translate(-190.139 -200.812)" fill="#3f3d56"/>
      <path id="パス_589" data-name="パス 589" d="M422.666,352.544a.458.458,0,0,0,.646,0l2.747-2.747a.457.457,0,1,0-.646-.647l-2.747,2.747A.458.458,0,0,0,422.666,352.544Z" transform="translate(-189.752 -201.199)" fill="#3f3d56"/>
      <circle id="楕円形_112" data-name="楕円形 112" cx="3.086" cy="3.086" r="3.086" transform="translate(191.357 165.247)" fill="#a92c3d"/>
      <path id="パス_590" data-name="パス 590" d="M292.131,352.057s-3.867,24.309,12.155,22.1c0,0,63.536-14.365,66.851-11.05s23.923,4.443,22.848-9.532c-1.079-14.023-21.743-5.937-21.743-5.937s-32.044,4.42-38.674,1.1-25.414-2.21-25.414-2.21Z" transform="translate(-179.646 -200.913)" fill="#a0616a"/>
      <path id="パス_591" data-name="パス 591" d="M314.632,269.4s-24.862,2.762-24.862,38.674v45.856l30.387-12.707s12.707-29.834,11.6-38.121S331.207,270.5,314.632,269.4Z" transform="translate(-179.495 -195.048)" fill="#e6e6e6"/>
    </g>
    <g id="グループ_265" data-name="グループ 265" transform="translate(-18 11)">
      <g id="グループ_254" data-name="グループ 254" transform="translate(37 -5)">
        <g id="マスクグループ_60" data-name="マスクグループ 60" transform="matrix(0.809, 0.588, -0.588, 0.809, 1423.763, 9744.28)" clip-path="url(#clip-path)">
          <g id="key" transform="translate(26.327 0)">
            <g id="グループ_252" data-name="グループ 252" transform="translate(0 0)">
              <path id="パス_592" data-name="パス 592" d="M55.287,57.92a18.429,18.429,0,1,0,0-36.858c-.067,0-.131,0-.2,0a17.811,17.811,0,0,0,.2-2.635,18.429,18.429,0,0,0-36.858,0,17.808,17.808,0,0,0,.2,2.635c-.067,0-.131,0-.2,0A18.429,18.429,0,1,0,28.96,54.611v63.861a7.9,7.9,0,0,0,15.8,0v-2.633h2.633v2.633a2.631,2.631,0,0,0,2.633,2.633H60.553a2.631,2.631,0,0,0,2.633-2.633V92.145a2.631,2.631,0,0,0-2.633-2.633H50.022a2.631,2.631,0,0,0-2.633,2.633v2.633H44.756V54.611A18.366,18.366,0,0,0,55.287,57.92ZM42.123,100.043h7.9a2.631,2.631,0,0,0,2.633-2.633V94.778H57.92v21.062H52.654v-2.633a2.631,2.631,0,0,0-2.633-2.633h-7.9a2.631,2.631,0,0,0-2.633,2.633v5.266a2.633,2.633,0,0,1-5.266,0V48.2a2.63,2.63,0,0,0-1.872-2.52,2.6,2.6,0,0,0-.761-.113A2.632,2.632,0,0,0,29.4,46.749,13.16,13.16,0,1,1,18.429,26.327a12.9,12.9,0,0,1,3.129.424,2.676,2.676,0,0,0,2.607-.825,2.629,2.629,0,0,0,.468-2.694,13.164,13.164,0,1,1,24.45,0,2.633,2.633,0,0,0,3.075,3.52,12.906,12.906,0,0,1,3.129-.424A13.163,13.163,0,1,1,44.317,46.749,2.632,2.632,0,0,0,39.491,48.2V97.41A2.631,2.631,0,0,0,42.123,100.043Z" transform="translate(0 0)" fill="#a92c3d"/>
            </g>
          </g>
        </g>
      </g>
      <path id="パス_670" data-name="パス 670" d="M-10113.75,6905.25l6.25,6.5V6920l-4.5,8-1.75,3.25,6.25,5.25,3.75,6.25v8.5l-8.25,7.5-7,2-14.25-5.25-2.5-10-28,39,5,3.75,4.5-2.5,7.5,4.5-15,21.5-9-5.5,2.5-6.5-5.5-3.25-5.25,6.25-7.5-4.75,42.75-60.25h-9.25l-10.75-6.5v-12.5l5-8.5,8.25-1.75,9.5,1.75,2.75,2.5,9.5-10.75h8.5Z" transform="translate(11623 2874)" fill="#a92c3d"/>
    </g>
  </g>
</svg>
