<svg xmlns="http://www.w3.org/2000/svg" width="712.896" height="560.687" viewBox="0 0 712.896 560.687">
  <g id="undraw_Timeline_re_aw6g" transform="translate(0 -7.011)">
    <path id="パス_671" data-name="パス 671" d="M1025.037,752.553a292.491,292.491,0,0,1-2.757,37.582c-.06.438-.126.875-.187,1.312l-117.751-.658c-.346-.434-.686-.874-1.016-1.319-1.1-1.472-2.13-2.986-3.075-4.553-4.546-7.546-6.628-16.381-4.542-22.476l.037-.095a10.7,10.7,0,0,1,2.088-3.627c4.755-5.353,14.37-4.461,23.095-.14-7.826-8.566-14.057-19.376-14.531-29.024-.464-9.411,4.457-16.134,9.794-21.848.175-.189.35-.372.525-.556.085-.095.175-.184.26-.278,4.164-4.354,9.019-8.646,16.047-8.127,7.707.57,16.252,7.026,22.243,14.548s9.972,16.057,14.008,24.391,8.412,16.871,14.9,23.99c-8.782-11.108-15.863-23.747-18.479-36.039s-.314-24.1,7.513-29.887a18.307,18.307,0,0,1,8.019-3.235c.338-.056.681-.1,1.029-.142,7.246-.824,15.9,1.681,23.257,7.671,8.106,6.6,13.726,16.373,16.522,25.655S1025.129,743.915,1025.037,752.553Z" transform="translate(-312.155 -223.92)" fill="#f2f2f2"/>
    <path id="パス_672" data-name="パス 672" d="M948.437,812.3l-2.252-.013q-1.072-.671-2.155-1.325c-.447-.282-.9-.553-1.351-.83q-11.2-6.842-22.546-13.126t-22.78-12a.944.944,0,0,1-.542-1.079.271.271,0,0,1,.037-.079c.106-.2.344-.283.692-.112.936.469,1.877.939,2.813,1.419q11.478,5.807,22.857,12.194t22.614,13.332c.157.1.315.2.473.293C947.013,811.419,947.722,811.861,948.437,812.3Z" transform="translate(-312.594 -245.189)" fill="#fff"/>
    <path id="パス_673" data-name="パス 673" d="M983.48,795.721l-1.392-.008c-.314-.439-.622-.879-.937-1.318q-11.067-15.52-22.13-31.039-18.116-25.408-36.222-50.815a.9.9,0,0,1-.157-.307c-.1-.375.172-.6.525-.556a1.058,1.058,0,0,1,.736.468q10.157,14.249,20.309,28.487l36.039,50.556c.764,1.07,1.528,2.144,2.292,3.214C982.859,794.842,983.173,795.282,983.48,795.721Z" transform="translate(-318.604 -228.445)" fill="#fff"/>
    <path id="パス_674" data-name="パス 674" d="M1034.217,783.083c-.071,2.346-.226,4.655-.429,6.943q-.059.656-.118,1.313l-1.461-.008c.045-.437.089-.875.128-1.312.309-3.305.528-6.648.558-10.08a140.647,140.647,0,0,0-2.769-28.347,176.513,176.513,0,0,0-8.575-29.45A202.269,202.269,0,0,0,1007.523,693a.778.778,0,0,1-.129-.518c.06-.416.615-.54,1.029-.142a1.21,1.21,0,0,1,.21.265q1.01,1.738,1.985,3.486a202.153,202.153,0,0,1,13.427,29.24,175.675,175.675,0,0,1,7.994,29.494A138.744,138.744,0,0,1,1034.217,783.083Z" transform="translate(-338.324 -223.893)" fill="#fff"/>
    <path id="パス_675" data-name="パス 675" d="M743.825,785.041a152.817,152.817,0,0,1-1.441,19.64c-.031.228-.066.457-.1.686l-61.534-.344c-.181-.227-.358-.457-.531-.689-.575-.769-1.113-1.561-1.607-2.379-2.376-3.943-3.463-8.56-2.373-11.745l.02-.05a5.588,5.588,0,0,1,1.091-1.9c2.485-2.8,7.509-2.331,12.069-.073-4.09-4.477-7.346-10.125-7.593-15.167-.243-4.918,2.329-8.431,5.118-11.417.092-.1.183-.195.275-.291.044-.049.092-.1.136-.145,2.176-2.275,4.713-4.518,8.386-4.247,4.027.3,8.493,3.672,11.624,7.6s5.212,8.391,7.32,12.746,4.4,8.816,7.784,12.536c-4.589-5.8-8.29-12.41-9.656-18.833s-.164-12.593,3.926-15.618a9.568,9.568,0,0,1,4.19-1.691c.176-.029.356-.053.538-.074a16.793,16.793,0,0,1,12.154,4.009,27.978,27.978,0,0,1,8.634,13.407A45.738,45.738,0,0,1,743.825,785.041Z" transform="translate(-261.19 -238.178)" fill="#f2f2f2"/>
    <path id="パス_676" data-name="パス 676" d="M703.8,816.264l-1.177-.007q-.56-.35-1.126-.693c-.234-.147-.47-.289-.706-.434q-5.855-3.576-11.782-6.859T677.1,802a.493.493,0,0,1-.283-.564.143.143,0,0,1,.02-.041c.056-.1.18-.148.361-.059.489.245.981.491,1.47.741q6,3.035,11.945,6.372t11.817,6.967c.082.05.165.1.247.153C703.051,815.8,703.422,816.034,703.8,816.264Z" transform="translate(-261.419 -249.293)" fill="#fff"/>
    <path id="パス_677" data-name="パス 677" d="M722.107,807.6l-.728,0c-.164-.23-.325-.459-.49-.689q-5.783-8.11-11.564-16.22-9.467-13.278-18.929-26.555a.474.474,0,0,1-.082-.16c-.054-.2.09-.311.275-.291a.553.553,0,0,1,.384.245l10.613,14.886,18.833,26.42,1.2,1.68C721.781,807.14,721.945,807.37,722.107,807.6Z" transform="translate(-264.56 -240.543)" fill="#fff"/>
    <path id="パス_678" data-name="パス 678" d="M748.622,801c-.037,1.226-.118,2.433-.224,3.628l-.062.686-.763,0c.023-.229.047-.457.067-.686.161-1.727.276-3.474.291-5.268a73.5,73.5,0,0,0-1.447-14.813A92.24,92.24,0,0,0,742,769.149a105.692,105.692,0,0,0-7.331-15.227.407.407,0,0,1-.068-.27c.032-.218.321-.282.538-.074a.636.636,0,0,1,.109.138q.528.908,1.037,1.822a105.6,105.6,0,0,1,7.017,15.28,91.815,91.815,0,0,1,4.177,15.413A72.5,72.5,0,0,1,748.622,801Z" transform="translate(-274.865 -238.164)" fill="#fff"/>
    <path id="パス_679" data-name="パス 679" d="M262.841,433.289H147.52a12.04,12.04,0,0,1-12.026-12.027V282.741a12.04,12.04,0,0,1,12.027-12.026H262.841a12.04,12.04,0,0,1,12.026,12.027V421.262A12.04,12.04,0,0,1,262.841,433.289ZM147.52,272.249a10.5,10.5,0,0,0-10.492,10.492V421.262a10.5,10.5,0,0,0,10.492,10.492H262.841a10.5,10.5,0,0,0,10.491-10.492V282.741a10.5,10.5,0,0,0-10.492-10.492Z" transform="translate(-135.493 -125.865)" fill="#3f3d56"/>
    <path id="パス_681" data-name="パス 681" d="M261.5,380.448H155.736a5.459,5.459,0,0,1,0-10.918H261.5a5.459,5.459,0,0,1,0,10.918Z" transform="translate(-138.933 -148.852)" fill="#a92c3d"/>
    <path id="パス_682" data-name="パス 682" d="M261.5,410.682H155.736a5.459,5.459,0,0,1,0-10.918H261.5a5.459,5.459,0,0,1,0,10.918Z" transform="translate(-138.933 -155.886)" fill="#a92c3d"/>
    <path id="パス_683" data-name="パス 683" d="M241.77,350.214H192.639a5.459,5.459,0,1,1,0-10.918H241.77a5.459,5.459,0,1,1,0,10.918Z" transform="translate(-147.517 -141.819)" fill="#a92c3d"/>
    <path id="パス_684" data-name="パス 684" d="M582.076,253.663H466.755a12.04,12.04,0,0,1-12.026-12.026V103.115a12.04,12.04,0,0,1,12.026-12.026h115.32A12.04,12.04,0,0,1,594.1,103.115V241.637a12.04,12.04,0,0,1-12.026,12.026ZM466.755,92.623a10.5,10.5,0,0,0-10.491,10.492V241.637a10.5,10.5,0,0,0,10.492,10.492H582.076a10.5,10.5,0,0,0,10.492-10.492V103.115a10.5,10.5,0,0,0-10.492-10.492Z" transform="translate(-209.758 -84.078)" fill="#3f3d56"/>
    <path id="パス_686" data-name="パス 686" d="M580.739,200.822H474.971a5.459,5.459,0,0,1,0-10.918H580.739a5.459,5.459,0,0,1,0,10.918Z" transform="translate(-213.197 -107.066)" fill="#a92c3d"/>
    <path id="パス_687" data-name="パス 687" d="M580.739,231.056H474.971a5.459,5.459,0,0,1,0-10.918H580.739a5.459,5.459,0,0,1,0,10.918Z" transform="translate(-213.197 -114.099)" fill="#a92c3d"/>
    <path id="パス_688" data-name="パス 688" d="M561,170.588H511.874a5.459,5.459,0,1,1,0-10.918H561a5.459,5.459,0,0,1,0,10.918Z" transform="translate(-221.782 -100.032)" fill="#a92c3d"/>
    <path id="パス_689" data-name="パス 689" d="M871.1,563.374l-101.26,55.184a12.04,12.04,0,0,1-16.315-4.805L687.239,492.123a12.04,12.04,0,0,1,4.805-16.315L793.3,420.623a12.04,12.04,0,0,1,16.315,4.8L875.906,547.06A12.04,12.04,0,0,1,871.1,563.374ZM692.778,477.155a10.5,10.5,0,0,0-4.192,14.233L754.873,613.02a10.5,10.5,0,0,0,14.233,4.192l101.26-55.185a10.5,10.5,0,0,0,4.192-14.233L808.272,426.163a10.5,10.5,0,0,0-14.233-4.192Z" transform="translate(-263.506 -160.398)" fill="#3f3d56"/>
    <path id="パス_691" data-name="パス 691" d="M843.929,520.2,751.058,570.81a5.459,5.459,0,1,1-5.225-9.587L838.7,510.61a5.459,5.459,0,1,1,5.225,9.587Z" transform="translate(-276.815 -181.517)" fill="#ccc"/>
    <path id="パス_692" data-name="パス 692" d="M858.4,546.745l-92.871,50.613a5.459,5.459,0,1,1-5.225-9.587l92.872-50.613a5.459,5.459,0,0,1,5.225,9.587Z" transform="translate(-280.181 -187.693)" fill="#ccc"/>
    <path id="パス_693" data-name="パス 693" d="M812.134,511.309l-43.14,23.51a5.459,5.459,0,0,1-5.225-9.587l43.14-23.511a5.459,5.459,0,1,1,5.224,9.587Z" transform="translate(-280.988 -179.449)" fill="#ccc"/>
    <rect id="長方形_257" data-name="長方形 257" width="62.369" height="1.535" transform="matrix(0.865, -0.502, 0.502, 0.865, 160.317, 153.919)" fill="#3f3d56"/>
    <path id="パス_694" data-name="パス 694" d="M279.864,170.4l7.618-13.272-15.3.036Z" transform="translate(-63.317 -39.395)" fill="#3f3d56"/>
    <path id="パス_695" data-name="パス 695" d="M559.648,477.444a.763.763,0,0,1-.35-.085l-207.3-106.49a.767.767,0,0,1,.7-1.365L560,475.993a.767.767,0,0,1-.351,1.45Z" transform="translate(-168.898 -155.853)" fill="#3f3d56"/>
    <path id="パス_696" data-name="パス 696" d="M0,13.614l15.285-.751L6.994,0Z" transform="matrix(0.454, 0.891, -0.891, 0.454, 189.125, 204.399)" fill="#3f3d56"/>
    <path id="パス_697" data-name="パス 697" d="M898.7,602.935a8.243,8.243,0,0,1-2.948-12.292l-6.164-60.269h13.322l4.9,58.85a8.288,8.288,0,0,1-9.108,13.711Z" transform="translate(-310.921 -186.269)" fill="#a0616a"/>
    <circle id="楕円形_137" data-name="楕円形 137" cx="18.847" cy="18.847" r="18.847" transform="translate(556.705 273.148)" fill="#a0616a"/>
    <path id="パス_698" data-name="パス 698" d="M870.544,556.953l-28.129-6.143a3.462,3.462,0,0,1-2.712-3.2c-.325-6.277-.558-22.514,4.277-37.673A22.828,22.828,0,0,1,873.314,495.4h0a22.838,22.838,0,0,1,12.969,31.531c-6.238,12.809-10.166,22.085-11.677,27.571a3.447,3.447,0,0,1-4.062,2.451Z" transform="translate(-299.28 -177.83)" fill="#a92c3d"/>
    <path id="パス_699" data-name="パス 699" d="M705.7,720.091H696.3L691.821,683.8h13.885Z" transform="translate(-160.939 -161.915)" fill="#a0616a"/>
    <path id="パス_700" data-name="パス 700" d="M685.433,727.588h18.144v11.424H674.009A11.424,11.424,0,0,1,685.433,727.588Z" transform="translate(-156.796 -172.101)" fill="#2f2e41"/>
    <path id="パス_701" data-name="パス 701" d="M823.516,705.563l-8.244,4.532-21.406-29.641,12.167-6.69Z" transform="translate(-184.678 -159.58)" fill="#a0616a"/>
    <path id="パス_702" data-name="パス 702" d="M11.424,0H29.567V11.424H0A11.424,11.424,0,0,1,11.424,0Z" transform="translate(613.401 556.9) rotate(-28.801)" fill="#2f2e41"/>
    <path id="パス_703" data-name="パス 703" d="M839.265,731.313,824.781,730.2a3.443,3.443,0,0,1-3.172-3.107c-2.064-21.529-11.12-130.628,13.373-164.217l.069-.094.109-.04c.219-.08,22.062-7.869,34.594,6.405a3.451,3.451,0,0,1,.664,3.359l-.478,1.434a2.674,2.674,0,0,0,.381,2.435c3.478,4.7,15.184,22.81,19.784,58.418a2.661,2.661,0,0,0,.174.661l33.967,83.442a3.453,3.453,0,0,1-1.969,4.529l-10.688,4.072a3.472,3.472,0,0,1-4.253-1.561L858.3,636.971a1.918,1.918,0,0,0-3.582.68l-11.766,90.663a3.453,3.453,0,0,1-3.421,3.009C839.443,731.322,839.355,731.319,839.265,731.313Z" transform="translate(-294.328 -193.289)" fill="#2f2e41"/>
    <path id="パス_704" data-name="パス 704" d="M785.224,489.114a8.062,8.062,0,0,1,.184,1.259l32.964,19.017,8.012-4.613,8.542,11.182L821.536,525.5a6.139,6.139,0,0,1-7.365-.179l-33.992-26.816a8.055,8.055,0,1,1,5.046-9.394Z" transform="translate(-282.943 -175.225)" fill="#a0616a"/>
    <path id="パス_705" data-name="パス 705" d="M833.809,511.064a3.45,3.45,0,0,1,1.7-2.321l15.127-8.459a9.59,9.59,0,0,1,11.761,15.151L850.333,527.96a3.453,3.453,0,0,1-5.221-.286l-10.654-13.808A3.451,3.451,0,0,1,833.809,511.064Z" transform="translate(-297.927 -178.801)" fill="#a92c3d"/>
    <path id="パス_706" data-name="パス 706" d="M884.256,539.461a3.45,3.45,0,0,1-1.279-2.575l-.543-17.323A9.59,9.59,0,1,1,901.3,516.1l5.564,16.473a3.453,3.453,0,0,1-2.658,4.5l-17.163,3.1a3.45,3.45,0,0,1-2.786-.714Z" transform="translate(-309.218 -181.12)" fill="#a92c3d"/>
    <path id="パス_707" data-name="パス 707" d="M875.678,449.769c-4.844,3.315-11.2,6.724-16.152,3.193a9,9,0,0,1-2.955-10.379c2.369-6.775,8.878-9.757,15.1-12.044,8.092-2.972,16.9-5.336,25.255-3.208s15.735,10.216,14.227,18.7c-1.213,6.825-7.651,12.5-6.737,19.376.92,6.916,8.7,10.556,15.563,11.792s14.55,1.633,19.484,6.565c6.295,6.292,4.723,17.537-1.2,24.179s-14.861,9.654-23.523,11.7c-11.476,2.712-23.887,4.137-34.786-.364s-19.38-16.617-16.223-27.978c1.334-4.8,4.475-8.855,7.512-12.8s6.11-8.077,7.269-12.922c.965-4.037.251-8.724-2.426-11.752a3.4,3.4,0,0,1-.456-3.98Z" transform="translate(-303.109 -162.108)" fill="#2f2e41"/>
    <path id="パス_708" data-name="パス 708" d="M972.935,821.285H680.568a.767.767,0,1,1,0-1.535H972.935a.767.767,0,1,1,0,1.535Z" transform="translate(-262.116 -253.588)" fill="#3f3d56"/>
  </g>
</svg>
