<svg xmlns="http://www.w3.org/2000/svg" width="857.605" height="726.508" viewBox="0 0 857.605 726.508">
  <g id="illust" transform="translate(-1343.049 -570.931)">
    <g id="レイヤー_1" transform="translate(1343.049 765.757)">
      <path id="パス_641" data-name="パス 641" d="M119.687,648.794h-.26a2.689,2.689,0,0,1-2.688-2.755L120.823,469l12.03-1.4L122.591,646.054a2.907,2.907,0,0,1-2.9,2.74" transform="translate(-30.046 -120.35)" fill="#b2b2b2"/>
      <path id="パス_642" data-name="パス 642" d="M25.267,648.794h-.26a2.689,2.689,0,0,1-2.688-2.755L26.4,469l12.03-1.4L28.171,646.054a2.907,2.907,0,0,1-2.9,2.74" transform="translate(-5.744 -120.35)" fill="#787978"/>
      <path id="パス_643" data-name="パス 643" d="M282.266,648.794h.26a2.7,2.7,0,0,0,2.7-2.755L281.129,469l-12.03-1.4,10.263,178.459a2.907,2.907,0,0,0,2.9,2.74" transform="translate(-69.261 -120.35)" fill="#b2b2b2"/>
      <path id="パス_644" data-name="パス 644" d="M15.549,399.25V277.928A38.659,38.659,0,0,1,54.2,239.275h87.406a38.655,38.655,0,0,1,38.653,38.653V403.884L15.549,399.25" transform="translate(-4.002 -61.585)" fill="#b2b2b2"/>
      <path id="パス_645" data-name="パス 645" d="M195.924,473.847H27.156A11.609,11.609,0,0,1,15.549,462.24V454.7H195.924v19.152" transform="translate(-4.002 -117.03)" fill="#787978"/>
      <path id="パス_646" data-name="パス 646" d="M238.452,473.847H110.766a8.576,8.576,0,0,1-8.577-8.577v-1.99a8.578,8.578,0,0,1,8.577-8.585H238.452a8.578,8.578,0,0,1,8.577,8.585v1.99a8.576,8.576,0,0,1-8.577,8.577" transform="translate(-26.301 -117.03)" fill="#b2b2b2"/>
      <path id="パス_647" data-name="パス 647" d="M246.492,412.748c-12.521,21.8-28.272,30.21-28.272,30.21H152.7s103.343-46.83,93.793-30.21" transform="translate(-39.302 -105.315)" fill="#520a14"/>
      <path id="パス_648" data-name="パス 648" d="M210.7,622.217a6.049,6.049,0,0,0-1.084,6.476.057.057,0,0,0,.015.03c1.567,4.322,6.728,9.142,12.729,13.961.765.616,1.448,1.181,2.042,1.7.156.134.312.275.453.408.126.111.238.223.356.319,5.592,5.154,3.483,6.335,13.531,16.8,11.459,11.919,19.345,12.134,21.588,11.05,1.9-.928-1.953-7.248-6.231-14.355-.208-.342-.408-.691-.624-1.032-.564-.951-1.136-1.909-1.7-2.859-5.005-8.548-3.721-12.558-2.532-25.286.965-10.345,16.093-57.776,16.093-57.776l-21.959-3.787s-6.609,37.777-13.894,43.592c-3.891,3.1-8.258,3.141-12,5.436-.26.163-.52.327-.772.5a28.676,28.676,0,0,0-6.008,4.827" transform="translate(-53.827 -146.157)" fill="#ffc08f"/>
      <path id="パス_649" data-name="パス 649" d="M210.7,639.21a6.049,6.049,0,0,0-1.084,6.476.057.057,0,0,0,.015.03c1.916,4.315,6.951,9.112,12.743,13.917.757.631,1.426,1.2,2.027,1.745.156.134.312.275.453.408.126.111.238.223.356.319,5.592,5.154,3.483,6.335,13.531,16.8,11.459,11.919,19.345,12.134,21.588,11.05,1.9-.928-1.953-7.248-6.231-14.355a48.881,48.881,0,0,1-20.422-15.045c-6.9-8.8-11.5-20.11-16.2-26.667-.26.163-.52.327-.772.5a28.676,28.676,0,0,0-6.008,4.827" transform="translate(-53.827 -163.15)" fill="#520a14"/>
      <path id="パス_650" data-name="パス 650" d="M443.525,606.187c1.359,6.78,11.02,5.651,21.811,3.008s8.228.5,23.586-1.2,20.014-7.434,20.481-9.713c.416-2.027-7.174-2.74-15.313-3.676-1.025-.119-2.05-.245-3.082-.371-9.186-1.151-15.914-7.085-24.269-11.956-7.909-4.612-19.709-23.407-19.709-23.407l-21.061,1.664s11.05,16.791,15.328,24.091c2.517,4.292,2.384,9.973,2.072,14.355a27.221,27.221,0,0,0,.156,7.2" transform="translate(-109.636 -143.844)" fill="#ffc08f"/>
      <path id="パス_651" data-name="パス 651" d="M471.31,621.58c10.79-2.636,8.228.505,23.586-1.2s20.014-7.434,20.481-9.713c.416-2.027-7.174-2.74-15.313-3.676l-.074.156a43.292,43.292,0,0,1-22,6.832c-10.419.252-21.454-2.733-28.65-2.614a27.222,27.222,0,0,0,.156,7.2c1.359,6.78,11.02,5.651,21.811,3.008" transform="translate(-115.61 -156.229)" fill="#520a14"/>
      <path id="パス_652" data-name="パス 652" d="M315.863,429.512l-45.4,122.176a41.815,41.815,0,0,1-13.657-1.247c-6.149-1.782-13.211-6.431-13.211-6.431s7.144-74.284,20.459-116.925c3.409-10.946,7.233-19.8,11.459-24.789,20.637-24.4,40.346,27.217,40.346,27.217" transform="translate(-62.697 -101.857)" fill="#520a14"/>
      <path id="パス_653" data-name="パス 653" d="M247.938,324.237c-12.9-4.159-49.689,1.181-86.649,8.414l-7.738-12.766-79.839-6.231S47.371,372.077,61.793,409.3c2.124,5.473,6.335,8.978,13.516,9.1h1.166s47.513-.03,62.937-.03c39.708,0,84.027-27.291,89.76-28.435,9.387-1.879,13.137,16.895,22.524,36.6s88.216,87.28,88.216,87.28,12.112.119,17.117-1.76c5.384-2.02,7.352-4.641,7.352-4.641s-87.347-173.78-116.443-183.167" transform="translate(-14.793 -80.729)" fill="#77363f"/>
      <path id="パス_654" data-name="パス 654" d="M135.718,6.7C125.492,1.33,109.927.6,107.4.264,77.148-3.8,58.939,40.157,57.869,53.48,55.894,78.031,42.906,81.774,24.63,97.146c-36.656,30.834-25.91,66.658-5.867,79.965,12.03,7.991,33.225,0,33.225,0,.3.208,57.969-32.237,86.4-47.892C181,123.16,161.777,20.389,135.718,6.7" transform="translate(-0.102 0)" fill="#1e2a2d"/>
      <path id="パス_655" data-name="パス 655" d="M140.647,140.571c.126.082-13.991,4.894-23.422.72-8.882-3.928-15.6-18.528-15.476-18.536,4.04-.186,8.473-3.721,11.889-26.89l1.723.624,28.91,10.4s-2.094,9.275-3.453,18.105c-1.136,7.419-1.753,14.526-.171,15.573" transform="translate(-26.187 -24.674)" fill="#ffc08f"/>
      <path id="パス_656" data-name="パス 656" d="M148.989,107.109s-2.094,9.275-3.453,18.105c-16.6-2.985-23.125-19.531-25.457-28.509l28.91,10.4" transform="translate(-30.906 -24.89)" fill="#f2a870"/>
      <path id="パス_657" data-name="パス 657" d="M152.291,99s-39.559-5.317-35.876-29.9,1.062-41.824,26.474-39.478,28.9,12.469,29.668,20.972S162.673,99.739,152.291,99" transform="translate(-29.9 -7.569)" fill="#ffc08f"/>
      <path id="パス_658" data-name="パス 658" d="M167.183,36.369s-25.323,21.818-42.545,23.578-23.749-3.773-23.749-3.773a67.277,67.277,0,0,0,16.263-22.034A12.106,12.106,0,0,1,127.141,27c12.3-1.062,35.609-1.545,40.042,9.364" transform="translate(-25.967 -6.816)" fill="#1e2a2d"/>
      <path id="パス_659" data-name="パス 659" d="M168.849,35.515s8.466,8.191,11.139,14.266c2.569,5.867,3.342,19.887,1.292,25.457,0,0,13.2-25.665,5.726-38.134-7.924-13.226-18.157-1.589-18.157-1.589" transform="translate(-43.458 -7.923)" fill="#1e2a2d"/>
      <path id="パス_660" data-name="パス 660" d="M162.188,207.841c-1.2,80.077-.327,63.338-9.082,70.942-2.116,1.827-8.05,2.918-15.855,3.431-24.558,1.634-67.719-2.414-69.361-6.951-5.666-15.7-1.663-20.578-6.387-44.617-.5-2.555-1.107-5.325-1.819-8.34-3.943-16.508-7.775-22.123,6.2-48.649,12.677-24.024,25.843-43.525,27.031-42.819,33.44,19.85,36.136,3.164,36.136,3.164s33.722,34.777,33.136,73.839" transform="translate(-14.422 -33.671)" fill="#fff"/>
      <path id="パス_661" data-name="パス 661" d="M296.176,493.359l-25.71,69.19A41.815,41.815,0,0,1,256.81,561.3c-6.149-1.782-13.211-6.431-13.211-6.431s7.144-74.284,20.459-116.925l32.118,55.414" transform="translate(-62.697 -112.719)" fill="#77363f"/>
      <path id="パス_662" data-name="パス 662" d="M154.359,135.1s34.413,5.837,38.453,20.652,27.819,101.91,27.819,101.91-17.489,3.149-25.576-4.931-28.116-74.982-28.116-74.982L154.359,135.1" transform="translate(-39.729 -34.771)" fill="#fff"/>
      <path id="パス_663" data-name="パス 663" d="M139.146,305.254c-24.558,1.634-67.719-2.413-69.361-6.951-5.666-15.7-1.663-20.578-6.387-44.617l11.837-33.351s-1.953,37.138,8.993,46.9,44.839,18.855,50.164,27.016a29.841,29.841,0,0,1,4.753,11" transform="translate(-16.317 -56.71)" fill="#f5d4d9"/>
      <path id="パス_664" data-name="パス 664" d="M127.519,312.355s24.224-5.391,28.13-3.245,13.456,9.981,14.659,12.706-8.7-2.072-11.926-2.933c-2.079-.557-7.575,1.344-10.285,2.25-11.436,3.817-18.439,1.857-18.439,1.857l-2.139-10.634" transform="translate(-32.821 -79.429)" fill="#ffc08f"/>
      <path id="パス_665" data-name="パス 665" d="M78.472,130.815s-32.527,2.005-43.785,17.711C18.832,170.634-12.61,264.843,5.413,277.416c20.3,14.147,92.36,3.7,92.36,3.7s2.4-11.206-.936-16.635S39.276,250.3,36.774,247.8s31.279-48.8,31.279-56.313,10.419-60.672,10.419-60.672" transform="translate(0 -33.669)" fill="#fff"/>
      <path id="パス_666" data-name="パス 666" d="M166.979,318.365s5.072,6.55,6.736,7.33a4.992,4.992,0,0,0,2.74.587l-3.416-6.156-6.06-1.76" transform="translate(-42.977 -81.941)" fill="#ffc08f"/>
      <path id="パス_667" data-name="パス 667" d="M165.4,309.285l14.756,7.166a2.639,2.639,0,0,1-2.443.943c-1.819-.082-6.4-1.76-6.4-1.76l-5.911-6.349" transform="translate(-42.57 -79.604)" fill="#ffc08f"/>
      <path id="パス_668" data-name="パス 668" d="M176.049,311.48H292.781L327.9,224.155H211.346l-35.3,87.325" transform="translate(-45.311 -57.693)" fill="#77363f"/>
      <path id="パス_669" data-name="パス 669" d="M281.657,337.155H127.519v3.409H280.291l1.366-3.409" transform="translate(-32.821 -86.777)" fill="#a92c3d"/>
      <path id="パス_670" data-name="パス 670" d="M289.628,281.02c.884-3.067-.891-5.555-3.966-5.555a7.971,7.971,0,0,0-7.151,5.555c-.876,3.067.9,5.562,3.966,5.562a7.963,7.963,0,0,0,7.151-5.562" transform="translate(-71.626 -70.899)" fill="#fff"/>
      <path id="パス_671" data-name="パス 671" d="M991,628.021h.342a3.685,3.685,0,0,0,3.565-3.862L989.5,376.273,973.589,374.3l13.568,249.869A3.955,3.955,0,0,0,991,628.021" transform="translate(-250.583 -96.339)" fill="#787978"/>
      <path id="パス_672" data-name="パス 672" d="M126.945,628.021H126.6a3.685,3.685,0,0,1-3.565-3.862l5.406-247.886,15.907-1.968L130.784,624.174a3.955,3.955,0,0,1-3.839,3.847" transform="translate(-31.667 -96.339)" fill="#787978"/>
      <path id="パス_673" data-name="パス 673" d="M783.385,372.728h-680.8a10.1,10.1,0,0,1-10.1-10.1v-9.713a10.1,10.1,0,0,1,10.1-10.1h680.8a10.094,10.094,0,0,1,10.092,10.1v9.713a10.094,10.094,0,0,1-10.092,10.1" transform="translate(-23.805 -88.234)" fill="#787978"/>
    </g>
    <circle id="楕円形_11" data-name="楕円形 11" cx="195" cy="195" r="195" transform="translate(1810.654 570.931)" fill="#f5d4d9"/>
    <circle id="楕円形_12" data-name="楕円形 12" cx="56.5" cy="56.5" r="56.5" transform="translate(1720.654 861.931)" fill="#f5d4d9"/>
    <circle id="楕円形_13" data-name="楕円形 13" cx="29.5" cy="29.5" r="29.5" transform="translate(1643.654 924.931)" fill="#f5d4d9"/>
    <g id="グループ_26" data-name="グループ 26" transform="translate(1940.022 616.092)">
      <rect id="長方形_11" data-name="長方形 11" width="132" height="309" rx="66" transform="translate(-0.368 -0.161)" fill="#3c3c3c"/>
      <ellipse id="楕円形_1" data-name="楕円形 1" cx="56" cy="55.5" rx="56" ry="55.5" transform="translate(9.632 186.839)"/>
      <g id="長方形_12" data-name="長方形 12" transform="translate(9.632 13.839)" stroke="#707070" stroke-width="1">
        <rect width="112" height="166" rx="56" stroke="none"/>
        <rect x="0.5" y="0.5" width="111" height="165" rx="55.5" fill="none"/>
      </g>
      <ellipse id="楕円形_2" data-name="楕円形 2" cx="10.5" cy="11.5" rx="10.5" ry="11.5" transform="translate(24.631 44.839)" fill="#fff"/>
      <ellipse id="楕円形_5" data-name="楕円形 5" cx="10.5" cy="11.5" rx="10.5" ry="11.5" transform="translate(24.631 79.839)" fill="#fff"/>
      <ellipse id="楕円形_8" data-name="楕円形 8" cx="10.5" cy="11" rx="10.5" ry="11" transform="translate(24.631 116.839)" fill="#fff"/>
      <ellipse id="楕円形_3" data-name="楕円形 3" cx="11" cy="11.5" rx="11" ry="11.5" transform="translate(54.632 44.839)" fill="#fff"/>
      <ellipse id="楕円形_6" data-name="楕円形 6" cx="11" cy="11.5" rx="11" ry="11.5" transform="translate(54.632 79.839)" fill="#fff"/>
      <circle id="楕円形_9" data-name="楕円形 9" cx="11" cy="11" r="11" transform="translate(54.632 116.839)" fill="#fff"/>
      <circle id="楕円形_4" data-name="楕円形 4" cx="11.5" cy="11.5" r="11.5" transform="translate(84.632 44.839)" fill="#fff"/>
      <circle id="楕円形_7" data-name="楕円形 7" cx="11.5" cy="11.5" r="11.5" transform="translate(84.632 79.839)" fill="#fff"/>
      <ellipse id="楕円形_10" data-name="楕円形 10" cx="11.5" cy="11" rx="11.5" ry="11" transform="translate(84.632 116.839)" fill="#fff"/>
    </g>
  </g>
</svg>
