<svg id="レイヤー_1" xmlns="http://www.w3.org/2000/svg" xmlns:xlink="http://www.w3.org/1999/xlink" width="340.928" height="336.155" viewBox="0 0 340.928 336.155">
  <defs>
    <linearGradient id="linear-gradient" x1="0.755" y1="1.058" x2="0.755" y2="0.058" gradientUnits="objectBoundingBox">
      <stop offset="0" stop-color="gray" stop-opacity="0.251"/>
      <stop offset="0.54" stop-color="gray" stop-opacity="0.122"/>
      <stop offset="1" stop-color="gray" stop-opacity="0.102"/>
    </linearGradient>
  </defs>
  <path id="パス_1" data-name="パス 1" d="M173.264,577.968c94.132,12.995,169.187,32.61,167.641,43.812s-79.109,9.748-173.241-3.247S-1.523,585.924.024,574.722,79.132,564.974,173.264,577.968Z" transform="translate(0 -293.162)" fill="#a92c3d" opacity="0.1"/>
  <path id="パス_2" data-name="パス 2" d="M294.707,80.843c-.483-3.039-3.517-8.595-3.517-8.595l-4.382-7.44s-1.72-2.034-1.56-2.691-2.034-1.744-2.034-1.744a7.934,7.934,0,0,1-1.329-2.416c-.077-.783-7.116-6.7-7.116-6.7s-2.416-2.024-1.875-8.87h-5.551a29.469,29.469,0,0,0-4.227.42l-8.1-9.455a94.765,94.765,0,0,0-12.006-8.4v-.145a17.039,17.039,0,0,0-3.1-9.856l-.058-.077a7.541,7.541,0,0,0,2.512-1.16,3.094,3.094,0,0,0,1.121-1.377c.9-2.319-2.662-3.382-4.29-4.218-3.3-1.7-6.044-4.232-9.411-5.8a25.122,25.122,0,0,0-21.417.135A63.46,63.46,0,0,0,199.26,8.6c-4.633,3.382-2.85,6.5-6.474,10.953s-5.672,10.73-3.406,16a16.144,16.144,0,0,0,6.9,7.174c2.913,1.71-.643,2.841,2.478,4.136a3.047,3.047,0,0,1,1.836,1.449,2.93,2.93,0,0,1-.082,1.9c-.575,2.053-1.338,4.266-.932,6.281-1.933.9-3.261,1.406-3.261,1.406-4.01,1.4-4.691,4.237-4.691,4.237s.73,2.512-.884,3.759-.937,4.667-.937,4.667-2.189,4.928-1.623,5.653a13.735,13.735,0,0,1,1.155,1.976c.329.689-1.826,1.449-.889,3.527a5.954,5.954,0,0,1,0,4.3,1.542,1.542,0,0,1-.362,1.768c-.845.623,0,5.368,0,5.368A2.818,2.818,0,0,1,187.4,94.9c-.705.831,0,8.923,0,8.923a2.721,2.721,0,0,1-.86,1.015c-.483.232-1.875,7.861-1.483,8.247s-5.894,18.731-5.894,18.731.155,3.189-.705,3.735-1.015,4.2-1.015,4.2.387,3.266-1.174,3.889-1.879,11.677-1.879,11.677-2.111,5.682-3.382,6.614a16.042,16.042,0,0,0,4.595,3.865l-.193.512a42.09,42.09,0,0,0-2.686,11.112,24.509,24.509,0,0,0-3.411,4.087c-.985,1.482.56.483,1.242,1.063L154.575,202.3c-6.532-9.358-10.078-5.889-10.078-5.889l-2.416.662a1.411,1.411,0,0,1-1.933-1.295,4.527,4.527,0,0,0-.348-1.391A3.511,3.511,0,0,0,138.786,193a2.179,2.179,0,0,0-2.237-.324c-2.029.783-28.727,5.314-28.727,5.314s-8.334,1.4-16,11.518A129.795,129.795,0,0,1,77.284,225.85L56.451,250.581S45.939,264.79,51.04,264.534a9.184,9.184,0,0,0-.063,6.126l20.639,26.273a4.223,4.223,0,1,0,6.938-3.218l30.809-14.281a4.213,4.213,0,1,0,6.445-5.314l11.663-11.706s34.558-36.269,37.2-41.718c1.5-3.082-1.14-7.315-3.715-10.4l22.05-28.5.792.358,4.435-4.527c3.382-2.715.517-6.213.517-6.213-1.01-.913-2.933-.773-5.107-.155.2-.87.387-1.715.541-2.507.043-.213.087-.42.126-.628a20.326,20.326,0,0,0,4.136-.42c1.36-.281.483-10.194,1.875-14.243l4.145-20.625s2.5-8.793,3.44-13.619,5.058-23.35,5.058-23.35c.672-2.024.966,3.425.966,3.425s1.358,1.4,1.044,2.126.261,4.88.261,4.88.73,2.488.213,3.01a1.305,1.305,0,0,0-.237.425,34.847,34.847,0,0,0-1.126,4.527l-1.831,6.788-.3.246a9.47,9.47,0,0,0-2.633,3.778c-.556,1.295-.874,2.522-1.2,3.3a2.318,2.318,0,0,1-.28.483,3.779,3.779,0,0,0-.483.855,17.2,17.2,0,0,0-.937,3.319l.217.14a.394.394,0,0,1-.053.135l-.092.232v.029c-.2.483-.382.99-.565,1.493l-.058.159c-.169.483-.333.966-.483,1.425-.024.082-.053.164-.077.246-.15.449-.29.9-.425,1.338l-.087.28c-.126.42-.251.836-.367,1.242a.5.5,0,0,1-.043.145,40.866,40.866,0,0,0-1.565,10.692c-.111,8.532-.193,25.756.86,28.084.068.155.14.333.208.531,1.3,3.822,2.295,15.344,2.295,15.344a18.676,18.676,0,0,0,2.179,1.29c.024.217.048.435.077.662.556,4.74,1.338,11.151,1.6,11.8.42,1.039,1.358,7.247,1.358,7.247s-.734,2.8-1.251,5.392-7.3,9.759-7.3,9.759c-8.643,7.17-17.3,32.5-17.3,32.5-1.725,3.71-3.628,5.082-5.029,5.556-9.339-.348-9.774,7.247-9.774,7.247l-5.894,11.31,1.493,1.058.7.483,6-6.952s0,7.938-1.1,9.856c-.744,1.3-.865,3.7-.865,5.1,0,.657.029,1.1.029,1.1s1.826,3.865,9.851,8.648c3.6,2.14,5.706,1.778,6.928.72a5.958,5.958,0,0,0,1.676-3.623l-3.382-5.744c-.169.072-.333.126-.483.188v-.618c.213-5.073,4.773-15.774,4.773-15.774s4.377-11.523,8.025-15.049c3.184-3.078,15.967-22.509,19.175-27.413v.164a5.871,5.871,0,0,0,.058.686c.483,5.252,1.933,7.571,1.933,7.571s1.667,21.258,1.976,26.669a13.085,13.085,0,0,1-1.275,6.9l-.034.058c-.034,0-3.329,1.73-3.638,5.083a12.441,12.441,0,0,0,1.561,6.537s4.256,10.624,4.1,13.677h2.5l-.415-9.237.039.048c.454.6,4.923,6.6,5.073,9.6a20.979,20.979,0,0,1,1.1,3.933.317.317,0,0,1,0,.068c-.106.725,3.962,4.15,9.856,3.474s6.928-1.5,6.928-1.5.068-.188.155-.483c.295-1.111.763-3.822-1.193-5.16-2.449-1.677-7.542-6.377-7.759-6.575h0a133.772,133.772,0,0,0-3.5-16.4V270.143s1.2-32.587.372-38.085a29.008,29.008,0,0,1,0-9.445c.516-3.127,3.648-10.271,2.9-11.416s1.561-5.189,1.561-5.189l4.382-12.286.256-.715h0c.715-.271,1.184-.449,1.353-.483,1.449-.309,0-2.648,0-2.648s4.648-19.765,4.174-23.35,1.1-18.286,1.1-18.286l.749-6.1.068-.546c.483.6.821.966.821.966,5-.831,9.276-14.494,8.179-15.257s-4.169-10.74-4.169-10.74c-4.9-6.8-.483-20.91-.483-20.91s4.483-11.363,4.43-13.233,1.044-1.933,1.044-1.933v-.053c4.116.879,18.412,3.918,19.146,4.068a19.8,19.8,0,0,1,4.3.99c1.72.7,12.827-.99,12.827-.99S295.175,83.867,294.707,80.843ZM184.07,176.068l-3.6,4.58.536.242-21.92,27.326c-1.169-1.222-2.044-1.991-2.044-1.991-.222-.391-.444-.763-.662-1.13l16.281-20.775a1.744,1.744,0,0,0,.3.193l1.29-1.536a3.575,3.575,0,0,0,1.217.705c3.058,1.048,5.314-2.937,6.86-7.638a4.211,4.211,0,0,1,1.744.014ZM233.093,44.227v0Zm0-.28a1.063,1.063,0,0,1,0,.111.854.854,0,0,0,.01-.111ZM263.11,65.267s-.705-2.179-1.174-2.179a6.815,6.815,0,0,1-1.72-.623A1.383,1.383,0,0,1,258.5,61.4c-.483-1.449-3.469-2.59-3.469-2.59s-4.377-1.817-4.744-3.324-6.619-3.165-6.619-3.165.42-.618-2.242-1.5a9.878,9.878,0,0,1-2.57-1.57,59.465,59.465,0,0,1-5.754-5.314,15.611,15.611,0,0,1,.565-3.338c.068-.246.14-.483.222-.725a15.621,15.621,0,0,0,3.43-2.3l3.247,4.711a1.087,1.087,0,0,0,1.507.28l2.59-1.763a9.771,9.771,0,0,0,4.348.643l5.764,6.952a5.649,5.649,0,0,0,.246,2.338l13.4,15.88c-.353-.1-5.3-1.343-5.3-1.343Z" transform="translate(-25.659 0)" fill="url(#linear-gradient)"/>
  <path id="パス_3" data-name="パス 3" d="M483.555,87.982s-14.75.155-12.238,8.324l5.628,3.266,5.609-1.14,2.633-4.653Z" transform="translate(-243.461 -45.475)" fill="#65617d"/>
  <path id="パス_4" data-name="パス 4" d="M483.555,87.982s-14.75.155-12.238,8.324l5.628,3.266,5.609-1.14,2.633-4.653Z" transform="translate(-243.461 -45.475)" opacity="0.1"/>
  <path id="パス_5" data-name="パス 5" d="M429.963,52.726C434.006,67.432,443.867,66,443.867,66l6.324,7.658.932,1.188,2.019,2.57,8.948-5.083-1.783-2.1L449.853,57.953S425.919,38.024,429.963,52.726Z" transform="translate(-221.997 -24.457)" fill="#fbbebe"/>
  <path id="パス_6" data-name="パス 6" d="M427.557,66.929h0a.136.136,0,0,1-.188-.035l-1.117-1.63a.135.135,0,0,1,.035-.188h0a.135.135,0,0,1,.188.035l1.117,1.63A.135.135,0,0,1,427.557,66.929Z" transform="translate(-220.304 -33.624)" fill="#a92c3d"/>
  <path id="パス_7" data-name="パス 7" d="M440.228,52.044h0a.078.078,0,0,1-.108-.02l-.331-.482a.078.078,0,0,1,.02-.108h0a.078.078,0,0,1,.108.02l.33.482A.078.078,0,0,1,440.228,52.044Z" transform="translate(-227.307 -26.578)" fill="#a92c3d"/>
  <path id="パス_8" data-name="パス 8" d="M443.834,58.389h0a.086.086,0,0,1-.121-.022l-.633-.911a.087.087,0,0,1,.022-.121h0a.086.086,0,0,1,.121.022l.633.911A.086.086,0,0,1,443.834,58.389Z" transform="translate(-229.007 -29.627)" fill="#a92c3d"/>
  <path id="パス_9" data-name="パス 9" d="M444.157,57.765h0a.082.082,0,0,1-.114-.021l-.643-.936a.082.082,0,0,1,.022-.114h0a.081.081,0,0,1,.114.021l.642.936A.082.082,0,0,1,444.157,57.765Z" transform="translate(-229.173 -29.296)" fill="#a92c3d"/>
  <path id="パス_10" data-name="パス 10" d="M438.964,63.613l-5.733,3.932a1.083,1.083,0,0,1-1.5-.28l-9.257-13.5a1.082,1.082,0,0,1,.28-1.5l5.734-3.932a1.082,1.082,0,0,1,1.5.281l9.257,13.5A1.082,1.082,0,0,1,438.964,63.613Z" transform="translate(-218.264 -24.882)" fill="#a92c3d"/>
  <path id="パス_11" data-name="パス 11" d="M424.376,52.709a.328.328,0,0,1,.454.087l.039.053a.329.329,0,0,0,.454.087l3.193-2.189a.329.329,0,0,0,.082-.454l-.039-.053a.328.328,0,0,1,.087-.454l.618-.43a.628.628,0,0,1,.87.164l9.228,13.46a.623.623,0,0,1-.164.865l-5.561,3.8a.624.624,0,0,1-.865-.164l-9.233-13.46a.624.624,0,0,1,.164-.865Z" transform="translate(-218.86 -25.455)" fill="#a92c3d"/>
  <path id="パス_12" data-name="パス 12" d="M430.305,52.861l-.837.574a.13.13,0,0,1-.181-.034h0a.131.131,0,0,1,.034-.182l.837-.573a.13.13,0,0,1,.181.034h0A.13.13,0,0,1,430.305,52.861Z" transform="translate(-221.874 -27.199)" fill="#e6e8ec"/>
  <path id="パス_13" data-name="パス 13" d="M428.725,54.467a.145.145,0,1,1-.145-.145A.145.145,0,0,1,428.725,54.467Z" transform="translate(-221.446 -28.077)" fill="#e6e8ec"/>
  <path id="パス_14" data-name="パス 14" d="M373.96,440.056c0,.29.044.57.068.85.483,5.247,1.908,7.566,1.908,7.566s1.657,21.258,1.966,26.659a13.123,13.123,0,0,1-1.271,6.894,6.14,6.14,0,0,1-.7,1.1L374.9,485.4l4.875,9.75,5.706,9.44,3.942,5.184s2.9.415,3.527,0,3.107,0,3.107,0l2.285-3.527-2.561-3.464-.966-1.3a134.2,134.2,0,0,0-3.479-16.393V470.88s1.2-32.568.367-38.071a29.139,29.139,0,0,1,0-9.435c.513-3.124,3.628-10.271,2.9-11.412s1.556-5.189,1.556-5.189L400.5,394.5l.251-.72-.966-2.353-24.475-3.092s.193,1.932.406,5v.068c.126,1.778.251,3.942.353,6.358.338,8.126.367,19.035-1.174,27.369A52.4,52.4,0,0,0,373.96,440.056Z" transform="translate(-193.253 -200.717)" fill="#fbbebe"/>
  <path id="パス_15" data-name="パス 15" d="M374.014,446.214l1.285-1.976a43.44,43.44,0,0,1,7.88-6.015c4.464-2.594,5.5-8.7,5.314-9.542s.623-8.7.623-8.7V400.051L375.729,398.6c.531,7.764,1.184,22.953-.821,33.819A50.422,50.422,0,0,0,374.014,446.214Z" transform="translate(-193.239 -206.026)" opacity="0.1"/>
  <path id="パス_16" data-name="パス 16" d="M287.735,494.776l1.039,9.542,5.078,3.005s4.672.522,3.841-3.628a6.088,6.088,0,0,1-.077-1.348c.208-5.068,4.744-15.764,4.744-15.764s4.348-11.513,7.986-15.045c3.169-3.073,15.89-22.495,19.084-27.4l.73-1.126A43.563,43.563,0,0,1,338.043,437c4.459-2.594,5.5-8.7,5.314-9.542s.618-8.7.618-8.7V398.826l-12.764-1.362L319.7,396.232s.256,2.251.585,5.116c.556,4.735,1.338,11.146,1.594,11.793.42,1.039,1.353,7.247,1.353,7.247s-.73,2.8-1.246,5.392-7.247,9.754-7.247,9.754C306.133,442.69,297.523,468,297.523,468c-2.266,4.9-4.831,5.73-6.165,5.8a2.64,2.64,0,0,1-.889-.082l-1.87,3.425Z" transform="translate(-148.722 -204.801)" fill="#fbbebe"/>
  <path id="パス_17" data-name="パス 17" d="M375.975,585.639l4.875,9.75,5.706,9.44,3.942,5.184s2.9.416,3.527,0,3.107,0,3.107,0l2.285-3.527-2.561-3.464c.672,1.546,1.222,3.474-.135,3.565-2.28.159-7,2.077-9.7-4.406s-6.281-9.387-6.281-9.387l-2.855-6.947-.184-3.585a6.138,6.138,0,0,1-.7,1.1Z" transform="translate(-194.331 -300.954)" opacity="0.1"/>
  <path id="パス_18" data-name="パス 18" d="M373.514,594.012s4.252,10.581,4.1,13.644H380.1l-.416-9.237.039.053c.454.6,4.9,6.595,5.049,9.6a20.969,20.969,0,0,1,1.092,3.928.314.314,0,0,1,0,.068c-.106.725,3.938,4.15,9.8,3.474s6.894-1.5,6.894-1.5.068-.188.155-.483c.29-1.111.759-3.817-1.189-5.155-2.44-1.681-7.527-6.4-7.73-6.575.13.232,3.053,5.314.821,5.484s-7,2.077-9.7-4.406-6.281-9.387-6.281-9.387l-2.855-6.947-.213-4.15s-3.314,1.71-3.623,5.083A12.253,12.253,0,0,0,373.514,594.012Z" transform="translate(-192.231 -301.032)" fill="#3f3d56"/>
  <path id="パス_19" data-name="パス 19" d="M382.588,613.537c.295,2.483,1.024,7.054,1.4,9.392h1.6l-.416-9.237.039.053-.14-.411S382.153,610.117,382.588,613.537Z" transform="translate(-197.726 -316.305)" opacity="0.1"/>
  <path id="パス_20" data-name="パス 20" d="M400.733,643.725c-.106.725,3.938,4.15,9.8,3.474s6.894-1.5,6.894-1.5.068-.188.155-.483c-3.652.043-13.4,0-16.847-1.541A.286.286,0,0,1,400.733,643.725Z" transform="translate(-207.126 -332.695)" opacity="0.1"/>
  <path id="パス_21" data-name="パス 21" d="M287.735,577.672l1.039,9.542,5.078,3.005s4.672.522,3.841-3.628a6.088,6.088,0,0,1-.077-1.348c-7.841,2.9-8.634-4.773-8.634-4.773l1.4-20.9a4.57,4.57,0,0,1,.937-2.875,2.64,2.64,0,0,1-.889-.082l-1.87,3.425Z" transform="translate(-148.722 -287.696)" opacity="0.1"/>
  <path id="パス_22" data-name="パス 22" d="M265.3,574.846l1.483,1.063.7.483,5.967-6.947s0,7.933-1.092,9.851c-.739,1.3-.855,3.7-.855,5.1,0,.657.024,1.1.024,1.1s1.817,3.865,9.8,8.643c3.585,2.14,5.677,1.773,6.889.72a5.951,5.951,0,0,0,1.667-3.623l-3.382-5.74c-8.3,3.382-9.126-4.585-9.126-4.585l1.4-20.9c.1-3.164,2.106-3.725,2.106-3.725-9.3-.358-9.73,7.247-9.73,7.247Z" transform="translate(-137.123 -287.518)" fill="#3f3d56"/>
  <path id="パス_23" data-name="パス 23" d="M268.375,587.851l.691.493,5.967-6.947-.676-2.024Z" transform="translate(-138.715 -299.46)" opacity="0.1"/>
  <path id="パス_24" data-name="パス 24" d="M278.125,614.5c0,.657.024,1.1.024,1.1s1.817,3.865,9.8,8.643c3.585,2.14,5.677,1.773,6.889.72C291.2,623.836,282.526,620.638,278.125,614.5Z" transform="translate(-143.755 -317.618)" opacity="0.1"/>
  <path id="パス_25" data-name="パス 25" d="M304.8,358.611c4.614,1.59,7.382-8.392,8.7-14.9.609-3.039.894-5.314.894-5.314H305.9s-.483,1.145-1.145,2.9C302.87,346.441,299.754,356.867,304.8,358.611Z" transform="translate(-156.127 -174.905)" fill="#fbbebe"/>
  <path id="パス_26" data-name="パス 26" d="M385.415,78.9l5.8,14.1V105.14c0,.314,14.417,4.348,14.417,4.348l3.735-9.334s1.14-11-3.005-20.127a13.581,13.581,0,0,1-.565-9.455q.1-.367.217-.725a23.808,23.808,0,0,1,4.6-7.972c2.037-2.333-9.89-3.28-16.682-3.947-4.276-.415-7.334.2-5.928,3.324a13.832,13.832,0,0,1,1.121,6.281,2.975,2.975,0,0,1-.039.585A25.713,25.713,0,0,1,385.415,78.9Z" transform="translate(-199.21 -29.882)" fill="#fbbebe"/>
  <path id="パス_27" data-name="パス 27" d="M390.425,61.281a13.832,13.832,0,0,1,1.121,6.281,2.975,2.975,0,0,1-.039.585.136.136,0,0,0,.039.034,15.319,15.319,0,0,0,8.8,3.822c.449.043.908.063,1.367.063a15.1,15.1,0,0,0,6.508-1.449q.1-.367.217-.725a23.809,23.809,0,0,1,4.6-7.972c2.037-2.333-9.89-3.28-16.682-3.947C392.077,57.542,389.019,58.16,390.425,61.281Z" transform="translate(-201.62 -29.901)" opacity="0.1"/>
  <path id="パス_28" data-name="パス 28" d="M381.4,33.857a16.911,16.911,0,0,0,5.657,12.716,15.341,15.341,0,0,0,8.8,3.817c.449.043.908.063,1.367.063a15.163,15.163,0,0,0,6.725-1.565,16.673,16.673,0,0,0,9.1-15.03,17.054,17.054,0,0,0-3.087-9.851,15.575,15.575,0,0,0-12.74-6.764C388.492,17.256,381.4,24.687,381.4,33.857Z" transform="translate(-197.137 -8.912)" fill="#fbbebe"/>
  <path id="パス_29" data-name="パス 29" d="M406.13,127.645s-9.663-8.817-12.344-16.8a88.474,88.474,0,0,0-6.43-14.417l.715-1.493s3.952,10.518,6.856,11.759,9.663,8.4,10.271,13.383l.416-15.146.652-10s4.947,10.518,5.363,15.393-.106,13.692-1.662,15.557A5.069,5.069,0,0,1,406.13,127.645Z" transform="translate(-200.213 -49.068)" fill="#a92c3d"/>
  <path id="パス_30" data-name="パス 30" d="M384.855,94.765l.068-.063Z" transform="translate(-198.92 -48.949)" fill="rgba(0,0,0,0)" stroke="#787978" stroke-miterlimit="10" stroke-width="1"/>
  <path id="パス_31" data-name="パス 31" d="M353.855,392.149s.256,2.251.585,5.116a25.879,25.879,0,0,0,11.276,2.474,52.349,52.349,0,0,0,12.412-1.478,91.452,91.452,0,0,0,12.04-3.764l.251-.72-.966-2.353-24.495-3.092s.193,1.932.406,5v.068Z" transform="translate(-182.897 -200.717)" opacity="0.1"/>
  <path id="パス_32" data-name="パス 32" d="M344.3,308.657c.068.155.14.338.208.536,1.3,3.817,2.28,15.335,2.28,15.335,13.692,9.493,38.119-1.71,39.564-2.024s0-2.643,0-2.643,4.624-19.76,4.16-23.34,1.087-18.282,1.087-18.282l.754-6.107,2.073-17.33-15.871-3.421s-19.417,1.971-25.606,4.276a8.541,8.541,0,0,0-.845.358c-1.9.937-3.594,4.034-4.962,7.513-.836,2.111-1.546,4.348-2.116,6.358a40.993,40.993,0,0,0-1.556,10.687C343.336,289.119,343.254,306.328,344.3,308.657Z" transform="translate(-177.49 -129.932)" fill="#3f3d56"/>
  <path id="パス_33" data-name="パス 33" d="M344.293,313.252c.068.155.14.338.208.536.889-6.155,1.73-24.7,1.556-30.771-.208-7.247,7.469-22.615,7.469-22.615l-.609-.13a8.534,8.534,0,0,0-.845.358c-3.053,1.507-5.575,8.6-7.073,13.871a41.015,41.015,0,0,0-1.56,10.687C343.327,293.714,343.245,310.928,344.293,313.252Z" transform="translate(-177.481 -134.527)" opacity="0.1"/>
  <path id="パス_34" data-name="パス 34" d="M351.105,263.568a155.834,155.834,0,0,0,21.92,11.194c13.851,5.909,15.354-18.1,15.354-18.1a24.81,24.81,0,0,1,2.648,6.691c.768,3.068,3.783,6.991,5.314,8.822l2.073-17.33-15.871-3.421s-19.417,1.971-25.606,4.276a8.533,8.533,0,0,0-.845.358C354.168,256.992,352.472,260.075,351.105,263.568Z" transform="translate(-181.476 -129.953)" opacity="0.1"/>
  <path id="パス_35" data-name="パス 35" d="M334.147,128.619a5.986,5.986,0,0,1,0,4.3s13.745,11.875,14.421,9.851.966,3.425.966,3.425,1.353,1.4,1.044,2.126.256,4.875.256,4.875.725,2.488.208,3.01-1.295,4.831-1.295,4.831l-1.855,6.889-.324.271c-2.9,2.382-3.271,6.532-4.1,7.571s-1.343,4.044-1.343,4.044a155.193,155.193,0,0,0,21.934,11.2c13.847,5.914,15.354-18.1,15.354-18.1a24.806,24.806,0,0,1,2.662,6.667c1.039,4.15,6.174,9.856,6.174,9.856,4.981-.831,9.228-14.47,8.141-15.248s-4.169-10.735-4.169-10.735c-4.875-6.793-.483-20.905-.483-20.905s4.459-11.358,4.406-13.223,1.039-1.933,1.039-1.933l3.165-21.678S396,103.9,395.625,102.4s-6.59-3.16-6.59-3.16.42-.623-2.227-1.507a9.755,9.755,0,0,1-2.561-1.565,60.1,60.1,0,0,1-5.725-5.314c-1.791-1.894-.266,6.174,1.024,9.745s2.232,14.117,2.333,14.895-3.735,8.919-3.735,8.919l-2.034-2.788c-3.208-4.387-9.117-12.445-9.527-12.822-.575-.517-5.546-14.388-6.237-16.117-.256-.633-.614-.836-.966-.841a1.446,1.446,0,0,0-.778.251h0a2.683,2.683,0,0,0-.343.251l-.121.333-.029.068a7.407,7.407,0,0,1-.367.831h0c-3.334,6.542-15.769,11.223-15.769,11.223-3.991,1.4-4.667,4.237-4.667,4.237s.725,2.507-.879,3.754-.932,4.667-.932,4.667-2.179,4.928-1.618,5.653a13.277,13.277,0,0,1,1.15,1.971C335.352,125.766,333.215,126.527,334.147,128.619Z" transform="translate(-172.523 -46.81)" fill="#65617d"/>
  <path id="パス_36" data-name="パス 36" d="M417.945,132.148s21.214,3.319,20.229-5.8c-.9-8.315-8.7-25.8-10.078-28.848a60.394,60.394,0,0,1-5.73-5.314c-1.793-1.893-.261,6.174,1.024,9.745s2.232,14.112,2.333,14.89-3.735,8.923-3.735,8.923Z" transform="translate(-216.024 -47.503)" opacity="0.1"/>
  <path id="パス_37" data-name="パス 37" d="M416.655,130.868s21.214,3.314,20.229-5.8c-.9-8.315-8.7-25.8-10.078-28.848a60.1,60.1,0,0,1-5.725-5.314c-1.791-1.894-.266,6.174,1.019,9.745s2.232,14.117,2.338,14.895-3.735,8.919-3.735,8.919Z" transform="translate(-215.357 -46.841)" opacity="0.1"/>
  <path id="パス_38" data-name="パス 38" d="M417.305,130.868s21.209,3.314,20.224-5.8c-.894-8.315-8.7-25.8-10.078-28.848a60.092,60.092,0,0,1-5.725-5.314c-1.791-1.894-.266,6.174,1.024,9.745s2.232,14.117,2.333,14.895-3.735,8.919-3.735,8.919Z" transform="translate(-215.693 -46.841)" fill="#65617d"/>
  <path id="パス_39" data-name="パス 39" d="M382.125,96.206h0c0,.063.034.966.077,2.358.082,2.686.213,7.247.28,11.542.077,4.976.077,9.556-.164,10.339-.57,1.817,2.227,6.329,2.227,6.329L398.5,133.46l3.754-5.967-1.744-3.251c-3.208-4.387-9.117-12.445-9.527-12.822a25.99,25.99,0,0,1-1.618-3.768c-1.7-4.392-4.15-11.175-4.619-12.349a1.742,1.742,0,0,0-.966-.845.854.854,0,0,0-.778.256h0a2.72,2.72,0,0,0-.483.647v.024a4.949,4.949,0,0,0-.357.807Z" transform="translate(-197.509 -48.815)" opacity="0.1"/>
  <path id="パス_40" data-name="パス 40" d="M384.065,94.918h0c0,.058.034.966.072,2.353.082,2.686.213,7.247.28,11.542.082,4.976.082,9.556-.164,10.339-.57,1.817,2.232,6.329,2.232,6.329l13.948,6.691,3.764-5.967-1.744-3.251c-3.208-4.387-9.112-12.445-9.527-12.822a26.617,26.617,0,0,1-1.618-3.768c-1.7-4.387-4.15-11.175-4.619-12.349a1.737,1.737,0,0,0-.966-.841.831.831,0,0,0-.778.251h0a2.677,2.677,0,0,0-.483.652h0a4.921,4.921,0,0,0-.358.812Z" transform="translate(-198.512 -48.15)" opacity="0.1"/>
  <path id="パス_41" data-name="パス 41" d="M383.415,94.914h0c0,.058.034.966.077,2.353.082,2.686.208,7.247.28,11.542.077,4.976.077,9.556-.169,10.339-.565,1.817,2.232,6.329,2.232,6.329l13.953,6.691,3.749-5.971s-.662-1.246-1.739-3.251c-3.208-4.387-9.117-12.445-9.527-12.822a26,26,0,0,1-1.618-3.768c-1.7-4.387-4.15-11.175-4.619-12.349a1.727,1.727,0,0,0-.966-.841.841.841,0,0,0-.778.251h0a2.541,2.541,0,0,0-.483.652h0a4.919,4.919,0,0,0-.358.812Z" transform="translate(-198.176 -48.146)" fill="#65617d"/>
  <path id="パス_42" data-name="パス 42" d="M421.193,178.086c0,1.118-.523,2.024-1.169,2.024s-1.169-.906-1.169-2.024.524-2.024,1.169-2.024S421.193,176.968,421.193,178.086Z" transform="translate(-216.494 -91.001)" opacity="0.1"/>
  <path id="パス_43" data-name="パス 43" d="M421.193,177.436c0,1.118-.523,2.024-1.169,2.024s-1.169-.906-1.169-2.024.524-2.024,1.169-2.024S421.193,176.318,421.193,177.436Z" transform="translate(-216.494 -90.665)" fill="#a92c3d"/>
  <path id="パス_44" data-name="パス 44" d="M427.4,223.006c0,1.118-.523,2.024-1.169,2.024s-1.169-.906-1.169-2.024.524-2.024,1.169-2.024S427.4,221.888,427.4,223.006Z" transform="translate(-219.704 -114.219)" opacity="0.1"/>
  <path id="パス_45" data-name="パス 45" d="M424.993,199.226c0,1.118-.523,2.024-1.169,2.024s-1.169-.906-1.169-2.024.524-2.024,1.169-2.024S424.993,198.108,424.993,199.226Z" transform="translate(-218.458 -101.928)" opacity="0.1"/>
  <path id="パス_46" data-name="パス 46" d="M429.823,242.976c0,1.118-.523,2.024-1.169,2.024s-1.169-.906-1.169-2.024.524-2.024,1.169-2.024S429.823,241.858,429.823,242.976Z" transform="translate(-220.954 -124.541)" opacity="0.1"/>
  <path id="パス_47" data-name="パス 47" d="M427.4,222.366c0,1.118-.523,2.024-1.169,2.024s-1.169-.906-1.169-2.024.524-2.024,1.169-2.024S427.4,221.248,427.4,222.366Z" transform="translate(-219.704 -113.888)" fill="#a92c3d"/>
  <path id="パス_48" data-name="パス 48" d="M424.993,198.586c0,1.118-.523,2.024-1.169,2.024s-1.169-.906-1.169-2.024.524-2.024,1.169-2.024S424.993,197.468,424.993,198.586Z" transform="translate(-218.458 -101.597)" fill="#a92c3d"/>
  <path id="パス_49" data-name="パス 49" d="M429.823,242.336c0,1.118-.523,2.024-1.169,2.024s-1.169-.906-1.169-2.024.524-2.024,1.169-2.024S429.823,241.218,429.823,242.336Z" transform="translate(-220.954 -124.21)" fill="#a92c3d"/>
  <path id="パス_50" data-name="パス 50" d="M377.658,109.681a13.564,13.564,0,0,1,3.078-.821c1.362-.271,2.754-.483,2.754-.483a8.275,8.275,0,0,1,4.126-1.933c-1.7-4.387-4.15-11.175-4.619-12.349a1.726,1.726,0,0,0-.966-.841.841.841,0,0,0-.778.251h0a2.541,2.541,0,0,0-.483.652h0l-.285,3.174-.077.85s-2.256,1.087-1.788,2.9S377.035,110.15,377.658,109.681Z" transform="translate(-195.139 -48.192)" fill="#a92c3d"/>
  <path id="パス_51" data-name="パス 51" d="M425.771,95.582s7.672,11.03,7.59,13.209-1.242,0-1.242,0-3.242-9.629-7.025-2.334Z" transform="translate(-219.719 -49.404)" opacity="0.1"/>
  <path id="パス_52" data-name="パス 52" d="M425.771,94.932s7.672,11.035,7.59,13.214-1.242,0-1.242,0-3.242-9.629-7.025-2.338Z" transform="translate(-219.719 -49.068)" fill="#a92c3d"/>
  <path id="パス_53" data-name="パス 53" d="M465.947,123.133l1.14-1.121s2.981,1.121,3.435,2.57a1.378,1.378,0,0,0,1.71,1.073,6.817,6.817,0,0,0,1.71.618c.483,0,1.169,2.179,1.169,2.179s4.9,1.246,5.314,1.324,19.6,17.91,19.6,17.91-11.044,1.7-12.755,1a19.7,19.7,0,0,0-4.281-1c-.855-.174-20.147-4.3-20.147-4.3Z" transform="translate(-239.231 -63.064)" fill="#65617d"/>
  <path id="パス_54" data-name="パス 54" d="M474.255,99.4l2.02,2.57,8.948-5.083-1.783-2.1A9.556,9.556,0,0,1,474.255,99.4Z" transform="translate(-245.129 -48.995)" opacity="0.1"/>
  <path id="パス_55" data-name="パス 55" d="M501.681,129.13l2.875.966s7.005-.638,6.537-3.672-3.5-8.59-3.5-8.59l-4.348-7.435s-1.715-2.039-1.556-2.691-2.024-1.744-2.024-1.744a7.948,7.948,0,0,1-1.324-2.416c-.077-.783-7.083-6.706-7.083-6.706s-2.416-2.024-1.87-8.87h-5.522s-2.536,10.194-12.238,8.324l13.33,15.871Z" transform="translate(-243.769 -45.47)" fill="#65617d"/>
  <path id="パス_56" data-name="パス 56" d="M307.635,341.231a17.228,17.228,0,0,0,8.735,2.416c.609-3.039.894-5.314.894-5.314H308.78S308.278,339.5,307.635,341.231Z" transform="translate(-159.008 -174.874)" opacity="0.1"/>
  <path id="パス_57" data-name="パス 57" d="M318.412,173.922l-2.464,2.073a1.539,1.539,0,0,1-.358,1.763c-.841.623,0,5.368,0,5.368a2.821,2.821,0,0,1-.676,1.734c-.7.831,0,8.923,0,8.923a2.693,2.693,0,0,1-.855,1.01c-.483.232-1.87,7.861-1.478,8.247s-5.913,18.75-5.913,18.75.155,3.189-.7,3.735-1.01,4.2-1.01,4.2.387,3.266-1.169,3.889-1.865,11.672-1.865,11.672-2.1,5.677-3.348,6.609c0,0,5.913,8.092,17.349,5.759,0,0,.483-10.194,1.865-14.238l4.126-20.615s2.488-8.793,3.421-13.615,5.034-23.34,5.034-23.34v-6.609Z" transform="translate(-154.325 -89.895)" fill="#65617d"/>
  <path id="パス_58" data-name="パス 58" d="M314.487,289.549c0,.6-.244,1.087-.546,1.087s-.546-.487-.546-1.087.244-1.087.546-1.087S314.487,288.949,314.487,289.549Z" transform="translate(-161.985 -149.097)" opacity="0.1"/>
  <path id="パス_59" data-name="パス 59" d="M309.977,308.709c0,.6-.244,1.087-.546,1.087s-.546-.487-.546-1.087.244-1.087.546-1.087S309.977,308.108,309.977,308.709Z" transform="translate(-159.654 -159.001)" opacity="0.1"/>
  <path id="パス_60" data-name="パス 60" d="M306.6,326.259c0,.6-.244,1.087-.546,1.087s-.546-.487-.546-1.087.244-1.087.546-1.087S306.6,325.659,306.6,326.259Z" transform="translate(-157.907 -168.072)" opacity="0.1"/>
  <path id="パス_61" data-name="パス 61" d="M312.227,299.209c0,.6-.244,1.087-.546,1.087s-.546-.487-.546-1.087.244-1.087.546-1.087S312.227,298.609,312.227,299.209Z" transform="translate(-160.817 -154.09)" opacity="0.1"/>
  <path id="パス_62" data-name="パス 62" d="M307.717,317.889c0,.6-.244,1.087-.546,1.087s-.546-.487-.546-1.087.245-1.087.546-1.087S307.717,317.289,307.717,317.889Z" transform="translate(-158.486 -163.746)" opacity="0.1"/>
  <path id="パス_63" data-name="パス 63" d="M314.487,288.909c0,.6-.244,1.087-.546,1.087s-.546-.487-.546-1.087.244-1.087.546-1.087S314.487,288.309,314.487,288.909Z" transform="translate(-161.985 -148.767)" fill="#a92c3d"/>
  <path id="パス_64" data-name="パス 64" d="M309.977,308.069c0,.6-.244,1.087-.546,1.087s-.546-.487-.546-1.087.244-1.087.546-1.087S309.977,307.468,309.977,308.069Z" transform="translate(-159.654 -158.67)" fill="#a92c3d"/>
  <path id="パス_65" data-name="パス 65" d="M306.6,325.619c0,.6-.244,1.087-.546,1.087s-.546-.487-.546-1.087.244-1.087.546-1.087S306.6,325.019,306.6,325.619Z" transform="translate(-157.907 -167.741)" fill="#a92c3d"/>
  <path id="パス_66" data-name="パス 66" d="M312.227,298.569c0,.6-.244,1.087-.546,1.087s-.546-.487-.546-1.087.244-1.087.546-1.087S312.227,297.969,312.227,298.569Z" transform="translate(-160.817 -153.76)" fill="#a92c3d"/>
  <path id="パス_67" data-name="パス 67" d="M307.717,317.249c0,.6-.244,1.087-.546,1.087s-.546-.487-.546-1.087.245-1.087.546-1.087S307.717,316.649,307.717,317.249Z" transform="translate(-158.486 -163.415)" fill="#a92c3d"/>
  <path id="パス_68" data-name="パス 68" d="M384.085,204.253s-8.406-1.449-10.977,0S384.085,204.253,384.085,204.253Z" transform="translate(-192.681 -105.239)" opacity="0.1"/>
  <path id="パス_69" data-name="パス 69" d="M378.26,216.312s-4.348-7.078-5.648-4.831S378.26,216.312,378.26,216.312Z" transform="translate(-192.508 -109.08)" opacity="0.1"/>
  <path id="パス_70" data-name="パス 70" d="M332.306,238.222c-.232.232-9.494,10.812-9.411,11.513S332.306,238.222,332.306,238.222Z" transform="translate(-166.894 -123.13)" opacity="0.1"/>
  <path id="パス_71" data-name="パス 71" d="M512.8,160.6c-.077.237-2.493,5.058-.894,5.6S512.8,160.6,512.8,160.6Z" transform="translate(-264.31 -83.01)" opacity="0.1"/>
  <path id="パス_72" data-name="パス 72" d="M494.737,146.752a24.278,24.278,0,0,0-4.28,1.933C489.833,149.293,494.737,146.752,494.737,146.752Z" transform="translate(-253.474 -75.852)" opacity="0.1"/>
  <path id="パス_73" data-name="パス 73" d="M516.395,137.962c-1.71-.077-7.778-1.715-8.015-1.169S516.395,137.962,516.395,137.962Z" transform="translate(-262.764 -70.647)" opacity="0.1"/>
  <path id="パス_74" data-name="パス 74" d="M387.031,46.568a25.562,25.562,0,0,1-3.72,11.358l5.8,14.1v4.1c3.942.415,8.1-.44,10.967-3.121-2.276-.744-3.662-3.005-4.72-5.155a59.8,59.8,0,0,1-3.155-7.807c-.58-1.792-.879-4.179.715-5.189.729-.483,1.7-.483,2.372-1.024a2.961,2.961,0,0,0,.633-3.107c-.034-.116-.068-.232-.106-.343-.705-2.1-2.367-3.754-3.382-5.735a10.368,10.368,0,0,1-.614-7.687,9.6,9.6,0,0,1,1.116-2.416,10.353,10.353,0,0,1,8.972-4.657c.9.039,2.01.1,2.469-.676.358-.589.1-1.353.217-2.034.343-2.077,2.9-2.536,5.314-3.184a15.575,15.575,0,0,0-12.74-6.764c-8.735,0-15.822,7.431-15.822,16.6A16.91,16.91,0,0,0,387.031,46.568Z" transform="translate(-197.106 -8.907)" opacity="0.1"/>
  <path id="パス_75" data-name="パス 75" d="M382.415,18.4c-.116.681.14,1.449-.213,2.039-.483.768-1.57.71-2.469.672a10.146,10.146,0,0,0-9.479,14.755c1.063,2.087,2.85,3.817,3.483,6.073a2.965,2.965,0,0,1-.633,3.111c-.672.546-1.643.56-2.372,1.024-1.594,1.01-1.295,3.382-.715,5.189a59.079,59.079,0,0,0,3.16,7.807c1.053,2.15,2.416,4.411,4.715,5.155-3.324,3.1-8.358,3.768-12.8,2.826s-8.46-3.256-12.387-5.546c-1.614-.937-3.319-1.976-4.107-3.667-1.073-2.3-.116-4.971.565-7.411a2.965,2.965,0,0,0,.082-1.9,3.234,3.234,0,0,0-1.831-1.449c-3.1-1.295,2.9-2.416,0-4.136a16.121,16.121,0,0,1-6.86-7.17c-2.256-5.261-.222-11.537,3.382-15.987s-.618-7.551,3.991-10.948A62.849,62.849,0,0,1,356.988,2.7a24.88,24.88,0,0,1,21.311-.14c3.348,1.57,6.078,4.1,9.363,5.8,1.618.836,5.169,1.894,4.266,4.213C390.561,16.109,383.024,14.732,382.415,18.4Z" transform="translate(-175.532 -0.121)" fill="#3f3d56"/>
  <path id="パス_76" data-name="パス 76" d="M360.965,303.172s11.6,10.581,9.126,10.581S360.965,303.172,360.965,303.172Z" transform="translate(-186.572 -156.701)" opacity="0.1"/>
  <path id="パス_77" data-name="パス 77" d="M357.525,311.762s7.677,7.247,5.4,7.88S357.525,311.762,357.525,311.762Z" transform="translate(-184.794 -161.141)" opacity="0.1"/>
  <path id="パス_78" data-name="パス 78" d="M350.955,250.268s.638.415,1.865,1.15c2.082-2.087,5.136-5.445,6.126-8.15,1.556-4.256.932-16.6.932-16.6-.522.517-1.3,4.831-1.3,4.831l-1.85,6.889-.324.271c-2.9,2.382-3.271,6.532-4.1,7.571S350.955,250.268,350.955,250.268Z" transform="translate(-181.398 -117.16)" opacity="0.1"/>
  <path id="パス_79" data-name="パス 79" d="M102.311,610.115a4.2,4.2,0,1,1-4.2-4.2A4.2,4.2,0,0,1,102.311,610.115Z" transform="translate(-48.537 -313.178)" fill="#3f3d56"/>
  <path id="パス_80" data-name="パス 80" d="M178.641,569.2a4.2,4.2,0,1,1-4.2-4.2A4.2,4.2,0,0,1,178.641,569.2Z" transform="translate(-87.99 -292.028)" fill="#3f3d56"/>
  <path id="パス_81" data-name="パス 81" d="M50.036,470.562c5.073-.256,17.518-.565,20.011-1.812S99.61,438.719,99.61,438.719L107.7,426.9l13.228-5.6,11.044-12.615,8.72-5.575s-1.875.589-2.029-1.271a4.426,4.426,0,0,0-.348-1.391,3.453,3.453,0,0,0-1.01-1.391,2.153,2.153,0,0,0-2.222-.319c-2.019.778-28.582,5.29-28.582,5.29s-8.291,1.4-15.914,11.513a129.363,129.363,0,0,1-14.494,16.335l-20.7,24.741S44.964,470.818,50.036,470.562Z" transform="translate(-25.143 -206.004)" fill="#a92c3d"/>
  <path id="パス_82" data-name="パス 82" d="M50.859,480.168,71.4,506.426l.734-.343,38.94-18.151,15.871-16.025s34.389-36.235,37.032-41.7-7.595-14.47-7.595-14.47c-8.059-14.161-12.474-9.8-12.474-9.8l-39.027,10.73h-.029l-.2.246c-3.029,3.222-37.341,39.742-48.526,51.178l-.024.029h0c-1.59,1.628-2.71,2.744-3.193,3.174C48.839,474.888,50.859,480.168,50.859,480.168Z" transform="translate(-26.028 -209.489)" fill="#a92c3d"/>
  <path id="パス_83" data-name="パス 83" d="M50.857,492.31l20.538,26.258.734-.343c10.866-13.639,37.655-47,45.168-53.806,9.489-8.6,7.16-13.962,7.16-13.962l-8.092-11.044c-6.1-11.315-11.064-10.668-11.484-10.585h-.029l-.2.227-48.54,51.183-.024.029h0c-1.59,1.628-2.71,2.744-3.193,3.174C48.837,487.029,50.857,492.31,50.857,492.31Z" transform="translate(-26.027 -221.63)" opacity="0.1"/>
  <path id="パス_84" data-name="パス 84" d="M226.941,422.635l-3.425-2.957s-7.774-1.7-14.31,5.914l2.334,2.8A18.714,18.714,0,0,1,226.941,422.635Z" transform="translate(-108.132 -216.836)" fill="#3f3d56"/>
  <path id="パス_85" data-name="パス 85" d="M226.941,422.635l-3.425-2.957s-7.774-1.7-14.31,5.914l2.334,2.8A18.714,18.714,0,0,1,226.941,422.635Z" transform="translate(-108.132 -216.836)" opacity="0.1"/>
  <path id="パス_86" data-name="パス 86" d="M255,414.294l33.292-43.24-2.02-.792-33.921,42.477Z" transform="translate(-130.435 -191.377)" fill="#65617d"/>
  <path id="パス_87" data-name="パス 87" d="M230.671,420.366l33.578-43.1-1.681-2.179L227.555,418.5Z" transform="translate(-117.617 -193.874)" fill="#65617d"/>
  <path id="パス_88" data-name="パス 88" d="M298.708,367.282c-.362-.116-3.633-2.957-3.633-2.957h0a24.069,24.069,0,0,1,10.059-8.658c3.609-1.652,7.648-2.942,9.291-1.449,0,0,2.85,3.493-.522,6.208l-2.416-.609s-3.633-4.044-9.547,3.628Z" transform="translate(-152.516 -182.745)" fill="#3f3d56"/>
  <path id="パス_89" data-name="パス 89" d="M325.78,365.726l-4.406,4.527-3.319-1.507,3.865-4.923,2.048.618Z" transform="translate(-164.393 -188.049)" fill="#3f3d56"/>
  <path id="パス_90" data-name="パス 90" d="M122.575,429.444c.256-.261,15.18-15.272,19.5-18.359,3.778-2.7,28.07-8.595,34.452-10.112a3.454,3.454,0,0,0-1.01-1.391c-6.087,1.643-25.7,6.928-31.887,8.5C136.32,409.931,122.788,429.14,122.575,429.444Z" transform="translate(-63.356 -206.532)" opacity="0.1"/>
  <path id="パス_91" data-name="パス 91" d="M141.088,408.592l-35.534,9.4L51.525,475.747V474.09l52.994-56.405Z" transform="translate(-26.632 -211.189)" opacity="0.1"/>
  <path id="パス_92" data-name="パス 92" d="M386.388,67.781c4.45.942,9.484.275,12.808-2.826-2.276-.749-3.662-3.005-4.72-5.155a59.027,59.027,0,0,1-3.155-7.807c-.585-1.792-.884-4.179.71-5.189.734-.483,1.7-.483,2.377-1.024a2.956,2.956,0,0,0,.628-3.111c-.628-2.256-2.416-3.986-3.483-6.073a10.146,10.146,0,0,1,9.479-14.755c.9.039,2.01.1,2.469-.672.353-.594.1-1.358.213-2.039.614-3.667,8.146-2.29,9.508-5.8.9-2.319-2.648-3.382-4.266-4.213-3.285-1.7-6.015-4.232-9.363-5.8-.551-.256-1.116-.483-1.686-.71a24.326,24.326,0,0,1,3.551,1.314c3.348,1.57,6.078,4.1,9.363,5.8,1.618.841,5.169,1.9,4.266,4.218-1.358,3.508-8.894,2.131-9.5,5.8-.116.681.14,1.449-.213,2.039-.483.768-1.57.71-2.469.672a10.146,10.146,0,0,0-9.465,14.764c1.063,2.092,2.85,3.822,3.483,6.078a2.965,2.965,0,0,1-.633,3.111c-.672.546-1.638.56-2.372,1.024-1.594,1.01-1.295,3.382-.715,5.189a59.041,59.041,0,0,0,3.136,7.807c1.053,2.15,2.44,4.406,4.715,5.155-3.324,3.1-8.358,3.764-12.8,2.826a24.273,24.273,0,0,1-3.5-1.029C385.3,67.53,385.837,67.665,386.388,67.781Z" transform="translate(-198.863 -1.35)" opacity="0.1"/>
</svg>
