<svg id="レイヤー_1" xmlns="http://www.w3.org/2000/svg" xmlns:xlink="http://www.w3.org/1999/xlink" width="356.531" height="235.821" viewBox="0 0 356.531 235.821">
  <defs>
    <linearGradient id="linear-gradient" x1="9.093" y1="1.533" x2="9.093" y2="0.533" gradientUnits="objectBoundingBox">
      <stop offset="0" stop-color="gray" stop-opacity="0.251"/>
      <stop offset="0.54" stop-color="gray" stop-opacity="0.122"/>
      <stop offset="1" stop-color="gray" stop-opacity="0.102"/>
    </linearGradient>
  </defs>
  <path id="パス_258" data-name="パス 258" d="M117.57,275.743l4.389-.609V210.344l-.9.274-2.739.842V217.7l-.034,2.814-.062,5.792v7.9l-.329,29.173v.781l-.116,10.27v.158Z" transform="translate(154.076 -66.329)" fill="#e6e8ec"/>
  <path id="パス_259" data-name="パス 259" d="M123.261,276.593l2.444-.342v-1.328l.116-10.27v-.781l.329-29.173v-7.9l.062-5.792.034-2.814v-6.237H123.61v8.373l-.055,6.258v6.621h0l-.253,30.618v.787l-.082,10.181v.164Z" transform="translate(145.92 -66.837)" fill="#d3dae1"/>
  <path id="パス_260" data-name="パス 260" d="M127.58,311.7Z" transform="translate(141.601 -98.292)" fill="#d3dae1"/>
  <path id="パス_261" data-name="パス 261" d="M510.66,198.614v55.923q1.951,1.369,4,2.691l.055-46.557v-4.943Z" transform="translate(-507.812 -62.631)" fill="#e6e8ec"/>
  <path id="パス_262" data-name="パス 262" d="M516.58,197.434V252c.931.746,1.883,1.465,2.848,2.17v-55.93Z" transform="translate(-516.58 -62.258)" fill="#d3dae1"/>
  <path id="パス_263" data-name="パス 263" d="M420.39,288.373c1.684.342,3.375.685,5.066.979l.062-50.6v-2.191l-4.882-2.054v4.642Z" transform="translate(-356.812 -73.948)" fill="#e6e8ec"/>
  <path id="パス_264" data-name="パス 264" d="M427.57,232.164v54.773c1.068.233,2.136.452,3.2.685L431,238.415v-4.642l-.322-.151h0Z" transform="translate(-367.21 -73.21)" fill="#d3dae1"/>
  <path id="パス_265" data-name="パス 265" d="M1.23,263.3l4.553-.459.582-57.06v-2.718H1.894v3.1Z" transform="translate(349.323 -64.034)" fill="#e6e8ec"/>
  <path id="パス_266" data-name="パス 266" d="M7.68,263.663,11.1,263.3l.685-57.135v-3.1H8.33v3.4Z" transform="translate(339.484 -64.034)" fill="#d3dae1"/>
  <path id="パス_267" data-name="パス 267" d="M431.119,233.626l-3.129-1.472v6.908l3.047,1.02Z" transform="translate(-367.617 -73.207)" opacity="0.1"/>
  <path id="パス_268" data-name="パス 268" d="M510.64,197.414v10.571l2.841.952,4.06,1.349.007-4.943-4.067-7.114Z" transform="translate(-510.633 -62.252)" opacity="0.1"/>
  <path id="パス_269" data-name="パス 269" d="M427.51,167.734V197l63.413,21.135.411-31.3Z" transform="translate(-427.503 -52.893)" fill="#d48a9b"/>
  <path id="パス_270" data-name="パス 270" d="M356.524,157.461,273.187,141.6,0,159.494l63.824,19.1Z" transform="translate(0.007 -44.653)" fill="#efc6cd"/>
  <path id="パス_271" data-name="パス 271" d="M1.217,203.064l-.027,3.4,3.451-.3,4.485-.383.021-2.711Z" transform="translate(346.57 -64.034)" opacity="0.1"/>
  <path id="パス_272" data-name="パス 272" d="M117.57,215.465l2.636-.233,3.7-.315v-4.574l-3.656,1.109H117.6Z" transform="translate(152.132 -66.329)" opacity="0.1"/>
  <path id="パス_273" data-name="パス 273" d="M293.11,164.764V192L0,217.2l.411-31.3Z" transform="translate(63.42 -51.956)" fill="#d48a9b"/>
  <path id="パス_274" data-name="パス 274" d="M283.52,205.666h38.286V191.774l-38.286,2.7Z" transform="translate(-159.391 -60.474)" fill="#d48a9b"/>
  <path id="パス_275" data-name="パス 275" d="M283.52,205.666h38.286V191.774l-38.286,2.7Z" transform="translate(-159.391 -60.474)" opacity="0.1"/>
  <path id="パス_276" data-name="パス 276" d="M355.373,187.324v21.95L208.41,220.455V197.08l57.32-3.252,5.7,5.08,23.374-1.623,8.332-6.1Z" transform="translate(-141.532 -59.07)" opacity="0.1"/>
  <path id="パス_277" data-name="パス 277" d="M354.183,186.134v21.957L207.22,219.265V195.89l57.32-3.252,5.69,5.087,23.381-1.629,8.332-6.1Z" transform="translate(-139.528 -58.695)" fill="#fff"/>
  <path id="パス_278" data-name="パス 278" d="M104.43,177.524l-34.76,2.444.4,11.044h22.7l15.179-5.963Z" transform="translate(200.881 -55.98)" fill="#d48a9b"/>
  <path id="パス_279" data-name="パス 279" d="M104.43,177.524l-34.76,2.444.4,11.044h22.7l15.179-5.963Z" transform="translate(200.881 -55.98)" opacity="0.1"/>
  <path id="パス_280" data-name="パス 280" d="M140.468,173.074v19.718L7.13,203.363V182.426l51.425-3.054,5.491,4.067,20.732-1.219,8.538-5.286Z" transform="translate(211.181 -54.577)" opacity="0.1"/>
  <path id="パス_281" data-name="パス 281" d="M139.278,171.884V191.6L5.94,202.173V181.236l51.425-3.047,5.484,4.06,20.738-1.219,8.538-5.286Z" transform="translate(213.186 -54.202)" fill="#fff"/>
  <path id="パス_282" data-name="パス 282" d="M400.8,171.994,382.11,173.22l30.967,9.27,15.775-1.137Z" transform="translate(-333.937 -54.236)" opacity="0.1"/>
  <path id="パス_283" data-name="パス 283" d="M400.8,170.814l-18.691,1.219,30.967,9.27,15.775-1.137Z" transform="translate(-333.937 -53.864)" fill="#fff"/>
  <path id="パス_284" data-name="パス 284" d="M426.2,173.841c-.739-.322-1.527.274-2.314.424-.445.089-.911,0-1.369.089-.917.123-1.821.733-2.7.424Z" transform="translate(-357.105 -54.789)" fill="#d3dae1"/>
  <path id="パス_285" data-name="パス 285" d="M424.784,174.652c-.733-.315-1.52.281-2.307.431-.452.082-.917,0-1.369.082-.911.123-1.821.739-2.7.431Z" transform="translate(-354.723 -55.046)" fill="#d3dae1"/>
  <path id="パス_286" data-name="パス 286" d="M421.544,176.292c-.733-.315-1.52.274-2.307.424-.452.089-.911,0-1.369.089-.917.123-1.828.739-2.7.424Z" transform="translate(-349.265 -55.563)" fill="#d3dae1"/>
  <path id="パス_287" data-name="パス 287" d="M261.545,157.014l-41.675,2.732,8.88,12.755,45.818-4.9Z" transform="translate(-68.574 -49.512)" opacity="0.1"/>
  <path id="パス_288" data-name="パス 288" d="M260.345,155.824l-41.675,2.725,8.88,12.762,45.824-4.9Z" transform="translate(-66.559 -49.137)" fill="#a92c3d"/>
  <path id="パス_289" data-name="パス 289" d="M260.139,157.194l-36.349,2.225,7.744,10.393,39.964-3.992Z" transform="translate(-68.187 -49.569)" fill="#d5e1f4"/>
  <path id="パス_290" data-name="パス 290" d="M127.58,311.7Z" transform="translate(141.601 -98.292)" fill="#a92c3d"/>
  <path id="パス_291" data-name="パス 291" d="M127.58,311.7Z" transform="translate(141.601 -98.292)" opacity="0.1"/>
  <path id="パス_292" data-name="パス 292" d="M127.12,311.7Z" transform="translate(142.376 -98.292)" fill="#a92c3d"/>
  <path id="パス_293" data-name="パス 293" d="M32.62,265.393a3.322,3.322,0,0,0,.034.582,3.935,3.935,0,0,0,.055.513,11.565,11.565,0,0,0,.993,3.485h0c17.219-1.938,34.48-4.265,51.76-6.655l2.444-.342,4.389-.609,3.7-.513h0a89.037,89.037,0,0,0,12.077-1.13,62.47,62.47,0,0,0,7.463-1.575c10.955-1.5,21.971-2.944,32.953-4.259l1.431-.171c-.26-1.164-.479-1.869-.479-1.869s-2.355-9.257-4.313-19.6c-.431-2.246-.842-4.532-1.2-6.8-.288-1.814-.548-3.608-.767-5.333-.123-.952-.226-1.883-.315-2.793-.048-.452-.089-.9-.123-1.369s-.075-.972-.11-1.445-.048-.89-.068-1.321v-.644c0-.924,0-1.89.034-2.882A84.909,84.909,0,0,1,144.9,196c.192-.822.39-1.643.6-2.444.062-.26.13-.513.2-.767,2.211-8.565,4.793-15.562,4.793-15.562a.823.823,0,0,0,0-.116.411.411,0,0,1,0-.082c0-.057,0-.114,0-.171v-1.219a10.482,10.482,0,0,0-.37-2.122q-.112-.369-.26-.726a4.513,4.513,0,0,0-3.081-2.848h0c-1.938-.5-4.868,0-9.291,2.622a16,16,0,0,0-2.054,1.41,8.68,8.68,0,0,0-.959.828c-5.066,4.717-7.764,12.5-9.2,19.609-.055.253-.1.507-.151.76-.171.876-.315,1.732-.445,2.574-.233,1.479-.418,2.9-.555,4.224,0,.356-.075.685-.11,1.048s-.068.685-.089,1.013c-.089,1.068-.151,2.054-.192,2.889-.116,2.218-.1,3.581-.1,3.581v.068a1.875,1.875,0,0,0,.034.294.123.123,0,0,1,0,.055v.616q.041.431.1,1.006c.062.589.13,1.28.212,2.054.055.575.123,1.2.192,1.855.151,1.369.315,2.958.493,4.628.041.315.075.63.11.945.157,1.431.322,2.923.493,4.43h0c.185,1.712.39,3.423.589,5.114.048.37.1.739.137,1.1.507,4.108,1.013,7.839,1.424,10.16a9.685,9.685,0,0,1,.137,1.041,3.089,3.089,0,0,1,0,.356,7.049,7.049,0,0,1,0,.931c-.335,5.847-6.655,6.847-6.655,6.847l-28.694-.568-4.259-.082-2.478-.048-22.368-.445h0l-2.054-.041L49.928,250.6a7.968,7.968,0,0,0-2.239.267,35.549,35.549,0,0,0-9.722,4.252,11.44,11.44,0,0,0-2.513,2.191.73.73,0,0,0-.1.11,11.845,11.845,0,0,0-2.691,6.408v.472A6.16,6.16,0,0,0,32.62,265.393Z" transform="translate(183.705 -53.535)" fill="#a92c3d"/>
  <path id="パス_294" data-name="パス 294" d="M127.12,311.7Z" transform="translate(142.376 -98.292)" opacity="0.1"/>
  <path id="パス_295" data-name="パス 295" d="M32.688,265.366a3.322,3.322,0,0,0,.034.582,3.935,3.935,0,0,0,.055.513,11.966,11.966,0,0,0,1.027,3.485c17.219-1.938,34.48-4.265,51.76-6.655l2.444-.342,4.389-.609,3.7-.514h0a89.037,89.037,0,0,0,12.077-1.13,62.465,62.465,0,0,0,7.463-1.575c10.955-1.5,21.971-2.944,32.953-4.259l1.431-.171h0c-.26-1.205-.493-1.938-.493-1.938s-1.924-7.531-3.752-16.658h0c-.13-.63-.253-1.26-.377-1.9l-.185-.965c-.425-2.239-.835-4.539-1.2-6.8-.288-1.814-.548-3.608-.767-5.333-.123-.952-.226-1.883-.315-2.793-.048-.452-.089-.9-.123-1.369s-.075-.972-.11-1.445-.048-.89-.068-1.321v-.644c0-.924,0-1.89.034-2.882a84.215,84.215,0,0,1,2.307-14.659q.288-1.246.6-2.444c.068-.26.13-.514.2-.767,2.218-8.592,4.793-15.631,4.793-15.631a.188.188,0,0,1,0-.048.411.411,0,0,1,0-.082c0-.057,0-.114,0-.171v-1.219a10.511,10.511,0,0,0-.349-2.122c-.075-.24-.157-.486-.253-.726a4.527,4.527,0,0,0-3.245-2.951c-1.938-.452-4.834.11-9.161,2.643a16.6,16.6,0,0,0-2.136,1.493h0c-.322.267-.63.534-.931.822-5.025,4.745-7.7,12.516-9.127,19.6-.055.253-.1.513-.151.767-.171.87-.315,1.732-.445,2.567-.233,1.479-.411,2.9-.548,4.211-.034.363-.075.719-.1,1.061s-.068.685-.089,1.013c-.089,1.068-.151,2.054-.192,2.889-.116,2.218-.1,3.581-.1,3.581v.363a.123.123,0,0,1,0,.055v.616q.041.431.1,1.006c.062.589.13,1.28.212,2.054.068.568.13,1.191.2,1.855.151,1.369.315,2.958.493,4.628.041.315.075.63.11.945.157,1.431.329,2.937.493,4.443h0c.2,1.712.4,3.423.6,5.108.048.37.089.739.137,1.1.5,4.108,1,7.785,1.41,10.092a9.55,9.55,0,0,1,.137,1.116,3.09,3.09,0,0,1,0,.356,7.044,7.044,0,0,1,0,.931c-.39,5.779-6.655,6.744-6.655,6.744l-28.694-.561-4.252-.089-2.485-.048-22.409-.438-2.1-.041L49.956,250.5a7.49,7.49,0,0,0-2.239.267,35.137,35.137,0,0,0-9.8,4.211,11.288,11.288,0,0,0-2.547,2.232.726.726,0,0,0-.1.11,11.727,11.727,0,0,0-2.657,6.436v.472A7.951,7.951,0,0,1,32.688,265.366Z" transform="translate(183.637 -53.509)" opacity="0.1"/>
  <path id="パス_296" data-name="パス 296" d="M127.12,311.7Z" transform="translate(142.376 -98.292)" fill="#a92c3d"/>
  <path id="パス_297" data-name="パス 297" d="M36.517,269.685l1.13-.13h0c17.219-1.938,34.48-4.265,51.76-6.655l2.444-.342,4.389-.609,3.7-.513h0a89.047,89.047,0,0,0,12.077-1.13,62.465,62.465,0,0,0,7.463-1.575c10.955-1.5,21.971-2.944,32.953-4.259a28.027,28.027,0,0,0-.685-2.848c-.278-.937-6.5-25.613-6.908-39.231-.144-4.868.822-10.893,2.129-16.637h0c.192-.828.383-1.65.589-2.458l.185-.767c2.321-9,5.08-16.535,5.08-16.535a11.147,11.147,0,0,0-.157-2.787,7.488,7.488,0,0,0-.164-.733,5.582,5.582,0,0,0-1.766-2.958h0a.936.936,0,0,0-.13-.1c-1.8-1.369-5.032-1.465-10.783,1.9a16.872,16.872,0,0,0-3.211,2.458c-.274.26-.548.534-.808.815-4.621,5-7.073,12.673-8.36,19.533l-.144.76c-.151.856-.281,1.7-.4,2.513v.068h0c-.157,1.082-.288,2.116-.4,3.1h0a81.633,81.633,0,0,0-.493,8.743c-.008,2.921.267,2.7.685,6.6.157,1.527.342,3.238.541,5.046v.274l.1.959c.349,3.156.733,6.525,1.123,9.647.041.383.089.76.137,1.13.438,3.512.876,6.634,1.239,8.668,1.424,7.928-6.5,9.147-6.5,9.147l-27.072-.534-4.245-.082-2.485-.055H88.148l-21.471-.424H64.623L52.3,249.447a7.7,7.7,0,0,0-2.239.274,35.317,35.317,0,0,0-9.8,4.2,11.646,11.646,0,0,0-2.307,1.958,1.109,1.109,0,0,0-.116.137A11.858,11.858,0,0,0,36.517,269.685Z" transform="translate(179.76 -53.144)" fill="#a92c3d"/>
  <path id="パス_298" data-name="パス 298" d="M350.423,135.514l-8.373,17.938h1.4l9.818-17.726Z" transform="translate(-230.929 -42.733)" fill="#4c4c56"/>
  <path id="パス_299" data-name="パス 299" d="M350.423,135.514l-8.373,17.938h1.4l9.818-17.726Z" transform="translate(-230.929 -42.733)" opacity="0.1"/>
  <path id="パス_300" data-name="パス 300" d="M354.583,161.714H346.21v1.876l8.373.212Z" transform="translate(-235.09 -50.995)" fill="#4c4c56"/>
  <path id="パス_301" data-name="パス 301" d="M354.583,161.714H346.21v1.876l8.373.212Z" transform="translate(-235.09 -50.995)" opacity="0.1"/>
  <path id="パス_302" data-name="パス 302" d="M364.762,36.963V99.6a4.649,4.649,0,0,1-4.649,4.649H255.7a4.621,4.621,0,0,1-4.621-4.71l1.184-62.694a4.621,4.621,0,0,1,4.621-4.532H360.113A4.649,4.649,0,0,1,364.762,36.963Z" transform="translate(-180.136 -10.19)" fill="#4c4c56"/>
  <path id="パス_303" data-name="パス 303" d="M364.762,36.963V99.6a4.649,4.649,0,0,1-4.649,4.649H255.7a4.621,4.621,0,0,1-4.621-4.71l1.184-62.694a4.621,4.621,0,0,1,4.621-4.532H360.113A4.649,4.649,0,0,1,364.762,36.963Z" transform="translate(-180.136 -10.19)" opacity="0.1"/>
  <path id="パス_304" data-name="パス 304" d="M359.255,36.963V99.6a4.649,4.649,0,0,1-4.649,4.649H250.2a4.614,4.614,0,0,1-4.615-4.71l1.184-62.694a4.622,4.622,0,0,1,4.615-4.532h103.2a4.65,4.65,0,0,1,4.676,4.649Z" transform="translate(-170.864 -10.19)" fill="#4c4c56"/>
  <path id="パス_305" data-name="パス 305" d="M357.531,42.683V97.832a4.649,4.649,0,0,1-4.649,4.649H256.2a4.621,4.621,0,0,1-4.621-4.621V42.649a4.622,4.622,0,0,1,4.621-4.615h96.681A4.649,4.649,0,0,1,357.531,42.683Z" transform="translate(-173.248 -11.993)" fill="#fff"/>
  <path id="パス_306" data-name="パス 306" d="M342.607,134.711,333.425,152.4H312.68l10.373-20.232Z" transform="translate(-200.156 -41.676)" fill="#4c4c56"/>
  <path id="パス_307" data-name="パス 307" d="M330.029,161.714l1.534,1.876h-31.8v-1.876Z" transform="translate(-180.266 -50.995)" fill="#4c4c56"/>
  <path id="パス_308" data-name="パス 308" d="M184.625,45.786c2.28-6.408,2.266-13.522,5.032-19.732a24.028,24.028,0,0,0,1.157-2.739,8,8,0,0,0,.315-1.787l.171.041.171.048.171.068h0l.157.1a5.906,5.906,0,0,1-.157.6,22.981,22.981,0,0,1-1.171,2.739c-2.821,6.244-2.8,13.385-5.121,19.855a1.863,1.863,0,0,1-.431.76,1.017,1.017,0,0,1-.349.212C184.591,45.875,184.612,45.834,184.625,45.786Zm0,0c2.28-6.408,2.266-13.522,5.032-19.732a24.028,24.028,0,0,0,1.157-2.739,8,8,0,0,0,.315-1.787l.171.041.171.048.171.068h0l.157.1a5.906,5.906,0,0,1-.157.6,22.981,22.981,0,0,1-1.171,2.739c-2.821,6.244-2.8,13.385-5.121,19.855a1.863,1.863,0,0,1-.431.76,1.017,1.017,0,0,1-.349.212C184.591,45.875,184.612,45.834,184.625,45.786Zm0,0c2.28-6.408,2.266-13.522,5.032-19.732a24.028,24.028,0,0,0,1.157-2.739,8,8,0,0,0,.315-1.787l.171.041.171.048.171.068h0l.157.1a5.906,5.906,0,0,1-.157.6,22.981,22.981,0,0,1-1.171,2.739c-2.821,6.244-2.8,13.385-5.121,19.855a1.863,1.863,0,0,1-.431.76,1.017,1.017,0,0,1-.349.212C184.591,45.875,184.612,45.834,184.625,45.786Zm0,0c2.28-6.408,2.266-13.522,5.032-19.732a24.028,24.028,0,0,0,1.157-2.739,8,8,0,0,0,.315-1.787l.171.041.171.048.171.068h0l.157.1a5.906,5.906,0,0,1-.157.6,22.981,22.981,0,0,1-1.171,2.739c-2.821,6.244-2.8,13.385-5.121,19.855a1.863,1.863,0,0,1-.431.76,1.017,1.017,0,0,1-.349.212C184.591,45.875,184.612,45.834,184.625,45.786Zm0,0c2.28-6.408,2.266-13.522,5.032-19.732a24.028,24.028,0,0,0,1.157-2.739,8,8,0,0,0,.315-1.787l.171.041.171.048.171.068h0l.157.1a5.906,5.906,0,0,1-.157.6,22.981,22.981,0,0,1-1.171,2.739c-2.821,6.244-2.8,13.385-5.121,19.855a1.863,1.863,0,0,1-.431.76,1.017,1.017,0,0,1-.349.212C184.591,45.875,184.612,45.834,184.625,45.786Zm0,0c2.28-6.408,2.266-13.522,5.032-19.732a24.028,24.028,0,0,0,1.157-2.739,8,8,0,0,0,.315-1.787l.171.041.171.048.171.068h0l.157.1a5.906,5.906,0,0,1-.157.6,22.981,22.981,0,0,1-1.171,2.739c-2.821,6.244-2.8,13.385-5.121,19.855a1.863,1.863,0,0,1-.431.76,1.017,1.017,0,0,1-.349.212C184.591,45.875,184.612,45.834,184.625,45.786Zm0,0c2.28-6.408,2.266-13.522,5.032-19.732a24.028,24.028,0,0,0,1.157-2.739,8,8,0,0,0,.315-1.787l.171.041.171.048.171.068h0l.157.1a5.906,5.906,0,0,1-.157.6,22.981,22.981,0,0,1-1.171,2.739c-2.821,6.244-2.8,13.385-5.121,19.855a1.863,1.863,0,0,1-.431.76,1.017,1.017,0,0,1-.349.212C184.591,45.875,184.612,45.834,184.625,45.786ZM65.666,109.6h0l.527-.1-.685-.151h0a1.036,1.036,0,0,1-.2-.048h0c-.76-.164-1.513-.349-2.253-.548h0l-.774-.219h0l-.11-.034c-6.381-1.883,1.061-3.615,10.523-4.9h.027c10.215-1.369,22.744-2.266,22.744-2.266l3.923.52h.034c4.793.63,12.358,1.671,13.563,2.054,1.465.486,13.9,1.082,18.233,1.273a1.894,1.894,0,0,1,.644-.685l12.783-.589v1.76h0l.1-.041a17.529,17.529,0,0,1,1.732-6.847l.1-.192c3.3-6.258,3.964-7.826,3.964-7.826h0a1.286,1.286,0,0,1,.089-.335c1.109-3.848,5.2-10.537,12.125-20.136l.24-.335.87-4.259.151-.746h4.361a57.04,57.04,0,0,0-3.026-10.824c-.089-.219-.178-.438-.274-.65l-.055-.123c-.1-.226-.205-.452-.308-.685h-.76a20.835,20.835,0,0,1-20.02-19.376.123.123,0,0,1,0-.055q-.041-.637-.041-1.273a20.383,20.383,0,0,1,2.739-10.27c.055-.1.11-.192.171-.288l.11-.185.246-.383c-1.561-.37-3.423.342-4.793-.534a3.5,3.5,0,0,1-1.171-1.41,7.33,7.33,0,0,1-.685-2.054h0a.659.659,0,0,1,0-.116.083.083,0,0,1,0-.041,8.107,8.107,0,0,1-.1-1.41,7.6,7.6,0,0,1,.479-2.848A7.846,7.846,0,0,1,145.292,8a29.8,29.8,0,0,1,3.2-.87c4.382-1.171,8.086-4.06,12.324-5.669A22.352,22.352,0,0,1,170.056.037a13.219,13.219,0,0,1,5.477,1.369,23.428,23.428,0,0,1,3.656,2.65c3.047,2.4,6.5,4.457,9.154,7.326a16.355,16.355,0,0,1,1.328,1.643c.233.335.445.685.685,1.027a1.837,1.837,0,0,1,1.65-.685h0a2.742,2.742,0,0,1,.335,0,6.659,6.659,0,0,1,.849.089c.685.116,5.785,1.465,5.785,2.164a24.092,24.092,0,0,1,5.861,3.6c4.108,3.759,5.025,9.715,5.546,15.206a140.92,140.92,0,0,1,.685,19.171c-.1,2.328-.281,4.656-.171,6.984a51.931,51.931,0,0,0,1.212,8.134q.883,4.176,1.91,8.325c.329,1.369.856,2.9,2.2,3.327l-.5.068a2.38,2.38,0,0,0,.5.24,14.952,14.952,0,0,1-1.739.171h-.4a4.666,4.666,0,0,1-.979-.116,3.66,3.66,0,0,1-1.239-.575c-.055-.137-.1-.274-.151-.418a2.317,2.317,0,0,1-.822-1.273,9.074,9.074,0,0,0,.137,2.314,1.461,1.461,0,0,0,.068.335,9.445,9.445,0,0,0,2.355,4.464l-.685-.52a10.031,10.031,0,0,0,.685.828q-1.479-1.109-2.958-2.266h0a1.376,1.376,0,0,1-.171-.13h0l-1.684-1.328V83.49h0V83.8c.137,4.724.335,16.329-.739,19.1-.062.164-.13.329-.185.486-1.226,3.156-1.753,4.519-1.6,6.162.11,1.143-.746,4.416-1.219,7.018a8.708,8.708,0,0,0-.219,3.17,4.516,4.516,0,0,1-.123,1.89c-.062.3-.137.623-.219.959a1.476,1.476,0,0,1-.089.363c-.623,2.492-1.506,5.573-.582,6.8a5.433,5.433,0,0,1,.685,1.369c.76,2.054.883,4.861,1.76,6,1.027,1.321.685,3.67.6,3.971a.143.143,0,0,0,0,.034c0,.012.048.267.144.685.116.575.3,1.458.534,2.437v.068a34.871,34.871,0,0,0,1.184,4.06h0c.349.931.685,1.6,1.075,1.732,1.369.5,2.054,6.929,2.054,6.929s3.136,5.087,2.54,6.34a8.3,8.3,0,0,1-.445.842l.3.466c1.677,2.691,4.108,7.579,1.753,10.208a11.633,11.633,0,0,1-2.807,2.143c.123.274.253.568.39.89,2.588,6.066,6.573,20.156-8.757,26.1a48.6,48.6,0,0,1-4.649,1.527,62.46,62.46,0,0,1-7.463,1.575,91.456,91.456,0,0,1-10.955.979c-1.63.055-3.238.068-4.793.055s-2.965-.048-4.375-.11q-1.253-.048-2.444-.123a127.921,127.921,0,0,1-14.056-1.54l-21.909-3.923s-9.2.329-12.591,2.273l-.1.062s-.555-.322-1.486-.952h0c-.4-.274-.883-.6-1.41-.993a46.254,46.254,0,0,1-13.056-14.528l-.075-.13-.746-.1h-.171l-.534-.075-1.109-.157h-.2c-2.773-.4-5.4-.849-5.4-.849s-.1,3.06-.226,6.607c-.041,1.082-.075,2.211-.116,3.307-.13,3.752-.246,7.162-.246,7.278s-2.821,7.531-5.977,15.008l-2.465.2q-9.763.781-19.52,1.294l-2.431.123-1.52.075c1.1-6.634,1.958-12.961,1.958-12.961L70.677,189s.424-3.923,3.471-21.361c2.465-14.131,16.98-12.878,22.416-11.886.555.1,1.006.2,1.369.274v-1.061s10.427.876,19.855,1.3l2.294.1c2.184.082,4.259.13,6.08.13a44.449,44.449,0,0,0,4.793-.192c7.278-.835,15.576,1.664,15.576,1.664s10.605,1.719,12.023,1.089a3.667,3.667,0,0,1,1.2-.246h.685a1.1,1.1,0,0,1-.685-1.219c.424-1.753.6-4.176-.6-5.847-.52-.739-1.369-1.9-2.129-2.965l-1.849-2.54v-.2l-.048-.746-.445-6.655-1.068-6.162-.068-.39-.1-.548-.068-.4-.205.068h0c-3.033,1.054-6.47,1.794-8.9.945h-.048a4.06,4.06,0,0,1-.561-.24h-.11v.459l-.041.8-11.427-.623h-.171s-.445-2.2-.924-5.245c-.034-.246-.075-.5-.116-.76s-.1-.685-.151-1a4.144,4.144,0,0,0-.068-.486h-.685c-5.3-.192-12.694-.644-15.706-1.739h0a3.422,3.422,0,0,1-1.034-.555c-1.28-1.109-5.874-2.7-10.386-4.067h0l-1.8-.534c-1.308-.383-2.567-.739-3.683-1.054-2.588-.685-4.437-1.191-4.437-1.191s-17.8,1.65-31.1-2.191h0l-.219-.062C56.608,112.068,59.716,110.726,65.666,109.6ZM191.979,20.59a3.707,3.707,0,0,1-.075.609h0a1.679,1.679,0,0,1-.041.26.471.471,0,0,1-.055.267,5.905,5.905,0,0,1-.157.6,22.978,22.978,0,0,1-1.171,2.739c-2.821,6.244-2.8,13.385-5.121,19.855a1.862,1.862,0,0,1-.431.76,1.017,1.017,0,0,1-.349.212l-.164.055h-.192l.075.13a.694.694,0,0,0,.055.1l.048.075c.917,1.547,1.9,3.067,2.882,4.409a6.451,6.451,0,0,1,2.376.972l.383.253.164.123c.24-1.178.568-2.342.869-3.505a80.915,80.915,0,0,0,2.643-18.993V28.218c0-1.657-.041-3.307-.144-4.964a4.108,4.108,0,0,0-.582-2.177h0a1.5,1.5,0,0,0-1.013-.493Zm-7.353,25.2c2.28-6.408,2.266-13.522,5.032-19.732a24.029,24.029,0,0,0,1.157-2.739,8,8,0,0,0,.315-1.787l.171.041.171.048.171.068h0l.157.1a5.905,5.905,0,0,1-.157.6,22.98,22.98,0,0,1-1.171,2.739c-2.821,6.244-2.8,13.385-5.121,19.855a1.863,1.863,0,0,1-.431.76,1.017,1.017,0,0,1-.349.212c.021-.082.041-.123.055-.171Zm0,0c2.28-6.408,2.266-13.522,5.032-19.732a24.029,24.029,0,0,0,1.157-2.739,8,8,0,0,0,.315-1.787l.171.041.171.048.171.068h0l.157.1a5.905,5.905,0,0,1-.157.6,22.98,22.98,0,0,1-1.171,2.739c-2.821,6.244-2.8,13.385-5.121,19.855a1.863,1.863,0,0,1-.431.76,1.017,1.017,0,0,1-.349.212c.021-.082.041-.123.055-.171Zm0,0c2.28-6.408,2.266-13.522,5.032-19.732a24.029,24.029,0,0,0,1.157-2.739,8,8,0,0,0,.315-1.787l.171.041.171.048.171.068h0l.157.1a5.905,5.905,0,0,1-.157.6,22.98,22.98,0,0,1-1.171,2.739c-2.821,6.244-2.8,13.385-5.121,19.855a1.863,1.863,0,0,1-.431.76,1.017,1.017,0,0,1-.349.212c.021-.082.041-.123.055-.171Zm0,0c2.28-6.408,2.266-13.522,5.032-19.732a24.029,24.029,0,0,0,1.157-2.739,8,8,0,0,0,.315-1.787l.171.041.171.048.171.068h0l.157.1a5.905,5.905,0,0,1-.157.6,22.98,22.98,0,0,1-1.171,2.739c-2.821,6.244-2.8,13.385-5.121,19.855a1.863,1.863,0,0,1-.431.76,1.017,1.017,0,0,1-.349.212c.021-.082.041-.123.055-.171Zm0,0c2.28-6.408,2.266-13.522,5.032-19.732a24.029,24.029,0,0,0,1.157-2.739,8,8,0,0,0,.315-1.787l.171.041.171.048.171.068h0l.157.1a5.905,5.905,0,0,1-.157.6,22.98,22.98,0,0,1-1.171,2.739c-2.821,6.244-2.8,13.385-5.121,19.855a1.863,1.863,0,0,1-.431.76,1.017,1.017,0,0,1-.349.212c.021-.082.041-.123.055-.171Zm0,0c2.28-6.408,2.266-13.522,5.032-19.732a24.029,24.029,0,0,0,1.157-2.739,8,8,0,0,0,.315-1.787l.171.041.171.048.171.068h0l.157.1a5.905,5.905,0,0,1-.157.6,22.98,22.98,0,0,1-1.171,2.739c-2.821,6.244-2.8,13.385-5.121,19.855a1.863,1.863,0,0,1-.431.76,1.017,1.017,0,0,1-.349.212c.021-.082.041-.123.055-.171Z" transform="translate(99.235 0)" fill="url(#linear-gradient)"/>
  <path id="パス_309" data-name="パス 309" d="M98.707,66.313a15.961,15.961,0,0,1,2.629,4.067c.1.226.205.445.3.685,3.026,6.847,4.053,16.535,4.053,16.535s1.876-.842,4.532-2.157c4.95-2.451,12.591-6.532,15.679-9.784,1.369-1.472,1.862-2.773.726-3.683a8.42,8.42,0,0,1-.753-.685,21.769,21.769,0,0,1-2.389-2.834c-.986-1.369-1.958-2.9-2.876-4.464-.541-.917-1.054-1.842-1.534-2.739l-.192-.356c-2.054-3.9-3.553-7.223-3.553-7.223s-.685.219-1.794.609C108.422,56.111,94.338,61.664,98.707,66.313Z" transform="translate(162.259 -16.925)" fill="#efb7b9"/>
  <path id="パス_310" data-name="パス 310" d="M219.916,279.651s-.835,6.2-1.9,12.748l2.431-.123q9.75-.507,19.52-1.294c3.7-8.565,7.531-18.732,7.531-18.89s.116-3.505.246-7.244c.041-1.315.089-2.67.13-3.944h0c.068-1.931.13-3.67.164-4.752,0-.739.041-1.178.041-1.178s3.519.616,6.682,1.048l1.4.185c.726.089,1.369.157,1.951.2a5,5,0,0,0,1.513,0c1.082-.418-1.164-10.955-1.164-10.955l-5.587-13.522-1.561-3.766-.685-.171c-.335-.082-.787-.178-1.328-.281-5.333-.979-19.581-2.225-22,11.838-2.992,17.37-3.423,21.272-3.423,21.272Z" transform="translate(-52.667 -71.635)" fill="#efb7b9"/>
  <path id="パス_311" data-name="パス 311" d="M281.88,344.434h.021Z" transform="translate(-120.033 -108.613)" fill="#efb7b9"/>
  <path id="パス_312" data-name="パス 312" d="M219.916,279.651s-.835,6.2-1.9,12.748l2.431-.123q9.75-.507,19.52-1.294c3.7-8.565,7.531-18.732,7.531-18.89s.116-3.505.246-7.244c.041-1.315.089-2.67.13-3.944h0c.068-1.931.13-3.67.164-4.752,0-.739.041-1.178.041-1.178s3.519.616,6.682,1.048l1.4.185c.726.089,1.369.157,1.951.2a5,5,0,0,0,1.513,0c1.082-.418-1.164-10.955-1.164-10.955l-5.587-13.522-1.561-3.766-.685-.171c-.335-.082-.787-.178-1.328-.281-5.333-.979-19.581-2.225-22,11.838-2.992,17.37-3.423,21.272-3.423,21.272Z" transform="translate(-52.667 -71.635)" opacity="0.05"/>
  <path id="パス_313" data-name="パス 313" d="M281.88,344.434h.021Z" transform="translate(-120.033 -108.613)" opacity="0.05"/>
  <path id="パス_314" data-name="パス 314" d="M215.35,294.021q9.75-.507,19.52-1.294l2.465-.2,1.089-.089c3.067-7.4,5.792-14.638,5.792-14.768s.116-3.505.246-7.244c.157-4.669.335-9.873.335-9.873l.459.075.192.034h.246l1.1.185.6.1c1.089.178,2.4.377,3.69.561l.288.041.753.1.685.082h0c.527.068,1.027.123,1.479.164l.555.048a4.793,4.793,0,0,0,1.513,0c1.082-.418-1.164-10.955-1.164-10.955L248.049,233.7l-.246-.068c-.377-.1-1.171-.281-2.246-.466-.4-.068-.849-.137-1.328-.2-6.2-.794-18.007-.568-20.191,12.119-2.992,17.37-3.423,21.272-3.423,21.272l-3.992,18.883S216.1,289.139,215.35,294.021Z" transform="translate(-47.567 -73.379)" fill="#efb7b9"/>
  <path id="パス_315" data-name="パス 315" d="M220.263,282c.157-4.669.335-9.88.335-9.88s6.847,1.2,10.037,1.431l-.644-2.177s-11.721-3.238-11.968-1.41C217.846,271.247,219.353,278.052,220.263,282Z" transform="translate(-23.368 -84.954)" opacity="0.1"/>
  <path id="パス_316" data-name="パス 316" d="M215.369,227.914v4.95s.582,8.9,5.156,22.518c.1.294.2.582.308.87a30.994,30.994,0,0,0,1.7,3.82c1.287.178,2.533.329,3.458.4a5,5,0,0,0,1.513,0c1.082-.418-1.157-10.955-1.157-10.955L219.2,232.234l-.253-.068-1.554-3.772A18.054,18.054,0,0,0,215.369,227.914Z" transform="translate(-18.72 -71.87)" opacity="0.1"/>
  <path id="パス_317" data-name="パス 317" d="M62.369,226.774V232.5s.582,8.9,5.155,22.525c.116.356.246.685.377,1.048s.3.794.472,1.178c.377.911.8,1.794,1.246,2.643h0a45.726,45.726,0,0,0,12.5,14.309c.507.39.979.733,1.369,1.02h.034c.685.466,1.178.8,1.493,1s.342.212.342.212c3.245-1.992,12.468-2.328,12.468-2.328l21.526,3.909a124.586,124.586,0,0,0,14.22,1.616l2.444.116c1.41.055,2.876.089,4.375.1,1.212,0,2.444,0,3.7-.048h0a89.037,89.037,0,0,0,12.077-1.13,60.227,60.227,0,0,0,6.518-1.445,45.858,45.858,0,0,0,4.512-1.506c15.063-5.915,11.139-19.944,8.6-26.017-.137-.322-.267-.616-.39-.89-.561-1.239-.979-1.965-.979-1.965l-1-2.417h0l-1.636-3.964-.363-.87-.1-.253-1.212-2.937L153,234.189l-12.577-1.63-3.827-.493L134,231.731l-4.95-.644-1.862-.24a23.207,23.207,0,0,0-3.471-.274,4.854,4.854,0,0,0-1.849.274c-1.369.623-11.8-1.082-11.8-1.082s-8.141-2.492-15.288-1.664a84.942,84.942,0,0,1-10.619.068h0l-.876-.041-1.137-.048H81.9C72.639,227.65,62.369,226.774,62.369,226.774Z" transform="translate(135.608 -71.511)" fill="#444053"/>
  <path id="パス_318" data-name="パス 318" d="M131.926,251.55s8.216,18.7,8.558,19.027.329,6.162,0,5.82S128.762,250.8,128.762,250.8Z" transform="translate(127.636 -79.088)" opacity="0.1"/>
  <path id="パス_319" data-name="パス 319" d="M162.1,228.756s4.156,2.684,5.4,4.847,12.632,23.682,15.453,26.839a68.931,68.931,0,0,1,6.319,8.99c.329.568.329,4.142-1.664.733s-1.5-3.985-5.4-8.216-8.216-13.8-9.887-15.706-3.992-7.648-6.9-11.057l-5.573-6.511Z" transform="translate(57.66 -72.11)" opacity="0.1"/>
  <path id="パス_320" data-name="パス 320" d="M192.177,282.457s2.91-1.992,5.648,1.41S192.177,282.457,192.177,282.457Z" transform="translate(26.579 -88.887)" opacity="0.1"/>
  <path id="パス_321" data-name="パス 321" d="M200.961,284.224s2.41,4.2,3.574,4.539S200.961,284.224,200.961,284.224Z" transform="translate(14.221 -89.627)" opacity="0.1"/>
  <path id="パス_322" data-name="パス 322" d="M196.01,285.754s1.91,3.327,3.574,2.992Z" transform="translate(22.746 -90.109)" opacity="0.1"/>
  <path id="パス_323" data-name="パス 323" d="M247.886,152.747s-17.616-.746-19.362-1.328-17.2-2.574-17.2-2.574-45.79,3.238-32.747,7.148,30.748,2.239,30.748,2.239,17.288,4.491,19.944,6.847,22.272,2.41,22.272,2.41Z" transform="translate(-15.676 -46.936)" fill="#efb7b9"/>
  <path id="パス_324" data-name="パス 324" d="M247.886,152.747s-17.616-.746-19.362-1.328-17.2-2.574-17.2-2.574-45.79,3.238-32.747,7.148,30.748,2.239,30.748,2.239,17.288,4.491,19.944,6.847,22.272,2.41,22.272,2.41Z" transform="translate(-15.676 -46.936)" opacity="0.05"/>
  <path id="パス_325" data-name="パス 325" d="M135.656,95.749s16.124,5.477,8.312,19.444-17.87,20.54-17.87,20.54L100.17,153.685s-10.886,6.23-15.87,3.656l-8.141-.685-1.369-21.361s6.847,5.32,14.3-2.054,16.624-12.386,17.37-16.37S126.269,92.339,135.656,95.749Z" transform="translate(159.221 -30.073)" fill="#a36468"/>
  <path id="パス_326" data-name="パス 326" d="M178.45,159.006s-8.394,2.992-8.065,3.156,8.065,3.074,8.065,3.074l-.582,11.386L166.482,176s-4.156-20.732-.582-22.813l12.55-.582Z" transform="translate(65.488 -48.122)" fill="#67647e"/>
  <path id="パス_327" data-name="パス 327" d="M178.45,159.006s-8.394,2.992-8.065,3.156,8.065,3.074,8.065,3.074l-.582,11.386L166.482,176s-4.156-20.732-.582-22.813l12.55-.582Z" transform="translate(65.488 -48.122)" opacity="0.1"/>
  <path id="パス_328" data-name="パス 328" d="M110.658,66.322a15.962,15.962,0,0,1,2.629,4.067c.1.226.205.445.3.685,6.114,0,10.51-4.752,14.262-9,.685-.787,2.417.4,2.985-.479.062-.1.123-.205.192-.308l-.192-.356c-2.054-3.9-3.553-7.223-3.553-7.223s-.685.219-1.794.609C120.374,56.121,106.29,61.673,110.658,66.322Z" transform="translate(150.307 -16.935)" opacity="0.1"/>
  <path id="パス_329" data-name="パス 329" d="M105.36,38.481a20.608,20.608,0,0,0,20.417,20.6h.2a20.573,20.573,0,0,0,15.46-6.984,20.951,20.951,0,0,0,1.89-2.5A20.615,20.615,0,1,0,105.36,38.481Z" transform="translate(137.804 -5.628)" fill="#efb7b9"/>
  <path id="パス_330" data-name="パス 330" d="M65.84,234.654s1.568,1.917,3.3,3.7a12.87,12.87,0,0,0,3.6,2.944c2.054.753,11.468,7.894,11.468,7.894s7.477,5.073,9.387,6.566,8.812.582,8.812.582,6.641-1.452,10.756-4.108a26.733,26.733,0,0,0-1.369-2.848l-4.32-10.475L90.358,236.7Z" transform="translate(198.289 -73.995)" opacity="0.1"/>
  <path id="パス_331" data-name="パス 331" d="M60.961,232.714s1.561,1.917,3.293,3.7a13.371,13.371,0,0,0,3.6,2.944c2.054.746,11.468,7.894,11.468,7.894s7.483,5.073,9.394,6.566,8.8.582,8.8.582,9.476-2.054,12.8-5.82c2.328-2.622-.082-7.483-1.725-10.16a20.534,20.534,0,0,0-1.267-1.89Z" transform="translate(203.503 -73.384)" fill="#67647e"/>
  <path id="パス_332" data-name="パス 332" d="M119.625,125.166c5.655-.5,24.271-23.278,24.271-23.278l-.424-.582-3.9-5.4h-9.127l-1.006,4.984c-6.942,9.736-11.03,16.507-12.139,20.382C116.5,124.092,117.256,125.379,119.625,125.166Z" transform="translate(132.535 -30.242)" fill="#67647e"/>
  <path id="パス_333" data-name="パス 333" d="M119.625,127.654c5.655-.5,24.271-23.278,24.271-23.278l-.424-.582a105.093,105.093,0,0,0-9.387,9.8c-13.625,16.035-16.322,11.557-16.788,10.16C116.5,126.58,117.256,127.867,119.625,127.654Z" transform="translate(132.535 -32.73)" opacity="0.1"/>
  <path id="パス_334" data-name="パス 334" d="M64.89,232.714s1.561,1.917,3.293,3.7a9.324,9.324,0,0,0,2.855.616c2.164-.082,7.148,3.327,7.148,3.327s8.8-.5,10.468.411,8.065,1.082,8.065,1.082c11.715,3.341,14.953-1.732,15.809-3.423a20.531,20.531,0,0,0-1.267-1.89Z" transform="translate(199.574 -73.384)" opacity="0.1"/>
  <path id="パス_335" data-name="パス 335" d="M64.674,138.6a7.224,7.224,0,0,0,.1.952c.041.308.082.623.13.917a15.061,15.061,0,0,0,1.5,4.854c1.493,2.492,6.066,12.214,6.066,12.214l.308,1.794.157.938.164.924,1.116,6.552.5,7.566s2.739,3.82,3.9,5.477,1,4.074.582,5.82,3.82,1.992,3.82,1.992,5.984,2.91,8.147,2.828,7.148,3.314,7.148,3.314,8.8-.5,10.468.418,8.065,1.082,8.065,1.082c12.543,3.567,15.371-2.5,15.953-3.745s-2.492-6.313-2.492-6.313-.685-6.4-1.992-6.9-2.91-8.969-2.91-8.969.5-2.581-.582-3.992-1-5.4-2.41-7.312,1.493-8.312.993-9.976,1.582-8.394,1.417-10.14.411-3.156,1.746-6.648c1.137-2.978.815-16.213.685-20.006,0-.644-.034-1.013-.034-1.013s-1.164-3.745-4.238-11.222c-2.328-5.662-7.566-7.805-9.969-8.5a12.716,12.716,0,0,0-1.253-.308,8.823,8.823,0,0,0-1.766.445c-2.424.815-7.271,3.122-14.186,9.585a106.36,106.36,0,0,0-8.647,9.12c-15.59,18.322-16.863,9.77-16.863,9.77s-.685,1.561-3.9,7.791A19.825,19.825,0,0,0,64.674,138.6Z" transform="translate(179.442 -28.757)" fill="#a36468"/>
  <path id="パス_336" data-name="パス 336" d="M92.23,88.689l15.638-12.475s5.635.685,7.963,10.147l-16.1,14.1Z" transform="translate(177.554 -24.033)" opacity="0.1"/>
  <path id="パス_337" data-name="パス 337" d="M91.77,88.4l2.739,3.827,2.78,3.923,2.1,3.074L112.235,88.4l2.211-1.917,1.239-1.054c-1.253-5.114-3.478-7.668-5.251-8.9A6.529,6.529,0,0,0,107.7,75.3Z" transform="translate(178.014 -23.746)" fill="#67647e"/>
  <path id="パス_338" data-name="パス 338" d="M179.589,163.272c13.05,3.9,30.748,2.246,30.748,2.246s17.288,4.485,19.944,6.847c1.712,1.5,10.455,2.054,16.432,2.28,3.321.123,5.806.13,5.806.13l-3.649-14.741-2.109-.1c-4.731-.219-15.884-.781-17.253-1.239-1.746-.582-17.2-2.574-17.2-2.574S166.546,159.362,179.589,163.272Z" transform="translate(-17.345 -49.232)" fill="#efb7b9"/>
  <path id="パス_339" data-name="パス 339" d="M75.759,144.5a15.061,15.061,0,0,0,1.5,4.854c1.493,2.492,6.066,12.214,6.066,12.214l.63,3.69a45.079,45.079,0,0,0,6.162-2.834l25.949-17.972s10.058-6.566,17.87-20.54-8.312-19.444-8.312-19.444c-9.387-3.423-28.42,17.117-29.167,21.108s-9.893,8.976-17.37,16.37A15.2,15.2,0,0,1,75.759,144.5Z" transform="translate(168.589 -32.822)" opacity="0.1"/>
  <path id="パス_340" data-name="パス 340" d="M75.759,141.744c.062.65.137,1.273.233,1.869a15.061,15.061,0,0,0,1.5,4.854c1.493,2.492,6.066,12.214,6.066,12.214l.308,1.794a44.331,44.331,0,0,0,6.5-2.958L116.3,141.539s10.058-6.566,17.87-20.54-8.312-19.451-8.312-19.451c-9.387-3.423-28.42,17.117-29.167,21.108s-9.893,8.976-17.37,16.377A14.969,14.969,0,0,1,75.759,141.744Z" transform="translate(168.357 -31.901)" opacity="0.1"/>
  <path id="パス_341" data-name="パス 341" d="M75.759,142.581l1.328,21.355,8.147.685a4.007,4.007,0,0,0,.555.24c5.19,1.9,15.316-3.9,15.316-3.9l25.928-17.972s10.058-6.566,17.87-20.54-8.312-19.444-8.312-19.444c-9.387-3.423-28.42,17.117-29.167,21.108s-9.893,8.976-17.37,16.37a14.923,14.923,0,0,1-3.738,2.739A10.207,10.207,0,0,1,75.759,142.581Z" transform="translate(157.621 -32.361)" fill="#a36468"/>
  <path id="パス_342" data-name="パス 342" d="M164.45,160.984l1.328,21.355,8.147.685a4.007,4.007,0,0,0,.555.24l.527-10.379s-7.73-2.91-8.065-3.074,8.065-3.156,8.065-3.156v-4.964A10.209,10.209,0,0,1,164.45,160.984Z" transform="translate(68.93 -50.764)" opacity="0.1"/>
  <path id="パス_343" data-name="パス 343" d="M178,176.366c3.321.123,5.806.13,5.806.13l-3.683-14.706-2.109-.1C176.658,164.029,177.24,170.889,178,176.366Z" transform="translate(51.402 -50.988)" opacity="0.1"/>
  <path id="パス_344" data-name="パス 344" d="M179.42,166.286s-8.394,2.992-8.065,3.156,8.065,3.074,8.065,3.074l-.582,11.386-11.386-.623s-4.156-20.732-.582-22.813l12.55-.582Z" transform="translate(63.854 -50.418)" fill="#67647e"/>
  <path id="パス_345" data-name="パス 345" d="M85.19,189.144s2.828,2.657,5.155,3.362Z" transform="translate(207.859 -59.644)" opacity="0.1"/>
  <path id="パス_346" data-name="パス 346" d="M90.67,199.737s-6.895-.253-7.723-1.664S90.67,199.737,90.67,199.737Z" transform="translate(209.109 -62.343)" opacity="0.1"/>
  <path id="パス_347" data-name="パス 347" d="M86.968,214.08c-.418,0-8.723-1.164-9.058-2.246Z" transform="translate(216.22 -66.799)" opacity="0.1"/>
  <path id="パス_348" data-name="パス 348" d="M82.208,222.811c-2.992-.089-8.058-3.327-8.058-3.327Z" transform="translate(223.554 -69.212)" opacity="0.1"/>
  <path id="パス_349" data-name="パス 349" d="M121.318,224.806s-18.034,0-18.862-3.321S121.318,224.806,121.318,224.806Z" transform="translate(165.083 -69.55)" opacity="0.1"/>
  <path id="パス_350" data-name="パス 350" d="M137.826,157.788c-.335,0-14.214,0-15.542-1.91S137.826,157.788,137.826,157.788Z" transform="translate(135.032 -48.985)" opacity="0.1"/>
  <path id="パス_351" data-name="パス 351" d="M72.938,78.7a13.324,13.324,0,0,0-.178,2.054,12.731,12.731,0,0,0,.205,2.28,19.747,19.747,0,0,0,1.287,4.156l.144.335c.205.479.424.945.65,1.41a38.775,38.775,0,0,0,3.588,5.915A64.651,64.651,0,0,0,89.4,106.041q1.048.883,2.116,1.746c0-.644-.034-1.013-.034-1.013s-1.164-3.745-4.238-11.222c-2.328-5.662-7.565-7.805-9.969-8.5l1.239-1.054c-1.253-5.114-3.478-7.668-5.251-8.9C73.15,77.6,73.02,78.135,72.938,78.7Z" transform="translate(215.202 -24.311)" opacity="0.1"/>
  <path id="パス_352" data-name="パス 352" d="M105.232,27.752a2.412,2.412,0,0,1,.6.24c1.3.719,1.677,2.424,2.739,3.5,1.226,1.267,3.143,1.458,4.888,1.677s3.7.65,4.621,2.15c.685,1.116.623,2.52.87,3.807a1.21,1.21,0,0,0,.267.63,1.233,1.233,0,0,0,.835.274c3.423.24,5.915-.938,9.12-1.766a4.872,4.872,0,0,1,4.409.685,5.015,5.015,0,0,1,1.3,3.875v.123a26.47,26.47,0,0,0-.123,4.108,6.777,6.777,0,0,0,3.581,5.019,6.329,6.329,0,0,0,2.588.739,2.092,2.092,0,0,0,1.027-.151c-.609-1.041-1.191-2.054-1.725-3.088A20.615,20.615,0,1,0,105.26,27.746Z" transform="translate(140.945 -5.601)" opacity="0.1"/>
  <path id="パス_353" data-name="パス 353" d="M62.808,19.971a3.477,3.477,0,0,0,1.143,1.4c1.561,1.013,3.8-.1,5.429.8,1.308.719,1.677,2.424,2.739,3.5,1.219,1.267,3.136,1.458,4.888,1.677s3.69.65,4.621,2.15c.685,1.116.616,2.513.87,3.807a1.154,1.154,0,0,0,.267.63,1.251,1.251,0,0,0,.835.274c3.423.24,5.915-.945,9.12-1.766a4.861,4.861,0,0,1,4.4.685,4.771,4.771,0,0,1,1.308,3.882,30.016,30.016,0,0,0-.13,4.218,6.847,6.847,0,0,0,6.162,5.758,1.684,1.684,0,0,0,1.267-.322,1.811,1.811,0,0,0,.418-.753c2.28-6.408,2.259-13.522,5.025-19.739a22.26,22.26,0,0,0,1.157-2.739c.055-.192.11-.39.151-.589a9.05,9.05,0,0,0,.164-1.2,1.716,1.716,0,0,1,.781.322,1.44,1.44,0,0,1,.219.233,4.061,4.061,0,0,1,.575,2.17,82.167,82.167,0,0,1-2.465,25.449,26.583,26.583,0,0,0-1.184,6.388,17.055,17.055,0,0,0,1.643,6.771c4.293,9.9,12.92,17.151,21.5,23.7a9.535,9.535,0,0,1-2.547-7.073,2.793,2.793,0,0,0,2.17,1.944,8.362,8.362,0,0,0,3.06-.048c-1.315-.431-1.828-1.979-2.157-3.321q-1.006-4.108-1.869-8.291a52.245,52.245,0,0,1-1.205-8.093c-.1-2.314.075-4.635.171-6.956a140.743,140.743,0,0,0-.685-19.068c-.507-5.477-1.424-11.4-5.443-15.138a23.646,23.646,0,0,0-5.751-3.588c0-.685-5.019-2.054-5.683-2.15a5.428,5.428,0,0,0-.835-.1,1.719,1.719,0,0,0-1.787.938c-.246-.445-.52-.883-.808-1.3a15.188,15.188,0,0,0-1.3-1.636c-2.609-2.876-5.991-4.9-9.01-7.34a23.156,23.156,0,0,0-3.588-2.643,12.914,12.914,0,0,0-5.375-1.369A21.807,21.807,0,0,0,82,2.882c-4.163,1.6-7.8,4.478-12.1,5.642a28.857,28.857,0,0,0-3.143.87,7.614,7.614,0,0,0-3.971,10.557Z" transform="translate(177.727 -0.449)" fill="#444053"/>
  <g id="グループ_108" data-name="グループ 108" transform="translate(239.699 14.066)" opacity="0.1">
    <path id="パス_354" data-name="パス 354" d="M62.543,116.223a9.458,9.458,0,0,1-.623-4.039,2.807,2.807,0,0,0,2.177,1.944,4.385,4.385,0,0,0,.794.116,3.439,3.439,0,0,0,1.931,2.492,8.378,8.378,0,0,1-3.06.055A3.42,3.42,0,0,1,62.543,116.223Z" transform="translate(7.629 -49.442)"/>
    <path id="パス_355" data-name="パス 355" d="M93.959,20.544a7.652,7.652,0,0,0,.822,3.108,3.523,3.523,0,0,0,1.15,1.369c1.554,1.013,3.8-.1,5.429.8,1.3.719,1.677,2.431,2.739,3.5,1.226,1.267,3.143,1.465,4.888,1.677s3.7.685,4.621,2.15c.685,1.116.623,2.52.869,3.807a.959.959,0,0,0,1.1.911c3.423.24,5.915-.945,9.12-1.773a4.872,4.872,0,0,1,4.409.685,5.03,5.03,0,0,1,1.3,3.882,28.83,28.83,0,0,0-.123,4.211,6.806,6.806,0,0,0,6.162,5.765,1.706,1.706,0,0,0,1.267-.322,1.84,1.84,0,0,0,.418-.76c2.28-6.408,2.266-13.522,5.032-19.732a23.991,23.991,0,0,0,1.15-2.739,8.04,8.04,0,0,0,.322-1.787,1.508,1.508,0,0,1,1,.555,4.2,4.2,0,0,1,.575,2.17,82.59,82.59,0,0,1-.685,16.432,82.827,82.827,0,0,0,.335-13.789,4.061,4.061,0,0,0-.575-2.17,1.439,1.439,0,0,0-1-.555,8.075,8.075,0,0,1-.315,1.787,23.453,23.453,0,0,1-1.157,2.739c-2.739,6.217-2.739,13.324-5.025,19.732a1.89,1.89,0,0,1-.424.76,1.658,1.658,0,0,1-1.26.377,6.847,6.847,0,0,1-6.162-5.758,30.015,30.015,0,0,1,.13-4.218,5.14,5.14,0,0,0-1.308-3.882,4.762,4.762,0,0,0-4.4-.685c-3.2.822-5.683,2.006-9.12,1.766a1.251,1.251,0,0,1-.835-.274,1.187,1.187,0,0,1-.267-.637c-.253-1.287-.178-2.691-.87-3.8-.931-1.5-2.876-1.938-4.621-2.157s-3.67-.4-4.9-1.671c-1.034-1.075-1.4-2.78-2.739-3.505-1.623-.9-3.868.219-5.429-.794a3.477,3.477,0,0,1-1.143-1.4A7.763,7.763,0,0,1,93.959,20.544Z" transform="translate(-93.617 -20.544)"/>
    <path id="パス_356" data-name="パス 356" d="M66.205,77.9a17.114,17.114,0,0,0,1.636,6.771c3.841,8.853,11.153,15.59,18.787,21.594a9.584,9.584,0,0,0,2.383,4.793c-8.572-6.545-17.212-13.8-21.5-23.7a17.056,17.056,0,0,1-1.643-6.771,14.98,14.98,0,0,1,.349-2.978C66.212,77.682,66.205,77.792,66.205,77.9Z" transform="translate(-17.279 -38.54)"/>
  </g>
  <path id="パス_357" data-name="パス 357" d="M95.99,20.434c.616,2.834,1.465,6.518,2.1,8.414a10.37,10.37,0,0,0,.164-1.2,1.7,1.7,0,0,1,.774.322c0-1.992-.24-4.957-.445-7.175a1.726,1.726,0,0,0-1.794.938A11.892,11.892,0,0,0,95.99,20.434Z" transform="translate(191.78 -6.444)" opacity="0.1"/>
  <path id="パス_358" data-name="パス 358" d="M95.5,20.434c.616,2.834,1.465,6.518,2.1,8.414a9.051,9.051,0,0,0,.164-1.2,1.716,1.716,0,0,1,.781.322c0-1.992-.24-4.957-.452-7.175a1.719,1.719,0,0,0-1.787.938C96.061,21.3,95.753,20.858,95.5,20.434Z" transform="translate(192.599 -6.444)" fill="#67647e"/>
</svg>
