<svg xmlns="http://www.w3.org/2000/svg" xmlns:xlink="http://www.w3.org/1999/xlink" width="747.546" height="626.449" viewBox="0 0 747.546 626.449">
  <defs>
    <linearGradient id="linear-gradient" x1="0.5" y1="1" x2="0.5" gradientUnits="objectBoundingBox">
      <stop offset="0" stop-color="gray" stop-opacity="0.251"/>
      <stop offset="0.54" stop-color="gray" stop-opacity="0.122"/>
      <stop offset="1" stop-color="gray" stop-opacity="0.102"/>
    </linearGradient>
    <linearGradient id="linear-gradient-2" x1="0.5" y1="1" x2="0.5" y2="0" xlink:href="#linear-gradient"/>
  </defs>
  <g id="undraw_app_installation_mbdv" transform="translate(0.004)">
    <path id="パス_451" data-name="パス 451" d="M195.223,66.13c-28.108,5.032-60.386,14-71.756,41.571-10.391,25.207,1.8,53.6,10.01,79.69a271.1,271.1,0,0,1,12.444,79.565c.21,37.97-7.187,78.01,7.84,112.511,16.955,38.927,58.916,61.443,73.623,101.343,6.168,16.73,6.914,35.038,9.854,52.717,6.518,39.176,24.321,76.174,50.454,104.835,17.375,19.055,40,35.046,65.06,35.427,19.009.3,36.959-8.33,54.568-15.882a554.989,554.989,0,0,1,63.053-22.633c9.038-2.637,18.347-5.063,27.7-4.239,18.013,1.556,33.039,14.778,50.135,21,46.331,16.8,94.226-19.709,143.109-23.558,41.906-3.306,84,17.764,125.173,8.968,6.067-1.3,12.553-3.655,15.734-9.255,5.266-9.279-1.268-22.12,3.414-31.741s17.321-10.617,24.741-17.935c7.552-7.451,8.167-20.315,4.317-30.434s-11.278-18.176-18.417-26.055a1117.228,1117.228,0,0,1-97.368-124.115c-30.084-44.48-58.239-96.8-49.777-150.707,2.924-18.55,10.111-36.1,13.37-54.591s1.921-39.425-10.033-53.378c-7.14-8.338-17.157-13.152-26.88-17.741-90.672-42.8-187.822-86.627-285.991-70.426-15.983,2.637-31.8,6.868-47.972,7.443-23.4.84-45.429-9.621-68.288-6.222C247.38,56.12,221.154,61.487,195.223,66.13Z" transform="translate(-119.47 -47.347)" fill="#a92c3d" opacity="0.1"/>
    <path id="パス_452" data-name="パス 452" d="M286.87,195.172s-31.989-17.562-41.478-44.465A55.291,55.291,0,0,0,224.1,122.949a93,93,0,0,0-14.964-8.089" transform="translate(-139.399 -62.291)" fill="none" stroke="#535461" stroke-miterlimit="10" stroke-width="2"/>
    <path id="パス_453" data-name="パス 453" d="M197.62,92.53c3.025,3.041,6.284,17.344,6.284,17.344s-14.28-3.344-17.305-6.393A7.778,7.778,0,0,1,197.62,92.53Z" transform="translate(-133.945 -56.877)" fill="#a92c3d"/>
    <path id="パス_454" data-name="パス 454" d="M230.218,101.471c.887,4.2-4.145,17.974-4.145,17.974s-10.165-10.57-11.052-14.778a7.778,7.778,0,0,1,15.205-3.2Z" transform="translate(-140.683 -58.018)" fill="#a92c3d"/>
    <path id="パス_455" data-name="パス 455" d="M266.588,137.754c-1.353,4.068-12.654,13.424-12.654,13.424s-3.438-14.256-2.084-18.332a7.786,7.786,0,1,1,14.777,4.908Z" transform="translate(-148.82 -65.103)" fill="#a92c3d"/>
    <path id="パス_456" data-name="パス 456" d="M287.6,172.606c-.646,4.239-10.2,15.369-10.2,15.369s-5.8-13.471-5.157-17.71A7.778,7.778,0,1,1,287.6,172.6Z" transform="translate(-153.41 -73.052)" fill="#a92c3d"/>
    <path id="パス_457" data-name="パス 457" d="M212.892,137.36c4.293-.047,16.644-7.964,16.644-7.964s-12.53-7.622-16.823-7.575a7.778,7.778,0,0,0,.179,15.555Z" transform="translate(-138.484 -63.838)" fill="#a92c3d"/>
    <path id="パス_458" data-name="パス 458" d="M237.457,177.634c4.075-1.33,13.494-12.576,13.494-12.576s-14.241-3.523-18.316-2.193a7.778,7.778,0,0,0,4.822,14.778Z" transform="translate(-143.489 -72.893)" fill="#a92c3d"/>
    <path id="パス_459" data-name="パス 459" d="M267.453,213.2c4.247-.622,15.431-10.111,15.431-10.111s-13.44-5.88-17.679-5.258a7.778,7.778,0,1,0,2.256,15.376Z" transform="translate(-150.307 -80.719)" fill="#a92c3d"/>
    <path id="パス_460" data-name="パス 460" d="M249.87,333.172s-31.989-17.562-41.478-44.465A55.291,55.291,0,0,0,187.1,260.949a93,93,0,0,0-14.964-8.089" transform="translate(-131.176 -92.96)" fill="none" stroke="#535461" stroke-miterlimit="10" stroke-width="2"/>
    <path id="パス_461" data-name="パス 461" d="M160.62,230.53c3.026,3.041,6.284,17.344,6.284,17.344s-14.28-3.344-17.305-6.393A7.778,7.778,0,0,1,160.62,230.53Z" transform="translate(-125.723 -87.545)" fill="#a92c3d"/>
    <path id="パス_462" data-name="パス 462" d="M193.218,239.471c.887,4.2-4.145,17.974-4.145,17.974s-10.165-10.57-11.052-14.778a7.778,7.778,0,0,1,15.205-3.2Z" transform="translate(-132.46 -88.686)" fill="#a92c3d"/>
    <path id="パス_463" data-name="パス 463" d="M229.588,275.754c-1.353,4.068-12.654,13.424-12.654,13.424s-3.438-14.256-2.084-18.332a7.786,7.786,0,1,1,14.777,4.908Z" transform="translate(-140.598 -95.771)" fill="#a92c3d"/>
    <path id="パス_464" data-name="パス 464" d="M250.6,310.606c-.646,4.239-10.2,15.369-10.2,15.369s-5.8-13.471-5.157-17.71A7.778,7.778,0,1,1,250.6,310.6Z" transform="translate(-145.187 -103.721)" fill="#a92c3d"/>
    <path id="パス_465" data-name="パス 465" d="M175.892,275.36c4.293-.047,16.644-7.964,16.644-7.964s-12.53-7.622-16.823-7.575a7.778,7.778,0,1,0,.179,15.555Z" transform="translate(-130.261 -94.506)" fill="#a92c3d"/>
    <path id="パス_466" data-name="パス 466" d="M200.3,315.634c4.076-1.33,13.494-12.576,13.494-12.576s-14.241-3.523-18.316-2.193a7.778,7.778,0,1,0,4.822,14.778Z" transform="translate(-135.108 -103.561)" fill="#a92c3d"/>
    <path id="パス_467" data-name="パス 467" d="M230.453,351.2c4.247-.622,15.431-10.111,15.431-10.111s-13.44-5.88-17.679-5.258a7.778,7.778,0,1,0,2.256,15.376Z" transform="translate(-142.085 -111.388)" fill="#a92c3d"/>
    <path id="パス_468" data-name="パス 468" d="M636.164,47.27H274.838A33.1,33.1,0,0,0,241.69,80.325V580.987a33.1,33.1,0,0,0,33.148,33.063H636.164a33.1,33.1,0,0,0,33.148-33.055V80.317A33.1,33.1,0,0,0,636.164,47.27Z" transform="translate(-146.633 -47.27)" fill="url(#linear-gradient)"/>
    <rect id="長方形_215" data-name="長方形 215" width="417.441" height="554.888" rx="20" transform="translate(100.152 6.79)" fill="#535461"/>
    <rect id="長方形_216" data-name="長方形 216" width="375.022" height="449.913" transform="translate(121.361 59.281)" fill="#f1f1f4"/>
    <circle id="楕円形_98" data-name="楕円形 98" cx="5.094" cy="5.094" r="5.094" transform="translate(302.083 27.144)" fill="#fff"/>
    <circle id="楕円形_99" data-name="楕円形 99" cx="15.275" cy="15.275" r="15.275" transform="translate(291.902 519.251)" fill="#fff"/>
    <rect id="長方形_217" data-name="長方形 217" width="73.11" height="73.11" rx="11.85" transform="translate(166.542 117.722)" fill="#a92c3d"/>
    <rect id="長方形_218" data-name="長方形 218" width="73.11" height="73.11" rx="11.85" transform="translate(451.203 190.832) rotate(180)" fill="#a92c3d" opacity="0.2"/>
    <rect id="長方形_219" data-name="長方形 219" width="73.11" height="73.11" rx="11.85" transform="translate(272.318 117.722)" fill="#a92c3d"/>
    <rect id="長方形_220" data-name="長方形 220" width="73.11" height="73.11" rx="11.85" transform="translate(166.542 246.831)" fill="#a92c3d"/>
    <rect id="長方形_221" data-name="長方形 221" width="73.11" height="73.11" rx="11.85" transform="translate(451.203 319.941) rotate(180)" fill="#a92c3d" opacity="0.2"/>
    <rect id="長方形_222" data-name="長方形 222" width="73.11" height="73.11" rx="11.85" transform="translate(272.318 246.831)" fill="#a92c3d" opacity="0.2"/>
    <rect id="長方形_223" data-name="長方形 223" width="73.11" height="73.11" rx="11.85" transform="translate(166.542 375.94)" fill="#a92c3d"/>
    <rect id="長方形_224" data-name="長方形 224" width="73.11" height="73.11" rx="11.85" transform="translate(451.203 449.05) rotate(180)" fill="#a92c3d"/>
    <rect id="長方形_225" data-name="長方形 225" width="73.11" height="73.11" rx="11.85" transform="translate(272.318 375.94)" fill="#a92c3d"/>
    <path id="パス_469" data-name="パス 469" d="M861.723,307.947a6.119,6.119,0,0,0-.926-2.333,13.526,13.526,0,0,0-1.828-1.766c-3.671-3.453-1.7-9.675-3.111-14.474-1.555-5.125-7-9.053-11.729-11.666a9.476,9.476,0,0,0-2.442-.988,20.382,20.382,0,0,0-3.235-.257,15.557,15.557,0,0,1-4.931-1.12c-2.248-.918-4.254-2.333-6.557-3.111a3.336,3.336,0,0,0-1.4-.194c-2.512-.233-2.6,2.893-5.3,4.705-1.12.778-2.185,1.851-2.185,3.189,0,1.828,1.867,3.033,3.531,3.834s2.046.646,2.372.638h.14c.226.039.474.233,1.12.941A21.287,21.287,0,0,0,807.24,306.26a20.852,20.852,0,0,0,1.828,8.555c-.07.5-.148,1.011-.233,1.556a55.569,55.569,0,0,1-4.931,16.076c-2.131.436-3.477.778-3.477.778a2.005,2.005,0,0,1,.039.311l-.778.576-3.267,2.333c-6.432-10.663-13-23.9-13.269-33.841,0,0-.778.537-2.1,1.377v-7.062l-.42-.078.42-.778,3.033-5.74a15.5,15.5,0,0,0,1.8-7c.14-9.022-.156-31.266-6.393-34.96-7.863-4.667-9.434,15.509-13.626,25.845-3.111,7.708-1.556,18.876-.607,24.048.07.35.132.669.194.964a58.815,58.815,0,0,0-7.443,3.414c1.657.653,2.893,5.841,3.578,9.574.07.4.14.778.2,1.128a38.656,38.656,0,0,1-4.83,1.182l13.518,29.493c-2.885,3.344-8.905,9.2-13.518,6.168-6.292-4.138-25.666-2.069-25.666-2.069S720.216,318.7,720.745,309.9c0,0-.583.3-1.556.778v-8.019a8.8,8.8,0,0,1-1.128.646l.412-.731.6-1.066a15.688,15.688,0,0,0,1.991-6.58c.653-9.045,1.61-32.269-5.545-35.171-8.913-3.617-11.534,22.221-11.534,22.221l1.9,23.4.039.521c-4.231.373-7.708.373-7.708.373,1.066,1.05,1.408,6.844,1.556,10.476v1.034a9.645,9.645,0,0,1-5.219-.14l14.155,38.243s1.05,9.333,19.4,13.44c10.787,2.434,18.308,4.667,22.68,6.129-7.482,17.733-33.444,81.665-25.83,97.22,0,0,4.075-1.556,8.244-2.924.964,13.409,2.637,33.716,4.667,46.728a134.639,134.639,0,0,0-4.433,15.89c-.047.272-.085.529-.117.778-1.555,12.405-14.155,36.182,4.721,56.333,0,0,13.105,7.778,14.155,17.056.879,7.824,14.731,27.331,19.118,33.35-3.508,6.028-13.4,21.925-22.267,26.086-11.005,5.172-2.1,12.405,8.384,10.889s45.11-26.358,45.11-26.358-.241-16.24-3.523-17.422h0l-3.15-6.5a23.333,23.333,0,0,0,5.1-1.4c14.155-5.685,33.553-16.022,33.553-16.022s.381-12.141-5.118-16.59c-2.816-8.688-15.851-16.489-15.851-16.489s-9.45-24.305-32.518-31.04c0,0-3.725-5.25-3.585-11.262,1.517-2.909,2.543-4.76,2.543-4.76L791.918,500.7a38.624,38.624,0,0,0,7.778-9.574q.264-.482.513-.972c7.194.848,12.833,1.7,12.833,1.7l-.521-24.811c-4.752-51.192,9.932-66.18,9.932-66.18s21-25.324,23.068-43.415c1.937-16.7-12.2-17.539-14.389-17.57a18.458,18.458,0,0,1,.272-7.451l.249.179a2.917,2.917,0,0,0,1.556.646,1.789,1.789,0,0,0,.342,0h.187a3.034,3.034,0,0,0,1.454-.451c5.483-2.878,9.753-8.081,15.773-9.582,1.26-.311,2.574-.451,3.811-.856A10.6,10.6,0,0,0,861,316.526,14.093,14.093,0,0,0,861.723,307.947Zm-77,273.773c1.05,3.617,17.826,16.022,17.826,16.022l.646,4.457a158.649,158.649,0,0,1-13.556,11.472l-5.965-12.312s-8.913-28.427-16.776-31.523c-1.454-.576-1.921-2.333-1.719-4.8,5.11,3.741,18.674,13.782,19.522,16.706Z" transform="translate(-247.274 -91.807)" fill="url(#linear-gradient-2)"/>
    <path id="パス_470" data-name="パス 470" d="M762.179,404.774s-35.653,82.505-27,100.331c0,0,14.264-5.6,16.333-4.581S773.923,394.08,773.923,394.08Z" transform="translate(-256.004 -124.344)" fill="#575988"/>
    <path id="パス_471" data-name="パス 471" d="M762.179,404.774s-35.653,82.505-27,100.331c0,0,14.264-5.6,16.333-4.581S773.923,394.08,773.923,394.08Z" transform="translate(-256.004 -124.344)" opacity="0.05"/>
    <path id="パス_472" data-name="パス 472" d="M787.209,744.4s-12.226,22.921-22.921,28-2.038,12.226,8.151,10.694,43.8-25.977,43.8-25.977-.233-16-3.43-17.165S787.209,744.4,787.209,744.4Z" transform="translate(-261.682 -201.174)" fill="#575988"/>
    <path id="パス_473" data-name="パス 473" d="M828.677,695.4s-17.313,17.313-24.958,18.845,6.619,11.713,20.37,6.113,32.6-15.789,32.6-15.789.505-16.333-8.151-17.826S828.677,695.4,828.677,695.4Z" transform="translate(-271.06 -189.352)" fill="#575988"/>
    <path id="パス_474" data-name="パス 474" d="M744.74,514.565s3.562,62.136,8.151,70.776,21.9,35.139,21.9,35.139,19.864,14.264,20.883,17.826S812.989,654.1,812.989,654.1l1.019,7.132s27-1.556,25.464-10.694-15.789-17.826-15.789-17.826-9.17-23.94-31.577-30.558c0,0-7.132-10.189-1.019-18.332,0,0,15.283-38.2,23.94-42.777S811.457,510,811.457,510Z" transform="translate(-258.429 -150.105)" fill="#67647e"/>
    <path id="パス_475" data-name="パス 475" d="M744.74,514.565s3.562,62.136,8.151,70.776,21.9,35.139,21.9,35.139,19.864,14.264,20.883,17.826S812.989,654.1,812.989,654.1l1.019,7.132s27-1.556,25.464-10.694-15.789-17.826-15.789-17.826-9.17-23.94-31.577-30.558c0,0-7.132-10.189-1.019-18.332,0,0,15.283-38.2,23.94-42.777S811.457,510,811.457,510Z" transform="translate(-258.429 -150.105)" opacity="0.05"/>
    <path id="パス_476" data-name="パス 476" d="M793.4,660.286l16.333,34.12c-2.543,8.657-27,5.6-27,5.6s-18.845-25.464-19.864-34.634-13.751-16.807-13.751-16.807c-18.332-19.864-6.113-43.29-4.581-55.517a6.626,6.626,0,0,1,.109-.778c1.353-8.2,9.6-31.779,16.006-49.442,4.324-11.9,7.817-21.109,7.817-21.109s34.12,1.556,41.221,13.751c3.267,5.6,1.8,11.425-.739,16.092A37.935,37.935,0,0,1,801.431,561l-11.6,27.953s-20.362,37.208-12.693,40.273S793.4,660.286,793.4,660.286Z" transform="translate(-257.184 -152.71)" fill="#67647e"/>
    <path id="パス_477" data-name="パス 477" d="M725.97,301.6a15.616,15.616,0,0,1-1.929,6.487l-.583,1.05-2.87,5.172h-9.17l-.194-2.411-1.843-23.053s2.543-25.464,11.208-21.9C727.533,269.8,726.607,292.686,725.97,301.6Z" transform="translate(-250.57 -96.013)" fill="#f7c4a7"/>
    <path id="パス_478" data-name="パス 478" d="M723.984,321.28l-2.87,5.172h-9.17l-.194-2.411C716.02,323.668,721.1,322.89,723.984,321.28Z" transform="translate(-251.097 -108.165)" opacity="0.1"/>
    <path id="パス_479" data-name="パス 479" d="M722.547,321.39V333.1L703.7,338.2s0-1.221-.054-2.917c-.109-3.578-.443-9.286-1.478-10.321C702.178,324.975,717.453,324.975,722.547,321.39Z" transform="translate(-248.968 -108.189)" fill="#e6e6f0"/>
    <path id="パス_480" data-name="パス 480" d="M722.97,330.22v4.845l-18.845,5.094s0-1.221-.054-2.917C710.347,336.147,719.407,331.954,722.97,330.22Z" transform="translate(-249.39 -110.152)" opacity="0.1"/>
    <path id="パス_481" data-name="パス 481" d="M859.607,348.608c-3.718,10.733,1.112,15.555,1.112,15.555s-45.841,3.057-34.634-5.094c6.541-4.76,9.442-15.26,10.718-23.162a78.976,78.976,0,0,0,1-9.909s36.633-.537,29.034,9.675a49,49,0,0,0-7.233,12.934Z" transform="translate(-276.114 -109.213)" fill="#f7c4a7"/>
    <path id="パス_482" data-name="パス 482" d="M870.415,335.65c-3.733,5.024-4.954,5.763-6.222,9.388a20.481,20.481,0,0,1-3.469.288c-8.734,0-17.235-1.8-20.354-9.411a78.972,78.972,0,0,0,1-9.916S878,325.438,870.415,335.65Z" transform="translate(-279.681 -109.212)" opacity="0.1"/>
    <circle id="楕円形_100" data-name="楕円形 100" cx="20.883" cy="20.883" r="20.883" transform="translate(559.141 195.88)" fill="#f7c4a7"/>
    <path id="パス_483" data-name="パス 483" d="M723.054,330.55s-19.864,10.189-25.464,7.638l13.751,37.69s1.019,9.17,18.845,13.222,26.483,7.638,26.483,7.638l33.1-39.215L772.963,362.1s-8.657,12.226-14.778,8.151-24.943-2.022-24.943-2.022S722.548,339.214,723.054,330.55Z" transform="translate(-247.95 -110.225)" fill="#575988"/>
    <path id="パス_484" data-name="パス 484" d="M723.054,330.55s-19.864,10.189-25.464,7.638l13.751,37.69s1.019,9.17,18.845,13.222,26.483,7.638,26.483,7.638l33.1-39.215L772.963,362.1s-8.657,12.226-14.778,8.151-24.943-2.022-24.943-2.022S722.548,339.214,723.054,330.55Z" transform="translate(-247.95 -110.225)" opacity="0.05"/>
    <path id="パス_485" data-name="パス 485" d="M810.258,360.879s26.926-7.7,29.757,6.6c0,0-12.444-6.067-30.271,4.667-1.338.778-2.644,1.657-3.889,2.551-15.687,10.99-26.646,28-31.048,47.319l-11.379,49.855-1.019,13.4s-16.333,3.22-19.351-1.61-1.019-20.914,3.562-26.273,11.69-28.435,11.69-28.435l4.457-13.378a89.442,89.442,0,0,1,17.445-30.59h0l1.073-1.3a66.889,66.889,0,0,1,24.834-18.573C808.726,363.99,810.616,362.566,810.258,360.879Z" transform="translate(-257.736 -116.505)" opacity="0.1"/>
    <path id="パス_486" data-name="パス 486" d="M810.258,359.569s26.926-7.7,29.757,6.6c0,0-12.444-6.067-30.271,4.667-1.338.778-2.644,1.657-3.889,2.551-15.687,10.99-26.646,28-31.048,47.319l-11.379,49.855-1.019,13.4s-16.333,3.22-19.351-1.61-1.019-20.914,3.562-26.273,11.713-28.419,11.713-28.419l4.457-13.378a89.442,89.442,0,0,1,17.445-30.589h0l1.073-1.3a66.888,66.888,0,0,1,24.834-18.573C808.726,362.68,810.616,361.256,810.258,359.569Z" transform="translate(-257.736 -116.214)" fill="#e6e6f0"/>
    <path id="パス_487" data-name="パス 487" d="M742.81,463.012l.226,8.773,7.132-4.581s12.7-46.222,21.645-58.822c1.05-1.486,1.556-3.7,2.543-4.075l36.415-35.139V361s-18.589,13.751-20.121,16.333c-.653,1.081-10.414,6.417-16.333,14.777a184.633,184.633,0,0,0-14,24.188l-12.226,27.5Z" transform="translate(-258 -116.992)" opacity="0.1"/>
    <path id="パス_488" data-name="パス 488" d="M810.634,360.35v7.894l-36.928,35.388c-.98.373-1.493,2.59-2.543,4.075-8.952,12.608-21.645,58.822-21.645,58.822l-7.132,4.581-.226-8.773,5.32-19.226,12.226-27.5a184.582,184.582,0,0,1,14-24.188c5.88-8.353,15.649-13.689,16.333-14.778,1.322-2.193,15.68-12.709,19.631-15.555Z" transform="translate(-257.855 -116.848)" fill="#787c9c"/>
    <path id="パス_489" data-name="パス 489" d="M855.31,294.169c-1.61-.778-3.43-1.983-3.43-3.78A4.041,4.041,0,0,1,854,287.278c2.909-1.983,2.683-5.569,6.028-4.449,2.24.778,4.192,2.17,6.37,3.072a14.908,14.908,0,0,0,4.791,1.1,19.542,19.542,0,0,1,3.114.249,9.142,9.142,0,0,1,2.33.972,20.456,20.456,0,0,1,9.613,12c1.385,4.729,1.245,10.329,4.807,13.727a13.216,13.216,0,0,1,1.773,1.734,6.082,6.082,0,0,1,.894,2.333,14.077,14.077,0,0,1-.7,8.454,10.36,10.36,0,0,1-6.074,5.748c-1.206.4-2.473.529-3.7.84-5.849,1.478-9.994,6.611-15.33,9.442a2.925,2.925,0,0,1-1.416.443,2.816,2.816,0,0,1-1.493-.638c-2.061-1.47-3.757-3.757-3.7-6.292a12.725,12.725,0,0,1,1.361-4.534,43.943,43.943,0,0,0,2.551-8.205,4,4,0,0,0,.054-1.983c-.389-1.237-1.758-1.812-2.707-2.691-1.8-1.672-2.022-4.519-1.353-6.891s2.069-4.464,3.111-6.7a5.277,5.277,0,0,0,.614-2.17c0-2.979-4.029-4.6-5.724-6.564C857.005,293.594,858.46,295.725,855.31,294.169Z" transform="translate(-282.239 -99.573)" opacity="0.1"/>
    <path id="パス_490" data-name="パス 490" d="M855.97,294.169c-1.61-.778-3.43-1.983-3.43-3.78a4.041,4.041,0,0,1,2.123-3.111c2.909-1.983,2.683-5.569,6.028-4.449,2.24.778,4.192,2.17,6.37,3.072a14.909,14.909,0,0,0,4.791,1.1c1.05.062,4.449-1.556,5.444-1.307a9.136,9.136,0,0,1,2.333.972,20.455,20.455,0,0,1,9.613,12c1.384,4.729.42,10.64,3.982,14,.6.576-.218,2.333.264,2.979a6.082,6.082,0,0,1,.894,2.333,14.077,14.077,0,0,1-.7,8.454,10.36,10.36,0,0,1-6.074,5.748c-1.205.4-2.473.529-3.7.84-5.849,1.478-9.994,6.611-15.33,9.442a2.925,2.925,0,0,1-1.416.443,2.816,2.816,0,0,1-1.493-.638c-2.061-1.47-3.757-3.757-3.7-6.292a12.725,12.725,0,0,1,1.361-4.534,43.942,43.942,0,0,0,2.551-8.205,4,4,0,0,0,.055-1.983c-.389-1.237-1.758-1.812-2.707-2.691-1.8-1.672-2.022-4.519-1.353-6.891s2.069-4.464,3.111-6.7a5.275,5.275,0,0,0,.614-2.17c0-2.979-4.029-4.6-5.724-6.564C857.665,293.594,859.12,295.725,855.97,294.169Z" transform="translate(-282.386 -99.573)" fill="#b96b6b"/>
    <path id="パス_491" data-name="パス 491" d="M815.108,551.613c-9.333-1.1-21.093-2.186-26.257-1.322-8.314,1.384-19.981-6.028-22.081-7.412,4.324-11.9,7.817-21.109,7.817-21.109s34.12,1.555,41.221,13.751C819.114,541.121,817.651,546.946,815.108,551.613Z" transform="translate(-263.324 -152.721)" opacity="0.1"/>
    <path id="パス_492" data-name="パス 492" d="M859.412,384.8c-2.038,17.826-22.407,42.777-22.407,42.777s-14.264,14.778-9.675,65.192l.506,24.445s-30.053-4.581-39.215-3.057-22.407-7.638-22.407-7.638-5.1-88.121,16.831-106.437a129.371,129.371,0,0,1,8.773-12.016c5.88-7.117,13.875-15.135,21.357-17.111a13.362,13.362,0,0,1,2.948-.451s22.921-12.732,29.034-3.057C845.148,367.492,861.442,366.979,859.412,384.8Z" transform="translate(-263.086 -117.62)" fill="#575988"/>
    <path id="パス_493" data-name="パス 493" d="M766.68,509s8.151-3.562,21.9-2.543,38.235-11.208,38.235-11.208" transform="translate(-263.304 -146.827)" opacity="0.1"/>
    <path id="パス_494" data-name="パス 494" d="M781.45,659s.506,1.556-6.113,3.562-8.656,4.075-8.656,4.075" transform="translate(-263.304 -183.219)" opacity="0.05"/>
    <rect id="長方形_226" data-name="長方形 226" width="73.11" height="73.11" rx="11.85" transform="translate(534.688 201.441) rotate(180)" fill="#a92c3d"/>
    <path id="パス_495" data-name="パス 495" d="M805.585,286.877a15.453,15.453,0,0,1-1.742,6.907l-2.94,5.662-2.038,3.889-12.732,1.019s-.264-1.05-.591-2.784c-.949-5.094-2.45-16.1.591-23.7,4.075-10.189,5.6-30.053,13.222-25.464C805.437,256.062,805.725,277.987,805.585,286.877Z" transform="translate(-267.225 -92.708)" fill="#f7c4a7"/>
    <path id="パス_496" data-name="パス 496" d="M801.251,312.771v.156l-2.038,3.889-12.732,1.019s-.264-1.05-.591-2.784C790.448,313.316,796.421,311.7,801.251,312.771Z" transform="translate(-267.574 -106.197)" opacity="0.1"/>
    <path id="パス_497" data-name="パス 497" d="M799.237,314.081v9.193l-18.332,9.675s-.21-1.657-.6-3.8c-.669-3.679-1.867-8.8-3.477-9.434C776.83,319.689,790.068,312.044,799.237,314.081Z" transform="translate(-265.56 -106.488)" fill="#e6e6f0"/>
    <path id="パス_498" data-name="パス 498" d="M853.817,410.5a21.575,21.575,0,0,1-16.473,5.273c-32.246-3.274-33.117-14.669-33.117-14.669l-4.947-11c5.88-7.117,13.875-15.135,21.357-17.111,5.343,8.61,10.111,14.824,10.111,14.824s23.94-18.332,31.072-1.019C865.95,396.924,859.728,405.285,853.817,410.5Z" transform="translate(-270.549 -119.659)" opacity="0.05"/>
    <path id="パス_499" data-name="パス 499" d="M800.231,321.4v3.578L781.9,334.653s-.21-1.657-.6-3.8C789.2,328.291,797.019,323.492,800.231,321.4Z" transform="translate(-266.553 -108.192)" opacity="0.1"/>
    <path id="パス_500" data-name="パス 500" d="M800.984,321.39s-13.751,9.675-25.464,11.713l23.94,52.966s.879,11.394,33.117,14.669a21.583,21.583,0,0,0,16.465-5.273c5.911-5.219,12.118-13.58,7.964-23.66-7.132-17.313-31.072,1.019-31.072,1.019S801.49,340.741,800.984,321.39Z" transform="translate(-265.269 -108.189)" fill="#575988"/>
    <rect id="長方形_227" data-name="長方形 227" width="121.331" height="10.889" rx="2.67" transform="translate(614.977 555.596)" fill="#a92c3d"/>
    <rect id="長方形_228" data-name="長方形 228" width="121.331" height="10.889" rx="2.67" transform="translate(601.755 544.707)" fill="#a92c3d"/>
    <rect id="長方形_229" data-name="長方形 229" width="121.331" height="10.889" rx="2.67" transform="translate(601.755 544.707)" opacity="0.05"/>
  </g>
</svg>
