<svg xmlns="http://www.w3.org/2000/svg" xmlns:xlink="http://www.w3.org/1999/xlink" width="771" height="722" viewBox="0 0 771 722">
  <defs>
    <clipPath id="clip-path">
      <rect id="長方形_213" data-name="長方形 213" width="714" height="573" transform="translate(1016 7906)" fill="#fff" stroke="#707070" stroke-width="1"/>
    </clipPath>
    <clipPath id="clip-path-2">
      <rect id="長方形_233" data-name="長方形 233" width="156" height="138" transform="translate(1547 7954)" fill="#fff"/>
    </clipPath>
    <clipPath id="clip-path-3">
      <rect id="長方形_169" data-name="長方形 169" width="284" height="343" transform="translate(1480.87 1610.758)" fill="#fff"/>
    </clipPath>
    <clipPath id="clip-path-4">
      <rect id="長方形_167" data-name="長方形 167" width="865" height="826" transform="translate(-0.186 -0.048)" fill="#d5d5d5" stroke="#707070" stroke-width="1"/>
    </clipPath>
    <linearGradient id="linear-gradient" x1="0.64" y1="-0.498" x2="0.64" y2="0.501" gradientUnits="objectBoundingBox">
      <stop offset="0" stop-color="gray" stop-opacity="0.251"/>
      <stop offset="0.54" stop-color="gray" stop-opacity="0.122"/>
      <stop offset="1" stop-color="gray" stop-opacity="0.102"/>
    </linearGradient>
    <clipPath id="clip-path-5">
      <rect id="長方形_234" data-name="長方形 234" width="156" height="137" transform="translate(1609 7817)" fill="#fff" stroke="#707070" stroke-width="1"/>
    </clipPath>
  </defs>
  <g id="グループ_359" data-name="グループ 359" transform="translate(-1019 -7778)">
    <g id="マスクグループ_55" data-name="マスクグループ 55" transform="translate(3 21)" clip-path="url(#clip-path)">
      <g id="Group_19" data-name="Group 19" transform="translate(882.379 7844.305)">
        <g id="Group_17" data-name="Group 17" transform="translate(76.757 126.337)">
          <path id="Path_125" data-name="Path 125" d="M663.948,263.3c-1.722-13.5,3.672-27.39.466-40.6-2.467-10.207-9.774-18.729-12.175-28.954-3.528-15.154,4.542-30.717,14.842-42.353,7.084-8.02,15.974-15.3,26.571-16.755,6.544-.931,13.269.507,19.31,3.174A49,49,0,0,1,739.3,166.74c1.4,4.142,2.2,8.475,3.919,12.492,2.956,6.919,8.378,12.5,11.752,19.236A36.5,36.5,0,0,1,756.2,227.98c-3.9,9.746-12.1,17.9-13.311,28.33-.88,7.516,1.941,15.75-1.722,22.372-2.765,5-8.457,7.521-13.846,9.411-12.524,4.356-30.052,11.43-42.617,4.7C673.711,286.9,665.543,275.754,663.948,263.3Z" transform="translate(12.129 132.208)" fill="#e6e6e6"/>
          <path id="Path_126" data-name="Path 126" d="M732.041,330.147s13.745-5.545,15.478-8.664S751.678,300,751.678,300" transform="translate(-20.779 71.017)" fill="none" stroke="#d0cde1" stroke-miterlimit="10" stroke-width="2.359"/>
          <line id="Line_2" data-name="Line 2" y1="133.985" x2="0.419" transform="translate(711.085 360.773)" fill="none" stroke="#d0cde1" stroke-miterlimit="10" stroke-width="2.359"/>
          <path id="Path_173" data-name="Path 173" d="M665.959,283.923c-2-15.656,4.259-31.771.54-47.1-2.861-11.839-11.338-21.725-14.123-33.585-4.089-17.578,5.268-35.632,17.22-49.129,8.217-9.3,18.528-17.746,30.823-19.436,7.591-1.08,15.392.588,22.4,3.682a56.832,56.832,0,0,1,30.557,33.564c1.62,4.805,2.554,9.829,4.546,14.49,3.428,8.028,9.718,14.506,13.632,22.313a42.337,42.337,0,0,1,1.42,34.233c-4.529,11.3-14.037,20.764-15.44,32.862-1.022,8.719,2.251,18.27-2,25.948-3.206,5.8-9.81,8.728-16.061,10.916-14.528,5.054-34.86,13.259-49.436,5.447C677.28,311.305,667.806,298.375,665.959,283.923Z" transform="translate(-58.534 67.428)" fill="#a92c3d"/>
          <line id="Line_3" data-name="Line 3" y1="186.255" transform="translate(648.029 308.502)" fill="none" stroke="#333" stroke-miterlimit="10" stroke-width="2.359"/>
          <path id="Path_174" data-name="Path 174" d="M732.041,346.964s21.412-8.638,24.111-13.5S762.628,300,762.628,300" transform="translate(-83.806 15.514)" fill="none" stroke="#333" stroke-miterlimit="10" stroke-width="2.359"/>
        </g>
        <g id="Group_18" data-name="Group 18" transform="translate(74.029 -51.031)">
          <path id="Path_102" data-name="Path 102" d="M347.715,275.99" transform="translate(-10.663 22.066)" fill="none"/>
          <rect id="Rectangle_50" data-name="Rectangle 50" width="303.525" height="547.863" rx="19.657" transform="matrix(1, -0.002, 0.002, 1, 277.445, 124.897)" fill="#2f2e41"/>
          <path id="Path_122" data-name="Path 122" d="M625.748,595.078A11.283,11.283,0,0,1,614.509,606.4l-259.351.629a11.283,11.283,0,0,1-11.3-11.259l-.178-76.205-.992-410.9A11.283,11.283,0,0,1,353.93,97.347l54.243-.127A24.075,24.075,0,0,0,431.9,117.657l102.486-.246a24.084,24.084,0,0,0,23.723-20.553l55.091-.136a11.283,11.283,0,0,1,11.3,11.259l1.059,411.58Z" transform="translate(-54.238 46.167)" fill="#fff"/>
          <path id="Path_123" data-name="Path 123" d="M626.667,565.4a11.424,11.424,0,0,1-11.278,11.559l-260.264.642a11.421,11.421,0,0,1-11.338-11.5l-.177-77.81h282.87Z" transform="translate(-55.158 81.032)" fill="#e6e6e6"/>
          <rect id="Rectangle_51" data-name="Rectangle 51" width="67.639" height="4.23" rx="1.573" transform="translate(392.885 145.016) rotate(-0.86)" fill="#fff"/>
          <circle id="Ellipse_2" data-name="Ellipse 2" cx="2.541" cy="2.541" r="2.541" transform="translate(472.325 142.965) rotate(-0.86)" fill="#fff"/>
          <g id="Group_11" data-name="Group 11" transform="translate(304.18 213.765)">
            <rect id="Rectangle_52" data-name="Rectangle 52" width="53.422" height="53.422" rx="8.256" fill="#e6e6e6"/>
            <rect id="Rectangle_53" data-name="Rectangle 53" width="53.422" height="53.422" rx="8.256" transform="translate(65.943)" fill="#e6e6e6"/>
            <rect id="Rectangle_54" data-name="Rectangle 54" width="53.422" height="53.422" rx="8.256" transform="translate(131.885)" fill="#e6e6e6"/>
            <rect id="Rectangle_55" data-name="Rectangle 55" width="53.422" height="53.422" rx="8.256" transform="translate(197.828)" fill="#e6e6e6"/>
          </g>
          <rect id="Rectangle_56" data-name="Rectangle 56" width="53.403" height="53.403" rx="8.256" transform="translate(304.18 293.845)" fill="#a92c3d"/>
          <rect id="Rectangle_57" data-name="Rectangle 57" width="53.403" height="53.403" rx="8.256" transform="translate(370.098 293.845)" fill="#e6e6e6"/>
          <rect id="Rectangle_58" data-name="Rectangle 58" width="53.403" height="53.403" rx="8.256" transform="translate(436.017 293.845)" fill="#e6e6e6"/>
          <rect id="Rectangle_59" data-name="Rectangle 59" width="53.403" height="53.403" rx="8.256" transform="translate(501.935 293.845)" fill="#e6e6e6"/>
          <g id="Group_12" data-name="Group 12" transform="translate(304.18 374.03)">
            <rect id="Rectangle_60" data-name="Rectangle 60" width="53.422" height="53.422" rx="8.256" fill="#e6e6e6"/>
            <rect id="Rectangle_61" data-name="Rectangle 61" width="53.422" height="53.422" rx="8.256" transform="translate(65.943)" fill="#e6e6e6"/>
            <rect id="Rectangle_62" data-name="Rectangle 62" width="53.422" height="53.422" rx="8.256" transform="translate(131.885)" fill="#e6e6e6"/>
            <rect id="Rectangle_63" data-name="Rectangle 63" width="53.422" height="53.422" rx="8.256" transform="translate(197.828)" fill="#e6e6e6"/>
          </g>
          <g id="Group_13" data-name="Group 13" transform="translate(304.18 454.163)">
            <rect id="Rectangle_64" data-name="Rectangle 64" width="53.422" height="53.422" rx="8.256" fill="#e6e6e6"/>
            <rect id="Rectangle_65" data-name="Rectangle 65" width="53.422" height="53.422" rx="8.256" transform="translate(65.943)" fill="#e6e6e6"/>
            <rect id="Rectangle_66" data-name="Rectangle 66" width="53.422" height="53.422" rx="8.256" transform="translate(131.885)" fill="#e6e6e6"/>
            <rect id="Rectangle_67" data-name="Rectangle 67" width="53.422" height="53.422" rx="8.256" transform="translate(197.828)" fill="#e6e6e6"/>
          </g>
          <g id="Group_15" data-name="Group 15" transform="translate(300.197 586.66)">
            <rect id="Rectangle_72" data-name="Rectangle 72" width="55.484" height="55.484" rx="8.256" fill="#a92c3d"/>
            <rect id="Rectangle_73" data-name="Rectangle 73" width="55.484" height="55.484" rx="8.256" transform="translate(68.488)" fill="#a92c3d"/>
            <rect id="Rectangle_74" data-name="Rectangle 74" width="55.484" height="55.484" rx="8.256" transform="translate(136.977)" fill="#a92c3d"/>
            <rect id="Rectangle_75" data-name="Rectangle 75" width="55.484" height="55.484" rx="8.256" transform="translate(205.464)" fill="#a92c3d"/>
          </g>
        </g>
        <g id="Group_16" data-name="Group 16" transform="translate(-97.726 203.731)">
          <path id="Path_159" data-name="Path 159" d="M378.347,252.847v12.161l-14.489,21.23,14.489,9.431s6.44-24.811,9.912-27.731a32.572,32.572,0,0,0,8.42-9.241c2.967-5.351,1.484-23.84-12.887-7.3v1.948Z" transform="translate(84.556 -196.179)" fill="#fda57d"/>
          <path id="Path_160" data-name="Path 160" d="M263.355,281.771l5.74-11.474a2.123,2.123,0,0,1,1.791-1.179L292.674,268a2.123,2.123,0,0,1,2.092,2.888l-5.621,14.532a2.123,2.123,0,0,1-2.17,1.349l-21.9-1.949a2.123,2.123,0,0,1-1.72-3.054Z" transform="translate(86.675 -203.171)" fill="#fda57d"/>
          <path id="Path_161" data-name="Path 161" d="M154.193,199.247l-3.7,10.851,38.006-1.365-14.6-8.759Z" transform="translate(197.449 -125.571)" fill="#edeef9"/>
          <path id="Path_163" data-name="Path 163" d="M249.845,394.972a36.151,36.151,0,0,1-2.565,22.27c-5.347,11.191-5.347,22.886,1.46,36.49l1.949,70.55s2.43,33.09,0,39.9.955,39.419.955,39.419h27.25V581.7l9.241-64.712v-33.1l16.572,34.549-18.94,79.8,24.811,10.222,31.137-89.53s-5.4-70.55-24.859-94.873l-3.662-26.523Z" transform="translate(86.603 -202.708)" fill="#3f3d56"/>
          <path id="Path_164" data-name="Path 164" d="M251.143,620.845v-18h27.731s1.949,7.3,14.6,8.759-5.84,10.222-5.84,10.222Z" transform="translate(86.632 -203.525)" fill="#3f3d56"/>
          <path id="Path_165" data-name="Path 165" d="M280.99,609.678l4.828-17.361,24.011,7.627s2.623,7.37,14.421,12.168c8.034,3.268-.718,7.026-.718,7.026l-3.159.815Z" transform="translate(87.526 -200.418)" fill="#3f3d56"/>
          <path id="Path_166" data-name="Path 166" d="M313.175,398.991l-63.361-2.565a35.448,35.448,0,0,1,.481,11.49c2.9,6.818,9.115,4.954,9.115,4.954l55.439-1.7Z" transform="translate(86.626 -202.704)" opacity="0.1"/>
          <path id="Path_167" data-name="Path 167" d="M262.623,283.6l-2.526,1.713A47.539,47.539,0,0,0,240,333.247h0s14.11,27.62,9.73,55.241,9.73,23.359,9.73,23.359l55.713-1.716,4.135-83.769s33.571,4.774,48.659-6.905l12.162-18.582-18.49-12.761-6.31,9.026s-19.815-4.182-30.7-8.6a46.49,46.49,0,0,0-15.957-3.417Z" transform="translate(86.588 -203.114)" fill="#a92c3d"/>
          <path id="Path_168" data-name="Path 168" d="M263.024,417.892s-3.409,17.03,16.059,45.251" transform="translate(86.673 -202.625)" opacity="0.1"/>
          <path id="Path_169" data-name="Path 169" d="M319.236,326.294s23.353-7.784,33.571-7.784,8.515,4.411,8.515,4.411S345.049,330.184,319.236,326.294Z" transform="translate(86.879 -202.987)" opacity="0.1"/>
          <path id="Path_170" data-name="Path 170" d="M292.908,268.992l-9.3,1.113c-.292,0-.561.4-.718.978,2.044,3.685,4.6,5.879,7.379,5.879a5.739,5.739,0,0,0,2.817-.786l.708-4.3C294.036,270.444,293.563,268.913,292.908,268.992Z" transform="translate(86.747 -203.168)" opacity="0.1"/>
          <circle id="Ellipse_3" data-name="Ellipse 3" cx="28.378" cy="28.378" r="28.378" transform="translate(344.79 16.06)" fill="#fda57d"/>
          <path id="Path_171" data-name="Path 171" d="M310.665,231.744h0l-1.452,1.31a4.909,4.909,0,0,0,1.429,8.152h0S297.928,253.92,296.16,256.28s.292,8.571.292,8.571,5.619,10.346-23.943,7.979c0,0-19.508-4.135-17.44-30.445.205-2.636-4.135-9.47,8.87-13.005h0a17.9,17.9,0,0,1,13.707-15.547,49.616,49.616,0,0,1,15.389-1.349,19.319,19.319,0,0,1,17.63,19.262Z" transform="translate(86.643 -203.374)" opacity="0.1"/>
          <path id="Path_172" data-name="Path 172" d="M311.282,230.2h0s3.015.931,3.157,10.819l-4.285-.292s-9.912,26.515-8.87,23.059c3.843-12.714-3.843-10.346-5.619-7.979s.292,8.571.292,8.571,5.619,10.346-23.943,7.979c0,0-19.508-4.135-17.44-30.445.205-2.636-4.135-9.47,8.87-13.005h0a17.9,17.9,0,0,1,13.682-15.554A49.615,49.615,0,0,1,292.514,212C302.522,212.845,311.282,220.193,311.282,230.2Z" transform="translate(86.642 -203.375)" fill="#72351c"/>
        </g>
        <path id="Path_142" data-name="Path 142" d="M776.121,579.94s-12.392-42.067,2.359-73.031a66.45,66.45,0,0,0,5.37-41.674,111.761,111.761,0,0,0-5.905-19.563" transform="translate(-613.215 41.163)" fill="none" stroke="#d0cde1" stroke-miterlimit="10" stroke-width="1.573"/>
        <path id="Path_143" data-name="Path 143" d="M787.082,426.078c0,5.158-9.333,20.106-9.333,20.106s-9.333-14.94-9.333-20.106a9.337,9.337,0,0,1,18.675,0Z" transform="translate(-613.215 41.163)" fill="#e6e6e6"/>
        <path id="Path_144" data-name="Path 144" d="M802.5,454.636c-2.8,4.325-18.761,11.794-18.761,11.794s.291-17.621,3.09-21.953A9.336,9.336,0,0,1,802.5,454.628Z" transform="translate(-612.429 41.163)" fill="#e6e6e6"/>
        <path id="Path_145" data-name="Path 145" d="M801.832,503.441c-4.6,2.359-22.158.716-22.158.716s9.145-15.065,13.752-17.393a9.334,9.334,0,0,1,8.406,16.67Z" transform="translate(-613.215 41.163)" fill="#e6e6e6"/>
        <path id="Path_146" data-name="Path 146" d="M793,540.256c-4.144,3.067-21.717,4.45-21.717,4.45s6.471-16.394,10.615-19.461a9.335,9.335,0,1,1,11.1,15.01Z" transform="translate(-613.215 41.163)" fill="#e6e6e6"/>
        <path id="Path_147" data-name="Path 147" d="M764.137,467.445c3.7,3.593,20.931,7.313,20.931,7.313s-4.222-17.118-7.918-20.7a9.333,9.333,0,0,0-13.013,13.367Z" transform="translate(-613.215 41.163)" fill="#e6e6e6"/>
        <path id="Path_148" data-name="Path 148" d="M754.364,510.628c4.6,2.359,22.158.716,22.158.716s-9.145-15.065-13.752-17.393a9.334,9.334,0,1,0-8.406,16.67Z" transform="translate(-613.215 41.163)" fill="#e6e6e6"/>
        <path id="Path_149" data-name="Path 149" d="M750.621,553.9c4.144,3.067,21.717,4.45,21.717,4.45s-6.471-16.394-10.615-19.461a9.335,9.335,0,0,0-11.1,15.01Z" transform="translate(-613.215 41.163)" fill="#e6e6e6"/>
        <rect id="Rectangle_22" data-name="Rectangle 22" width="713.623" height="1.279" transform="translate(133.67 621.441)" fill="#2f2e41"/>
      </g>
    </g>
    <g id="グループ_251" data-name="グループ 251" transform="translate(-35 -12)">
      <g id="マスクグループ_58" data-name="マスクグループ 58" transform="translate(61 -27)" clip-path="url(#clip-path-2)">
        <g id="マスクグループ_38" data-name="マスクグループ 38" transform="translate(-20.87 6234.242)" clip-path="url(#clip-path-3)">
          <g id="マスクグループ_37" data-name="マスクグループ 37" transform="translate(1034.056 1429.806)" clip-path="url(#clip-path-4)">
            <g id="undraw_security_o890" transform="translate(89.909 40.224)">
              <ellipse id="楕円形_81" data-name="楕円形 81" cx="71.48" cy="11.495" rx="71.48" ry="11.495" transform="translate(25.581 376.668)" fill="#a92c3d" opacity="0.1"/>
              <ellipse id="楕円形_82" data-name="楕円形 82" cx="126.689" cy="12.305" rx="126.689" ry="12.305" transform="translate(611.508 437.301)" fill="#a92c3d" opacity="0.1"/>
              <path id="パス_333" data-name="パス 333" d="M396.446,177.595H385.518V156.3c0-24.043-19.186-44.038-43.228-44.362a43.879,43.879,0,0,0-44.361,43.471v22.181H287a18.363,18.363,0,0,0-18.3,18.214V283.4A18.259,18.259,0,0,0,287,301.613H396.446A18.242,18.242,0,0,0,414.66,283.4v-87.59A18.19,18.19,0,0,0,396.446,177.595ZM348.118,234.5v31.409a6.55,6.55,0,0,1-6.071,6.557,6.42,6.42,0,0,1-6.719-6.071V234.5a14.59,14.59,0,1,1,19.509-6.719,14.991,14.991,0,0,1-6.719,6.719Zm24.609-56.909h-62.09V155.657a31,31,0,1,1,62.009,0Z" transform="translate(181.999 72.704)" opacity="0.1"/>
              <path id="パス_334" data-name="パス 334" d="M396.446,176.523H385.518v-21.29c0-24.043-19.186-44.038-43.228-44.361a43.879,43.879,0,0,0-44.361,43.471v22.181H287a18.363,18.363,0,0,0-18.3,18.214v87.59A18.259,18.259,0,0,0,287,300.54H396.446a18.242,18.242,0,0,0,18.214-18.214v-87.59A18.19,18.19,0,0,0,396.446,176.523Zm-48.328,56.909v31.409a6.55,6.55,0,0,1-6.071,6.557,6.42,6.42,0,0,1-6.719-6.071V233.432a14.59,14.59,0,1,1,19.509-6.719,14.991,14.991,0,0,1-6.719,6.719Zm24.609-56.909h-62.09V154.585a31,31,0,1,1,62.009,0Z" transform="translate(181.999 73.727)" fill="#a92c3d"/>
              <path id="パス_335" data-name="パス 335" d="M596.974,586.984a20.678,20.678,0,0,0-2.186-6.152l-9.714-14.49h.081s-1.538-7.286,0-10.848-5.424-12.386-5.424-12.386-.809-2.186,1.376-4.938-1.376-10.686-1.376-10.686-1.7-16.6-1.862-19.186-1.538-16.6-1.538-16.6l-3.238-29.871-5.748-79.171-.081-1.457a5.949,5.949,0,0,0,1.052-.567l-1.133-43.795.971-.89c8.662-7.852,28.738-26.066,28.576-26.471s-2.429-30.438-2.671-37.966a44.739,44.739,0,0,0-3.481-15.543c-.486-.971-1.943-7.528-2.59-10.362-.162-.729-.243-1.214-.243-1.214s-5.91-11.171-5.343-16.271,1.538-8.9-11.009-10.686c0,0-10.524-1.538-16.757-5.829a45.383,45.383,0,0,0-12.062-5.99s-3.481-6.476-5.99-4.29a32.387,32.387,0,0,1-2.267-7.2l-.081-.486a23.591,23.591,0,0,0,9.39-13.519c.081-.324.162-.648.243-.89a2.363,2.363,0,0,0,.729.162c2.1,0,3.481-2.348,5.424-3.157a8.036,8.036,0,0,0,2.428-.971,2.37,2.37,0,0,0,.567-1.781v-.809c-.567-2.914-2.833-5.586-2.59-8.581.243-2.833,2.752-5.262,2.51-8.014a1.783,1.783,0,0,0-.081-.648v.081a7.61,7.61,0,0,0-1.619-2.833,9.277,9.277,0,0,0-3.319-2.833c-1.133-.486-2.428-.648-3.481-1.214-3.076-1.7-3.076-6.071-4.938-9.067a8.219,8.219,0,0,0-7.529-3.724c-2.267.243-4.371,1.457-6.638,1.862-3.076.567-6.314-.486-9.229-1.619s-5.909-2.429-9.067-2.429-6.557,1.619-7.529,4.614c-.486,1.619-.243,3.319-.648,5.019-.729,2.914-3.238,4.938-5.909,6.4-1.619.89-3.562,1.943-4.048,3.643v-.162c0,.162-.081.243-.081.4v.567a10.987,10.987,0,0,0,1.052,3.4,9.157,9.157,0,0,1-.081,6.557c-.567,1.538-1.619,2.914-2.186,4.452a10.874,10.874,0,0,0-.567,2.186v.89a7.026,7.026,0,0,0,.81,3.4,6,6,0,0,0,3.643,3.076c1.619.4,2.671-1.214,4.371-.81a3.946,3.946,0,0,1,.89.324c.081.4.081.729.162,1.052a24.4,24.4,0,0,0,8.176,13.924c0,.162.081.4.081.567h0a56.379,56.379,0,0,1,.648,9.8s-2.59-3.724-6.071,3.481c0,0-9.148,5.262-12.3,5.829s-14.328,4.452-14.328,4.452a9.99,9.99,0,0,1-5.828,1.862c-3.481,0-6.4,7.609-5.99,11.819s-.243,7.2-3.481,7.367-1.457,6.719-1.457,6.881l-.324,1.457c-.648,2.914-2.024,9.148-2.509,10.119a46.645,46.645,0,0,0-3.481,15.543c-.243,7.528-2.429,37.4-2.671,37.966-.162.324,13.6,12.871,23.233,21.7l1.376,1.3-4.452,41.528a11.057,11.057,0,0,0,4.533,8.1,8.793,8.793,0,0,1-.081,1.457c-.162,4.857-.567,10.767-1.376,12.3-1.376,2.752-1.052,17.324-1.052,17.324s-1.376,29.709-3.076,32.947-2.024,10.038-1.538,11.333-1.7,36.995-1.7,36.995l-1.7,15.947s.486,15.3-1.052,15.624-2.429,10.848-2.429,10.848-5.424,7.448-3.076,10.2-.324,3.886-.567,4.614-5.181,3.238-1.619,12.709c0,.081.081.162.081.243-3.319,4.7-14,19.671-13.357,21.938a5.891,5.891,0,0,0,2.833,3.4c2.509,1.457,6.8,2.186,13.6,0,11.333-3.643,10.524-6.314,10.524-6.314a4.808,4.808,0,0,1,4.776-4.614c4.7-.324,8.176-4.7,8.176-4.7l-.567-2.024-.729-2.833c.081-.809.648-2.267,3.238-3,3.886-1.214,2.914-8.662,2.914-8.662s-.324-7.771,1.376-8.824,1.052-13.924,1.052-13.924,1.862-9.31,4.614-15.624,5.99-43.633,5.99-43.633,2.186-18.3,4.29-23.557,3.886-20,3.886-20,12.628-24.447,12.79-29.871c0,0,1.619-5.1,3.238.486s6.152,19.024,6.152,19.024l4.452,16.433,5.262,24.609,3.4,20.724s-.486,7.771.81,10.524,3.238,8.986,2.186,10.2,2.024,6.8,2.914,7.933,0,26.309,0,26.309,3.886,21.371,9.552,25.095a8.85,8.85,0,0,0,1.214.648c-.081,2.348-.162,5.424-.081,7.043a4.732,4.732,0,0,0,.162,1.052c.486.648,6.314,5.262,7.528,5.262s5.424,3,5.667,4.452,12.467,7.528,14.167,7.69,10.2,1.7,11.333-.648A2.792,2.792,0,0,0,596.974,586.984ZM566.779,281.23l.89.729s.891,6.962,1.538,9.067-.162,6.152-.162,6.152a14.052,14.052,0,0,0,.891,4.452c.729,1.538-1.538,4.857-1.538,4.857h-2.024l-.648-26.228ZM505.9,202.95v0ZM474.494,303.816a3.356,3.356,0,0,1-.162-2.186,7.125,7.125,0,0,0,.4-1.214,22.355,22.355,0,0,0,.486-3.238h0c-.081-.4-.729-4.129-.162-6.152s1.538-9.067,1.538-9.067l.567-.486,1.376-1.214s0-.4.081-1.133c.243,6.152.486,12.952.162,13.276-.648.648-3.157,7.286-2.59,7.529.162.081-.081,2.752-.567,6.314A16.889,16.889,0,0,1,474.494,303.816Z" transform="translate(223.795 -133.655)" fill="url(#linear-gradient)"/>
              <path id="パス_336" data-name="パス 336" d="M518.373,192.645v10.038L497.65,213.045s-20.481-12.386-15.462-17.324c3.238-3.157,2.59-11.738,1.781-17.647h0c-.486-3.4-1.133-5.99-1.133-5.99s36.833-10.524,31.247-2.509c-1.862,2.671-2.024,6.152-1.376,9.552C514,186.007,518.373,192.645,518.373,192.645Z" transform="translate(245.162 -116.874)" fill="#c37098"/>
              <path id="パス_337" data-name="パス 337" d="M480.113,270.49l-2.671,32.785s-3.967-3.643-9.148-8.338c-9.552-8.743-23.152-21.209-22.99-21.533.243-.486,2.429-30.276,2.671-37.723a46.084,46.084,0,0,1,3.4-15.462,92.291,92.291,0,0,0,2.429-10.038c.162-.89.324-1.457.324-1.457l4.452-1.781s18.619,20.8,18.619,21.128-1.3,16.352-1.3,16.352l-1.3,1.133-.567.486s-.89,6.962-1.538,9.067.081,5.748.162,6.071h0a22.346,22.346,0,0,1-.486,3.238,7.12,7.12,0,0,1-.4,1.214,2.939,2.939,0,0,0,.162,2.186,10.432,10.432,0,0,0,1.376,2.671Z" transform="translate(226.756 -96.282)" fill="#3f3d56"/>
              <path id="パス_338" data-name="パス 338" d="M554.848,273.4c.162.4-19.671,18.538-28.252,26.39l-3.886,3.562-2.671-32.785h6.881s2.267-3.319,1.538-4.857a14.054,14.054,0,0,1-.89-4.452s.729-4.048.162-6.152-1.538-9.067-1.538-9.067l-.891-.729-1.052-.89s-1.3-15.948-1.3-16.352,18.619-21.128,18.619-21.128l4.452,1.781s.081.486.243,1.214c.567,2.752,2.024,9.309,2.51,10.281a46.087,46.087,0,0,1,3.4,15.462C552.419,243.129,554.605,272.919,554.848,273.4Z" transform="translate(264.868 -96.282)" fill="#3f3d56"/>
              <path id="パス_339" data-name="パス 339" d="M556.175,444.735c-1.214,2.348-9.552.81-11.252.648s-13.924-6.233-14.086-7.69-4.371-4.371-5.586-4.371-6.881-4.533-7.448-5.262a2.39,2.39,0,0,1-.162-1.052c-.162-2.752.162-9.957.162-9.957l24.528,1.376,11.9,17.89a26.467,26.467,0,0,1,2.186,6.152A3.676,3.676,0,0,1,556.175,444.735Z" transform="translate(263.622 10.861)" fill="#3f3d56"/>
              <path id="パス_340" data-name="パス 340" d="M556.175,444.735c-1.214,2.348-9.552.81-11.252.648s-13.924-6.233-14.086-7.69-4.371-4.371-5.586-4.371-6.881-4.533-7.448-5.262a2.39,2.39,0,0,1-.162-1.052c-.162-2.752.162-9.957.162-9.957l24.528,1.376,11.9,17.89a26.467,26.467,0,0,1,2.186,6.152A3.676,3.676,0,0,1,556.175,444.735Z" transform="translate(263.622 10.861)" opacity="0.1"/>
              <path id="パス_341" data-name="パス 341" d="M556.159,441.372c-1.214,2.348-9.552.81-11.252.648s-13.924-6.233-14.086-7.69-4.371-4.371-5.586-4.371-6.881-4.533-7.448-5.262a2.39,2.39,0,0,1-.162-1.052l7.933,5.019s5.1,3.238,6.4,5.181,11.981,5.909,12.871,5.99c.648.081,7.609-1.3,11.5-.729A3.151,3.151,0,0,1,556.159,441.372Z" transform="translate(263.638 14.223)" opacity="0.1"/>
              <path id="パス_342" data-name="パス 342" d="M479.831,429.648s-3.481,4.29-8.1,4.614a4.72,4.72,0,0,0-4.7,4.533s.81,2.59-10.362,6.233c-6.719,2.186-11.009,1.457-13.519,0a6.2,6.2,0,0,1-2.833-3.4c-.729-2.671,14.167-23.233,14.167-23.233l13.6-.81,9.714,4.371,1.457,5.586Z" transform="translate(224.206 11.134)" fill="#3f3d56"/>
              <path id="パス_343" data-name="パス 343" d="M479.831,429.648s-3.481,4.29-8.1,4.614a4.72,4.72,0,0,0-4.7,4.533s.81,2.59-10.362,6.233c-6.719,2.186-11.009,1.457-13.519,0a6.2,6.2,0,0,1-2.833-3.4c-.729-2.671,14.167-23.233,14.167-23.233l13.6-.81,9.714,4.371,1.457,5.586Z" transform="translate(224.206 11.134)" opacity="0.1"/>
              <path id="パス_344" data-name="パス 344" d="M478.865,426.285s-3.481,4.29-8.1,4.614a4.72,4.72,0,0,0-4.7,4.533s.81,2.59-10.362,6.233c-6.719,2.186-11.009,1.457-13.519,0,6.4-.648,20.481-4.7,21.857-6.071,1.7-1.7,3.8-6.314,5.262-6.4.971-.081,6.071-3.076,9.067-5.019Z" transform="translate(225.171 14.497)" fill="none"/>
              <path id="パス_345" data-name="パス 345" d="M478.865,426.285s-3.481,4.29-8.1,4.614a4.72,4.72,0,0,0-4.7,4.533s.81,2.59-10.362,6.233c-6.719,2.186-11.009,1.457-13.519,0,6.4-.648,20.481-4.7,21.857-6.071,1.7-1.7,3.8-6.314,5.262-6.4.971-.081,6.071-3.076,9.067-5.019Z" transform="translate(225.171 14.497)" opacity="0.1"/>
              <path id="パス_346" data-name="パス 346" d="M580.12,478.2c-1.538,3.562,0,10.767,0,10.767s-22.666,1.214-28.171-2.509-9.471-25.014-9.471-25.014.81-25.014,0-26.147-3.886-6.719-2.833-7.933-.81-7.448-2.186-10.119-.81-10.443-.81-10.443l-3.4-20.643-5.262-24.447-4.452-16.352S519,332,517.464,326.419s-3.157-.486-3.157-.486c-.162,5.424-12.628,29.709-12.628,29.709s-1.862,14.733-3.886,19.914-4.209,23.476-4.209,23.476-3.238,37.157-5.909,43.39-4.533,15.543-4.533,15.543.648,12.871-1.052,13.843-1.457,8.824-1.457,8.824,1.052,7.448-2.833,8.581-3.238,3.724-3.238,3.724-21.614,3.562-25.176-5.909S450.76,475.046,451,474.4s3-1.862.567-4.533,3.076-10.119,3.076-10.119.81-10.443,2.348-10.767,1.052-15.543,1.052-15.543l1.7-15.867s2.186-35.457,1.7-36.833-.162-8.1,1.538-11.333,3.076-32.785,3.076-32.785-.324-14.49,1.052-17.243c.81-1.538,1.133-7.448,1.376-12.224.162-3.643.162-6.719.162-6.719l18.943-7.124,24.286-7.771,20.4,9.8,29.871,5.748.4,5.181,5.667,78.766,3.238,29.709s1.376,14,1.538,16.514,1.862,19.1,1.862,19.1,3.562,7.933,1.376,10.6-1.376,4.857-1.376,4.857S581.658,474.642,580.12,478.2Z" transform="translate(228.182 -56.203)" fill="#3f3d56"/>
              <path id="パス_347" data-name="パス 347" d="M513.678,169.627c-1.862,2.671-2.024,6.152-1.376,9.552a23.818,23.818,0,0,1-28.819-1.052h0c-.486-3.4-1.133-5.99-1.133-5.99S519.263,161.613,513.678,169.627Z" transform="translate(245.648 -116.847)" opacity="0.1"/>
              <path id="パス_348" data-name="パス 348" d="M524.8,169.759a23.719,23.719,0,1,1-23.719-23.719h0A23.6,23.6,0,0,1,524.8,169.516Z" transform="translate(243.106 -127.34)" fill="#c37098"/>
              <path id="パス_349" data-name="パス 349" d="M531.762,187.994l-7.771,138.427-42.176-8.9L473.4,262.065l8.338-74.475,6.233.81,11.009,1.376,10.848.648,11.819-1.3Z" transform="translate(241.083 -106.152)" opacity="0.1"/>
              <path id="パス_350" data-name="パス 350" d="M531.762,188.718l-7.771,138.346-42.176-8.824L473.4,262.708l8.338-74.475,6.233.81,11.009,1.457,10.848.648,11.819-1.3Z" transform="translate(241.083 -105.824)" fill="#a92c3d"/>
              <path id="パス_351" data-name="パス 351" d="M489.1,191.02l15.219.486-4.29,5.99s.324,12.062,2.348,15.543,1.457,56.99,1.457,56.99l-4.048,7.69-6.881-8.581.081-70.671Z" transform="translate(249.093 -104.402)" fill="#3f3d56"/>
              <path id="パス_352" data-name="パス 352" d="M489.1,191.02l15.219.486-4.29,5.99s.324,12.062,2.348,15.543,1.457,56.99,1.457,56.99l-4.048,7.69-6.881-8.581.081-70.671Z" transform="translate(249.093 -104.402)" opacity="0.1"/>
              <path id="パス_353" data-name="パス 353" d="M509.651,180.62l-14.167,15.7,8.1,8.419,13.438-13.114Z" transform="translate(252.347 -109.706)" opacity="0.1"/>
              <path id="パス_354" data-name="パス 354" d="M509.651,179.923l-14.167,15.7,8.1,8.419,13.438-13.033Z" transform="translate(252.347 -110.061)" fill="#a92c3d"/>
              <path id="パス_355" data-name="パス 355" d="M496.848,195.323l-14.409-14.328-1.376,7.529,6.638,16.433Z" transform="translate(244.992 -109.515)" opacity="0.1"/>
              <path id="パス_356" data-name="パス 356" d="M497.143,194.707,482.733,180.3l-1.3,7.529,6.557,16.514Z" transform="translate(245.184 -109.87)" fill="#a92c3d"/>
              <path id="パス_357" data-name="パス 357" d="M555.641,306.236a68.525,68.525,0,0,1-21.857,6.314c-13.924,1.781-23.071-15.948-23.071-15.948l-5.343,6.881c-1.7,7.367-27.443,9.229-37.885,6.4a17.757,17.757,0,0,1-5.99-2.833c.162-3.643.162-6.719.162-6.719L480.6,293.2l24.285-7.771,20.4,9.8,29.871,5.748Z" transform="translate(235.013 -56.258)" opacity="0.1"/>
              <path id="パス_358" data-name="パス 358" d="M531.762,188.718l-7.771,138.346-42.257-8.9L473.4,262.708l8.257-74.475,6.233.81c-.162,2.752-.486,5.424-.89,8.1-1.052,4.776,5.262,38.371,5.262,38.371s11.9,37.642,17.243,32.219,12.952-34.081,12.952-34.081c5.181-10.6.081-40.476-.324-41.042a15.04,15.04,0,0,1-.486-2.752Z" transform="translate(241.083 -105.824)" opacity="0.1"/>
              <path id="パス_359" data-name="パス 359" d="M526.272,264.76l.324,13.6-3.886,3.562-2.671-32.785h5.828Z" transform="translate(264.868 -74.766)" opacity="0.1"/>
              <path id="パス_360" data-name="パス 360" d="M463.633,242.917h0a22.345,22.345,0,0,1-.486,3.238c0-.324,0-.486-.081-.486A6.161,6.161,0,0,1,463.633,242.917Z" transform="translate(235.789 -77.938)" opacity="0.1"/>
              <path id="パス_361" data-name="パス 361" d="M472.348,249.931l-2.671,32.785s-3.967-3.643-9.148-8.338l.648-5.829s2.186-14.247,3-21.29a10.429,10.429,0,0,0,1.376,2.671Z" transform="translate(234.521 -75.723)" opacity="0.1"/>
              <path id="パス_362" data-name="パス 362" d="M500.207,181.263s-2.509-3.724-5.99,3.481c0,0-9.067,5.262-12.143,5.829s-14.167,4.452-14.167,4.452a9.746,9.746,0,0,1-5.748,1.862c-3.481,0-6.314,7.609-5.909,11.738s-.243,7.2-3.481,7.367-1.457,6.8-1.457,6.8l21.371,24.528s1.376,22.585.648,23.233-3.157,7.286-2.51,7.529-3.238,25.176-3.238,25.176L462.4,351.666s0,8.1,10.443,10.928,36.266.971,37.885-6.4l5.343-6.962s9.147,17.728,23.071,15.947,22.828-6.881,22.828-6.881l-1.538-57.961-1.052-41.771,21.776-35.7s-5.829-11.171-5.343-16.19,1.538-8.9-10.929-10.6c0,0-10.443-1.538-16.6-5.829a49.74,49.74,0,0,0-11.9-5.99s-3.481-6.476-5.909-4.29c0,0,2.429,9.148,2.267,10.524a40.894,40.894,0,0,0,.729,8.176c.324.648,5.424,30.438.324,41.043,0,0-7.529,28.657-12.952,34.081s-17.243-32.219-17.243-32.219-6.233-33.595-5.262-38.371S500.207,181.263,500.207,181.263Z" transform="translate(229.572 -110.268)" fill="#3f3d56"/>
              <circle id="楕円形_83" data-name="楕円形 83" cx="3.724" cy="3.724" r="3.724" transform="translate(744.188 174.208)" fill="#3f3d56"/>
              <circle id="楕円形_84" data-name="楕円形 84" cx="3.724" cy="3.724" r="3.724" transform="translate(744.188 191.774)" fill="#3f3d56"/>
              <circle id="楕円形_85" data-name="楕円形 85" cx="3.724" cy="3.724" r="3.724" transform="translate(744.188 174.208)" opacity="0.1"/>
              <circle id="楕円形_86" data-name="楕円形 86" cx="3.724" cy="3.724" r="3.724" transform="translate(744.188 191.774)" opacity="0.1"/>
              <path id="パス_363" data-name="パス 363" d="M517.626,409.758s15.219,1.214,16.757,2.348S517.626,409.758,517.626,409.758Z" transform="translate(263.638 7.142)" stroke="#a92c3d" stroke-miterlimit="10" stroke-width="0.536" opacity="0.1"/>
              <path id="パス_364" data-name="パス 364" d="M457.473,401.824s3.238,4.048,1.862,5.909S457.473,401.824,457.473,401.824Z" transform="translate(232.963 3.096)" stroke="#a92c3d" stroke-miterlimit="10" stroke-width="0.536" opacity="0.1"/>
              <path id="パス_365" data-name="パス 365" d="M460.047,412.212s5.909-3.886,8.257-1.3S460.047,412.212,460.047,412.212Z" transform="translate(234.275 7.279)" stroke="#a92c3d" stroke-miterlimit="10" stroke-width="0.536" opacity="0.1"/>
              <path id="パス_366" data-name="パス 366" d="M524.75,169.762a24.768,24.768,0,0,1-.729,5.99,2.671,2.671,0,0,1-1.538-2.671c.081-.971.729-1.862.648-2.833-.243-1.457-2.024-2.1-2.914-3.238-1.133-1.376-.891-3.481-.81-5.262s-.4-4.048-2.1-4.7c-.486-.162-1.052-.243-1.538-.4-1.376-.567-1.781-2.267-2.672-3.4-1.781-2.348-5.343-2.267-8.1-1.133-1.214.567-2.429,1.052-3.643,1.538a4.8,4.8,0,0,1-3.8-.324c-.567-.324-.971-.81-1.538-1.133-1.862-1.133-4.21,0-5.829,1.457s-2.833,3.319-4.857,4.209c-.89.4-2.024.648-2.429,1.538a2.493,2.493,0,0,0-.243,1.538c0,3.157.4,6.314-.243,9.39-.4,2.024-1.781,4.21-3.8,3.967a2.364,2.364,0,0,1-.729-.162,23.72,23.72,0,0,1,46.628-8.743,39.535,39.535,0,0,1,.243,4.371Z" transform="translate(243.157 -127.343)" opacity="0.1"/>
              <path id="パス_367" data-name="パス 367" d="M479.93,178.385c.648.162,1.214.486,1.781.567,2.024.243,3.4-2.024,3.8-3.967.648-3.076.324-6.314.324-9.39a3.412,3.412,0,0,1,.243-1.538c.486-.89,1.538-1.133,2.429-1.538,1.943-.89,3.238-2.752,4.857-4.209s3.967-2.51,5.829-1.457c.567.324.971.81,1.538,1.133a4.83,4.83,0,0,0,3.8.324c1.214-.4,2.429-1.052,3.643-1.538,2.671-1.133,6.314-1.133,8.1,1.133.89,1.133,1.3,2.833,2.671,3.4a10.782,10.782,0,0,0,1.538.4c1.7.648,2.186,2.833,2.1,4.7s-.324,3.886.81,5.262c.971,1.133,2.752,1.781,2.914,3.238.162.971-.486,1.862-.648,2.833a2.7,2.7,0,0,0,2.509,2.833h0c2.1,0,3.4-2.348,5.343-3.076a8.035,8.035,0,0,0,2.428-.971,2.693,2.693,0,0,0,.486-2.186c-.4-3.076-2.914-5.829-2.59-8.9.243-3,3-5.586,2.429-8.5a7.942,7.942,0,0,0-1.619-2.914,10.159,10.159,0,0,0-3.319-2.833c-1.133-.486-2.429-.567-3.481-1.214-3.076-1.7-3.076-6.071-4.857-8.986a7.813,7.813,0,0,0-7.367-3.643c-2.267.243-4.371,1.457-6.557,1.862-3.076.567-6.233-.486-9.148-1.619s-5.909-2.429-8.986-2.429-6.557,1.619-7.448,4.614c-.486,1.619-.243,3.319-.648,4.938-.648,2.914-3.238,4.938-5.828,6.4-1.781.971-3.886,2.1-4.129,4.129-.162,1.3.567,2.429,1.052,3.643a9.38,9.38,0,0,1-.081,6.476c-.567,1.538-1.619,2.833-2.186,4.371a7.564,7.564,0,0,0,.243,6.476,6.155,6.155,0,0,0,3.724,3.076C477.258,179.6,478.23,177.98,479.93,178.385Z" transform="translate(239.892 -132.89)" fill="#3f3d56"/>
              <g id="グループ_237" data-name="グループ 237" transform="translate(711.111 21.331)" opacity="0.1">
                <path id="パス_368" data-name="パス 368" d="M485.543,161.64c-.4,2.024-1.862,4.21-3.8,3.967a11.465,11.465,0,0,1-1.781-.567c-1.7-.4-2.671,1.214-4.29.81a6.109,6.109,0,0,1-3.724-3.076,7.262,7.262,0,0,1-.729-2.671,7.134,7.134,0,0,0,.729,4.129,6.155,6.155,0,0,0,3.724,3.076c1.619.4,2.59-1.214,4.29-.81a7.3,7.3,0,0,0,1.781.486c2.024.243,3.4-2.024,3.8-3.967a23.785,23.785,0,0,0,.4-5.343A19.915,19.915,0,0,1,485.543,161.64Z" transform="translate(-471.166 -142.738)"/>
                <path id="パス_369" data-name="パス 369" d="M473.9,154.446a9.087,9.087,0,0,0-.567-3.886,24.485,24.485,0,0,1-.971-2.59c0,.162-.081.243-.081.4-.162,1.3.567,2.429,1.052,3.643A8.811,8.811,0,0,1,473.9,154.446Z" transform="translate(-470.61 -147.686)"/>
                <path id="パス_370" data-name="パス 370" d="M515.143,149.417c-.4,2.267-2.267,4.452-2.428,6.881a3.062,3.062,0,0,0,0,1.214C513.119,154.679,515.629,152.17,515.143,149.417Z" transform="translate(-450.009 -146.948)"/>
                <path id="パス_371" data-name="パス 371" d="M518.047,160.73a1.93,1.93,0,0,1-.486.89c-.567.648-1.619.729-2.429.971-1.943.729-3.238,3.157-5.343,3.076a2.707,2.707,0,0,1-2.429-1.862,1.2,1.2,0,0,0-.081.567,2.7,2.7,0,0,0,2.51,2.833h0c2.1,0,3.4-2.348,5.343-3.076a8.035,8.035,0,0,0,2.429-.971,2.693,2.693,0,0,0,.486-2.186Z" transform="translate(-452.751 -141.18)"/>
                <path id="パス_372" data-name="パス 372" d="M508.947,162.3c-.243-1.457-2.024-2.1-2.914-3.238a4.416,4.416,0,0,1-.891-2.671,6.155,6.155,0,0,0,.891,4.21c.89,1.133,2.348,1.619,2.833,2.752A2.331,2.331,0,0,0,508.947,162.3Z" transform="translate(-453.852 -143.394)"/>
                <path id="パス_373" data-name="パス 373" d="M517.638,158.184c.081-1.862-.4-4.048-2.1-4.7-.486-.162-1.052-.243-1.538-.4-1.376-.567-1.781-2.267-2.671-3.4-1.781-2.348-5.343-2.267-8.1-1.133-1.214.486-2.348,1.133-3.643,1.538a4.8,4.8,0,0,1-3.8-.324c-.567-.324-.971-.81-1.538-1.133-1.862-1.133-4.209,0-5.828,1.457s-2.833,3.319-4.857,4.21c-.89.4-2.024.648-2.51,1.538a2.493,2.493,0,0,0-.243,1.538v.971a2.156,2.156,0,0,1,.243-.971c.486-.89,1.538-1.133,2.51-1.538,1.943-.89,3.238-2.752,4.857-4.21s3.967-2.51,5.828-1.457c.567.324.971.81,1.538,1.133a4.83,4.83,0,0,0,3.8.324,34.968,34.968,0,0,0,3.643-1.538c2.671-1.133,6.314-1.133,8.1,1.133.89,1.133,1.3,2.833,2.671,3.4a10.783,10.783,0,0,0,1.538.4c1.376.486,1.943,2.1,2.024,3.643Z" transform="translate(-466.266 -147.782)"/>
              </g>
              <g id="グループ_238" data-name="グループ 238" transform="translate(722.574 33.839)" opacity="0.1">
                <path id="パス_374" data-name="パス 374" d="M478.757,162.46a6.3,6.3,0,0,1,4.7-5.829,19.333,19.333,0,0,1,10.928.486c7.69,2.51-.971,11.657-.971,11.657s-5.747,5.667-11.09,1.7a8.556,8.556,0,0,1-3.157-4.857A14.067,14.067,0,0,1,478.757,162.46Z" transform="translate(-478.757 -156.066)"/>
                <path id="パス_375" data-name="パス 375" d="M513.094,162.46a6.3,6.3,0,0,0-4.7-5.829,19.333,19.333,0,0,0-10.928.486c-7.69,2.51.971,11.657.971,11.657s5.748,5.667,11.09,1.7a8.556,8.556,0,0,0,3.157-4.857A10.576,10.576,0,0,0,513.094,162.46Z" transform="translate(-470.838 -156.066)"/>
                <path id="パス_376" data-name="パス 376" d="M488.14,156.307v.4h14v-.486Z" transform="translate(-473.973 -155.985)"/>
                <path id="パス_377" data-name="パス 377" d="M491.252,159.707h.4v-1.3a3.666,3.666,0,0,1,3.8,0v1.133h.81v-.729h-.4s.162-1.538-2.51-1.3c0,0-2.1-.243-2.1,1.133h-.486Z" transform="translate(-472.633 -155.337)"/>
              </g>
              <path id="パス_378" data-name="パス 378" d="M478.757,162.085a6.3,6.3,0,0,1,4.7-5.829,19.333,19.333,0,0,1,10.928.486c7.69,2.51-.971,11.657-.971,11.657s-5.747,5.667-11.09,1.7a8.556,8.556,0,0,1-3.157-4.857A12.955,12.955,0,0,1,478.757,162.085Z" transform="translate(243.817 -122.418)" fill="#a92c3d"/>
              <path id="パス_379" data-name="パス 379" d="M513.094,162.085a6.3,6.3,0,0,0-4.7-5.829,19.333,19.333,0,0,0-10.928.486c-7.69,2.51.971,11.657.971,11.657s5.748,5.667,11.09,1.7a8.556,8.556,0,0,0,3.157-4.857A9.94,9.94,0,0,0,513.094,162.085Z" transform="translate(251.736 -122.418)" fill="#a92c3d"/>
              <path id="パス_380" data-name="パス 380" d="M488.14,155.985v.324h14v-.4Z" transform="translate(248.601 -122.309)" fill="#a92c3d"/>
              <path id="パス_381" data-name="パス 381" d="M491.252,159.386h.4v-1.3a3.666,3.666,0,0,1,3.8,0v1.133h.81V158.5h-.4s.162-1.538-2.51-1.3c0,0-2.1-.162-2.1,1.133h-.486Z" transform="translate(249.941 -121.662)" fill="#a92c3d"/>
              <rect id="長方形_168" data-name="長方形 168" width="4.614" height="103.537" transform="translate(94.794 168.298)" fill="#535461"/>
              <path id="パス_382" data-name="パス 382" d="M106.22,315.849l-.324,4.7-.4,6.557-.162,2.752-.4,6.557-.162,2.752-.4,6.557L99.744,420.6a12.669,12.669,0,0,1-12.628,11.9H62.992a12.614,12.614,0,0,1-12.628-11.9l-4.7-74.88-.4-6.557-.162-2.752-.4-6.638-.162-2.752-.4-6.557-.324-4.7a6.541,6.541,0,0,1,6.152-6.962h49.7a6.53,6.53,0,0,1,6.557,6.557A.516.516,0,0,1,106.22,315.849Z" transform="translate(22.007 -44.338)" fill="#3f3d56"/>
              <path id="パス_383" data-name="パス 383" d="M105.863,316.58l-.4,6.557H44.42l-.4-6.557Z" transform="translate(22.122 -40.373)" fill="#9d9cb5"/>
              <path id="パス_384" data-name="パス 384" d="M105.1,322.746l-.4,6.557H44.8l-.4-6.557Z" transform="translate(22.313 -37.229)" fill="#9d9cb5"/>
              <path id="パス_385" data-name="パス 385" d="M104.347,328.911l-.4,6.557H45.252l-.486-6.557Z" transform="translate(22.505 -34.085)" fill="#9d9cb5"/>
              <path id="パス_386" data-name="パス 386" d="M59.309,277.712c26.795,19.347,37.966,49.7,37.966,49.7s-32.3-1.133-59.095-20.481S.214,257.232.214,257.232,32.514,258.365,59.309,277.712Z" transform="translate(-0.214 -70.638)" fill="#a92c3d"/>
              <path id="パス_387" data-name="パス 387" d="M.268,257.232s33.514,18.619,44.281,34,52.78,36.185,52.78,36.185" transform="translate(-0.187 -70.638)" fill="none" stroke="#535461" stroke-miterlimit="10" stroke-width="1.072"/>
              <path id="パス_388" data-name="パス 388" d="M61.678,248.781c14.571,10.524,20.643,27.038,20.643,27.038s-17.566-.567-32.138-11.171S29.54,237.609,29.54,237.609,47.107,238.176,61.678,248.781Z" transform="translate(14.74 -80.644)" fill="#a92c3d"/>
              <path id="パス_389" data-name="パス 389" d="M29.54,237.556s18.214,10.119,24.043,18.538,28.738,19.671,28.738,19.671" transform="translate(14.74 -80.672)" fill="none" stroke="#535461" stroke-miterlimit="10" stroke-width="1.072"/>
              <path id="パス_390" data-name="パス 390" d="M85.4,270.5c-16.757,18.376-20.319,42.419-20.319,42.419s23.638-5.829,40.314-24.2c16.757-18.376,20.319-42.419,20.319-42.419S102.08,252.042,85.4,270.5Z" transform="translate(32.866 -76.215)" fill="#a92c3d"/>
              <path id="パス_391" data-name="パス 391" d="M125.718,246.295s-21.776,18.862-27.362,31.895S65.085,313,65.085,313" transform="translate(32.866 -76.215)" fill="none" stroke="#535461" stroke-miterlimit="10" stroke-width="1.072"/>
            </g>
          </g>
        </g>
      </g>
      <g id="マスクグループ_59" data-name="マスクグループ 59" transform="translate(60 -27)" clip-path="url(#clip-path-5)">
        <g id="マスクグループ_57" data-name="マスクグループ 57" transform="translate(55.13 6234.242)" clip-path="url(#clip-path-3)">
          <g id="マスクグループ_56" data-name="マスクグループ 56" transform="translate(1034.056 1429.806)" clip-path="url(#clip-path-4)">
            <g id="undraw_security_o890-2" data-name="undraw_security_o890" transform="translate(89.909 40.224)">
              <ellipse id="楕円形_101" data-name="楕円形 101" cx="71.48" cy="11.495" rx="71.48" ry="11.495" transform="translate(25.581 376.668)" fill="#a92c3d" opacity="0.1"/>
              <ellipse id="楕円形_102" data-name="楕円形 102" cx="126.689" cy="12.305" rx="126.689" ry="12.305" transform="translate(611.508 437.301)" fill="#a92c3d" opacity="0.1"/>
              <path id="パス_501" data-name="パス 501" d="M396.446,177.595H385.518V156.3c0-24.043-19.186-44.038-43.228-44.362a43.879,43.879,0,0,0-44.361,43.471v22.181H287a18.363,18.363,0,0,0-18.3,18.214V283.4A18.259,18.259,0,0,0,287,301.613H396.446A18.242,18.242,0,0,0,414.66,283.4v-87.59A18.19,18.19,0,0,0,396.446,177.595ZM348.118,234.5v31.409a6.55,6.55,0,0,1-6.071,6.557,6.42,6.42,0,0,1-6.719-6.071V234.5a14.59,14.59,0,1,1,19.509-6.719,14.991,14.991,0,0,1-6.719,6.719Zm24.609-56.909h-62.09V155.657a31,31,0,1,1,62.009,0Z" transform="translate(181.999 72.704)" opacity="0.1"/>
              <path id="パス_502" data-name="パス 502" d="M396.446,176.523H385.518v-21.29c0-24.043-19.186-44.038-43.228-44.361a43.879,43.879,0,0,0-44.361,43.471v22.181H287a18.363,18.363,0,0,0-18.3,18.214v87.59A18.259,18.259,0,0,0,287,300.54H396.446a18.242,18.242,0,0,0,18.214-18.214v-87.59A18.19,18.19,0,0,0,396.446,176.523Zm-48.328,56.909v31.409a6.55,6.55,0,0,1-6.071,6.557,6.42,6.42,0,0,1-6.719-6.071V233.432a14.59,14.59,0,1,1,19.509-6.719,14.991,14.991,0,0,1-6.719,6.719Zm24.609-56.909h-62.09V154.585a31,31,0,1,1,62.009,0Z" transform="translate(181.999 73.727)" fill="#a92c3d"/>
              <path id="パス_503" data-name="パス 503" d="M596.974,586.984a20.678,20.678,0,0,0-2.186-6.152l-9.714-14.49h.081s-1.538-7.286,0-10.848-5.424-12.386-5.424-12.386-.809-2.186,1.376-4.938-1.376-10.686-1.376-10.686-1.7-16.6-1.862-19.186-1.538-16.6-1.538-16.6l-3.238-29.871-5.748-79.171-.081-1.457a5.949,5.949,0,0,0,1.052-.567l-1.133-43.795.971-.89c8.662-7.852,28.738-26.066,28.576-26.471s-2.429-30.438-2.671-37.966a44.739,44.739,0,0,0-3.481-15.543c-.486-.971-1.943-7.528-2.59-10.362-.162-.729-.243-1.214-.243-1.214s-5.91-11.171-5.343-16.271,1.538-8.9-11.009-10.686c0,0-10.524-1.538-16.757-5.829a45.383,45.383,0,0,0-12.062-5.99s-3.481-6.476-5.99-4.29a32.387,32.387,0,0,1-2.267-7.2l-.081-.486a23.591,23.591,0,0,0,9.39-13.519c.081-.324.162-.648.243-.89a2.363,2.363,0,0,0,.729.162c2.1,0,3.481-2.348,5.424-3.157a8.036,8.036,0,0,0,2.428-.971,2.37,2.37,0,0,0,.567-1.781v-.809c-.567-2.914-2.833-5.586-2.59-8.581.243-2.833,2.752-5.262,2.51-8.014a1.783,1.783,0,0,0-.081-.648v.081a7.61,7.61,0,0,0-1.619-2.833,9.277,9.277,0,0,0-3.319-2.833c-1.133-.486-2.428-.648-3.481-1.214-3.076-1.7-3.076-6.071-4.938-9.067a8.219,8.219,0,0,0-7.529-3.724c-2.267.243-4.371,1.457-6.638,1.862-3.076.567-6.314-.486-9.229-1.619s-5.909-2.429-9.067-2.429-6.557,1.619-7.529,4.614c-.486,1.619-.243,3.319-.648,5.019-.729,2.914-3.238,4.938-5.909,6.4-1.619.89-3.562,1.943-4.048,3.643v-.162c0,.162-.081.243-.081.4v.567a10.987,10.987,0,0,0,1.052,3.4,9.157,9.157,0,0,1-.081,6.557c-.567,1.538-1.619,2.914-2.186,4.452a10.874,10.874,0,0,0-.567,2.186v.89a7.026,7.026,0,0,0,.81,3.4,6,6,0,0,0,3.643,3.076c1.619.4,2.671-1.214,4.371-.81a3.946,3.946,0,0,1,.89.324c.081.4.081.729.162,1.052a24.4,24.4,0,0,0,8.176,13.924c0,.162.081.4.081.567h0a56.379,56.379,0,0,1,.648,9.8s-2.59-3.724-6.071,3.481c0,0-9.148,5.262-12.3,5.829s-14.328,4.452-14.328,4.452a9.99,9.99,0,0,1-5.828,1.862c-3.481,0-6.4,7.609-5.99,11.819s-.243,7.2-3.481,7.367-1.457,6.719-1.457,6.881l-.324,1.457c-.648,2.914-2.024,9.148-2.509,10.119a46.645,46.645,0,0,0-3.481,15.543c-.243,7.528-2.429,37.4-2.671,37.966-.162.324,13.6,12.871,23.233,21.7l1.376,1.3-4.452,41.528a11.057,11.057,0,0,0,4.533,8.1,8.793,8.793,0,0,1-.081,1.457c-.162,4.857-.567,10.767-1.376,12.3-1.376,2.752-1.052,17.324-1.052,17.324s-1.376,29.709-3.076,32.947-2.024,10.038-1.538,11.333-1.7,36.995-1.7,36.995l-1.7,15.947s.486,15.3-1.052,15.624-2.429,10.848-2.429,10.848-5.424,7.448-3.076,10.2-.324,3.886-.567,4.614-5.181,3.238-1.619,12.709c0,.081.081.162.081.243-3.319,4.7-14,19.671-13.357,21.938a5.891,5.891,0,0,0,2.833,3.4c2.509,1.457,6.8,2.186,13.6,0,11.333-3.643,10.524-6.314,10.524-6.314a4.808,4.808,0,0,1,4.776-4.614c4.7-.324,8.176-4.7,8.176-4.7l-.567-2.024-.729-2.833c.081-.809.648-2.267,3.238-3,3.886-1.214,2.914-8.662,2.914-8.662s-.324-7.771,1.376-8.824,1.052-13.924,1.052-13.924,1.862-9.31,4.614-15.624,5.99-43.633,5.99-43.633,2.186-18.3,4.29-23.557,3.886-20,3.886-20,12.628-24.447,12.79-29.871c0,0,1.619-5.1,3.238.486s6.152,19.024,6.152,19.024l4.452,16.433,5.262,24.609,3.4,20.724s-.486,7.771.81,10.524,3.238,8.986,2.186,10.2,2.024,6.8,2.914,7.933,0,26.309,0,26.309,3.886,21.371,9.552,25.095a8.85,8.85,0,0,0,1.214.648c-.081,2.348-.162,5.424-.081,7.043a4.732,4.732,0,0,0,.162,1.052c.486.648,6.314,5.262,7.528,5.262s5.424,3,5.667,4.452,12.467,7.528,14.167,7.69,10.2,1.7,11.333-.648A2.792,2.792,0,0,0,596.974,586.984ZM566.779,281.23l.89.729s.891,6.962,1.538,9.067-.162,6.152-.162,6.152a14.052,14.052,0,0,0,.891,4.452c.729,1.538-1.538,4.857-1.538,4.857h-2.024l-.648-26.228ZM505.9,202.95v0ZM474.494,303.816a3.356,3.356,0,0,1-.162-2.186,7.125,7.125,0,0,0,.4-1.214,22.355,22.355,0,0,0,.486-3.238h0c-.081-.4-.729-4.129-.162-6.152s1.538-9.067,1.538-9.067l.567-.486,1.376-1.214s0-.4.081-1.133c.243,6.152.486,12.952.162,13.276-.648.648-3.157,7.286-2.59,7.529.162.081-.081,2.752-.567,6.314A16.889,16.889,0,0,1,474.494,303.816Z" transform="translate(223.795 -133.655)" fill="url(#linear-gradient)"/>
              <path id="パス_504" data-name="パス 504" d="M518.373,192.645v10.038L497.65,213.045s-20.481-12.386-15.462-17.324c3.238-3.157,2.59-11.738,1.781-17.647h0c-.486-3.4-1.133-5.99-1.133-5.99s36.833-10.524,31.247-2.509c-1.862,2.671-2.024,6.152-1.376,9.552C514,186.007,518.373,192.645,518.373,192.645Z" transform="translate(245.162 -116.874)" fill="#c37098"/>
              <path id="パス_505" data-name="パス 505" d="M480.113,270.49l-2.671,32.785s-3.967-3.643-9.148-8.338c-9.552-8.743-23.152-21.209-22.99-21.533.243-.486,2.429-30.276,2.671-37.723a46.084,46.084,0,0,1,3.4-15.462,92.291,92.291,0,0,0,2.429-10.038c.162-.89.324-1.457.324-1.457l4.452-1.781s18.619,20.8,18.619,21.128-1.3,16.352-1.3,16.352l-1.3,1.133-.567.486s-.89,6.962-1.538,9.067.081,5.748.162,6.071h0a22.346,22.346,0,0,1-.486,3.238,7.12,7.12,0,0,1-.4,1.214,2.939,2.939,0,0,0,.162,2.186,10.432,10.432,0,0,0,1.376,2.671Z" transform="translate(226.756 -96.282)" fill="#3f3d56"/>
              <path id="パス_506" data-name="パス 506" d="M554.848,273.4c.162.4-19.671,18.538-28.252,26.39l-3.886,3.562-2.671-32.785h6.881s2.267-3.319,1.538-4.857a14.054,14.054,0,0,1-.89-4.452s.729-4.048.162-6.152-1.538-9.067-1.538-9.067l-.891-.729-1.052-.89s-1.3-15.948-1.3-16.352,18.619-21.128,18.619-21.128l4.452,1.781s.081.486.243,1.214c.567,2.752,2.024,9.309,2.51,10.281a46.087,46.087,0,0,1,3.4,15.462C552.419,243.129,554.605,272.919,554.848,273.4Z" transform="translate(264.868 -96.282)" fill="#3f3d56"/>
              <path id="パス_507" data-name="パス 507" d="M556.175,444.735c-1.214,2.348-9.552.81-11.252.648s-13.924-6.233-14.086-7.69-4.371-4.371-5.586-4.371-6.881-4.533-7.448-5.262a2.39,2.39,0,0,1-.162-1.052c-.162-2.752.162-9.957.162-9.957l24.528,1.376,11.9,17.89a26.467,26.467,0,0,1,2.186,6.152A3.676,3.676,0,0,1,556.175,444.735Z" transform="translate(263.622 10.861)" fill="#3f3d56"/>
              <path id="パス_508" data-name="パス 508" d="M556.175,444.735c-1.214,2.348-9.552.81-11.252.648s-13.924-6.233-14.086-7.69-4.371-4.371-5.586-4.371-6.881-4.533-7.448-5.262a2.39,2.39,0,0,1-.162-1.052c-.162-2.752.162-9.957.162-9.957l24.528,1.376,11.9,17.89a26.467,26.467,0,0,1,2.186,6.152A3.676,3.676,0,0,1,556.175,444.735Z" transform="translate(263.622 10.861)" opacity="0.1"/>
              <path id="パス_509" data-name="パス 509" d="M556.159,441.372c-1.214,2.348-9.552.81-11.252.648s-13.924-6.233-14.086-7.69-4.371-4.371-5.586-4.371-6.881-4.533-7.448-5.262a2.39,2.39,0,0,1-.162-1.052l7.933,5.019s5.1,3.238,6.4,5.181,11.981,5.909,12.871,5.99c.648.081,7.609-1.3,11.5-.729A3.151,3.151,0,0,1,556.159,441.372Z" transform="translate(263.638 14.223)" opacity="0.1"/>
              <path id="パス_510" data-name="パス 510" d="M479.831,429.648s-3.481,4.29-8.1,4.614a4.72,4.72,0,0,0-4.7,4.533s.81,2.59-10.362,6.233c-6.719,2.186-11.009,1.457-13.519,0a6.2,6.2,0,0,1-2.833-3.4c-.729-2.671,14.167-23.233,14.167-23.233l13.6-.81,9.714,4.371,1.457,5.586Z" transform="translate(224.206 11.134)" fill="#3f3d56"/>
              <path id="パス_511" data-name="パス 511" d="M479.831,429.648s-3.481,4.29-8.1,4.614a4.72,4.72,0,0,0-4.7,4.533s.81,2.59-10.362,6.233c-6.719,2.186-11.009,1.457-13.519,0a6.2,6.2,0,0,1-2.833-3.4c-.729-2.671,14.167-23.233,14.167-23.233l13.6-.81,9.714,4.371,1.457,5.586Z" transform="translate(224.206 11.134)" opacity="0.1"/>
              <path id="パス_512" data-name="パス 512" d="M478.865,426.285s-3.481,4.29-8.1,4.614a4.72,4.72,0,0,0-4.7,4.533s.81,2.59-10.362,6.233c-6.719,2.186-11.009,1.457-13.519,0,6.4-.648,20.481-4.7,21.857-6.071,1.7-1.7,3.8-6.314,5.262-6.4.971-.081,6.071-3.076,9.067-5.019Z" transform="translate(225.171 14.497)" fill="none"/>
              <path id="パス_513" data-name="パス 513" d="M478.865,426.285s-3.481,4.29-8.1,4.614a4.72,4.72,0,0,0-4.7,4.533s.81,2.59-10.362,6.233c-6.719,2.186-11.009,1.457-13.519,0,6.4-.648,20.481-4.7,21.857-6.071,1.7-1.7,3.8-6.314,5.262-6.4.971-.081,6.071-3.076,9.067-5.019Z" transform="translate(225.171 14.497)" opacity="0.1"/>
              <path id="パス_514" data-name="パス 514" d="M580.12,478.2c-1.538,3.562,0,10.767,0,10.767s-22.666,1.214-28.171-2.509-9.471-25.014-9.471-25.014.81-25.014,0-26.147-3.886-6.719-2.833-7.933-.81-7.448-2.186-10.119-.81-10.443-.81-10.443l-3.4-20.643-5.262-24.447-4.452-16.352S519,332,517.464,326.419s-3.157-.486-3.157-.486c-.162,5.424-12.628,29.709-12.628,29.709s-1.862,14.733-3.886,19.914-4.209,23.476-4.209,23.476-3.238,37.157-5.909,43.39-4.533,15.543-4.533,15.543.648,12.871-1.052,13.843-1.457,8.824-1.457,8.824,1.052,7.448-2.833,8.581-3.238,3.724-3.238,3.724-21.614,3.562-25.176-5.909S450.76,475.046,451,474.4s3-1.862.567-4.533,3.076-10.119,3.076-10.119.81-10.443,2.348-10.767,1.052-15.543,1.052-15.543l1.7-15.867s2.186-35.457,1.7-36.833-.162-8.1,1.538-11.333,3.076-32.785,3.076-32.785-.324-14.49,1.052-17.243c.81-1.538,1.133-7.448,1.376-12.224.162-3.643.162-6.719.162-6.719l18.943-7.124,24.286-7.771,20.4,9.8,29.871,5.748.4,5.181,5.667,78.766,3.238,29.709s1.376,14,1.538,16.514,1.862,19.1,1.862,19.1,3.562,7.933,1.376,10.6-1.376,4.857-1.376,4.857S581.658,474.642,580.12,478.2Z" transform="translate(228.182 -56.203)" fill="#3f3d56"/>
              <path id="パス_515" data-name="パス 515" d="M513.678,169.627c-1.862,2.671-2.024,6.152-1.376,9.552a23.818,23.818,0,0,1-28.819-1.052h0c-.486-3.4-1.133-5.99-1.133-5.99S519.263,161.613,513.678,169.627Z" transform="translate(245.648 -116.847)" opacity="0.1"/>
              <path id="パス_516" data-name="パス 516" d="M524.8,169.759a23.719,23.719,0,1,1-23.719-23.719h0A23.6,23.6,0,0,1,524.8,169.516Z" transform="translate(243.106 -127.34)" fill="#c37098"/>
              <path id="パス_517" data-name="パス 517" d="M531.762,187.994l-7.771,138.427-42.176-8.9L473.4,262.065l8.338-74.475,6.233.81,11.009,1.376,10.848.648,11.819-1.3Z" transform="translate(241.083 -106.152)" opacity="0.1"/>
              <path id="パス_518" data-name="パス 518" d="M531.762,188.718l-7.771,138.346-42.176-8.824L473.4,262.708l8.338-74.475,6.233.81,11.009,1.457,10.848.648,11.819-1.3Z" transform="translate(241.083 -105.824)" fill="#a92c3d"/>
              <path id="パス_519" data-name="パス 519" d="M489.1,191.02l15.219.486-4.29,5.99s.324,12.062,2.348,15.543,1.457,56.99,1.457,56.99l-4.048,7.69-6.881-8.581.081-70.671Z" transform="translate(249.093 -104.402)" fill="#3f3d56"/>
              <path id="パス_520" data-name="パス 520" d="M489.1,191.02l15.219.486-4.29,5.99s.324,12.062,2.348,15.543,1.457,56.99,1.457,56.99l-4.048,7.69-6.881-8.581.081-70.671Z" transform="translate(249.093 -104.402)" opacity="0.1"/>
              <path id="パス_521" data-name="パス 521" d="M509.651,180.62l-14.167,15.7,8.1,8.419,13.438-13.114Z" transform="translate(252.347 -109.706)" opacity="0.1"/>
              <path id="パス_522" data-name="パス 522" d="M509.651,179.923l-14.167,15.7,8.1,8.419,13.438-13.033Z" transform="translate(252.347 -110.061)" fill="#a92c3d"/>
              <path id="パス_523" data-name="パス 523" d="M496.848,195.323l-14.409-14.328-1.376,7.529,6.638,16.433Z" transform="translate(244.992 -109.515)" opacity="0.1"/>
              <path id="パス_524" data-name="パス 524" d="M497.143,194.707,482.733,180.3l-1.3,7.529,6.557,16.514Z" transform="translate(245.184 -109.87)" fill="#a92c3d"/>
              <path id="パス_525" data-name="パス 525" d="M555.641,306.236a68.525,68.525,0,0,1-21.857,6.314c-13.924,1.781-23.071-15.948-23.071-15.948l-5.343,6.881c-1.7,7.367-27.443,9.229-37.885,6.4a17.757,17.757,0,0,1-5.99-2.833c.162-3.643.162-6.719.162-6.719L480.6,293.2l24.285-7.771,20.4,9.8,29.871,5.748Z" transform="translate(235.013 -56.258)" opacity="0.1"/>
              <path id="パス_526" data-name="パス 526" d="M531.762,188.718l-7.771,138.346-42.257-8.9L473.4,262.708l8.257-74.475,6.233.81c-.162,2.752-.486,5.424-.89,8.1-1.052,4.776,5.262,38.371,5.262,38.371s11.9,37.642,17.243,32.219,12.952-34.081,12.952-34.081c5.181-10.6.081-40.476-.324-41.042a15.04,15.04,0,0,1-.486-2.752Z" transform="translate(241.083 -105.824)" opacity="0.1"/>
              <path id="パス_527" data-name="パス 527" d="M526.272,264.76l.324,13.6-3.886,3.562-2.671-32.785h5.828Z" transform="translate(264.868 -74.766)" opacity="0.1"/>
              <path id="パス_528" data-name="パス 528" d="M463.633,242.917h0a22.345,22.345,0,0,1-.486,3.238c0-.324,0-.486-.081-.486A6.161,6.161,0,0,1,463.633,242.917Z" transform="translate(235.789 -77.938)" opacity="0.1"/>
              <path id="パス_529" data-name="パス 529" d="M472.348,249.931l-2.671,32.785s-3.967-3.643-9.148-8.338l.648-5.829s2.186-14.247,3-21.29a10.429,10.429,0,0,0,1.376,2.671Z" transform="translate(234.521 -75.723)" opacity="0.1"/>
              <path id="パス_530" data-name="パス 530" d="M500.207,181.263s-2.509-3.724-5.99,3.481c0,0-9.067,5.262-12.143,5.829s-14.167,4.452-14.167,4.452a9.746,9.746,0,0,1-5.748,1.862c-3.481,0-6.314,7.609-5.909,11.738s-.243,7.2-3.481,7.367-1.457,6.8-1.457,6.8l21.371,24.528s1.376,22.585.648,23.233-3.157,7.286-2.51,7.529-3.238,25.176-3.238,25.176L462.4,351.666s0,8.1,10.443,10.928,36.266.971,37.885-6.4l5.343-6.962s9.147,17.728,23.071,15.947,22.828-6.881,22.828-6.881l-1.538-57.961-1.052-41.771,21.776-35.7s-5.829-11.171-5.343-16.19,1.538-8.9-10.929-10.6c0,0-10.443-1.538-16.6-5.829a49.74,49.74,0,0,0-11.9-5.99s-3.481-6.476-5.909-4.29c0,0,2.429,9.148,2.267,10.524a40.894,40.894,0,0,0,.729,8.176c.324.648,5.424,30.438.324,41.043,0,0-7.529,28.657-12.952,34.081s-17.243-32.219-17.243-32.219-6.233-33.595-5.262-38.371S500.207,181.263,500.207,181.263Z" transform="translate(229.572 -110.268)" fill="#3f3d56"/>
              <circle id="楕円形_103" data-name="楕円形 103" cx="3.724" cy="3.724" r="3.724" transform="translate(744.188 174.208)" fill="#3f3d56"/>
              <circle id="楕円形_104" data-name="楕円形 104" cx="3.724" cy="3.724" r="3.724" transform="translate(744.188 191.774)" fill="#3f3d56"/>
              <circle id="楕円形_105" data-name="楕円形 105" cx="3.724" cy="3.724" r="3.724" transform="translate(744.188 174.208)" opacity="0.1"/>
              <circle id="楕円形_106" data-name="楕円形 106" cx="3.724" cy="3.724" r="3.724" transform="translate(744.188 191.774)" opacity="0.1"/>
              <path id="パス_531" data-name="パス 531" d="M517.626,409.758s15.219,1.214,16.757,2.348S517.626,409.758,517.626,409.758Z" transform="translate(263.638 7.142)" stroke="#a92c3d" stroke-miterlimit="10" stroke-width="0.536" opacity="0.1"/>
              <path id="パス_532" data-name="パス 532" d="M457.473,401.824s3.238,4.048,1.862,5.909S457.473,401.824,457.473,401.824Z" transform="translate(232.963 3.096)" stroke="#a92c3d" stroke-miterlimit="10" stroke-width="0.536" opacity="0.1"/>
              <path id="パス_533" data-name="パス 533" d="M460.047,412.212s5.909-3.886,8.257-1.3S460.047,412.212,460.047,412.212Z" transform="translate(234.275 7.279)" stroke="#a92c3d" stroke-miterlimit="10" stroke-width="0.536" opacity="0.1"/>
              <path id="パス_534" data-name="パス 534" d="M524.75,169.762a24.768,24.768,0,0,1-.729,5.99,2.671,2.671,0,0,1-1.538-2.671c.081-.971.729-1.862.648-2.833-.243-1.457-2.024-2.1-2.914-3.238-1.133-1.376-.891-3.481-.81-5.262s-.4-4.048-2.1-4.7c-.486-.162-1.052-.243-1.538-.4-1.376-.567-1.781-2.267-2.672-3.4-1.781-2.348-5.343-2.267-8.1-1.133-1.214.567-2.429,1.052-3.643,1.538a4.8,4.8,0,0,1-3.8-.324c-.567-.324-.971-.81-1.538-1.133-1.862-1.133-4.21,0-5.829,1.457s-2.833,3.319-4.857,4.209c-.89.4-2.024.648-2.429,1.538a2.493,2.493,0,0,0-.243,1.538c0,3.157.4,6.314-.243,9.39-.4,2.024-1.781,4.21-3.8,3.967a2.364,2.364,0,0,1-.729-.162,23.72,23.72,0,0,1,46.628-8.743,39.535,39.535,0,0,1,.243,4.371Z" transform="translate(243.157 -127.343)" opacity="0.1"/>
              <path id="パス_535" data-name="パス 535" d="M479.93,178.385c.648.162,1.214.486,1.781.567,2.024.243,3.4-2.024,3.8-3.967.648-3.076.324-6.314.324-9.39a3.412,3.412,0,0,1,.243-1.538c.486-.89,1.538-1.133,2.429-1.538,1.943-.89,3.238-2.752,4.857-4.209s3.967-2.51,5.829-1.457c.567.324.971.81,1.538,1.133a4.83,4.83,0,0,0,3.8.324c1.214-.4,2.429-1.052,3.643-1.538,2.671-1.133,6.314-1.133,8.1,1.133.89,1.133,1.3,2.833,2.671,3.4a10.782,10.782,0,0,0,1.538.4c1.7.648,2.186,2.833,2.1,4.7s-.324,3.886.81,5.262c.971,1.133,2.752,1.781,2.914,3.238.162.971-.486,1.862-.648,2.833a2.7,2.7,0,0,0,2.509,2.833h0c2.1,0,3.4-2.348,5.343-3.076a8.035,8.035,0,0,0,2.428-.971,2.693,2.693,0,0,0,.486-2.186c-.4-3.076-2.914-5.829-2.59-8.9.243-3,3-5.586,2.429-8.5a7.942,7.942,0,0,0-1.619-2.914,10.159,10.159,0,0,0-3.319-2.833c-1.133-.486-2.429-.567-3.481-1.214-3.076-1.7-3.076-6.071-4.857-8.986a7.813,7.813,0,0,0-7.367-3.643c-2.267.243-4.371,1.457-6.557,1.862-3.076.567-6.233-.486-9.148-1.619s-5.909-2.429-8.986-2.429-6.557,1.619-7.448,4.614c-.486,1.619-.243,3.319-.648,4.938-.648,2.914-3.238,4.938-5.828,6.4-1.781.971-3.886,2.1-4.129,4.129-.162,1.3.567,2.429,1.052,3.643a9.38,9.38,0,0,1-.081,6.476c-.567,1.538-1.619,2.833-2.186,4.371a7.564,7.564,0,0,0,.243,6.476,6.155,6.155,0,0,0,3.724,3.076C477.258,179.6,478.23,177.98,479.93,178.385Z" transform="translate(239.892 -132.89)" fill="#3f3d56"/>
              <g id="グループ_249" data-name="グループ 249" transform="translate(711.111 21.331)" opacity="0.1">
                <path id="パス_536" data-name="パス 536" d="M485.543,161.64c-.4,2.024-1.862,4.21-3.8,3.967a11.465,11.465,0,0,1-1.781-.567c-1.7-.4-2.671,1.214-4.29.81a6.109,6.109,0,0,1-3.724-3.076,7.262,7.262,0,0,1-.729-2.671,7.134,7.134,0,0,0,.729,4.129,6.155,6.155,0,0,0,3.724,3.076c1.619.4,2.59-1.214,4.29-.81a7.3,7.3,0,0,0,1.781.486c2.024.243,3.4-2.024,3.8-3.967a23.785,23.785,0,0,0,.4-5.343A19.915,19.915,0,0,1,485.543,161.64Z" transform="translate(-471.166 -142.738)"/>
                <path id="パス_537" data-name="パス 537" d="M473.9,154.446a9.087,9.087,0,0,0-.567-3.886,24.485,24.485,0,0,1-.971-2.59c0,.162-.081.243-.081.4-.162,1.3.567,2.429,1.052,3.643A8.811,8.811,0,0,1,473.9,154.446Z" transform="translate(-470.61 -147.686)"/>
                <path id="パス_538" data-name="パス 538" d="M515.143,149.417c-.4,2.267-2.267,4.452-2.428,6.881a3.062,3.062,0,0,0,0,1.214C513.119,154.679,515.629,152.17,515.143,149.417Z" transform="translate(-450.009 -146.948)"/>
                <path id="パス_539" data-name="パス 539" d="M518.047,160.73a1.93,1.93,0,0,1-.486.89c-.567.648-1.619.729-2.429.971-1.943.729-3.238,3.157-5.343,3.076a2.707,2.707,0,0,1-2.429-1.862,1.2,1.2,0,0,0-.081.567,2.7,2.7,0,0,0,2.51,2.833h0c2.1,0,3.4-2.348,5.343-3.076a8.035,8.035,0,0,0,2.429-.971,2.693,2.693,0,0,0,.486-2.186Z" transform="translate(-452.751 -141.18)"/>
                <path id="パス_540" data-name="パス 540" d="M508.947,162.3c-.243-1.457-2.024-2.1-2.914-3.238a4.416,4.416,0,0,1-.891-2.671,6.155,6.155,0,0,0,.891,4.21c.89,1.133,2.348,1.619,2.833,2.752A2.331,2.331,0,0,0,508.947,162.3Z" transform="translate(-453.852 -143.394)"/>
                <path id="パス_541" data-name="パス 541" d="M517.638,158.184c.081-1.862-.4-4.048-2.1-4.7-.486-.162-1.052-.243-1.538-.4-1.376-.567-1.781-2.267-2.671-3.4-1.781-2.348-5.343-2.267-8.1-1.133-1.214.486-2.348,1.133-3.643,1.538a4.8,4.8,0,0,1-3.8-.324c-.567-.324-.971-.81-1.538-1.133-1.862-1.133-4.209,0-5.828,1.457s-2.833,3.319-4.857,4.21c-.89.4-2.024.648-2.51,1.538a2.493,2.493,0,0,0-.243,1.538v.971a2.156,2.156,0,0,1,.243-.971c.486-.89,1.538-1.133,2.51-1.538,1.943-.89,3.238-2.752,4.857-4.21s3.967-2.51,5.828-1.457c.567.324.971.81,1.538,1.133a4.83,4.83,0,0,0,3.8.324,34.968,34.968,0,0,0,3.643-1.538c2.671-1.133,6.314-1.133,8.1,1.133.89,1.133,1.3,2.833,2.671,3.4a10.783,10.783,0,0,0,1.538.4c1.376.486,1.943,2.1,2.024,3.643Z" transform="translate(-466.266 -147.782)"/>
              </g>
              <g id="グループ_250" data-name="グループ 250" transform="translate(722.574 33.839)" opacity="0.1">
                <path id="パス_542" data-name="パス 542" d="M478.757,162.46a6.3,6.3,0,0,1,4.7-5.829,19.333,19.333,0,0,1,10.928.486c7.69,2.51-.971,11.657-.971,11.657s-5.747,5.667-11.09,1.7a8.556,8.556,0,0,1-3.157-4.857A14.067,14.067,0,0,1,478.757,162.46Z" transform="translate(-478.757 -156.066)"/>
                <path id="パス_543" data-name="パス 543" d="M513.094,162.46a6.3,6.3,0,0,0-4.7-5.829,19.333,19.333,0,0,0-10.928.486c-7.69,2.51.971,11.657.971,11.657s5.748,5.667,11.09,1.7a8.556,8.556,0,0,0,3.157-4.857A10.576,10.576,0,0,0,513.094,162.46Z" transform="translate(-470.838 -156.066)"/>
                <path id="パス_544" data-name="パス 544" d="M488.14,156.307v.4h14v-.486Z" transform="translate(-473.973 -155.985)"/>
                <path id="パス_545" data-name="パス 545" d="M491.252,159.707h.4v-1.3a3.666,3.666,0,0,1,3.8,0v1.133h.81v-.729h-.4s.162-1.538-2.51-1.3c0,0-2.1-.243-2.1,1.133h-.486Z" transform="translate(-472.633 -155.337)"/>
              </g>
              <path id="パス_546" data-name="パス 546" d="M478.757,162.085a6.3,6.3,0,0,1,4.7-5.829,19.333,19.333,0,0,1,10.928.486c7.69,2.51-.971,11.657-.971,11.657s-5.747,5.667-11.09,1.7a8.556,8.556,0,0,1-3.157-4.857A12.955,12.955,0,0,1,478.757,162.085Z" transform="translate(243.817 -122.418)" fill="#a92c3d"/>
              <path id="パス_547" data-name="パス 547" d="M513.094,162.085a6.3,6.3,0,0,0-4.7-5.829,19.333,19.333,0,0,0-10.928.486c-7.69,2.51.971,11.657.971,11.657s5.748,5.667,11.09,1.7a8.556,8.556,0,0,0,3.157-4.857A9.94,9.94,0,0,0,513.094,162.085Z" transform="translate(251.736 -122.418)" fill="#a92c3d"/>
              <path id="パス_548" data-name="パス 548" d="M488.14,155.985v.324h14v-.4Z" transform="translate(248.601 -122.309)" fill="#a92c3d"/>
              <path id="パス_549" data-name="パス 549" d="M491.252,159.386h.4v-1.3a3.666,3.666,0,0,1,3.8,0v1.133h.81V158.5h-.4s.162-1.538-2.51-1.3c0,0-2.1-.162-2.1,1.133h-.486Z" transform="translate(249.941 -121.662)" fill="#a92c3d"/>
              <rect id="長方形_230" data-name="長方形 230" width="4.614" height="103.537" transform="translate(94.794 168.298)" fill="#535461"/>
              <path id="パス_550" data-name="パス 550" d="M106.22,315.849l-.324,4.7-.4,6.557-.162,2.752-.4,6.557-.162,2.752-.4,6.557L99.744,420.6a12.669,12.669,0,0,1-12.628,11.9H62.992a12.614,12.614,0,0,1-12.628-11.9l-4.7-74.88-.4-6.557-.162-2.752-.4-6.638-.162-2.752-.4-6.557-.324-4.7a6.541,6.541,0,0,1,6.152-6.962h49.7a6.53,6.53,0,0,1,6.557,6.557A.516.516,0,0,1,106.22,315.849Z" transform="translate(22.007 -44.338)" fill="#3f3d56"/>
              <path id="パス_551" data-name="パス 551" d="M105.863,316.58l-.4,6.557H44.42l-.4-6.557Z" transform="translate(22.122 -40.373)" fill="#9d9cb5"/>
              <path id="パス_552" data-name="パス 552" d="M105.1,322.746l-.4,6.557H44.8l-.4-6.557Z" transform="translate(22.313 -37.229)" fill="#9d9cb5"/>
              <path id="パス_553" data-name="パス 553" d="M104.347,328.911l-.4,6.557H45.252l-.486-6.557Z" transform="translate(22.505 -34.085)" fill="#9d9cb5"/>
              <path id="パス_554" data-name="パス 554" d="M59.309,277.712c26.795,19.347,37.966,49.7,37.966,49.7s-32.3-1.133-59.095-20.481S.214,257.232.214,257.232,32.514,258.365,59.309,277.712Z" transform="translate(-0.214 -70.638)" fill="#a92c3d"/>
              <path id="パス_555" data-name="パス 555" d="M.268,257.232s33.514,18.619,44.281,34,52.78,36.185,52.78,36.185" transform="translate(-0.187 -70.638)" fill="none" stroke="#535461" stroke-miterlimit="10" stroke-width="1.072"/>
              <path id="パス_556" data-name="パス 556" d="M61.678,248.781c14.571,10.524,20.643,27.038,20.643,27.038s-17.566-.567-32.138-11.171S29.54,237.609,29.54,237.609,47.107,238.176,61.678,248.781Z" transform="translate(14.74 -80.644)" fill="#a92c3d"/>
              <path id="パス_557" data-name="パス 557" d="M29.54,237.556s18.214,10.119,24.043,18.538,28.738,19.671,28.738,19.671" transform="translate(14.74 -80.672)" fill="none" stroke="#535461" stroke-miterlimit="10" stroke-width="1.072"/>
              <path id="パス_558" data-name="パス 558" d="M85.4,270.5c-16.757,18.376-20.319,42.419-20.319,42.419s23.638-5.829,40.314-24.2c16.757-18.376,20.319-42.419,20.319-42.419S102.08,252.042,85.4,270.5Z" transform="translate(32.866 -76.215)" fill="#a92c3d"/>
              <path id="パス_559" data-name="パス 559" d="M125.718,246.295s-21.776,18.862-27.362,31.895S65.085,313,65.085,313" transform="translate(32.866 -76.215)" fill="none" stroke="#535461" stroke-miterlimit="10" stroke-width="1.072"/>
            </g>
          </g>
        </g>
      </g>
    </g>
  </g>
</svg>
