<svg xmlns="http://www.w3.org/2000/svg" xmlns:xlink="http://www.w3.org/1999/xlink" width="600" height="350" viewBox="0 0 600 350">
  <defs>
    <linearGradient id="linear-gradient" x1="0.009" y1="0.5" x2="1.676" y2="0.5" gradientUnits="objectBoundingBox">
      <stop offset="0" stop-color="#6099d1"/>
      <stop offset="0.004" stop-color="#6099d1"/>
      <stop offset="1" stop-color="#85c7df"/>
    </linearGradient>
    <linearGradient id="linear-gradient-2" x1="-0.953" y1="0.5" x2="0.925" y2="0.5" xlink:href="#linear-gradient"/>
    <clipPath id="clip-logo_hotelsmart">
      <rect width="600" height="350"/>
    </clipPath>
  </defs>
  <g id="logo_hotelsmart" clip-path="url(#clip-logo_hotelsmart)">
    <rect width="600" height="350" fill="#fff"/>
    <g id="レイヤー_1" transform="translate(55 122.135)">
      <g id="グループ_301" data-name="グループ 301" transform="translate(149.639 15.48)">
        <path id="パス_1051" data-name="パス 1051" d="M216.261,103.761c.647,4,1.523,5.8,3.108,7.614l-2.336,1.836c-1.648-2.086-2.858-4.3-3.4-9.074Zm-4.735-7.676v3.253h7.2v2.629h-7.2v12.015H208.71V101.946h-7.176V99.338h7.176V96.085Zm-10.659,15.248A11.392,11.392,0,0,0,204,103.781l2.649.293c-.563,5.924-2.566,8.072-3.609,9.157Z" transform="translate(-200.867 -39.985)" fill="#6099d1"/>
        <path id="パス_1052" data-name="パス 1052" d="M262.143,99.316H248V96.729h14.142Zm0-2.587,1.71,5.34v2.587h-6.737c-.292,4.923-1.919,8.3-8.865,9.637l-1.189-2.42c5.778-.918,6.9-3.129,7.155-7.217h-7.906v-2.587Z" transform="translate(-212.457 -40.15)" fill="#6099d1"/>
        <path id="パス_1053" data-name="パス 1053" d="M301.37,110.562a6.785,6.785,0,0,0,3.713-2.983,12.407,12.407,0,0,0,1.69-4.693l2.587,1.106c-1.168,5.8-4.985,9.825-10.763,9.908V96.17h2.774Zm-5.674-8.614a31.39,31.39,0,0,1-.667,6.653,11.009,11.009,0,0,1-3.233,5.966l-2.253-1.961c1.147-1.106,3.317-3.191,3.317-10.242V96.816H295.7Z" transform="translate(-223.483 -40.007)" fill="#6099d1"/>
        <path id="パス_1054" data-name="パス 1054" d="M335.071,112.107a21.1,21.1,0,0,0,11.744-12.036H336.28V97.4h14.268a21.36,21.36,0,0,1-3.838,8.656,72.751,72.751,0,0,1,6.946,6.028L351.3,114.4a60.908,60.908,0,0,0-6.257-6.237,22.474,22.474,0,0,1-8.323,6.257Z" transform="translate(-235.094 -40.321)" fill="#86c8e0"/>
        <path id="パス_1055" data-name="パス 1055" d="M391.38,114.078a42.95,42.95,0,0,0-8.385-8.26l2.066-1.877a30.666,30.666,0,0,1,3.63,2.753c4.171-2.837,5.318-5.069,5.819-6.028h-14.33V98.017h18.5c-1,4.465-4.172,8.01-8.03,10.492a33.179,33.179,0,0,1,3.274,3.546Z" transform="translate(-246.598 -40.478)" fill="#86c8e0"/>
        <path id="パス_1056" data-name="パス 1056" d="M443.32,109.1H424.839v-2.962H443.32Z" transform="translate(-257.988 -42.549)" fill="#86c8e0"/>
        <path id="パス_1057" data-name="パス 1057" d="M479.677,95.777v5.173a41.874,41.874,0,0,1,10.263,4.443l-1.418,2.9a41.168,41.168,0,0,0-8.844-4.4v10.283h-2.983v-18.4Z" transform="translate(-271.213 -39.907)" fill="#86c8e0"/>
        <path id="パス_1058" data-name="パス 1058" d="M220.232,59.406V44.278h-9.977V59.406h-9.387V21.212h9.387v14.7h9.977v-14.7h9.387V59.406Z" transform="translate(-200.867 -20.89)" fill="#6099d1"/>
        <path id="パス_1059" data-name="パス 1059" d="M266.463,30.812a5.073,5.073,0,0,0-7.51,0c-.858,1.127-1.395,2.414-1.395,9.388s.536,8.207,1.395,9.334a4.966,4.966,0,0,0,7.51,0c.858-1.127,1.395-2.361,1.395-9.334s-.536-8.261-1.395-9.388m6.92,24.515a15.422,15.422,0,0,1-21.35,0c-4.023-4.023-3.862-9.387-3.862-15.126s-.161-11.1,3.862-15.127a15.422,15.422,0,0,1,21.35,0c4.023,4.023,3.862,9.387,3.862,15.127s.161,11.1-3.862,15.126" transform="translate(-212.931 -20.78)" fill="#6099d1"/>
        <path id="パス_1060" data-name="パス 1060" d="M311.657,29.581V59.406h-9.388V29.581h-9.387V21.213h28.162v8.368Z" transform="translate(-224.334 -20.89)" fill="#6099d1"/>
        <path id="パス_1061" data-name="パス 1061" d="M338.026,59.406V21.212H363.99v8.369H347.414v6.383h14.161v8.369H347.414v6.705H363.99v8.367Z" transform="translate(-235.847 -20.89)" fill="#6099d1"/>
        <path id="パス_1062" data-name="パス 1062" d="M381.8,59.406V21.212h9.387V51.038h16.039v8.367Z" transform="translate(-247.012 -20.89)" fill="#6099d1"/>
        <path id="パス_1063" data-name="パス 1063" d="M439.386,59.617c-5.794,0-10.193-1.234-13.947-5.043l4.828-4.827c2.414,2.414,5.686,3.218,9.226,3.218,4.4,0,6.759-1.663,6.759-4.721a4.254,4.254,0,0,0-1.181-3.218,5.689,5.689,0,0,0-3.379-1.341l-4.614-.644c-3.272-.483-5.686-1.5-7.4-3.165a10.092,10.092,0,0,1-2.736-7.509c0-6.813,5.042-11.587,13.3-11.587,5.257,0,9.065,1.288,12.338,4.453l-4.72,4.666c-2.414-2.306-5.311-2.628-7.833-2.628-3.969,0-5.9,2.2-5.9,4.828a3.684,3.684,0,0,0,1.126,2.735,6.562,6.562,0,0,0,3.541,1.5l4.506.644c3.487.483,5.686,1.449,7.3,2.95,2.038,1.932,2.951,4.721,2.951,8.1,0,7.4-6.169,11.587-14.162,11.587" transform="translate(-258.141 -20.78)" fill="#86c8e0"/>
        <path id="パス_1064" data-name="パス 1064" d="M499.742,59.406V37.144l-7.3,14.484H487.4l-7.349-14.484V59.406H472.6V21.212h7.35l9.977,20.653,9.924-20.653H507.2V59.406Z" transform="translate(-270.168 -20.89)" fill="#86c8e0"/>
        <path id="パス_1065" data-name="パス 1065" d="M542.378,32.477,537.55,46.37h9.495Zm8.9,26.927-2.253-6.758H535.458L533.151,59.4h-7.778l13.894-38.193h5.847L559.061,59.4Z" transform="translate(-283.628 -20.89)" fill="#86c8e0"/>
        <path id="パス_1066" data-name="パス 1066" d="M591.408,27.864h-7.027V37.949h7.027c3.273,0,5.418-2.093,5.418-5.043s-2.146-5.043-5.418-5.043M597.2,59.406l-7.456-15.234h-5.365V59.406h-7.456V21.212h14.966c7.779,0,12.392,5.311,12.392,11.694a10.284,10.284,0,0,1-6.974,10.031l8.529,16.468Z" transform="translate(-296.775 -20.89)" fill="#86c8e0"/>
        <path id="パス_1067" data-name="パス 1067" d="M637.63,27.864V59.406h-7.456V27.864H620.2V21.212h27.411v6.652Z" transform="translate(-307.811 -20.89)" fill="#86c8e0"/>
      </g>
      <path id="パス_1068" data-name="パス 1068" d="M0,52.791a52.808,52.808,0,0,0,34.942,49.691h0L60.583,58.071H45.71L35.483,75.785H14.621L58.216.276A53.255,53.255,0,0,0,52.792,0h0A52.791,52.791,0,0,0,0,52.791Z" fill="url(#linear-gradient)"/>
      <path id="パス_1069" data-name="パス 1069" d="M69.542,49.369h35.734L71.767,107.409a52.78,52.78,0,0,0,51.552-52.761h0A52.786,52.786,0,0,0,93.842,7.282h0Z" transform="translate(-17.736 -1.857)" fill="url(#linear-gradient-2)"/>
    </g>
  </g>
</svg>
