<svg xmlns="http://www.w3.org/2000/svg" xmlns:xlink="http://www.w3.org/1999/xlink" width="600" height="350" viewBox="0 0 600 350">
  <defs>
    <clipPath id="clip-logo_minpakuIN">
      <rect width="600" height="350"/>
    </clipPath>
  </defs>
  <g id="logo_minpakuIN" clip-path="url(#clip-logo_minpakuIN)">
    <rect width="600" height="350" fill="#fff"/>
    <g id="レイヤー_1" transform="translate(65.341 111.377)">
      <g id="グループ_302" data-name="グループ 302">
        <path id="パス_1070" data-name="パス 1070" d="M125.382,55.044c0-4.925-1.682-7.326-5.887-7.326a6.205,6.205,0,0,0-6.367,6.306V72.344c0,1.982-1.381,3.544-3.965,3.544-2.643,0-3.964-1.562-3.964-3.544V45.555a3.448,3.448,0,0,1,3.783-3.606c2.7,0,3.787,1.262,3.787,3.306v.178a12.912,12.912,0,0,1,9.55-3.9c4.324,0,7.988,1.8,9.851,5.465a11.48,11.48,0,0,1,10.211-5.465c6.128,0,10.931,3.664,10.931,11.055v19.76c0,1.922-1.381,3.544-4.023,3.544s-3.966-1.621-3.966-3.544v-17.3c0-4.925-1.681-7.326-5.766-7.326a6.129,6.129,0,0,0-6.186,6.306V72.344c0,1.922-1.382,3.544-4.024,3.544s-3.965-1.621-3.965-3.544Z" transform="translate(40.083 15.823)" fill="#dc5f61"/>
        <path id="パス_1071" data-name="パス 1071" d="M148.132,49.178c0-1.922,1.381-3.483,3.964-3.483,2.523,0,3.906,1.561,3.906,3.483V76.507c0,1.924-1.382,3.425-3.906,3.425-2.583,0-3.964-1.5-3.964-3.425Zm-.779-13.455a4.834,4.834,0,0,1,9.669,0,4.834,4.834,0,1,1-9.669,0" transform="translate(56.144 11.78)" fill="#dc5f61"/>
        <path id="パス_1072" data-name="パス 1072" d="M181.825,55.044c0-4.925-1.743-7.326-6.068-7.326-3.542,0-6.546,2.461-6.546,6.065V72.4c0,1.986-1.261,3.487-3.843,3.487-2.643,0-3.965-1.5-3.965-3.487V45.555a3.448,3.448,0,0,1,3.784-3.606c2.7,0,3.664,1.262,3.664,3.306v1.38a12.009,12.009,0,0,1,10.03-5.106c6.128,0,10.934,3.664,10.934,11.055V72.4c0,1.925-1.382,3.487-4.026,3.487s-3.964-1.562-3.964-3.487Z" transform="translate(61.497 15.823)" fill="#dc5f61"/>
        <path id="パス_1073" data-name="パス 1073" d="M200.74,69.537c5.646,0,10.632-3.122,10.632-11.293,0-8.35-4.385-10.331-8.051-10.331a6.341,6.341,0,0,0-6.3,6.668V69.537ZM196.655,46.35a11.1,11.1,0,0,1,9.553-4.864c7.448,0,13.153,5.107,13.153,15.916,0,12.316-7.506,18.321-18.137,18.321a25.755,25.755,0,0,1-4.207-.359V87.558c0,1.862-1.32,3.361-3.843,3.361-2.584,0-3.846-1.5-3.846-3.361V45.451a3.356,3.356,0,0,1,3.665-3.486c2.642,0,3.662,1.2,3.662,3.186Z" transform="translate(72.137 15.807)" fill="#dc5f61"/>
        <path id="パス_1074" data-name="パス 1074" d="M233.378,61.052c-7.927.362-10.631,2.161-10.631,5.346,0,2.46,1.562,3.9,4.806,3.9a5.749,5.749,0,0,0,5.825-5.947Zm7.627,2.1c0,5.828,1.022,6.669,1.022,8.83s-1.142,3.3-3.484,3.3a3.519,3.519,0,0,1-3.422-2.643c-.122-.3-.3-.78-.479-1.262-2.163,3.245-5.889,4.324-9.551,4.324-5.708,0-10.271-3.3-10.271-8.827s1.8-10.751,18.558-11.414v-1.08c0-3.544-1.32-6.547-5.284-6.547-4.689,0-4.745,2.943-7.691,2.943a2.776,2.776,0,0,1-3-3.062,3.872,3.872,0,0,1,1.92-3.366,16.969,16.969,0,0,1,9.671-2.824c7.988,0,12.011,4.868,12.011,12.915Z" transform="translate(81.851 15.823)" fill="#dc5f61"/>
        <path id="パス_1075" data-name="パス 1075" d="M241.049,34.141c0-1.921,1.382-3.486,3.965-3.486,2.523,0,3.9,1.565,3.9,3.486V59.728l12.432-12.19c1.685-1.685,2.584-2.044,3.788-2.044a3.809,3.809,0,0,1,3.725,3.843,3.39,3.39,0,0,1-1.2,2.584l-9.373,8.531L268.861,73.9a4.208,4.208,0,0,1,.9,2.522,3.656,3.656,0,0,1-3.785,3.6c-1.98,0-2.581-.42-4.143-2.522l-9.191-12.132L248.917,68.5v8.046c0,1.925-1.38,3.486-3.9,3.486-2.583,0-3.965-1.561-3.965-3.486Z" transform="translate(91.844 11.68)" fill="#dc5f61"/>
        <path id="パス_1076" data-name="パス 1076" d="M287.2,70.531c-2.341,4.082-6.063,5.106-9.548,5.106-6.728,0-11.411-4.146-11.411-11.53V44.944c0-1.921,1.32-3.544,3.964-3.544s4.023,1.623,4.023,3.544v17.3c0,4.925,1.744,7.329,6.068,7.329a6.322,6.322,0,0,0,6.546-6.307V44.944c0-1.983,1.323-3.544,3.968-3.544,2.58,0,3.959,1.561,3.959,3.544v26.85a3.48,3.48,0,0,1-3.841,3.542c-2.7,0-3.727-1.261-3.727-3.3Z" transform="translate(101.441 15.774)" fill="#dc5f61"/>
        <path id="パス_1077" data-name="パス 1077" d="M296.249,36.434c0-2.041,1.322-3.6,4.026-3.6s4.082,1.563,4.082,3.6V75.6c0,2.044-1.382,3.606-4.082,3.606s-4.026-1.562-4.026-3.606Z" transform="translate(112.877 12.509)" fill="#dc5f61"/>
        <path id="パス_1078" data-name="パス 1078" d="M349.739,74.94c0,2.341-1.145,4.262-4.266,4.262a4.687,4.687,0,0,1-4.2-2.222L320.248,44.965V75.716c0,1.924-1.5,3.486-4.085,3.486s-3.906-1.562-3.906-3.486V37.4c0-2.4,1.86-4.566,5.288-4.566a5.863,5.863,0,0,1,5.405,3.005l18.8,28.532V36.375c0-1.922,1.561-3.545,4.142-3.545s3.848,1.563,3.848,3.486Z" transform="translate(118.976 12.509)" fill="#dc5f61"/>
        <path id="パス_1079" data-name="パス 1079" d="M47.022,124.691a3.068,3.068,0,0,1-3.08,3.056c-8.221,0-10.954-5.68-13.151-10.257-.3-.619-5.965-11.722-5.965-11.722C12.816,82.341,0,56.29,0,43.6A44.018,44.018,0,0,1,72.524,10.479,43.549,43.549,0,0,1,87.305,36.491a3.078,3.078,0,0,1-6.076.982A37.815,37.815,0,0,0,6.154,43.6c0,12.288,15.719,42.935,24.16,59.406,0,0,5.724,11.206,6.035,11.863,2.263,4.7,3.433,6.777,7.594,6.777a3.058,3.058,0,0,1,3.08,3.048M43.943,27.85A15.75,15.75,0,1,1,28.069,43.6,15.828,15.828,0,0,1,43.943,27.85m0,6.108a9.641,9.641,0,1,0,9.718,9.64,9.687,9.687,0,0,0-9.718-9.64m66.584,30.356L78.333,121.048l-.07.127a14.221,14.221,0,0,1-11.946,6.572l-.351,0a12.814,12.814,0,0,1-11.058-6.636L37.757,90.879v-.008A13.261,13.261,0,0,1,42.9,72.76a13.483,13.483,0,0,1,18.25,5.1l5.462,9.616L87.14,51.3A13.287,13.287,0,0,1,95.2,45a13.436,13.436,0,0,1,10.192,1.2,13.269,13.269,0,0,1,5.139,18.111m-8.154-12.781A7.276,7.276,0,0,0,92.5,54.292L69.289,95.209a3.09,3.09,0,0,1-5.365,0L55.779,80.857a7.286,7.286,0,0,0-9.873-2.765,7.171,7.171,0,0,0-2.783,9.789l17.151,30.236a6.711,6.711,0,0,0,5.844,3.517,8.012,8.012,0,0,0,6.9-3.653L105.16,61.323a7.183,7.183,0,0,0-2.787-9.79" fill="#dc5f61"/>
      </g>
    </g>
  </g>
</svg>
