<svg xmlns="http://www.w3.org/2000/svg" xmlns:xlink="http://www.w3.org/1999/xlink" width="600" height="350" viewBox="0 0 600 350">
  <defs>
    <clipPath id="clip-logo_smartcheckin_2">
      <rect width="600" height="350"/>
    </clipPath>
  </defs>
  <g id="logo_smartcheckin_2" data-name="logo_smartcheckin – 2" clip-path="url(#clip-logo_smartcheckin_2)">
    <rect width="600" height="350" fill="#fff"/>
    <g id="レイヤー_1" transform="translate(126.775 69)">
      <g id="グループ_304" data-name="グループ 304">
        <path id="パス_1092" data-name="パス 1092" d="M6.076,40.563H0V81.37H26.065V76.178H6.076Z" transform="translate(0 130.242)" fill="#1a1919"/>
        <path id="パス_1093" data-name="パス 1093" d="M17.522,62.784h18.81V57.92H17.522V45.65H38.749V40.563H11.564V81.375H39.457V76.233H17.522Z" transform="translate(37.13 130.242)" fill="#1a1919"/>
        <path id="パス_1094" data-name="パス 1094" d="M48.357,65.024H35.6l3.971-10.072c.863-2.169,1.672-4.51,2.4-6.969a66.915,66.915,0,0,0,2.375,6.969ZM39.729,40.5,22.7,81.59h6.506L33.8,69.829H50.159L54.825,81.59h6.556L44.47,40.5Z" transform="translate(72.886 130.027)" fill="#1a1919"/>
        <path id="パス_1095" data-name="パス 1095" d="M54.654,59l-2-.787a33.225,33.225,0,0,1-6.5-3.078,4.68,4.68,0,0,1-2.017-3.925,5.412,5.412,0,0,1,1.529-3.853,7.747,7.747,0,0,1,5.664-2.118,10.4,10.4,0,0,1,9.432,5.234l.232.371,4.779-3.226-.248-.345c-3.255-4.577-8.009-6.893-14.136-6.893-4.257,0-7.529,1.116-10,3.411A10.12,10.12,0,0,0,38,51.654c0,4.8,3.461,8.468,10.3,10.915L50,63.187c3.941,1.453,6.653,2.838,8.051,4.11a5.651,5.651,0,0,1,1.941,4.181,5.509,5.509,0,0,1-2.64,4.8,9.8,9.8,0,0,1-5.264,1.394,12.434,12.434,0,0,1-10.578-5.428l-.24-.328-4.746,3.394.253.337C40.341,80.4,45.466,82.81,52.03,82.81a16.279,16.279,0,0,0,9.8-2.884,10.485,10.485,0,0,0,4.35-8.843,10.25,10.25,0,0,0-2.211-6.3C62.309,62.695,59.26,60.8,54.654,59" transform="translate(117.279 129.644)" fill="#1a1919"/>
        <path id="パス_1096" data-name="パス 1096" d="M55.555,62.784H74.373V57.92H55.555V45.65H76.79V40.563H49.6V81.375H77.489V76.233H55.555Z" transform="translate(159.261 130.242)" fill="#1a1919"/>
        <path id="パス_1097" data-name="パス 1097" d="M78.855,66.236l1.242-.728c4.687-2.821,7.74-5.154,9.079-6.935a10.36,10.36,0,0,0,2.261-6.413,10.747,10.747,0,0,0-3.487-8.081c-2.522-2.455-6.013-3.7-10.371-3.7-7.933,0-13.083,3.68-15.311,10.936l-.118.379,5.331,1.84.122-.417c1.554-5.3,4.72-7.874,9.681-7.874A8.241,8.241,0,0,1,83.2,47.43a6,6,0,0,1,1.992,4.565,6.658,6.658,0,0,1-1.726,4.43,34.259,34.259,0,0,1-6.514,5.019l-1.655,1.065C68.665,66.762,64.134,71.55,61.78,76.915v5.057H92.2V76.721H67.726c1.794-3.68,5.537-7.2,11.129-10.485" transform="translate(198.366 129.644)" fill="#1a1919"/>
        <path id="パス_1098" data-name="パス 1098" d="M80.708,67.121,91.623,53.348c1.478-1.895,2.986-4,4.489-6.249-.147,2.552-.223,4.973-.223,7.222v12.8Zm20.726,0V40.471h-6.16L74.253,67.2v4.9H95.888V81.67h5.546V72.1h6.956V67.121Z" transform="translate(238.415 129.946)" fill="#1a1919"/>
        <path id="パス_1099" data-name="パス 1099" d="M115.256,29.8H31.7a.834.834,0,0,0-.838.834V43.168A.834.834,0,0,0,31.7,44h83.56a.832.832,0,0,0,.83-.834V30.637a.832.832,0,0,0-.83-.834" transform="translate(99.08 95.693)" fill="#4f243c"/>
        <path id="パス_1100" data-name="パス 1100" d="M115.256,24.835H31.7a.834.834,0,0,0-.838.834V38.2a.831.831,0,0,0,.838.834h83.56a.829.829,0,0,0,.83-.834V25.669a.832.832,0,0,0-.83-.834" transform="translate(99.08 79.741)" fill="#233881"/>
        <path id="パス_1101" data-name="パス 1101" d="M115.256,19.868H31.7a.834.834,0,0,0-.838.834V33.237a.834.834,0,0,0,.838.834h83.56a.832.832,0,0,0,.83-.834V20.7a.832.832,0,0,0-.83-.834" transform="translate(99.08 63.793)" fill="#286aa6"/>
        <path id="パス_1102" data-name="パス 1102" d="M115.256,14.9H31.7a.834.834,0,0,0-.838.834V28.266a.831.831,0,0,0,.838.834h83.56a.829.829,0,0,0,.83-.834V15.735a.832.832,0,0,0-.83-.834" transform="translate(99.08 47.845)" fill="#35a0cd"/>
        <path id="パス_1103" data-name="パス 1103" d="M115.256,9.935H31.7a.834.834,0,0,0-.838.834V23.3a.834.834,0,0,0,.838.834h83.56a.832.832,0,0,0,.83-.834V10.769a.832.832,0,0,0-.83-.834" transform="translate(99.08 31.9)" fill="#499144"/>
        <path id="パス_1104" data-name="パス 1104" d="M115.256,4.967H31.7a.834.834,0,0,0-.838.834V18.328a.835.835,0,0,0,.838.838h83.56a.833.833,0,0,0,.83-.838V5.8a.832.832,0,0,0-.83-.834" transform="translate(99.08 15.948)" fill="#84bf41"/>
        <path id="パス_1105" data-name="パス 1105" d="M115.256,0H31.7a.834.834,0,0,0-.838.834V13.361a.834.834,0,0,0,.838.834h83.56a.832.832,0,0,0,.83-.834V.834a.832.832,0,0,0-.83-.834" transform="translate(99.08)" fill="#c6d634"/>
      </g>
    </g>
  </g>
</svg>
