<svg xmlns="http://www.w3.org/2000/svg" width="203.295" height="25.602" viewBox="0 0 203.295 25.602">
  <g id="グループ_51" data-name="グループ 51" transform="translate(-82 -3478)">
    <path id="パス_178" data-name="パス 178" d="M151.08,65.556h2.508V63.048H151.08Z" transform="translate(-20.496 3435.227)" fill="#a92c3d"/>
    <g id="グループ_50" data-name="グループ 50">
      <path id="パス_175" data-name="パス 175" d="M320.09,39.881H307.985V37.887H320.09Z" transform="translate(-126.943 3452.297)" fill="#787978"/>
      <path id="パス_176" data-name="パス 176" d="M315.173,30.346H300.844a3.7,3.7,0,0,1-3.692-3.693v-11.8a3.7,3.7,0,0,1,3.692-3.693h14.329v1.994H300.844a1.7,1.7,0,0,0-1.7,1.7v11.8a1.7,1.7,0,0,0,1.7,1.7h14.329Z" transform="translate(-119.594 3470.428)" fill="#787978"/>
      <path id="パス_177" data-name="パス 177" d="M105.907,30.349H92.594A3.7,3.7,0,0,1,88.9,26.657V11.166h1.994V26.657a1.7,1.7,0,0,0,1.7,1.7h13.313Z" transform="translate(21.689 3470.425)" fill="#787978"/>
      <path id="パス_179" data-name="パス 179" d="M153.589,11.2h-2.51V26.656h2.51Z" transform="translate(-20.495 3470.402)" fill="#a92c3d"/>
      <path id="パス_180" data-name="パス 180" d="M359.386,11.172l9.184,12.122v7.053h1.992V22.629l-.1-.138h-.008l.008-.006-8.577-11.32H359.4Z" transform="translate(-161.814 3470.426)" fill="#787978"/>
      <path id="パス_181" data-name="パス 181" d="M394.1,20.141l1.25,1.649,8.044-10.617-.009-.007H400.9Z" transform="translate(-185.365 3470.425)" fill="#787978"/>
      <path id="パス_182" data-name="パス 182" d="M236.51,30.348h-1.994V11.166h1.994Z" transform="translate(-77.1 3470.425)" fill="#787978"/>
      <path id="パス_183" data-name="パス 183" d="M246.178,20.445l12.376-9.279h-3.323l-10.723,8.04V21.7l.007,0,11.6,8.659h3.33Z" transform="translate(-83.879 3470.425)" fill="#787978"/>
      <path id="パス_184" data-name="パス 184" d="M185.99,11.2V28.391h-.022L173.13,11.851h0a1.616,1.616,0,0,0-1.3-.651h-.583a1.606,1.606,0,0,0-.924.291l1.321,1.7h0l12.837,16.539a1.614,1.614,0,0,0,1.3.651h.582a1.616,1.616,0,0,0,1.616-1.616V11.2Z" transform="translate(-33.553 3470.402)" fill="#787978"/>
      <path id="パス_185" data-name="パス 185" d="M168.192,15.562a1.625,1.625,0,0,0-.015.21V33.341h1.992V18.109Z" transform="translate(-32.094 3467.442)" fill="#787978"/>
    </g>
    <path id="パス_186" data-name="パス 186" d="M27.57,28.8h-.879a7.943,7.943,0,0,1-10.308,3.332q-.159-.075-.317-.155c-.123-.064-.246-.129-.366-.2a7.971,7.971,0,0,1-1.179-.853c-.138-.12-.272-.243-.4-.373-.092-.091-.18-.185-.267-.28l-.1-.108c-.052-.059-.1-.118-.152-.178s-.078-.1-.116-.145l-.112-.144c-.044-.058-.087-.116-.129-.175-.025-.035-.049-.071-.073-.106a8.006,8.006,0,0,1-.639-1.119c-.08-.171-.157-.345-.225-.523a7.964,7.964,0,0,1,3.56-9.795v-.878A8.742,8.742,0,0,0,11.59,28.045c.074.193.157.381.243.567l-.7.328a9.441,9.441,0,0,0,1.415,2.187l.588-.507h0l0,0c.014.016.029.03.042.046q.163.186.336.363c.016.016.032.032.048.049l.015.016c.134.134.271.263.414.388l.008.007.051.045h0l-.506.588a9.507,9.507,0,0,0,1.368.988c.266.157.541.3.819.426l.328-.7A8.72,8.72,0,0,0,27.57,28.8" transform="translate(74.528 3466.403)" fill="#787978"/>
    <path id="パス_187" data-name="パス 187" d="M61.816,45.055a7.92,7.92,0,0,1-.384,1.547h.819a8.709,8.709,0,0,0,.349-1.546Z" transform="translate(40.323 3447.434)" fill="#787978"/>
    <path id="パス_188" data-name="パス 188" d="M24.51,16.789h-1.3a11,11,0,1,1-12.1-12.1V3.39A12.29,12.29,0,0,0,0,15.042H.647q-.014.289-.014.583t.014.583H0A12.289,12.289,0,0,0,11.694,27.9v-.645h0c.193.01.388.014.582.015s.39-.005.583-.015h0V27.9A12.289,12.289,0,0,0,24.51,16.789" transform="translate(82 3475.7)" fill="#787978"/>
    <path id="パス_189" data-name="パス 189" d="M31.289,14.541a8.682,8.682,0,0,0-1.547.346v.819a7.887,7.887,0,0,1,1.547-.381Z" transform="translate(61.822 3468.135)" fill="#787978"/>
    <path id="パス_190" data-name="パス 190" d="M31.316,30.007H29.987a4.786,4.786,0,1,1-5.8-5.8v-1.33a6.08,6.08,0,1,0,7.134,7.133" transform="translate(68.928 3462.482)" fill="#787978"/>
    <path id="パス_191" data-name="パス 191" d="M47.6,3.9A13.237,13.237,0,0,0,38.174,0V2.329a11,11,0,0,1,11,11H51.5A13.238,13.238,0,0,0,47.6,3.9" transform="translate(56.102 3478)" fill="#a92c3d"/>
    <path id="パス_192" data-name="パス 192" d="M38.173,11.264v2.07a7.631,7.631,0,0,1,7.632,7.634h2.07a9.7,9.7,0,0,0-9.7-9.7" transform="translate(56.103 3470.358)" fill="#a92c3d"/>
    <path id="パス_193" data-name="パス 193" d="M42.655,23.583a6.3,6.3,0,0,0-4.482-1.857v1.811A4.528,4.528,0,0,1,42.7,28.063h1.811a6.3,6.3,0,0,0-1.857-4.481" transform="translate(56.103 3463.261)" fill="#a92c3d"/>
    <path id="パス_194" data-name="パス 194" d="M34.727,34.885a3.1,3.1,0,1,1-3.1-3.1,3.1,3.1,0,0,1,3.1,3.1" transform="translate(62.654 3456.44)" fill="#a92c3d"/>
    <g id="グループ_6" data-name="グループ 6" transform="translate(63 3122)">
      <g id="Plus" transform="translate(158 361)">
        <path id="パス_15" data-name="パス 15" d="M-11.372,1.514h-2.909l-.953,5.354h-4.4l3.1-17.6h7.456A5.165,5.165,0,0,1-5.138-9.463a3.649,3.649,0,0,1,.856,2.494,6.282,6.282,0,0,1-.1,1.076l-.489,2.762A5.177,5.177,0,0,1-7.021.206,7.159,7.159,0,0,1-11.372,1.514Zm.758-8.434h-2.2l-.807,4.62h2.176A2.059,2.059,0,0,0-9.123-4.084l.171-1A2.812,2.812,0,0,0-8.9-5.673,1.313,1.313,0,0,0-9.27-6.48,1.684,1.684,0,0,0-10.614-6.92ZM8.332,6.868H-2.816l3.1-17.6h4.4L2.269,3.054H9.017ZM23.465,5.6A8.313,8.313,0,0,1,17.988,7.21q-3.545,0-4.914-1.638a4.575,4.575,0,0,1-.978-3.1,10.621,10.621,0,0,1,.2-1.931l1.98-11.27h4.4L16.693.438a8.038,8.038,0,0,0-.1,1.271q0,1.711,2.054,1.711A2.882,2.882,0,0,0,20.6,2.785,3.944,3.944,0,0,0,21.631.438l1.98-11.172h4.4L26.031.536A8.218,8.218,0,0,1,23.465,5.6Zm10.659-3.74q0,1.687,2.432,1.687t2.432-1.516a1.518,1.518,0,0,0-.831-1.32A8.117,8.117,0,0,0,36.14-.148q-1.186-.342-2.371-.795a4.949,4.949,0,0,1-2.017-1.418,3.561,3.561,0,0,1-.831-2.408q0-6.136,7.9-6.136a7.317,7.317,0,0,1,4.364,1.088A3.538,3.538,0,0,1,44.66-6.8a4.959,4.959,0,0,1-.183,1.357,3.078,3.078,0,0,1-.379.917l-.2.293H39.575a1.969,1.969,0,0,0,.538-1.418q0-1.589-2.078-1.589-2.616,0-2.616,1.662a1.482,1.482,0,0,0,.831,1.32,7.284,7.284,0,0,0,2.017.77,24.558,24.558,0,0,1,2.384.7A4.64,4.64,0,0,1,42.68-1.407,3.705,3.705,0,0,1,43.511,1.1a5.576,5.576,0,0,1-1.858,4.608q-1.858,1.5-5.721,1.5t-5.28-1.369A3.782,3.782,0,0,1,29.6,3.005a8.377,8.377,0,0,1,.147-1.491l.073-.391h4.4l-.049.293A2.266,2.266,0,0,0,34.123,1.856Z" transform="translate(19.635 10.905)" fill="#a92c3d"/>
      </g>
    </g>
  </g>
</svg>
