<svg xmlns="http://www.w3.org/2000/svg" xmlns:xlink="http://www.w3.org/1999/xlink" width="157" height="158" viewBox="0 0 157 158">
  <defs>
    <clipPath id="clip-path">
      <rect id="長方形_365" data-name="長方形 365" width="157" height="158" transform="translate(0.029 -0.322)" fill="#a92c3d" stroke="#707070" stroke-width="1"/>
    </clipPath>
  </defs>
  <g id="マスクグループ_82" data-name="マスクグループ 82" transform="translate(-0.029 0.322)" clip-path="url(#clip-path)">
    <g id="open-door" transform="translate(19.879 0.071)">
      <path id="パス_1130" data-name="パス 1130" d="M134.028,88.205c0-7.226-5.309-12.912-12.1-12.912a11.066,11.066,0,0,0-7.949,3.267,1.9,1.9,0,0,1-2.639,0,11.066,11.066,0,0,0-7.949-3.267c-6.786,0-12.1,5.655-12.1,12.912,0,7.7,5.875,12.661,14.735,20.138,1.1.943,4.713,4.021,6.629,5.686,1.916-1.665,5.529-4.744,6.629-5.686l.723-.6C127.839,101.149,134.028,95.934,134.028,88.205Zm-18,15.489-.377.346-.251.22c-.5.408-1.005.848-1.508,1.288a1.786,1.786,0,0,1-1.225.44,1.952,1.952,0,0,1-1.225-.44l-.314-.283-.5-.44c-.314-.283-.628-.534-.943-.785-8.357-7.069-12.724-10.965-12.724-15.834,0-3.519,2.262-7.257,6.441-7.257,2.922,0,4.964,2.262,6.032,4.587h6.5c.817-1.759,2.639-4.587,6.032-4.587,4.178,0,6.441,3.739,6.441,7.257C128.373,93.295,123.441,97.41,116.026,103.694Z" transform="translate(-34.404 -12.898)" fill="#a92c3d"/>
      <path id="パス_1131" data-name="パス 1131" d="M24.656,2.208V159.294H143.413V2.208ZM32.2,150.717a1.949,1.949,0,0,1-1.005-.283,1.843,1.843,0,0,1-.88-1.6V12.67a1.914,1.914,0,0,1,.88-1.6,1.949,1.949,0,0,1,1.005-.283,2.074,2.074,0,0,1,.848.189L61.32,25.111a1.9,1.9,0,0,1,1.037,1.7V134.725a1.9,1.9,0,0,1-1.037,1.7L33.044,150.56A2.693,2.693,0,0,1,32.2,150.717Zm105.562,1.037a1.891,1.891,0,0,1-1.885,1.885H47.433a1.853,1.853,0,0,1-1.822-1.445,1.879,1.879,0,0,1,1.005-2.1l21.4-10.713V22.126l-21.4-10.713a1.869,1.869,0,0,1,.817-3.55h88.439a1.891,1.891,0,0,1,1.885,1.885Z" transform="translate(-24.656 -2.208)" fill="#a92c3d"/>
      <rect id="長方形_364" data-name="長方形 364" width="7.54" height="7.54" transform="translate(17.908 74.773)" fill="#a92c3d" stroke="#fff" stroke-width="2.208"/>
    </g>
  </g>
</svg>
