<svg xmlns="http://www.w3.org/2000/svg" xmlns:xlink="http://www.w3.org/1999/xlink" width="600" height="350" viewBox="0 0 600 350">
  <defs>
    <clipPath id="clip-logo_gigaprize">
      <rect width="600" height="350"/>
    </clipPath>
  </defs>
  <g id="logo_gigaprize" clip-path="url(#clip-logo_gigaprize)">
    <rect width="600" height="350" fill="#fff"/>
    <g id="グループ_299" data-name="グループ 299" transform="translate(23598 -4808)">
      <g id="グループ_297" data-name="グループ 297" transform="translate(-23446.107 5051.445)">
        <path id="パス_1" data-name="パス 1" d="M145.973,208.461l-7.507-1.064a1.27,1.27,0,0,0-1.429,1.425v6.192c0,.8.513,1.272,1.429,1.431,0,0,3,.547,3.768.748a.916.916,0,0,1,.753.88v6.785H143a1.44,1.44,0,0,1-1.436,1.434v-.009h-6.189v.009a1.438,1.438,0,0,1-1.436-1.434h.011V200.535h-.011a1.436,1.436,0,0,1,1.436-1.431v.009h15.179a1.422,1.422,0,0,0,1.425-1.422v-6.2a1.428,1.428,0,0,0-1.425-1.429h-16.6a9.086,9.086,0,0,0-9.055,9.055v27.17a9.086,9.086,0,0,0,9.055,9.055h13.526c3.071,0,4.565-1.5,4.565-4.57V218.073C152.039,214.108,151.83,209.09,145.973,208.461Z" transform="translate(-124.893 -190.058)"/>
        <path id="パス_2" data-name="パス 2" d="M172.27,208.461l-7.509-1.064a1.269,1.269,0,0,0-1.425,1.425v6.192c0,.8.511,1.272,1.425,1.431,0,0,3,.547,3.775.748a.916.916,0,0,1,.753.88v6.785h.007a1.438,1.438,0,0,1-1.434,1.434v-.009h-6.187v.009a1.437,1.437,0,0,1-1.438-1.434h.011V200.535h-.011a1.436,1.436,0,0,1,1.438-1.431v.009h15.177a1.422,1.422,0,0,0,1.425-1.422v-6.2a1.428,1.428,0,0,0-1.425-1.429h-16.6a9.088,9.088,0,0,0-9.057,9.055v27.17a9.088,9.088,0,0,0,9.057,9.055H173.77c3.076,0,4.568-1.5,4.568-4.57V218.073C178.338,213.268,178.891,209.171,172.27,208.461Z" transform="translate(-92.282 -190.058)"/>
        <path id="パス_3" data-name="パス 3" d="M185.962,190.058H169.356a1.433,1.433,0,0,0-1.429,1.429v6.2a1.427,1.427,0,0,0,1.429,1.422h15.181V199.1a1.437,1.437,0,0,1,1.434,1.431h-.009v24.323h.009a1.439,1.439,0,0,1-1.434,1.434v-.009h-6.192v.009a1.435,1.435,0,0,1-1.431-1.434h0v-6.785a.913.913,0,0,1,.753-.88c.766-.2,3.772-.748,3.772-.748.909-.159,1.425-.634,1.425-1.431v-6.192a1.268,1.268,0,0,0-1.425-1.425l-7.509,1.064c-5.862.629-6.073,5.647-6.073,9.612v8.21a9.089,9.089,0,0,0,9.057,9.055h13.528c3.071,0,4.568-1.5,4.568-4.57V199.113A9.087,9.087,0,0,0,185.962,190.058Z" transform="translate(-71.606 -190.058)"/>
        <path id="パス_4" data-name="パス 4" d="M214.793,200.535v-1.422a9.08,9.08,0,0,0-9.041-9.055H190.214a2.419,2.419,0,0,0-2.565,2.572v41.276a1.425,1.425,0,0,0,1.427,1.422h6.2a1.424,1.424,0,0,0,1.425-1.422V200.535h-.007a1.434,1.434,0,0,1,1.436-1.431v.009h6.2V199.1a1.437,1.437,0,0,1,1.436,1.431h-.011v6.783a.915.915,0,0,1-.753.883c-.773.2-3.781.748-3.781.748-.912.161-1.427.638-1.427,1.423v6.2A1.271,1.271,0,0,0,201.217,218l7.52-1.064c6.606-.717,6.055-4.812,6.055-9.617Z" transform="translate(-47.068 -190.058)"/>
        <path id="パス_5" data-name="パス 5" d="M149.418,190.06h-6.2a1.428,1.428,0,0,0-1.429,1.425v42.41a1.432,1.432,0,0,0,1.429,1.431h6.2a1.43,1.43,0,0,0,1.425-1.431v-42.41A1.425,1.425,0,0,0,149.418,190.06Z" transform="translate(-103.941 -190.055)"/>
        <path id="パス_6" data-name="パス 6" d="M227.888,190.06h-6.2a1.429,1.429,0,0,0-1.429,1.425v42.41a1.434,1.434,0,0,0,1.429,1.431h6.2a1.429,1.429,0,0,0,1.42-1.431v-42.41A1.425,1.425,0,0,0,227.888,190.06Z" transform="translate(-6.631 -190.055)"/>
        <path id="パス_7" data-name="パス 7" d="M270.906,226.283H255.722v.009a1.438,1.438,0,0,1-1.434-1.434h0V200.535h0a1.436,1.436,0,0,1,1.434-1.431v.009h6.192V199.1a1.435,1.435,0,0,1,1.434,1.431h-.011v6.783a.914.914,0,0,1-.746.883c-.777.2-3.777.748-3.777.748-.912.161-1.425.638-1.425,1.423v6.2A1.268,1.268,0,0,0,258.813,218l7.511-1.064c6.62-.717,6.068-4.812,6.068-9.617v-8.206a9.091,9.091,0,0,0-9.057-9.055h-9.043a9.084,9.084,0,0,0-9.048,9.055v27.17a9.084,9.084,0,0,0,9.048,9.055h16.613a1.424,1.424,0,0,0,1.418-1.431v-6.2A1.419,1.419,0,0,0,270.906,226.283Z" transform="translate(24.358 -190.058)"/>
        <path id="パス_8" data-name="パス 8" d="M250.6,190.058H230.5a1.424,1.424,0,0,0-1.42,1.429v6.2a1.418,1.418,0,0,0,1.42,1.422h14.854V199.1c.963,0,1.169.457,1.216,1.069a3.626,3.626,0,0,1-.923,1.711L230.976,219.7a7.957,7.957,0,0,0-1.911,4.874,1.2,1.2,0,0,0-.06.374v5.094a5.275,5.275,0,0,0,5.392,5.385h20.264a1.427,1.427,0,0,0,1.427-1.425v-6.2a1.424,1.424,0,0,0-1.427-1.422h-14.7v0a1.063,1.063,0,0,1-1.013-.538,2.121,2.121,0,0,1,.569-2.245s14.22-17.269,14.671-17.822a8.037,8.037,0,0,0,1.931-4.946,1.668,1.668,0,0,0,.031-.3v-5.087A5.41,5.41,0,0,0,250.6,190.058Z" transform="translate(4.219 -190.058)"/>
        <path id="パス_9" data-name="パス 9" d="M225.545,216.731c5.249-1.1,4.78-4.944,4.78-9.413v-8.206a9.083,9.083,0,0,0-9.057-9.055H205.781a2.422,2.422,0,0,0-2.569,2.572v5.9c-.016.2-.029.392-.029.585v34.794a1.424,1.424,0,0,0,1.422,1.422h6.2a1.422,1.422,0,0,0,1.425-1.422V200.535h-.007a1.438,1.438,0,0,1,1.436-1.431v.009h6.192V199.1a1.437,1.437,0,0,1,1.434,1.431h-.016v6.783a.912.912,0,0,1-.753.883c-.766.2-3.766.748-3.766.748-.914.161-1.427.638-1.427,1.423v.065l-.011.022.011,4.281a11.882,11.882,0,0,0,.484,4.16c1.308,4.485,4.294,15,4.294,15,.166.912.638,1.431,1.427,1.431h7.014c.791,0,1.219-.52,1.053-1.431l-4.666-16.1A.856.856,0,0,1,225.545,216.731Z" transform="translate(-27.805 -190.058)"/>
      </g>
      <g id="グループ_298" data-name="グループ 298" transform="translate(-23381.529 4868.302)">
        <path id="パス_159" data-name="パス 159" d="M153.721,167.928l51.767,51.781V165.194l39.779,39.781V113.63l47.161,47.162-9.279,9.281-24.4-24.4V254.485l-13.37-13.373V225.6l-26.623-26.626v55.506l-65.031-65.637Z" transform="translate(-153.721 -101.694)" fill="#5d7eb9"/>
        <path id="パス_160" data-name="パス 160" d="M182.753,207.234l13.155-13.156V164.932l-13.158-13.2Z" transform="translate(-117.722 -54.443)" fill="#0e3192"/>
        <path id="パス_161" data-name="パス 161" d="M176.83,143.175l11.787-11.789,27.992,27.994v23.576Z" transform="translate(-125.063 -79.675)" fill="#99aed3"/>
        <path id="パス_162" data-name="パス 162" d="M265.323,167.317l-58.948-58.949-11.788,11.787,47.166,47.164-20.6,20.605V211.5Z" transform="translate(-103.042 -108.219)" fill="#99aed3"/>
        <path id="パス_163" data-name="パス 163" d="M177.286,174.541l54.452-54.456L219.949,108.3l-66.228,66.233,51.767,51.781V202.74Z" transform="translate(-153.721 -108.302)" fill="#99aed3"/>
        <path id="パス_164" data-name="パス 164" d="M218.693,113.562l-54.452,54.456,9.278,9.284,45.013-45.02Z" transform="translate(-140.676 -101.779)" fill="#0e3192"/>
        <path id="パス_165" data-name="パス 165" d="M257.864,143.055l-44.1,44.1V141.132l-13.16-13.2.005,108.815,13.154-13.156V205.721L257.7,161.775Z" transform="translate(-95.583 -83.957)" fill="#0e3192"/>
      </g>
    </g>
  </g>
</svg>
