<svg xmlns="http://www.w3.org/2000/svg" xmlns:xlink="http://www.w3.org/1999/xlink" width="600" height="350" viewBox="0 0 600 350">
  <defs>
    <clipPath id="clip-logo_coop">
      <rect width="600" height="350"/>
    </clipPath>
  </defs>
  <g id="logo_coop" clip-path="url(#clip-logo_coop)">
    <rect width="600" height="350" fill="#fff"/>
    <g id="レイヤー_1" transform="translate(63 128)">
      <path id="パス_1018" data-name="パス 1018" d="M49.369,18.005H79.791V45h-30.6V49.87H85.243v-36.7H49.369v4.838" transform="translate(159.016 42.567)" fill="#6d6e70"/>
      <path id="パス_1019" data-name="パス 1019" d="M59.119,21.956H89.981v-5.41H59.119Z" transform="translate(191.125 53.491)" fill="#6d6e70"/>
      <path id="パス_1020" data-name="パス 1020" d="M66.882,18.008H96.931c-.389,13.2-5.3,25.512-25.524,27.467v4.889c25.7-2.5,31.239-17.325,31.239-37.194H66.882v4.838" transform="translate(216.222 42.577)" fill="#6d6e70"/>
      <path id="パス_1021" data-name="パス 1021" d="M81.972,21.883a3.007,3.007,0,1,1,3.01-3.014A3,3,0,0,1,81.972,21.883Zm0-9.054a6.064,6.064,0,1,0,6.066,6.04,6.09,6.09,0,0,0-6.066-6.04" transform="translate(245.315 41.475)" fill="#6d6e70"/>
      <path id="パス_1022" data-name="パス 1022" d="M117.951,13.959,94.412,12.672V17.4L117.951,18.8V13.959" transform="translate(305.224 40.967)" fill="#6d6e70"/>
      <path id="パス_1023" data-name="パス 1023" d="M112.246,22.207c-8.445,0-12.4,2.845-14.574,5.088l.021-12.982H92.614l0,19.933,4.474.013c1.062-3.153,6.066-7.137,15.078-7.137,8,0,10.773,3.166,10.773,7.056,0,7.86-8.284,8.246-15.094,8.246a37.767,37.767,0,0,1-11.611-1.5v5.041a47.182,47.182,0,0,0,11.7,1.321c6.934,0,20.034-.538,20.034-12.982,0-6.43-4.186-12.1-15.717-12.1" transform="translate(299.398 46.272)" fill="#6d6e70"/>
      <path id="パス_1024" data-name="パス 1024" d="M108.207,37l.013-23.844h-5.067V37.034c0,9.9,5.655,13.482,13.977,13.482a23.145,23.145,0,0,0,6.337-.834V44.691a19.532,19.532,0,0,1-6.15.986c-5.435,0-9.109-1.321-9.109-8.682" transform="translate(333.482 42.519)" fill="#6d6e70"/>
      <path id="パス_1025" data-name="パス 1025" d="M112.758,13.154h-5.067v4.813h4.119c6.84,0,9.49,2.5,9.49,8.263V40.143h5.037V25.607c0-6.426-3.433-12.453-13.579-12.453" transform="translate(348.153 42.525)" fill="#6d6e70"/>
      <path id="パス_1026" data-name="パス 1026" d="M93.8,38.1c-1.418,5.994-2.971,7.526-5.211,7.526-2.9,0-3.92-2.8-3.209-6.273,1.007-4.851,4.347-7.5,9.99-8.1C94.963,33.257,94.468,35.34,93.8,38.1Zm30.181-5.448c-2.337-1.088-4.576-2.061-6.764-2.887l0-12.343h-5.058v10.8a64.151,64.151,0,0,0-10.794-1.676c1.283-7.285,2.125-13.723,2.125-13.723H83.542v4.825H97.68c-.571,3.7-.974,6.341-1.367,8.716A19.317,19.317,0,0,0,89.278,27.8a14.417,14.417,0,0,0-9.024,11.484c-.694,6.959,3.357,11.171,8.144,11.171,4.212,0,7.793-2.239,10.019-10.138.728-2.629,1.426-5.757,2.07-9.037a62.058,62.058,0,0,1,11.683,1.968V38.04c0,6.519-2.9,8.288-7.353,8.614v4.855c7.45-.428,12.4-4.186,12.4-13.431V34.967c2.116.88,4.322,1.867,6.764,3.12V32.656" transform="translate(259.199 41.475)" fill="#6d6e70"/>
      <path id="パス_1027" data-name="パス 1027" d="M148.71,0H37.173a37.171,37.171,0,1,0,0,74.342h148.71V37.169A37.168,37.168,0,0,0,148.71,0" fill="#72bf44"/>
      <path id="パス_1028" data-name="パス 1028" d="M37.43,26.419a8.455,8.455,0,1,1,8.445-8.449A8.463,8.463,0,0,1,37.43,26.419Zm0-22.731A14.282,14.282,0,1,0,51.7,17.97,14.292,14.292,0,0,0,37.43,3.688" transform="translate(74.835 11.923)" fill="#fff"/>
      <path id="パス_1029" data-name="パス 1029" d="M21.053,26.33a7.661,7.661,0,0,0,6.464-3.323c1.35-1.769,3.005-1.731,4.1-1.054a2.911,2.911,0,0,1,.9,4.064,13.131,13.131,0,0,1-11.467,6.235A14.133,14.133,0,0,1,6.7,17.97,14.133,14.133,0,0,1,21.053,3.688,13.14,13.14,0,0,1,32.52,9.923a2.922,2.922,0,0,1-.9,4.072c-1.1.669-2.751.707-4.1-1.062a7.658,7.658,0,0,0-6.464-3.319,8.358,8.358,0,1,0,0,16.716" transform="translate(21.657 11.923)" fill="#fff"/>
      <path id="パス_1030" data-name="パス 1030" d="M20.577,9.361a3,3,0,0,1,3-3.01h3.382a3.005,3.005,0,1,1,0,6.011H23.574a3,3,0,0,1-3-3" transform="translate(66.523 20.532)" fill="#fff"/>
      <path id="パス_1031" data-name="パス 1031" d="M44.976,32.074a10.354,10.354,0,0,1-3.983-.711,3.052,3.052,0,0,1-1.968-3.683,2.911,2.911,0,0,1,3.852-1.833,8.483,8.483,0,0,0,2.1.334,8.295,8.295,0,1,0,0-16.589c-3.89,0-8.411,2.332-8.411,9.6V33.775a2.936,2.936,0,0,1-5.871,0V19.049c0-11.162,7.818-15.361,14.282-15.361a14.193,14.193,0,1,1,0,28.386" transform="translate(99.23 11.923)" fill="#fff"/>
      <path id="パス_1032" data-name="パス 1032" d="M27.756,26.419A8.455,8.455,0,1,1,36.2,17.97,8.455,8.455,0,0,1,27.756,26.419Zm0-22.731A14.282,14.282,0,1,0,42.029,17.97,14.292,14.292,0,0,0,27.756,3.688" transform="translate(43.56 11.923)" fill="#fff"/>
      <path id="パス_1033" data-name="パス 1033" d="M36.81,12.387h1.71v3.949c-.008,4.538-2.442,7.535-9.363,8.059V22.885c4.03-.449,7.653-1.6,7.653-6.608Zm-7.7,7.179,0,0H27.421V12.387H29.11Z" transform="translate(88.649 40.046)" fill="#fff"/>
      <path id="パス_1034" data-name="パス 1034" d="M13.928,14h9.461v8.4H13.873v1.5H25.082V12.491H13.928V14" transform="translate(44.85 40.382)" fill="#fff"/>
      <path id="パス_1035" data-name="パス 1035" d="M16.96,15.229h9.6V13.544h-9.6Z" transform="translate(54.83 43.786)" fill="#fff"/>
      <path id="パス_1036" data-name="パス 1036" d="M19.372,13.995h9.346c-.123,4.11-1.647,7.937-7.928,8.546v1.515c7.983-.775,9.7-5.372,9.7-11.564H19.372v1.5" transform="translate(62.628 40.385)" fill="#fff"/>
      <path id="パス_1037" data-name="パス 1037" d="M24.052,15.2a.931.931,0,0,1,0-1.862.931.931,0,1,1,0,1.862Zm0-2.811a1.884,1.884,0,1,0,1.892,1.884,1.887,1.887,0,0,0-1.892-1.884" transform="translate(71.683 40.043)" fill="#fff"/>
      <path id="パス_1038" data-name="パス 1038" d="M23.6,14h9.253V12.491H23.6Z" transform="translate(76.29 40.382)" fill="#fff"/>
      <path id="パス_1039" data-name="パス 1039" d="M35.729,13.469H23.4v1.507h6.1A4.34,4.34,0,0,1,28.03,18.07,6.3,6.3,0,0,1,24.3,19.382V20.9a7.793,7.793,0,0,0,5.033-1.82,5.584,5.584,0,0,0,1.9-4.1h4.5V13.469" transform="translate(75.646 43.544)" fill="#fff"/>
      <path id="パス_1040" data-name="パス 1040" d="M26.048,15.511h1.117V12.387H26.048Z" transform="translate(84.21 40.046)" fill="#fff"/>
      <path id="パス_1041" data-name="パス 1041" d="M26.574,15.511h1.117V12.387H26.574Z" transform="translate(85.911 40.046)" fill="#fff"/>
    </g>
  </g>
</svg>
