<svg xmlns="http://www.w3.org/2000/svg" width="121.898" height="118.237" viewBox="0 0 121.898 118.237">
  <g id="Group_225" data-name="Group 225" transform="translate(0)">
    <g id="random" transform="translate(0 0)">
      <path id="Path_264" data-name="Path 264" d="M25.409,79.42h18.6V74.336H31.551l2.5-2.5L61.085,44.8,57.5,41.158,30.463,68.194l-2.5,2.5V58.232H22.881v18.6A2.54,2.54,0,0,0,25.409,79.42Z" transform="translate(-22.881 -31.066)" fill="#a92c3d"/>
      <path id="Path_265" data-name="Path 265" d="M137.182,103.663H132.1v12.46l-2.5-2.5L102.564,86.589l-3.585,3.585,27.036,27.036,2.5,2.5h-12.46v5.084h18.6a2.559,2.559,0,0,0,2.557-2.557V103.663Z" transform="translate(-51.871 -48.373)" fill="#a92c3d"/>
      <path id="Path_266" data-name="Path 266" d="M130.276,53.528l-3.056-1.793,3.438-.911,37-9.727-1.293-4.908-37,9.727-3.438.911,1.793-3.056,4.5-7.7-4.379-2.557L118.462,49.59a2.483,2.483,0,0,0-.264,1.94,2.606,2.606,0,0,0,1.175,1.558l16.075,9.375,2.557-4.379Z" transform="translate(-59.159 -28.154)" fill="#a92c3d"/>
      <path id="Path_267" data-name="Path 267" d="M190.909,140.092l.588,3.5,1.5,8.787,5.025-.852-3.144-18.338a2.525,2.525,0,0,0-2.5-2.116,2.225,2.225,0,0,0-.441.029l-18.308,3.144.852,5.025,8.787-1.5,3.5-.588-2.057,2.909L162.638,171.3l4.144,2.939L188.852,143Z" transform="translate(-76.122 -65.318)" fill="#a92c3d"/>
      <path id="Path_268" data-name="Path 268" d="M95.789,168.082l-5.466-17.75-4.849,1.5,2.615,8.522,1.058,3.38L86,162.087,52.178,144.219l-2.38,4.5,33.825,17.867,3.144,1.646-3.438,1.029-8.522,2.615,1.5,4.849,17.779-5.466A2.54,2.54,0,0,0,95.789,168.082Z" transform="translate(-33.135 -70.328)" fill="#a92c3d"/>
      <circle id="Ellipse_63" data-name="Ellipse 63" cx="6.847" cy="6.847" r="6.847" transform="translate(28.954 9.683) rotate(-45)" fill="#a92c3d"/>
      <circle id="Ellipse_64" data-name="Ellipse 64" cx="6.847" cy="6.847" r="6.847" transform="translate(36.983 37.776) rotate(-45)" fill="#a92c3d"/>
      <circle id="Ellipse_65" data-name="Ellipse 65" cx="6.847" cy="6.847" r="6.847" transform="matrix(0.973, -0.23, 0.23, 0.973, 102.633, 4.581)" fill="#a92c3d"/>
      <circle id="Ellipse_66" data-name="Ellipse 66" cx="6.847" cy="6.847" r="6.847" transform="matrix(0.973, -0.23, 0.23, 0.973, 78.547, 104.91)" fill="#a92c3d"/>
      <circle id="Ellipse_67" data-name="Ellipse 67" cx="6.847" cy="6.847" r="6.847" transform="translate(5.384 74.623) rotate(-45)" fill="#a92c3d"/>
    </g>
  </g>
</svg>
