<svg xmlns="http://www.w3.org/2000/svg" width="507.303" height="398.989" viewBox="0 0 507.303 398.989">
  <g id="undraw_Timeline_re_aw6g" transform="translate(0 -7.011)">
    <path id="Path_671" data-name="Path 671" d="M987.506,735.153a208.143,208.143,0,0,1-1.962,26.744c-.043.311-.09.623-.133.934l-83.793-.468c-.246-.309-.488-.622-.723-.938-.782-1.048-1.515-2.125-2.188-3.24-3.235-5.37-4.716-11.657-3.232-15.994l.027-.067a7.612,7.612,0,0,1,1.486-2.581c3.384-3.809,10.226-3.174,16.435-.1-5.569-6.1-10-13.788-10.34-20.654-.33-6.7,3.172-11.481,6.97-15.547.125-.134.249-.265.374-.4.06-.067.125-.131.185-.2,2.963-3.1,6.418-6.153,11.419-5.783,5.484.406,11.565,5,15.828,10.353s7.1,11.426,9.968,17.357,5.986,12.005,10.6,17.071c-6.249-7.9-11.288-16.9-13.15-25.646s-.223-17.148,5.346-21.268a13.028,13.028,0,0,1,5.706-2.3c.24-.04.484-.072.732-.1,5.156-.587,11.312,1.2,16.55,5.459,5.768,4.693,9.768,11.651,11.757,18.256S987.572,729.006,987.506,735.153Z" transform="translate(-480.212 -356.951)" fill="#f2f2f2"/>
    <path id="Path_672" data-name="Path 672" d="M933.542,804.038l-1.6-.009q-.763-.477-1.533-.943c-.318-.2-.64-.394-.961-.591q-7.972-4.869-16.044-9.341t-16.21-8.538a.672.672,0,0,1-.386-.768.193.193,0,0,1,.027-.056c.076-.142.245-.2.492-.08.666.334,1.336.668,2,1.009q8.168,4.133,16.266,8.678t16.092,9.487c.112.068.224.14.337.208C932.528,803.41,933.033,803.724,933.542,804.038Z" transform="translate(-481.07 -398.454)" fill="#fff"/>
    <path id="Path_673" data-name="Path 673" d="M965.929,771.483l-.991-.005c-.223-.313-.443-.625-.667-.938q-7.875-11.044-15.748-22.088-12.892-18.081-25.776-36.161a.639.639,0,0,1-.112-.218c-.073-.267.123-.423.374-.4a.753.753,0,0,1,.523.333l14.452,20.271,25.645,35.976c.544.761,1.087,1.526,1.631,2.287C965.487,770.857,965.711,771.17,965.929,771.483Z" transform="translate(-492.797 -365.782)" fill="#fff"/>
    <path id="Path_674" data-name="Path 674" d="M1026.48,756.845c-.051,1.67-.161,3.313-.305,4.941q-.042.467-.084.934l-1.039-.006c.032-.311.063-.623.091-.934.22-2.352.375-4.73.4-7.173a100.077,100.077,0,0,0-1.97-20.172,125.6,125.6,0,0,0-6.1-20.957,143.936,143.936,0,0,0-9.983-20.734.554.554,0,0,1-.092-.368c.043-.3.438-.384.732-.1a.858.858,0,0,1,.149.189q.719,1.237,1.412,2.481a143.841,143.841,0,0,1,9.555,20.807,125.01,125.01,0,0,1,5.689,20.988A98.729,98.729,0,0,1,1026.48,756.845Z" transform="translate(-531.277 -356.898)" fill="#fff"/>
    <path id="Path_675" data-name="Path 675" d="M724.212,775.948a108.754,108.754,0,0,1-1.025,13.976c-.022.163-.047.325-.07.488l-43.788-.245c-.129-.162-.255-.325-.378-.49-.409-.548-.792-1.111-1.144-1.693-1.691-2.806-2.465-6.091-1.689-8.358l.014-.035a3.977,3.977,0,0,1,.776-1.349c1.768-1.991,5.344-1.659,8.588-.052-2.91-3.186-5.227-7.205-5.4-10.793-.173-3.5,1.657-6,3.642-8.124.065-.07.13-.139.2-.207.032-.035.065-.068.1-.1,1.549-1.619,3.354-3.215,5.967-3.022,2.866.212,6.043,2.613,8.271,5.41a46.776,46.776,0,0,1,5.209,9.07,36.6,36.6,0,0,0,5.54,8.921c-3.266-4.131-5.9-8.831-6.872-13.4s-.117-8.961,2.794-11.114a6.809,6.809,0,0,1,2.982-1.2c.125-.021.253-.038.383-.053a11.95,11.95,0,0,1,8.649,2.853,19.91,19.91,0,0,1,6.144,9.541A32.546,32.546,0,0,1,724.212,775.948Z" transform="translate(-380.764 -384.774)" fill="#f2f2f2"/>
    <path id="Path_676" data-name="Path 676" d="M696.012,811.946l-.837,0q-.4-.249-.8-.493c-.166-.1-.334-.206-.5-.309q-4.166-2.544-8.384-4.881t-8.471-4.462a.351.351,0,0,1-.2-.4.1.1,0,0,1,.014-.029c.04-.074.128-.105.257-.042.348.175.7.349,1.046.528q4.268,2.159,8.5,4.535t8.409,4.958l.176.109Z" transform="translate(-381.213 -406.462)" fill="#fff"/>
    <path id="Path_677" data-name="Path 677" d="M712.935,794.933l-.518,0c-.117-.163-.232-.327-.348-.49L703.839,782.9q-6.737-9.448-13.47-18.9a.336.336,0,0,1-.058-.114c-.038-.139.064-.221.2-.207a.393.393,0,0,1,.274.174l7.552,10.593,13.4,18.8.852,1.2C712.7,794.606,712.82,794.77,712.935,794.933Z" transform="translate(-387.34 -389.389)" fill="#fff"/>
    <path id="Path_678" data-name="Path 678" d="M744.579,787.284c-.026.873-.084,1.731-.16,2.582q-.022.244-.044.488l-.543,0c.017-.163.033-.325.048-.488.115-1.229.2-2.472.207-3.749a52.3,52.3,0,0,0-1.029-10.541,65.637,65.637,0,0,0-3.189-10.951,75.213,75.213,0,0,0-5.217-10.835.289.289,0,0,1-.048-.192c.022-.155.229-.2.383-.053a.453.453,0,0,1,.078.1q.376.646.738,1.3A75.15,75.15,0,0,1,740.8,765.81a65.326,65.326,0,0,1,2.973,10.968A51.587,51.587,0,0,1,744.579,787.284Z" transform="translate(-407.449 -384.747)" fill="#fff"/>
    <path id="Path_679" data-name="Path 679" d="M226.115,386.4H144.052a8.568,8.568,0,0,1-8.558-8.558V279.273a8.568,8.568,0,0,1,8.558-8.558h82.063a8.568,8.568,0,0,1,8.558,8.558v98.572A8.568,8.568,0,0,1,226.115,386.4Zm-82.063-114.6a7.474,7.474,0,0,0-7.466,7.466v98.573a7.474,7.474,0,0,0,7.466,7.466h82.063a7.474,7.474,0,0,0,7.466-7.466V279.273a7.474,7.474,0,0,0-7.466-7.466Z" transform="translate(-135.493 -165.616)" fill="#3f3d56"/>
    <path id="Path_681" data-name="Path 681" d="M229.427,377.3H154.162a3.885,3.885,0,0,1,0-7.769h75.265a3.885,3.885,0,0,1,0,7.769Z" transform="translate(-142.204 -210.472)" fill="#a92c3d"/>
    <path id="Path_682" data-name="Path 682" d="M229.427,407.534H154.162a3.885,3.885,0,0,1,0-7.769h75.265a3.885,3.885,0,0,1,0,7.769Z" transform="translate(-142.204 -224.196)" fill="#a92c3d"/>
    <path id="Path_683" data-name="Path 683" d="M226.027,347.066H191.065a3.885,3.885,0,1,1,0-7.769h34.962a3.885,3.885,0,0,1,0,7.769Z" transform="translate(-158.956 -196.748)" fill="#a92c3d"/>
    <path id="Path_684" data-name="Path 684" d="M545.35,206.778H463.287a8.568,8.568,0,0,1-8.558-8.558V99.647a8.568,8.568,0,0,1,8.558-8.558H545.35a8.568,8.568,0,0,1,8.558,8.558V198.22a8.568,8.568,0,0,1-8.558,8.558Zm-82.063-114.6a7.474,7.474,0,0,0-7.466,7.466V198.22a7.474,7.474,0,0,0,7.466,7.466H545.35a7.474,7.474,0,0,0,7.466-7.466V99.647a7.474,7.474,0,0,0-7.466-7.466Z" transform="translate(-280.405 -84.078)" fill="#3f3d56"/>
    <path id="Path_686" data-name="Path 686" d="M548.662,197.674H473.4a3.885,3.885,0,0,1,0-7.769h75.265a3.885,3.885,0,0,1,0,7.769Z" transform="translate(-287.116 -128.934)" fill="#a92c3d"/>
    <path id="Path_687" data-name="Path 687" d="M548.662,227.908H473.4a3.885,3.885,0,0,1,0-7.769h75.265a3.885,3.885,0,0,1,0,7.769Z" transform="translate(-287.116 -142.658)" fill="#a92c3d"/>
    <path id="Path_688" data-name="Path 688" d="M545.262,167.44H510.3a3.885,3.885,0,1,1,0-7.769h34.962a3.885,3.885,0,0,1,0,7.769Z" transform="translate(-303.867 -115.209)" fill="#a92c3d"/>
    <path id="Path_689" data-name="Path 689" d="M817.654,521.784,745.6,561.054a8.568,8.568,0,0,1-11.61-3.419l-47.17-86.554a8.568,8.568,0,0,1,3.419-11.61l72.057-39.27a8.568,8.568,0,0,1,11.61,3.419l47.17,86.554A8.568,8.568,0,0,1,817.654,521.784Zm-126.9-61.354a7.474,7.474,0,0,0-2.983,10.128l47.17,86.554a7.474,7.474,0,0,0,10.128,2.983l72.057-39.27a7.474,7.474,0,0,0,2.983-10.128l-47.17-86.554a7.474,7.474,0,0,0-10.128-2.983Z" transform="translate(-385.285 -233)" fill="#3f3d56"/>
    <path id="Path_691" data-name="Path 691" d="M814.818,517.24,748.73,553.257a3.885,3.885,0,1,1-3.718-6.822L811.1,510.418a3.885,3.885,0,0,1,3.718,6.822Z" transform="translate(-411.255 -274.21)" fill="#ccc"/>
    <path id="Path_692" data-name="Path 692" d="M829.286,543.788,763.2,579.8a3.885,3.885,0,1,1-3.718-6.822l66.088-36.017a3.885,3.885,0,0,1,3.718,6.822Z" transform="translate(-417.822 -286.261)" fill="#ccc"/>
    <path id="Path_693" data-name="Path 693" d="M797.364,508.352l-30.7,16.73a3.885,3.885,0,0,1-3.718-6.822l30.7-16.73a3.885,3.885,0,1,1,3.718,6.822Z" transform="translate(-419.396 -270.176)" fill="#ccc"/>
    <rect id="Rectangle_257" data-name="Rectangle 257" width="44.382" height="1.092" transform="matrix(0.865, -0.502, 0.502, 0.865, 114.083, 111.552)" fill="#3f3d56"/>
    <path id="Path_694" data-name="Path 694" d="M277.648,166.577l5.421-9.445-10.89.026Z" transform="translate(-123.551 -71.328)" fill="#3f3d56"/>
    <path id="Path_695" data-name="Path 695" d="M499.642,446.29a.543.543,0,0,1-.249-.06L351.874,370.451a.546.546,0,0,1,.5-.972l147.519,75.779a.546.546,0,0,1-.25,1.032Z" transform="translate(-221.581 -215.421)" fill="#3f3d56"/>
    <path id="Path_696" data-name="Path 696" d="M0,9.688l10.877-.535L4.977,0Z" transform="matrix(0.454, 0.891, -0.891, 0.454, 134.583, 147.474)" fill="#3f3d56"/>
    <path id="Path_697" data-name="Path 697" d="M896.077,582.009a5.866,5.866,0,0,1-2.1-8.747l-4.386-42.888h9.48l3.486,41.878a5.9,5.9,0,0,1-6.482,9.757Z" transform="translate(-477.805 -283.484)" fill="#a0616a"/>
    <circle id="Ellipse_137" data-name="Ellipse 137" cx="13.412" cy="13.412" r="13.412" transform="translate(396.156 196.396)" fill="#a0616a"/>
    <path id="Path_698" data-name="Path 698" d="M861.607,538.826l-20.017-4.371a2.463,2.463,0,0,1-1.93-2.274c-.231-4.467-.4-16.021,3.043-26.808a16.245,16.245,0,0,1,20.874-10.348h0a16.252,16.252,0,0,1,9.229,22.438c-4.439,9.115-7.234,15.716-8.309,19.62a2.453,2.453,0,0,1-2.891,1.744Z" transform="translate(-455.09 -267.017)" fill="#a92c3d"/>
    <path id="Path_699" data-name="Path 699" d="M701.7,709.626h-6.695L691.821,683.8h9.88Z" transform="translate(-314.041 -310.401)" fill="#a0616a"/>
    <path id="Path_700" data-name="Path 700" d="M682.138,727.588h12.911v8.129h-21.04A8.129,8.129,0,0,1,682.138,727.588Z" transform="translate(-305.955 -330.277)" fill="#2f2e41"/>
    <path id="Path_701" data-name="Path 701" d="M814.965,696.392l-5.866,3.225-15.232-21.093,8.658-4.761Z" transform="translate(-360.363 -305.844)" fill="#a0616a"/>
    <path id="Path_702" data-name="Path 702" d="M8.129,0H21.04V8.129H0A8.129,8.129,0,0,1,8.129,0Z" transform="translate(436.501 398.317) rotate(-28.801)" fill="#2f2e41"/>
    <path id="Path_703" data-name="Path 703" d="M833.209,682.065l-10.306-.794a2.45,2.45,0,0,1-2.257-2.211c-1.469-15.32-7.913-92.956,9.516-116.858l.049-.067.078-.029c.156-.057,15.7-5.6,24.618,4.558a2.456,2.456,0,0,1,.473,2.39l-.34,1.021a1.9,1.9,0,0,0,.271,1.733c2.475,3.346,10.8,16.232,14.079,41.571a1.89,1.89,0,0,0,.123.47l24.171,59.378a2.457,2.457,0,0,1-1.4,3.223l-7.606,2.9a2.471,2.471,0,0,1-3.027-1.111L846.756,614.93a1.365,1.365,0,0,0-2.549.484l-8.373,64.517a2.457,2.457,0,0,1-2.435,2.141C833.337,682.072,833.273,682.07,833.209,682.065Z" transform="translate(-445.428 -297.181)" fill="#2f2e41"/>
    <path id="Path_704" data-name="Path 704" d="M780.64,487.321a5.742,5.742,0,0,1,.131.9l23.458,13.533,5.7-3.282,6.078,7.957-9.529,6.792a4.369,4.369,0,0,1-5.241-.128l-24.189-19.083a5.732,5.732,0,1,1,3.591-6.685Z" transform="translate(-423.212 -261.933)" fill="#a0616a"/>
    <path id="Path_705" data-name="Path 705" d="M833.789,507.374A2.455,2.455,0,0,1,835,505.722l10.765-6.019a6.824,6.824,0,0,1,8.369,10.782l-8.583,8.913a2.457,2.457,0,0,1-3.715-.2l-7.581-9.826A2.455,2.455,0,0,1,833.789,507.374Z" transform="translate(-452.451 -268.911)" fill="#a92c3d"/>
    <path id="Path_706" data-name="Path 706" d="M883.685,530.457a2.454,2.454,0,0,1-.91-1.833l-.386-12.327a6.824,6.824,0,0,1,13.424-2.465l3.959,11.723a2.457,2.457,0,0,1-1.891,3.2l-12.213,2.205a2.455,2.455,0,0,1-1.982-.508Z" transform="translate(-474.483 -273.437)" fill="#a92c3d"/>
    <path id="Path_707" data-name="Path 707" d="M870.007,443.062c-3.447,2.359-7.973,4.785-11.494,2.272a6.407,6.407,0,0,1-2.1-7.385c1.686-4.821,6.318-6.943,10.747-8.57,5.758-2.115,12.028-3.8,17.972-2.283s11.2,7.27,10.124,13.309c-.863,4.857-5.444,8.9-4.794,13.788.655,4.921,6.189,7.512,11.075,8.391s10.354,1.162,13.865,4.672c4.479,4.477,3.361,12.479-.854,17.206s-10.576,6.87-16.739,8.326c-8.166,1.93-17,2.944-24.754-.259S859.26,480.7,861.507,472.62c.949-3.415,3.185-6.3,5.345-9.111s4.348-5.748,5.172-9.2a9.559,9.559,0,0,0-1.727-8.363,2.423,2.423,0,0,1-.325-2.832Z" transform="translate(-462.561 -236.339)" fill="#2f2e41"/>
    <path id="Path_708" data-name="Path 708" d="M888.4,820.842H680.346a.546.546,0,1,1,0-1.092H888.4a.546.546,0,1,1,0,1.092Z" transform="translate(-382.573 -414.842)" fill="#3f3d56"/>
  </g>
</svg>
