<svg xmlns="http://www.w3.org/2000/svg" xmlns:xlink="http://www.w3.org/1999/xlink" width="584" height="347" viewBox="0 0 584 347">
  <defs>
    <clipPath id="clip-path">
      <rect id="Rectangle_149" data-name="Rectangle 149" width="584" height="347" transform="translate(1109.688 3548.342)" fill="#d5d5d5"/>
    </clipPath>
  </defs>
  <g id="Mask_Group_34" data-name="Mask Group 34" transform="translate(-1109.688 -3548.342)" clip-path="url(#clip-path)">
    <g id="undraw_Login_re_4vu2" transform="translate(1154.315 3552.841)">
      <path id="Path_282" data-name="Path 282" d="M422.306,354.522H178.294V104.16a96.692,96.692,0,0,1,96.6-96.6H325.7a96.692,96.692,0,0,1,96.6,96.6Z" transform="translate(-71.998 -7.558)" fill="#f2f2f2"/>
      <path id="Path_283" data-name="Path 283" d="M371.5,354.524h-193.2V104.161A95.677,95.677,0,0,1,196.745,47.4c.468-.6.869-1.2,1.337-1.805a97.327,97.327,0,0,1,20.591-19.989,16.213,16.213,0,0,1,1.337-.936,95.8,95.8,0,0,1,21.059-11.031,10.61,10.61,0,0,1,1.337-.468A93.1,93.1,0,0,1,263.2,8.295a9.059,9.059,0,0,1,1.337-.134,98.246,98.246,0,0,1,20.791,0c.468.067.869.067,1.337.134a96.925,96.925,0,0,1,20.791,4.88c.468.134.869.334,1.337.468a97.6,97.6,0,0,1,20.791,10.83c.468.334.869.6,1.337.936a101.455,101.455,0,0,1,12.3,10.429,90.623,90.623,0,0,1,8.49,9.76c.468.6.869,1.2,1.337,1.805A95.825,95.825,0,0,1,371.5,104.161Z" transform="translate(-71.998 -7.559)" fill="#ccc"/>
      <circle id="Ellipse_70" data-name="Ellipse 70" cx="10.696" cy="10.696" r="10.696" transform="translate(273.093 213.594)" fill="#a92c3d"/>
      <path id="Path_284" data-name="Path 284" d="M408.194,355.573h-8.223l-3.878-31.621h12.1Z" transform="translate(-77.876 -16.096)" fill="#ffb8b8"/>
      <path id="Path_285" data-name="Path 285" d="M393.825,354.046H409.6v9.961H383.864a9.943,9.943,0,0,1,9.961-9.961Z" transform="translate(-77.546 -16.908)" fill="#2f2e41"/>
      <path id="Path_286" data-name="Path 286" d="M450.106,355.573h-8.223l-3.877-31.621h12.1Z" transform="translate(-79.007 -16.096)" fill="#ffb8b8"/>
      <path id="Path_287" data-name="Path 287" d="M435.737,354.046h15.777v9.961H425.775a9.943,9.943,0,0,1,9.961-9.961Z" transform="translate(-78.677 -16.908)" fill="#2f2e41"/>
      <path id="Path_288" data-name="Path 288" d="M366.241,237.844a7.134,7.134,0,0,1,1.939-9.961,3.715,3.715,0,0,1,1.136-.6l27.878-76.814,13.7,7.488-31.822,73.4a7.23,7.23,0,0,1-4.279,9.293A7.453,7.453,0,0,1,366.241,237.844Z" transform="translate(-77.037 -11.414)" fill="#ffb8b8"/>
      <path id="Path_289" data-name="Path 289" d="M445.82,252.484a7.273,7.273,0,0,1-2.674-9.827,10.208,10.208,0,0,1,.735-1.07l-8.624-81.226,15.577.735,3.61,79.889a7.2,7.2,0,0,1,.2,10.228,7.013,7.013,0,0,1-8.825,1.27Z" transform="translate(-78.933 -11.681)" fill="#ffb8b8"/>
      <circle id="Ellipse_71" data-name="Ellipse 71" cx="16.446" cy="16.446" r="16.446" transform="translate(325.572 91.922)" fill="#ffb8b8"/>
      <path id="Path_290" data-name="Path 290" d="M444.672,233.538H395.2l.067-.4c.067-.6,8.825-57.761,2.407-76.479a7.892,7.892,0,0,1,4.078-9.76h0c9.226-4.345,26.875-9.694,41.783,3.276a18.8,18.8,0,0,1,6.351,15.643Z" transform="translate(-77.852 -11.186)" fill="#a92c3d"/>
      <path id="Path_291" data-name="Path 291" d="M404.34,183.952l-22.262-4.546,10.429-24.735a9.356,9.356,0,0,1,18.117,4.68Z" transform="translate(-77.498 -11.339)" fill="#a92c3d"/>
      <path id="Path_292" data-name="Path 292" d="M434.253,192.426l-1.337-30.685c-1-5.749,2.273-11.231,7.354-12.1s10.028,3.142,11.1,8.958l5.014,28.68Z" transform="translate(-78.865 -11.389)" fill="#a92c3d"/>
      <path id="Path_293" data-name="Path 293" d="M442.925,232.3c7.955,30.351,8.825,68.925,6.685,110.975l-10.7-1.337-19.387-80.223-10.7,81.56L396.8,342.6c-3.61-44.123-7.086-82.028-1.337-106.964Z" transform="translate(-77.777 -13.623)" fill="#2f2e41"/>
      <path id="Path_294" data-name="Path 294" d="M430.835,130.968c-3.075,3.276-8.758,1.538-9.159-2.942v-1.07c.2-2.006,1.337-3.744,1.07-5.883a3.242,3.242,0,0,0-.535-1.4c-2.474-3.276-8.156,1.471-10.5-1.471-1.4-1.805.267-4.68-.869-6.685-1.4-2.674-5.682-1.337-8.357-2.808-2.941-1.6-2.808-6.15-.8-8.958a14.214,14.214,0,0,1,10.63-5.415c4.078-.267,8.223.869,12.033,2.34,4.345,1.671,8.691,4.078,11.365,7.889,3.276,4.68,3.543,10.9,1.939,16.379C436.718,124.216,433.309,128.294,430.835,130.968Z" transform="translate(-77.988 -9.898)" fill="#2f2e41"/>
      <path id="Path_295" data-name="Path 295" d="M563.425,364.513H69.852a.8.8,0,0,1,0-1.6H563.425a.772.772,0,0,1,.8.8A.813.813,0,0,1,563.425,364.513Z" transform="translate(-69.05 -17.148)" fill="#3f3d56"/>
      <path id="Path_296" data-name="Path 296" d="M319.7,283.981H232.8a4.323,4.323,0,0,1-4.345-4.279V85.7a4.28,4.28,0,0,1,4.345-4.279H319.7a4.323,4.323,0,0,1,4.345,4.279V279.7A4.323,4.323,0,0,1,319.7,283.981Z" transform="translate(-73.352 -9.551)" fill="#fff"/>
      <rect id="Rectangle_153" data-name="Rectangle 153" width="95.599" height="1.337" transform="translate(155.098 134.641)" fill="#ccc"/>
      <rect id="Rectangle_154" data-name="Rectangle 154" width="95.599" height="1.337" transform="translate(155.432 210.92)" fill="#ccc"/>
      <rect id="Rectangle_155" data-name="Rectangle 155" width="1.337" height="203.232" transform="translate(185.181 71.866)" fill="#ccc"/>
      <rect id="Rectangle_156" data-name="Rectangle 156" width="1.337" height="203.232" transform="translate(218.608 71.866)" fill="#ccc"/>
      <g id="Group_235" data-name="Group 235" transform="translate(272.424 158.106)">
        <path id="Path_297" data-name="Path 297" d="M370.423,209.626a6.7,6.7,0,0,1-6.685,6.685h-8.022a6.7,6.7,0,0,1-6.685-6.685V176.734a6.7,6.7,0,0,1,6.685-6.685h8.022a6.7,6.7,0,0,1,6.685,6.685Z" transform="translate(-349.03 -170.049)" fill="#2f2e41"/>
      </g>
    </g>
  </g>
</svg>
