<svg xmlns="http://www.w3.org/2000/svg" width="632.732" height="529.065" viewBox="0 0 632.732 529.065">
  <g id="undraw_thought_process_67my" transform="translate(0)">
    <path id="Path_709" data-name="Path 709" d="M556.916,161.819C524.65,120.826,471.2,94.791,417.14,70.7,261.264,1.245,143.359,13.756,199.819,161.819Z" transform="translate(-130.169 -29.967)" fill="#3f3d56"/>
    <path id="Path_710" data-name="Path 710" d="M379.809,558.985c25.973,41.713,56.526,72.032,109.279,72.032,55.427,0,104.67-28.264,135.818-72.032Z" transform="translate(-202.117 -225.815)" fill="#3f3d56"/>
    <path id="Path_711" data-name="Path 711" d="M158.916,340.191c5.9-7.136,12.559-13.844,20.687-18.275s17.921-6.4,26.8-3.763c6.625,1.967,12.272,6.3,17.5,10.817,10.708,9.265,20.581,19.873,33.211,26.275s29.271,7.6,40-1.645c8.49-7.315,12.11-19.985,22.249-24.759,9.994-4.706,21.583.347,31.725,4.727a265.287,265.287,0,0,0,42.6,14.252c9.862,2.393,20.022,4.227,30.124,3.264s20.243-5.007,26.832-12.725" transform="translate(-120.34 -136.217)" opacity="0.1"/>
    <path id="Path_712" data-name="Path 712" d="M388.641,405.687c5.9-7.136,12.559-13.844,20.687-18.275s17.921-6.4,26.8-3.763c6.625,1.967,12.272,6.3,17.5,10.817,10.708,9.265,20.581,19.873,33.211,26.275s29.271,7.6,40-1.645c8.49-7.315,12.11-19.985,22.249-24.759,9.994-4.706,21.583.347,31.725,4.727a265.292,265.292,0,0,0,42.6,14.252c9.862,2.393,20.022,4.227,30.124,3.264s20.242-5.007,26.832-12.725" transform="translate(-205.386 -160.464)" opacity="0.1"/>
    <path id="Path_713" data-name="Path 713" d="M165.759,332.371c5.9-7.136,12.559-13.844,20.687-18.275s17.921-6.4,26.8-3.763c6.625,1.967,12.272,6.3,17.5,10.817,10.708,9.265,20.581,19.873,33.211,26.275s29.271,7.6,40-1.645c8.49-7.315,12.11-19.985,22.249-24.759,9.994-4.706,21.583.347,31.725,4.727A265.29,265.29,0,0,0,400.527,340c9.862,2.393,20.022,4.227,30.124,3.264s20.243-5.007,26.832-12.725" transform="translate(-122.873 -133.322)" fill="#3f3d56"/>
    <path id="Path_714" data-name="Path 714" d="M397.439,394.934c5.9-7.136,12.559-13.844,20.687-18.275s17.92-6.4,26.8-3.763c6.625,1.967,12.272,6.3,17.5,10.817,10.708,9.265,20.581,19.873,33.211,26.275s29.271,7.6,40-1.645c8.49-7.315,12.11-19.985,22.249-24.759,9.994-4.706,21.583.347,31.725,4.727a265.289,265.289,0,0,0,42.6,14.252c9.862,2.393,20.022,4.227,30.124,3.264s20.243-5.007,26.832-12.725" transform="translate(-208.643 -156.483)" fill="#a92c3d"/>
    <circle id="Ellipse_138" data-name="Ellipse 138" cx="13.544" cy="13.544" r="13.544" transform="translate(24.703 146.012)" opacity="0.1"/>
    <circle id="Ellipse_139" data-name="Ellipse 139" cx="13.544" cy="13.544" r="13.544" transform="translate(29.628 139.855)" fill="#a92c3d"/>
    <path id="Path_717" data-name="Path 717" d="M161.807,573.353c21.154,63.663,13.724,123.438,13.724,123.438s-41.726-43.443-62.88-107.105S98.928,466.248,98.928,466.248,140.654,509.69,161.807,573.353Z" transform="translate(-97.663 -191.483)" fill="#a92c3d"/>
    <path id="Path_718" data-name="Path 718" d="M234.287,573.353c-21.154,63.663-13.724,123.438-13.724,123.438s41.726-43.443,62.879-107.105,13.724-123.438,13.724-123.438S255.44,509.69,234.287,573.353Z" transform="translate(-142.694 -191.483)" fill="#a92c3d"/>
    <path id="Path_719" data-name="Path 719" d="M226.15,566.341c1.418,67.07-23.326,121.989-23.326,121.989s-27.042-53.824-28.46-120.895S197.69,445.447,197.69,445.447,224.732,499.271,226.15,566.341Z" transform="translate(-126.037 -183.782)" fill="#3f3d56"/>
    <ellipse id="Ellipse_140" data-name="Ellipse 140" cx="59.822" cy="3.283" rx="59.822" ry="3.283" transform="translate(16.951 502.022)" fill="#3f3d56"/>
    <circle id="Ellipse_141" data-name="Ellipse 141" cx="6.566" cy="6.566" r="6.566" transform="translate(67.654 316.718)" fill="#a92c3d"/>
    <circle id="Ellipse_142" data-name="Ellipse 142" cx="3.648" cy="3.648" r="3.648" transform="translate(57.805 372.163)" fill="#a92c3d"/>
    <circle id="Ellipse_143" data-name="Ellipse 143" cx="3.648" cy="3.648" r="3.648" transform="translate(13.303 336.051)" fill="#3f3d56"/>
    <circle id="Ellipse_144" data-name="Ellipse 144" cx="3.648" cy="3.648" r="3.648" transform="translate(142.067 300.668)" fill="#3f3d56"/>
    <circle id="Ellipse_145" data-name="Ellipse 145" cx="3.648" cy="3.648" r="3.648" transform="translate(32.271 370.34)" fill="#3f3d56"/>
    <circle id="Ellipse_146" data-name="Ellipse 146" cx="3.648" cy="3.648" r="3.648" transform="translate(108.873 349.183)" fill="#3f3d56"/>
    <circle id="Ellipse_147" data-name="Ellipse 147" cx="3.648" cy="3.648" r="3.648" transform="translate(34.46 423.961)" fill="#3f3d56"/>
    <circle id="Ellipse_148" data-name="Ellipse 148" cx="3.648" cy="3.648" r="3.648" transform="translate(112.521 403.169)" fill="#3f3d56"/>
    <circle id="Ellipse_149" data-name="Ellipse 149" cx="3.648" cy="3.648" r="3.648" transform="translate(77.138 406.817)" fill="#a92c3d"/>
    <path id="Path_722" data-name="Path 722" d="M944.941,760.482l5.33,16.96L933.8,778.9l1.454-18.414Z" transform="translate(-345.7 -281.538)" fill="#ffb9b9"/>
    <path id="Path_723" data-name="Path 723" d="M813.428,781.256v23.26h-18.9l5.33-23.26Z" transform="translate(-294.143 -289.228)" fill="#ffb9b9"/>
    <path id="Path_724" data-name="Path 724" d="M976.607,541.555l7.753,73.656s9.692,64.933,7.753,75.109.485,11.63.485,11.63H978.061s.485-6.3-2.423-9.207-1.454-11.63-1.454-11.63L937.357,568.691,916.52,631.686s-3.392,69.295-3.877,70.264S910.7,716,910.7,716H892.775s2.423-7.753-.969-10.176-6.3-.484-3.392-4.846,3.877-9.692,2.907-12.114-.969-12.115-.969-12.115,1.454-130.836,9.692-135.2S976.607,541.555,976.607,541.555Z" transform="translate(-389.965 -218.644)" fill="#2f2e41"/>
    <path id="Path_725" data-name="Path 725" d="M892.325,826.877s8.286-1.243,8.286-.829,9.943,27.343,0,26.929-47.644-5.8-45.158-15.743,14.915-7.043,14.915-7.043l11.186-6.214Z" transform="translate(-378.161 -323.917)" fill="#2f2e41"/>
    <path id="Path_726" data-name="Path 726" d="M1036.132,813.253s-8.286-1.243-8.286-.828-9.943,27.343,0,26.929,47.644-5.8,45.158-15.743-14.915-7.043-14.915-7.043l-11.182-6.215Z" transform="translate(-440.39 -318.874)" fill="#2f2e41"/>
    <path id="Path_727" data-name="Path 727" d="M966.483,625.639H936.206a105.894,105.894,0,0,1,0-36.1h30.277a64.955,64.955,0,0,0,0,36.1Z" transform="translate(-407.526 -237.126)" fill="#a92c3d"/>
    <circle id="Ellipse_150" data-name="Ellipse 150" cx="19.07" cy="19.07" r="19.07" transform="translate(527.706 146.343)" fill="#ffb9b9"/>
    <path id="Path_728" data-name="Path 728" d="M974.813,288.783s3.392,33.92,7.753,36.343-33.436,4.846-33.436,4.846,9.207-31.013,6.3-33.92S974.813,288.783,974.813,288.783Z" transform="translate(-412.885 -125.783)" fill="#ffb9b9"/>
    <path id="Path_729" data-name="Path 729" d="M916.164,338.508s13.568-13.084,29.075-10.661,26.652,5.33,26.652,5.33,23.744,12.6,24.229,22.775-8.722,48.458-8.722,48.458-4.361,62.51-4.846,62.51-81.894-.969-81.894-.969l15.022-81.409Z" transform="translate(-394.94 -140.135)" fill="#3f3d56"/>
    <path id="Path_730" data-name="Path 730" d="M928.671,489.755c3.14.848,8.553-.325,14.2-2.176a176.25,176.25,0,0,0,20.909-8.79s34.89-14.053,45.066-21.321,3.392-36.343,3.392-36.343l-15.506,4.846L997.7,443.9l-38.282,24.713a86.365,86.365,0,0,0-17.721,3.562c-6.445,2.118-12.706,5.418-14.969,10.486a9.809,9.809,0,0,0-.746,2.428C925.526,487.763,926.612,489.193,928.671,489.755Z" transform="translate(-404.278 -174.777)" fill="#ffb9b9"/>
    <path id="Path_731" data-name="Path 731" d="M927.233,512.67c.674,2.51,1.328,4.9,1.938,7.094,3.14.848,8.553-.325,14.2-2.176l-1.173-15.4C935.757,504.3,929.5,507.6,927.233,512.67Z" transform="translate(-404.778 -204.786)" opacity="0.15"/>
    <path id="Path_732" data-name="Path 732" d="M927.528,406.505l2.907,25.683,4.822,63.37s26.676,32.092,11.654,33.062-23.26-31.5-23.26-31.5-15.022-51.365-14.537-62.026,0-28.59,0-28.59Z" transform="translate(-398.066 -169.365)" fill="#ffb9b9"/>
    <path id="Path_733" data-name="Path 733" d="M930.4,275.4a4.974,4.974,0,0,1-1.371-.826c-1.041-1.01-.866-2.722-.413-4.1s1.113-2.8.789-4.218c-.151-.659-.51-1.262-.612-1.93-.244-1.589,1.024-3.037,2.427-3.821s3.017-1.171,4.343-2.08c2.033-1.394,3.156-3.851,5.221-5.2,2.019-1.318,4.584-1.358,6.995-1.356l7.2.008c3.761,0,7.894.144,10.694,2.656.851.764,1.526,1.71,2.388,2.462,1.737,1.514,4.08,2.119,6.009,3.38a10.421,10.421,0,0,1,4.627,8.776c-.068,3.194-1.625,6.3-1.22,9.465.271,2.126,1.419,4.168,1.117,6.289-.358,2.516-2.665,4.318-5.032,5.244s-4.947,1.258-7.25,2.332c-1.88.877-3.843,2.276-5.825,1.662-1.676-.519-2.6-2.29-3.2-3.938a32.149,32.149,0,0,1-1.541-5.947,10.065,10.065,0,0,0-1.292-4.374,5.036,5.036,0,0,0-4.5-1.942c-3.886.342-6.074,6.96-9.648,5.4-1.772-.776-3.134-3.1-4.553-4.366A22.859,22.859,0,0,0,930.4,275.4Z" transform="translate(-405.156 -112.119)" fill="#2f2e41"/>
    <path id="Path_734" data-name="Path 734" d="M1040.436,365.726s9.692,3.392,13.568,16.96,2.423,22.775,2.423,22.775l-20.352,3.392Z" transform="translate(-445.072 -154.268)" fill="#3f3d56"/>
    <path id="Path_735" data-name="Path 735" d="M927.564,343.179s-17.445-3.877-19.868,12.6a263.714,263.714,0,0,0-2.423,33.436s16.476-7.753,23.744,0Z" transform="translate(-396.648 -145.774)" fill="#3f3d56"/>
  </g>
</svg>
