<svg xmlns="http://www.w3.org/2000/svg" xmlns:xlink="http://www.w3.org/1999/xlink" width="641.869" height="512.236" viewBox="0 0 641.869 512.236">
  <defs>
    <linearGradient id="linear-gradient" x1="0.5" y1="1" x2="0.5" gradientUnits="objectBoundingBox">
      <stop offset="0" stop-color="gray" stop-opacity="0.251"/>
      <stop offset="0.54" stop-color="gray" stop-opacity="0.122"/>
      <stop offset="1" stop-color="gray" stop-opacity="0.102"/>
    </linearGradient>
  </defs>
  <g id="undraw_press_play_bx2d" transform="translate(0 -0.01)">
    <path id="Path_593" data-name="Path 593" d="M321.556,71.465c19.777-17.624,50.829-21.2,79.087-19.815,88.769,4.414,168.9,47.263,238.2,95.734,25.09,17.547,49.795,36.456,66.082,60.621,33.154,49.2,23.323,117.342-22.783,157.865-15.684,13.788-34.7,24.358-54.222,33.732-34.7,16.66-72.16,30.031-111.553,33.841-28.1,2.711-56.541.508-84.465-3.283-78.039-10.576-154.62-34-218.814-74.011-28.155-17.56-54.7-39.386-66.3-67.8s-4.176-64.38,24.6-81.213c11.893-6.952,26.112-10.094,40.028-13.043,20.49-4.343,41.307-8.622,59.792-17.444,19.1-9.117,41.712-26.748,37.908-46.9C305.037,108.082,301.825,89.044,321.556,71.465Z" transform="translate(-115.175 -51.37)" fill="#a92c3d" opacity="0.1"/>
    <circle id="Ellipse_113" data-name="Ellipse 113" cx="20.239" cy="20.239" r="20.239" transform="translate(91.609 62.905)" fill="#a92c3d" opacity="0.1"/>
    <circle id="Ellipse_114" data-name="Ellipse 114" cx="12.529" cy="12.529" r="12.529" transform="translate(56.92 22.427)" fill="#a92c3d" opacity="0.1"/>
    <circle id="Ellipse_115" data-name="Ellipse 115" cx="7.71" cy="7.71" r="7.71" transform="translate(586.979 65.797)" fill="#a92c3d" opacity="0.1"/>
    <ellipse id="Ellipse_116" data-name="Ellipse 116" cx="54.125" cy="5.397" rx="54.125" ry="5.397" transform="translate(389.156 501.452)" fill="#a92c3d" opacity="0.1"/>
    <path id="Path_594" data-name="Path 594" d="M172.531,487.31l-.238,12.818-1.9,103.9-16.281,38.127L98,642.8V493.215l58.559-4.639Z" transform="translate(-35.034 -174.204)" fill="#5f5d7e"/>
    <path id="Path_595" data-name="Path 595" d="M172.531,487.31l-.238,12.818-1.9,103.9-16.281,38.127L98,642.8V493.215l58.559-4.639Z" transform="translate(-35.034 -174.204)" opacity="0.1"/>
    <path id="Path_596" data-name="Path 596" d="M203.751,487.31l-.238,12.818-1.9,103.9L185.33,642.155l4.286-141.783-.013-.09-1.825-11.707Z" transform="translate(-66.253 -174.204)" fill="#5f5d7e"/>
    <path id="Path_597" data-name="Path 597" d="M156.559,488.576l15.973-1.266-.238,12.818-13.91.154L98,500.957v-7.742Z" transform="translate(-35.034 -174.204)" opacity="0.1"/>
    <path id="Path_598" data-name="Path 598" d="M962.654,491.724V640.446H949.592l-52.262-38.12v-114.8l46.691-4.388,2.866,1.317,2.7,1.246Z" transform="translate(-320.785 -172.713)" fill="#5f5d7e"/>
    <rect id="Rectangle_245" data-name="Rectangle 245" width="13.062" height="155.989" transform="translate(628.807 311.744)" opacity="0.1"/>
    <path id="Path_599" data-name="Path 599" d="M962.654,484.457v8.552l-13.062.148-52.262.578v-6.207l46.691-4.388,2.866,1.317,2.7,1.246v-1.246Z" transform="translate(-320.785 -172.713)" opacity="0.1"/>
    <path id="Path_600" data-name="Path 600" d="M641.869,470.848v12.118L0,490.123V474.7L60.4,462.5l525.574-3.855Z" transform="translate(0 -163.955)" fill="#5f5d7e"/>
    <path id="Path_601" data-name="Path 601" d="M641.869,477.64v12.118L0,496.915V481.5Z" transform="translate(0 -170.747)" opacity="0.1"/>
    <rect id="Rectangle_246" data-name="Rectangle 246" width="224.828" height="174.564" rx="22.82" transform="translate(234.838 125.274)" fill="#474157"/>
    <rect id="Rectangle_247" data-name="Rectangle 247" width="188.976" height="142.4" transform="translate(252.931 141.022)" fill="#ededf4"/>
    <circle id="Ellipse_117" data-name="Ellipse 117" cx="3.097" cy="3.097" r="3.097" transform="translate(242.458 209.122)" fill="#e6e8ec"/>
    <circle id="Ellipse_118" data-name="Ellipse 118" cx="5.108" cy="5.108" r="5.108" transform="translate(445.171 207.445)" fill="#e6e8ec"/>
    <path id="Path_602" data-name="Path 602" d="M645.146,364.949l-24.165-14.688a3.3,3.3,0,0,0-4.9,2.878v28.566a3.3,3.3,0,0,0,4.9,2.878l24.165-13.865a3.309,3.309,0,0,0,0-5.77Zm18.17,2.474a34.053,34.053,0,1,0-34.053,34.053A34.053,34.053,0,0,0,663.316,367.423Zm-61.514,0a27.464,27.464,0,1,0,0-.007Z" transform="translate(-277.353 -152.178)" fill="#a92c3d"/>
    <path id="Path_603" data-name="Path 603" d="M814.474,477.831a8.03,8.03,0,0,0-.726-2.262c.488-1.664.8-2.686.8-2.686a3.749,3.749,0,0,0-.077-.642,9.862,9.862,0,0,0-9.991-8.276c-3.855.071-11.167.328-19.275,1.24.463-3.245,1.015-7.125,1.593-11.122l1.06.116a5.089,5.089,0,0,1,.758.038h.341a3.5,3.5,0,0,0,2.352-.72,1.388,1.388,0,0,0-.43-2.274,5.731,5.731,0,0,0,5.031-2.108,4.5,4.5,0,0,0,0-5.23c-1.356-1.927-4.228-3.213-4.382-5.481-.084-1.285.777-2.442,1.452-3.579a14.951,14.951,0,0,0-2.358-17.958,35.192,35.192,0,0,0-2.853-2.538c-1.414-5.191-2.891-9.83-3.328-9.978-.565-.186-1.536-1.407-2.461-2.454a11.825,11.825,0,0,0-.045-2.654c-.681-4.5-5.14-7.71-7.595-11.681s-2.9-8.835-2.268-13.384,2.217-8.95,3.508-13.39c.964-3.3,1.767-6.8.688-10.068a18.3,18.3,0,0,0-4.144-6.245c-4.119-4.555-8.867-8.822-14.726-11.565a29.265,29.265,0,0,0-13.037-2.788h-.045l-.707.039-.5.032-.5.051-.533.051h0c-.546.071-1.086.154-1.626.263a56.1,56.1,0,0,0-11.919-1.336h-.521a6.1,6.1,0,0,0-3.405.8c-1.426,1-1.606,2.782-2.037,4.337a12.033,12.033,0,0,1-4.626,6.425c-1.536,1.105-3.341,1.928-4.806,3.084s-2.609,2.891-2.217,4.6a5.021,5.021,0,0,0,3.213,3.148c-.186.231-.379.456-.559.694.3.122.643.231.919.321,1.928.572,4,.642,5.956,1.163a13.063,13.063,0,0,1,1.581.533,22.565,22.565,0,0,0-2.641,10.614,22.867,22.867,0,0,0,11.964,20.059c0,.219,0,.431,0,.643.2,6.708-.308,14.868-3.739,16.249s-6.714,2.943-8.738,3.951l-.643.34c-.533-.244-1.067-.5-1.587-.771,0,0-2.731-.321-2.255,1.76,0,0-8.256-1.285-12.786,2.242a117.707,117.707,0,0,0-13.422,12.812c-1.459,1.921-12.735,6.123-12.735,6.123a14.458,14.458,0,0,0,2.017-11.051s-1.7-7.337-.887-10.28,2.911-13.865,2.911-13.865.3-11.527-5.995-16.815-10.666-9.638-8.237-4.5a71.626,71.626,0,0,0,3.56,6.881s-15.041,3.572-9.7,9.149,6.791,5.583,6.791,5.583-1.78,13.769-2.107,16.333-3.213,22.1-3.213,22.1-.161,9.291,1.459,10.73a7.308,7.308,0,0,0,7.762,5.783s12.773-.321,16.333-1.76,15.844-9.13,17.142-8.648a.738.738,0,0,1,.251.167,1.818,1.818,0,0,1,.193.193c-1.285,2.846-4.331,12.51-3.033,17.258,0,0-1.131,13.448,5.661,17.772,0,0,9.863,16.654,6.142,25.617-.3.726-.559,1.394-.8,2.043-5.648-4.684-14.264-9-27.422-11.379-1.343-.244-2.679-.54-4-.861-3.739-.906-14.026-1.735-18.922,14.527a71.549,71.549,0,0,1-4.343,11c-1.928,3.9-4.067,9.49-4.112,15.035-.109,7.774,3.907,15.478,18.479,18.305.161,5.783.823,12.67,2.8,17.624,4.041,10.087,10.511,26.42,10.511,26.42s7.762,16.654,8.25,23.375c.315,4.4.777,10.171.456,14.135a6.292,6.292,0,0,1-.064.707,17.054,17.054,0,0,1-2.172,1.973c-1.131.643-4.851,4.645-4.851,5.6a17.108,17.108,0,0,0,.244,2.737c-1.76,1.536-2.724,3.213-2.724,4.883,0,8.687,24.653,15.729,55.063,15.729s55.057-7.068,55.057-15.729c0-7.929-20.56-14.482-47.276-15.562,5.571-2.223,10.518-4.555,12.568-6.425a3.007,3.007,0,0,0,.97-1.324l-5.172-12.009s-.4.09-1,.263l-.36-.54c-2.3-3.5-6.727-10.479-6.727-12.375,0-.7-1.169-5.179-2.866-11.315V566.17c16.872,2.57,38.615-.925,38.615-.925l.1-.051h.424v-.231c2.923-1.619,17.547-10.184,21.884-21.543,1.285-3.315-.315-8.063-3.5-13.139,2.223-5.519,7.71-19.777,7.164-25.463,0-.3-.039-.643-.039-.977a16.8,16.8,0,0,0,.064-1.748c.643-8.353,5.783-23.612,5.783-23.612S814.538,478.217,814.474,477.831ZM705.247,440.72c1.169,2.056,2.422,4.684,2.917,5.75h0s-1.709-3.148-2.885-5.75Zm1.221,179.967-.122.045v-.642a38.16,38.16,0,0,1,.122-5.024,5.884,5.884,0,0,0-.552-2.609,61.681,61.681,0,0,1-3.939-15.5c-.643-5.6-1.176-11.713-.842-13.268.5-2.384.912-20.438.289-29.337l9.946,2.236,11.565,23.58s7.44,11.514,9.747,20.6v9.1a22.23,22.23,0,0,1-3.476,7.543c-1.536,2.1-3.033,4.228-4.42,6.425-.424.681-.893,1.381-1.362,2.037-.154,0-7.755.443-9.047,1.87-.8.88-2.185,2.268-2.416,3.662l-.328.051a76.681,76.681,0,0,0-5.134-10.762Z" transform="translate(-297.972 -150.699)" fill="url(#linear-gradient)"/>
    <path id="Path_604" data-name="Path 604" d="M792.918,768.863l-2.57,8.353-10.923,9.477-16.063,4.613s-7.549-4.131-4.979-4.935a6.342,6.342,0,0,0,2.422-2.107c-.9,3.277,6.252-.944,6.252-.944s18.472-13.172,20.4-14.617a14.529,14.529,0,0,1,4.112-1.883C792.372,768.073,792.918,768.863,792.918,768.863Z" transform="translate(-335.495 -307.131)" opacity="0.1"/>
    <path id="Path_605" data-name="Path 605" d="M783.205,728.814l-2.57,8.353-10.923,9.477-16.063,4.613s-7.55-4.131-4.979-4.934a6.341,6.341,0,0,0,2.422-2.107,32.136,32.136,0,0,0,2.146-3.1c1.375-2.21,2.866-4.343,4.388-6.425a23.129,23.129,0,0,0,4.054-10.672c1.124-8.835-10.28-26.664-10.28-26.664L730.68,654.79l28.913,3.534s15.581,53.489,15.581,56.059c0,1.928,4.395,8.9,6.682,12.413C782.659,728.023,783.205,728.814,783.205,728.814Z" transform="translate(-325.782 -267.082)" fill="#fdc2cc"/>
    <ellipse id="Ellipse_119" data-name="Ellipse 119" cx="54.691" cy="15.774" rx="54.691" ry="15.774" transform="translate(386.696 479.638)" fill="#5f5d7e"/>
    <path id="Path_606" data-name="Path 606" d="M793.787,779.3a3.083,3.083,0,0,1-.964,1.33c-3.971,3.643-18.819,9.059-27.994,12a64.942,64.942,0,0,1-7.344,2.088c-2.249.161-6.907-1.285-10.12-3.257s-.321-4.774.977-6.219,9-1.876,9-1.876c-3.694,6.149,5.455.752,5.455.752s18.472-13.172,20.4-14.617a17.731,17.731,0,0,1,5.461-2.249Z" transform="translate(-331.224 -307.285)" fill="#a92c3d"/>
    <path id="Path_607" data-name="Path 607" d="M793.787,779.3a3.083,3.083,0,0,1-.964,1.33c-3.971,3.643-18.819,9.059-27.994,12a64.942,64.942,0,0,1-7.344,2.088c-2.249.161-6.907-1.285-10.12-3.257s-.321-4.774.977-6.219,9-1.876,9-1.876c-3.694,6.149,5.455.752,5.455.752s18.472-13.172,20.4-14.617a17.731,17.731,0,0,1,5.461-2.249Z" transform="translate(-331.224 -307.285)" opacity="0.3"/>
    <path id="Path_608" data-name="Path 608" d="M803.354,788.09c-3.971,3.643-18.819,9.059-27.994,12C783.674,793.05,797.617,789.369,803.354,788.09Z" transform="translate(-341.755 -314.735)" opacity="0.1"/>
    <ellipse id="Ellipse_120" data-name="Ellipse 120" cx="10.942" cy="3.155" rx="10.942" ry="3.155" transform="translate(430.444 487.175)" opacity="0.1"/>
    <rect id="Rectangle_248" data-name="Rectangle 248" width="11.244" height="83.205" transform="translate(435.302 407.125)" fill="#5f5d7e"/>
    <path id="Path_609" data-name="Path 609" d="M789.244,689.131v9.638c-2.249-.694-7.382-3.617-11.244-5.918V685h2.345Z" transform="translate(-342.698 -277.882)" opacity="0.1"/>
    <path id="Path_610" data-name="Path 610" d="M754.27,618.786s37.124-9.554,46.364-16.705,45.522,26.5,40.729,39.193-22.244,21.89-22.244,21.89-48.259,7.851-56.477-8.526S754.27,618.786,754.27,618.786Z" transform="translate(-334.215 -247.887)" fill="#474157"/>
    <path id="Path_611" data-name="Path 611" d="M754.27,618.786s37.124-9.554,46.364-16.705,45.522,26.5,40.729,39.193-22.244,21.89-22.244,21.89-48.259,7.851-56.477-8.526S754.27,618.786,754.27,618.786Z" transform="translate(-334.215 -247.887)" opacity="0.1"/>
    <path id="Path_612" data-name="Path 612" d="M749.27,612.786s37.124-9.554,46.364-16.705,45.522,26.5,40.729,39.193-22.244,21.89-22.244,21.89-48.259,7.851-56.477-8.526S749.27,612.786,749.27,612.786Z" transform="translate(-332.428 -245.742)" fill="#474157"/>
    <path id="Path_613" data-name="Path 613" d="M683.786,452.629l-4.016-1.458a14.6,14.6,0,0,0,2.011-11.083s-1.69-7.363-.887-10.344,2.891-13.91,2.891-13.91.3-11.565-5.956-16.866-10.589-9.638-8.179-4.5a71.571,71.571,0,0,0,3.534,6.907s-14.938,3.579-9.638,9.181,6.746,5.6,6.746,5.6-1.767,13.814-2.088,16.384-3.213,22.167-3.213,22.167-.161,9.316,1.446,10.762a7.267,7.267,0,0,0,7.71,5.783C675.292,471.23,688.926,456.163,683.786,452.629Z" transform="translate(-301.376 -173.197)" fill="#fdc2cc"/>
    <path id="Path_614" data-name="Path 614" d="M813.255,425.831v9l-9.316,3.039-15.87,11.681-4.208,3.1-18.793-7.55L753.18,432.565s.578-.315,1.581-.835l.642-.341c2.011-1.009,5.179-2.57,8.68-3.964s3.913-9.567,3.714-16.3v-.642c-.161-4.723-.643-8.584-.643-8.584s1.96-.373,4.813-.8c7.909-1.176,22.668-2.763,21.37,2.082a11.161,11.161,0,0,0,0,5.005c.039.18.077.366.122.546,1.336,5.84,5.474,11.957,5.474,11.957l12.85,4.626.36.129Z" transform="translate(-333.826 -175.955)" fill="#fdc2cc"/>
    <path id="Path_615" data-name="Path 615" d="M842.3,442.928V440.2a9,9,0,0,1,3.052,0c1.124.321,3.258,3.694,4.221,4.016s6.862,22.327,6.22,24.255-6.714,45.445-6.714,45.445l-12.24,13.493L834.43,490.3l7.871-22.006Z" transform="translate(-362.872 -190.321)" fill="#fdc2cc"/>
    <path id="Path_616" data-name="Path 616" d="M742.427,601.77s-11.186,2.409-9.766,5.943,7.678,3.694,7.678,3.694Z" transform="translate(-326.446 -248.128)" fill="#fdc2cc"/>
    <path id="Path_617" data-name="Path 617" d="M739.47,476.394l-8.513,18.344-10.12,7.389-1.767-11.417s-3.418-7.549-4.89-8.828a.74.74,0,0,0-.251-.167c-1.285-.482-13.493,7.228-17.027,8.674s-16.224,1.767-16.224,1.767l5.622-20.078s11.244-4.176,12.69-6.1a116.921,116.921,0,0,1,13.332-12.85c4.5-3.534,12.7-2.249,12.7-2.249l.128.051,2.107.912,6.1,14.938Z" transform="translate(-307.908 -194.103)" fill="#fdc2cc"/>
    <path id="Path_618" data-name="Path 618" d="M718,718.769a38.355,38.355,0,0,0-.122,5.037c.045,1.793.122,3.315.122,3.315l-3.694,7.71s-12.69,4.176-10.6,2.409c.726-.61,1.1-2.2,1.285-4.3a109.04,109.04,0,0,0-.456-14.174c-.482-6.746-8.192-23.452-8.192-23.452s-6.425-16.384-10.441-26.5-2.57-28.431-2.57-28.431.643-13.814,3.534-17.99S701,616.77,701,616.77l5.275,17.5s4.337,16.384,5.943,18.793,1.124,31.162.482,34.214c-.328,1.561.225,7.71.842,13.313a62.526,62.526,0,0,0,3.906,15.549A5.936,5.936,0,0,1,718,718.769Z" transform="translate(-308.764 -253.49)" fill="#fdc2cc"/>
    <path id="Path_619" data-name="Path 619" d="M729.347,786.675l-3.694,7.71s-12.69,4.176-10.6,2.409c.726-.61,1.1-2.2,1.285-4.3.456-.456.944-.957,1.446-1.471a32.44,32.44,0,0,1,11.469-7.665h0C729.27,785.153,729.347,786.675,729.347,786.675Z" transform="translate(-320.112 -313.044)" opacity="0.1"/>
    <path id="Path_620" data-name="Path 620" d="M732.061,798.476a.389.389,0,0,1,0,.09c-.643,3.052-11.244,7.228-11.244,7.228s-6.746,1.124-10.6,2.088a2.667,2.667,0,0,1-.906.084c-2.975-.225-3.11-5.95-3.11-6.83s3.695-4.98,4.819-5.622a34.471,34.471,0,0,0,3.572-3.424A33.153,33.153,0,0,1,726.3,784.27h0S732.575,795.308,732.061,798.476Z" transform="translate(-317.031 -313.37)" fill="#a92c3d"/>
    <path id="Path_621" data-name="Path 621" d="M732.061,798.469a.389.389,0,0,1,0,.09c-.643,3.052-11.244,7.228-11.244,7.228s-6.746,1.124-10.6,2.088a2.67,2.67,0,0,1-.906.083c-2.975-.225-3.11-5.95-3.11-6.83s3.695-4.979,4.819-5.622a34.069,34.069,0,0,0,3.624-3.476,32.491,32.491,0,0,1,11.475-7.71l.18-.071S732.575,795.3,732.061,798.469Z" transform="translate(-317.031 -313.363)" opacity="0.3"/>
    <path id="Path_622" data-name="Path 622" d="M733.791,806.32a.382.382,0,0,1,0,.09c-.642,3.052-11.244,7.228-11.244,7.228s-6.746,1.124-10.6,2.088a2.669,2.669,0,0,1-.906.083c3.5-2.4,11.97-8.147,13.114-8.276S730.932,805.787,733.791,806.32Z" transform="translate(-318.761 -321.214)" opacity="0.1"/>
    <path id="Path_623" data-name="Path 623" d="M801.271,408.734c-3.971,3.27-7.62,2.8-13.165,2.8-4.009,0-9.22,1.407-12.5-.4-.135-5.018-.643-9.239-.643-9.239s27.949-5.3,26.182,1.285A11.681,11.681,0,0,0,801.271,408.734Z" transform="translate(-341.612 -175.955)" opacity="0.1"/>
    <path id="Path_624" data-name="Path 624" d="M803.373,372.282a22.97,22.97,0,0,1-22.97,22.97,16,16,0,0,1-1.76-.064h0a22.97,22.97,0,1,1,24.737-22.905Z" transform="translate(-335.348 -157.879)" fill="#fdc2cc"/>
    <path id="Path_625" data-name="Path 625" d="M752.005,466.944l6.1,9.638L749.6,494.925l-10.12,7.389-1.767-11.45s-3.418-7.55-4.889-8.828c.424-1.034.713-1.51.713-1.131,0,1.606,3.952,8.835,3.952,8.835,12.208-4.176,8.417-20.4,8.417-20.4s-1.516-14.456-2.107-18.26l2.107.912Z" transform="translate(-326.547 -194.258)" opacity="0.1"/>
    <path id="Path_626" data-name="Path 626" d="M813.255,440.055v9l-9.316,3.039-15.87,11.681-4.208,3.1-18.793-7.55L753.18,446.789s.578-.315,1.581-.835l.642-.341c8.269,3.759,17.219,5.14,23.612,5.635a71.31,71.31,0,0,0,8.841.2c24.2-3.855,24.923-9.7,24.319-11.777Z" transform="translate(-333.826 -190.179)" opacity="0.1"/>
    <path id="Path_627" data-name="Path 627" d="M796.293,585.657a180.087,180.087,0,0,1-18.633,7.871c-11.083,4.016-35.5-1.285-38.551-2.088s-26.5-10.12-35.5-13.653-11.244-.642-13.332-.964-3.534-4.337-3.855-5.461,5.783-10.923,9.156-15.9,13.493-4.016,14.938-4.337,11.565,0,11.565,0-.642-3.213,3.052-12.208-6.1-25.7-6.1-25.7c-6.746-4.337-5.622-17.83-5.622-17.83-1.606-5.943,3.534-19.6,3.534-17.99s3.951,8.835,3.951,8.835c12.208-4.176,8.417-20.4,8.417-20.4s-1.767-16.866-2.236-18.954,2.236-1.767,2.236-1.767q.784.4,1.581.771c8.456,3.984,17.708,5.436,24.274,5.937a71.328,71.328,0,0,0,8.841.2c29.343-4.735,24.146-12.285,23.953-12.555l1.426.508c10.6,7.71,7.389,33.25,7.389,33.25L792.8,492.281l-2.949,14.2s10.441,63.287,11.4,66.5S796.293,585.657,796.293,585.657Z" transform="translate(-309.956 -190.104)" fill="#a92c3d"/>
    <path id="Path_628" data-name="Path 628" d="M733.176,622c-.643.482-7.871,15.42-2.57,19.6S733.176,622,733.176,622Z" transform="translate(-325.066 -255.36)" opacity="0.1"/>
    <path id="Path_629" data-name="Path 629" d="M743.68,625.27c.161.482,15.1,24.255,23.291,26.182Z" transform="translate(-330.429 -256.529)" opacity="0.1"/>
    <path id="Path_630" data-name="Path 630" d="M798.36,332.43l-2.39.508a16.111,16.111,0,0,1,2.018-.6Z" transform="translate(-349.122 -151.81)" opacity="0.1"/>
    <path id="Path_631" data-name="Path 631" d="M817.355,440.994l-4.5,19.05a23.271,23.271,0,0,1-6.245-4.183c-1.433-1.362-2.718-2.923-4.562-3.817-2.371-1.15-5.23-1-7.922-1.092a38.117,38.117,0,0,1-9.908-1.7,6.993,6.993,0,0,1-2.57-1.247c-1.529-1.349-1.426-3.527-1.285-5.429a83.253,83.253,0,0,0,.1-11.109c-.038-.694-.09-1.388-.148-2.082-.257-3.1-1.092-6.7-4.266-8.031-1.632-.643-3.579-.591-5.14-1.369a4.247,4.247,0,0,1-.643-.4c-2.313-1.619-2.525-4.864-2.435-7.595q.206-5.628.392-11.263a32.728,32.728,0,0,0-.122-5.558h0a12.344,12.344,0,0,0-1-3.547c-1.394-2.981-4.3-5.468-4.819-8.616a3.485,3.485,0,0,1-.058-.443c-.27-2.814,1.5-5.436,2.127-8.2,1.246-5.571-2.943-11.674-9.1-13.274-1.928-.5-4-.6-5.918-1.169a9.5,9.5,0,0,1-.906-.321c4.652-6.207,12.625-10.28,21.678-10.28,14.347,0,25.983,10.28,25.983,22.97a22.044,22.044,0,0,1-9.6,17.83c.038.18.083.366.135.546,1.51,5.84,6.194,11.957,6.194,11.957l14.547,4.626,1.619.514C820.992,415.467,817.355,440.994,817.355,440.994Z" transform="translate(-332.124 -157.88)" opacity="0.1"/>
    <path id="Path_632" data-name="Path 632" d="M867.771,520.685a2.177,2.177,0,0,1-.411-.058A.855.855,0,0,1,867.771,520.685Z" transform="translate(-374.643 -219.119)" opacity="0.1"/>
    <path id="Path_633" data-name="Path 633" d="M774.111,330.693a55.256,55.256,0,0,0-12.259-1.433,6.786,6.786,0,0,0-3.855.81c-1.42,1-1.6,2.795-2.024,4.35a12.066,12.066,0,0,1-4.594,6.425c-1.523,1.112-3.315,1.928-4.774,3.1s-2.57,2.9-2.2,4.613,2.287,3.026,4.215,3.572,3.977.643,5.918,1.169c6.162,1.6,10.344,7.71,9.1,13.268-.642,2.769-2.4,5.391-2.127,8.2.315,3.36,3.418,5.95,4.877,9.066,1.33,2.84,1.24,6.027,1.137,9.1l-.392,11.27c-.1,2.968.154,6.541,3.084,7.993,1.568.771,3.521.687,5.14,1.369,3.174,1.324,4.009,4.928,4.266,8.025a82.971,82.971,0,0,1,.051,13.191c-.148,1.928-.251,4.08,1.285,5.429a6.887,6.887,0,0,0,2.57,1.246,38.113,38.113,0,0,0,9.908,1.7c2.7.1,5.551-.051,7.922,1.092,1.844.893,3.129,2.461,4.562,3.817a25.212,25.212,0,0,0,14.893,6.522,4.437,4.437,0,0,0,3.367-.687c.829-.765.341-2.416-.842-2.319a5.712,5.712,0,0,0,5.41-2.069,4.562,4.562,0,0,0,0-5.249c-1.343-1.928-4.2-3.213-4.35-5.5-.083-1.285.771-2.448,1.439-3.592a15.105,15.105,0,0,0-2.339-17.99c-3.014-3.116-7.53-5.481-8.584-9.477-.7-2.673.36-5.481-.045-8.2-.642-4.5-5.1-7.71-7.543-11.719s-2.878-8.86-2.255-13.422,2.2-9,3.489-13.429c.957-3.309,1.748-6.823.681-10.107a18.516,18.516,0,0,0-4.118-6.264c-4.093-4.568-8.8-8.847-14.624-11.565s-12.914-3.772-19.1-1.76" transform="translate(-330.662 -150.709)" fill="#474157"/>
    <path id="Path_634" data-name="Path 634" d="M774.111,330.693a55.256,55.256,0,0,0-12.259-1.433,6.786,6.786,0,0,0-3.855.81c-1.42,1-1.6,2.795-2.024,4.35a12.066,12.066,0,0,1-4.594,6.425c-1.523,1.112-3.315,1.928-4.774,3.1s-2.57,2.9-2.2,4.613,2.287,3.026,4.215,3.572,3.977.643,5.918,1.169c6.162,1.6,10.344,7.71,9.1,13.268-.642,2.769-2.4,5.391-2.127,8.2.315,3.36,3.418,5.95,4.877,9.066,1.33,2.84,1.24,6.027,1.137,9.1l-.392,11.27c-.1,2.968.154,6.541,3.084,7.993,1.568.771,3.521.687,5.14,1.369,3.174,1.324,4.009,4.928,4.266,8.025a82.971,82.971,0,0,1,.051,13.191c-.148,1.928-.251,4.08,1.285,5.429a6.887,6.887,0,0,0,2.57,1.246,38.113,38.113,0,0,0,9.908,1.7c2.7.1,5.551-.051,7.922,1.092,1.844.893,3.129,2.461,4.562,3.817a25.212,25.212,0,0,0,14.893,6.522,4.437,4.437,0,0,0,3.367-.687c.829-.765.341-2.416-.842-2.319a5.712,5.712,0,0,0,5.41-2.069,4.562,4.562,0,0,0,0-5.249c-1.343-1.928-4.2-3.213-4.35-5.5-.083-1.285.771-2.448,1.439-3.592a15.105,15.105,0,0,0-2.339-17.99c-3.014-3.116-7.53-5.481-8.584-9.477-.7-2.673.36-5.481-.045-8.2-.642-4.5-5.1-7.71-7.543-11.719s-2.878-8.86-2.255-13.422,2.2-9,3.489-13.429c.957-3.309,1.748-6.823.681-10.107a18.516,18.516,0,0,0-4.118-6.264c-4.093-4.568-8.8-8.847-14.624-11.565s-12.914-3.772-19.1-1.76" transform="translate(-330.662 -150.709)" opacity="0.1"/>
    <path id="Path_635" data-name="Path 635" d="M737.18,551.174s5.461,2.088,11.244-3.695S737.18,551.174,737.18,551.174Z" transform="translate(-328.106 -228.051)" opacity="0.1"/>
    <g id="Group_253" data-name="Group 253" transform="translate(413.572 178.59)" opacity="0.1">
      <path id="Path_636" data-name="Path 636" d="M793.725,331.09a22.846,22.846,0,0,1,3.213-.4,24.366,24.366,0,0,0-4.5.141Z" transform="translate(-761.433 -329.792)"/>
      <path id="Path_637" data-name="Path 637" d="M808.688,448.082c-1.439-1.356-2.718-2.923-4.568-3.816-2.364-1.144-5.224-.989-7.922-1.092a37.907,37.907,0,0,1-9.908-1.7,6.888,6.888,0,0,1-2.57-1.247c-1.529-1.349-1.42-3.521-1.285-5.429a82.957,82.957,0,0,0-.051-13.191c-.263-3.1-1.092-6.7-4.273-8.025-1.626-.681-3.572-.6-5.14-1.369-2.93-1.452-3.212-5.024-3.09-7.993q.2-5.635.392-11.263c.109-3.078.193-6.264-1.137-9.1-1.458-3.116-4.562-5.7-4.877-9.066-.263-2.808,1.51-5.436,2.133-8.2,1.247-5.571-2.943-11.668-9.1-13.268-1.927-.5-4-.6-5.918-1.169s-3.784-1.786-4.183-3.534.739-3.444,2.2-4.62,3.251-1.985,4.78-3.1a12.022,12.022,0,0,0,4.588-6.425c.43-1.555.642-3.347,2.024-4.35a5.14,5.14,0,0,1,2.634-.771c-.572,0-1.144-.032-1.709-.032a6.835,6.835,0,0,0-3.855.8c-1.42,1-1.6,2.795-2.024,4.35a12.066,12.066,0,0,1-4.594,6.425c-1.523,1.112-3.315,1.928-4.774,3.1s-2.57,2.9-2.2,4.62,2.268,2.962,4.189,3.534,3.977.642,5.918,1.169c6.162,1.6,10.344,7.71,9.1,13.268-.643,2.769-2.4,5.4-2.127,8.2.315,3.367,3.418,5.95,4.877,9.066,1.33,2.84,1.247,6.027,1.137,9.1q-.2,5.628-.392,11.263c-.1,2.968.154,6.541,3.084,7.993,1.568.771,3.521.687,5.14,1.369,3.174,1.324,4.009,4.928,4.266,8.025a82.935,82.935,0,0,1,.051,13.191c-.148,1.928-.251,4.08,1.285,5.429a6.887,6.887,0,0,0,2.57,1.246,37.852,37.852,0,0,0,9.908,1.7c2.7.1,5.551-.051,7.922,1.092,1.844.893,3.129,2.461,4.568,3.816a25.174,25.174,0,0,0,14.887,6.522,6.881,6.881,0,0,0,2.152-.084A25.129,25.129,0,0,1,808.688,448.082Z" transform="translate(-744.18 -329.32)"/>
    </g>
    <path id="Path_638" data-name="Path 638" d="M686.947,484s-5.14,4.716-4.388,6.644S686.947,484,686.947,484Z" transform="translate(-308.552 -206.027)" opacity="0.1"/>
    <path id="Path_639" data-name="Path 639" d="M681.72,578.124c-3.707-.906-13.93-1.741-18.793,14.572a72.169,72.169,0,0,1-4.311,11.032c-4.665,9.58-10.691,29.279,15.812,33.616L738.036,651.8s34.053,4.176,36.3,2.57,1.928-5.14,1.928-5.14-37.587,0-44.976-11.565-7.71-27.307-7.71-27.307.925-24.306-37.908-31.367C684.386,578.747,683.037,578.445,681.72,578.124Z" transform="translate(-298.558 -239.53)" fill="#474157"/>
    <path id="Path_640" data-name="Path 640" d="M681.72,578.294c-3.707-.906-13.93-1.741-18.793,14.579a72.168,72.168,0,0,1-4.311,11.032c-4.665,9.573-10.691,29.273,15.812,33.61l63.609,14.457s34.053,4.176,36.3,2.57,1.928-5.14,1.928-5.14-37.587,0-44.976-11.565-7.71-27.307-7.71-27.307.925-24.306-37.908-31.367C684.386,578.917,683.037,578.6,681.72,578.294Z" transform="translate(-298.558 -239.59)" opacity="0.1"/>
    <path id="Path_641" data-name="Path 641" d="M854.994,547.86a9.824,9.824,0,0,0-9.927-8.3c-9.149.167-37.311,1.388-50.392,9.933,0,0-9.959,6.425-12.85,6.425s-42.085,33.411,16.063,63.287c0,0,31.162,8.867,43.37-11.951,0,0,8.674-22.359,8.031-30.1s5.783-28.624,5.783-28.624S855.059,548.278,854.994,547.86Z" transform="translate(-338.492 -225.887)" fill="#474157"/>
    <path id="Path_642" data-name="Path 642" d="M854.994,556.974c-.733-4.5-5.012-7.749-9.927-7.665-9.149.154-37.31,1.285-50.392,9.169,0,0-9.959,5.93-12.85,5.93s-42.085,30.841,16.063,58.424c0,0,31.162,8.185,43.37-11.032,0,0,8.674-20.644,8.031-27.789s5.783-26.42,5.783-26.42S855.059,557.36,854.994,556.974Z" transform="translate(-338.492 -229.373)" opacity="0.1"/>
    <rect id="Rectangle_249" data-name="Rectangle 249" width="10.28" height="21.89" transform="translate(475.137 393.311)" fill="#5f5d7e"/>
    <ellipse id="Ellipse_121" data-name="Ellipse 121" cx="28.939" cy="1.857" rx="28.939" ry="1.857" transform="translate(80.442 300.583)" opacity="0.1"/>
    <path id="Path_643" data-name="Path 643" d="M286.233,407.956a11.036,11.036,0,0,0-1.465,2.756c-.09.244-.18.514-.27.777a2.37,2.37,0,0,0-.508-.173,7.288,7.288,0,0,0-2.294-.2c0-.3.039-.642.045-.938.1-3.386-.3-8.108-3.534-6.11-3.1,1.928-.887,5.14,1.112,7.2l.514.5c-1.825,1.285-2.172,4.324-2.474,7.479s-2.981,6.611-4.761,8.571c-.18.2-.341.379-.5.546a6.5,6.5,0,0,0-5.172-1.33c-.071-.276-.154-.565-.238-.874-1.439-5.191-4.427-14.193-8.237-16.166l.5-.643c1.619-2.12,3.444-5.262.752-6.072s-2.936,2.731-2.789,5.378c0,.334.051.642.077.938a3.964,3.964,0,0,0-2.814,1.375l-.418-.488c-2.185-2.57-6.187-6.663-7.4-3.572-1.131,2.878,2.4,6.611,4.877,8.777l.154.135c-1.664,6.766,5.583,12.291,9.516,14.681l.508.308c-5.4,6.361-8.732,18.279-8.732,18.279l15.112,2.7s10.023-8.642,8.738-16.763h.1c10.017-2,12.291-12.683,10.73-19.025l.18-.071a11.4,11.4,0,0,0,4.639-3.508C294.984,408.527,289.1,404.133,286.233,407.956Z" transform="translate(-152.565 -177.13)" fill="#a92c3d"/>
    <path id="Path_644" data-name="Path 644" d="M286.233,407.956a11.036,11.036,0,0,0-1.465,2.756c-.09.244-.18.514-.27.777a2.37,2.37,0,0,0-.508-.173,7.288,7.288,0,0,0-2.294-.2c0-.3.039-.642.045-.938.1-3.386-.3-8.108-3.534-6.11-3.1,1.928-.887,5.14,1.112,7.2l.514.5c-1.825,1.285-2.172,4.324-2.474,7.479s-2.981,6.611-4.761,8.571c-.18.2-.341.379-.5.546a6.5,6.5,0,0,0-5.172-1.33c-.071-.276-.154-.565-.238-.874-1.439-5.191-4.427-14.193-8.237-16.166l.5-.643c1.619-2.12,3.444-5.262.752-6.072s-2.936,2.731-2.789,5.378c0,.334.051.642.077.938a3.964,3.964,0,0,0-2.814,1.375l-.418-.488c-2.185-2.57-6.187-6.663-7.4-3.572-1.131,2.878,2.4,6.611,4.877,8.777l.154.135c-1.664,6.766,5.583,12.291,9.516,14.681l.508.308c-5.4,6.361-8.732,18.279-8.732,18.279l15.112,2.7s10.023-8.642,8.738-16.763h.1c10.017-2,12.291-12.683,10.73-19.025l.18-.071a11.4,11.4,0,0,0,4.639-3.508C294.984,408.527,289.1,404.133,286.233,407.956Z" transform="translate(-152.565 -177.13)" opacity="0.1"/>
    <path id="Path_645" data-name="Path 645" d="M256.676,413.784l-1.748,5.172s-.983-.694-2.223-1.786c-2.48-2.165-6.007-5.9-4.877-8.777,1.214-3.09,5.217.989,7.4,3.572C256.092,412.987,256.676,413.784,256.676,413.784Z" transform="translate(-153.091 -178.601)" fill="#a92c3d"/>
    <path id="Path_646" data-name="Path 646" d="M266.369,409.37a25.011,25.011,0,0,1-1.722,2.024,27.13,27.13,0,0,1-.315-2.718c-.148-2.647.135-6.162,2.788-5.378S267.963,407.249,266.369,409.37Z" transform="translate(-159.057 -177.137)" fill="#a92c3d"/>
    <path id="Path_647" data-name="Path 647" d="M300.178,410.415c-.051,1.7-.218,3.058-.218,3.058a21.837,21.837,0,0,1-2.2-1.966c-2-2.075-4.208-5.275-1.112-7.2C299.869,402.307,300.268,407.029,300.178,410.415Z" transform="translate(-170.069 -177.366)" fill="#a92c3d"/>
    <path id="Path_648" data-name="Path 648" d="M314.628,414.253a11.4,11.4,0,0,1-4.652,3.5,12.97,12.97,0,0,1-1.555.559l-2.082-2.923a21.24,21.24,0,0,1,.861-2.84,11.04,11.04,0,0,1,1.465-2.756C311.557,405.977,317.43,410.372,314.628,414.253Z" transform="translate(-174.085 -178.974)" fill="#a92c3d"/>
    <path id="Path_649" data-name="Path 649" d="M258.046,414.57c.88,1.022,1.465,1.818,1.465,1.818l-1.748,5.172s-.983-.694-2.223-1.786a10.119,10.119,0,0,1,1.992-4.543A6.03,6.03,0,0,1,258.046,414.57Z" transform="translate(-155.925 -181.206)" opacity="0.1"/>
    <path id="Path_650" data-name="Path 650" d="M266.387,412.424a24.99,24.99,0,0,1-1.722,2.024,27.107,27.107,0,0,1-.315-2.718,3.508,3.508,0,0,1,2.037.694Z" transform="translate(-159.075 -180.191)" opacity="0.1"/>
    <path id="Path_651" data-name="Path 651" d="M271.823,433.471l-4.395,1.927s-.957-.463-2.339-1.324c-4.62-2.846-13.9-10-7.678-18.427s11.417,6.7,13.461,14.084C271.521,431.948,271.823,433.471,271.823,433.471Z" transform="translate(-155.85 -180.703)" fill="#a92c3d"/>
    <path id="Path_652" data-name="Path 652" d="M299.22,415.172a3.578,3.578,0,0,1,2.422-1.092c-.051,1.7-.218,3.058-.218,3.058a21.853,21.853,0,0,1-2.2-1.966Z" transform="translate(-171.54 -181.031)" opacity="0.1"/>
    <path id="Path_653" data-name="Path 653" d="M309.977,420.1a12.97,12.97,0,0,1-1.555.559l-2.082-2.923a21.241,21.241,0,0,1,.861-2.84C308.557,415.7,309.546,417.644,309.977,420.1Z" transform="translate(-174.085 -181.324)" opacity="0.1"/>
    <path id="Path_654" data-name="Path 654" d="M290.084,439.416l-.739.128c-14.733,2.242-4.857-5.706-4.857-5.706s.642-.61,1.561-1.613c1.78-1.96,4.453-5.4,4.761-8.571.463-4.774,1-9.252,6.631-7.935C303,417.012,304.058,436.621,290.084,439.416Z" transform="translate(-165.115 -181.534)" fill="#a92c3d"/>
    <rect id="Rectangle_250" data-name="Rectangle 250" width="28.148" height="7.402" transform="translate(96.569 294.557)" fill="#474157"/>
    <rect id="Rectangle_251" data-name="Rectangle 251" width="36.777" height="25.829" transform="translate(92.098 270.501)" fill="#474157"/>
    <rect id="Rectangle_252" data-name="Rectangle 252" width="28.148" height="7.402" transform="translate(96.3 294.557)" opacity="0.1"/>
    <rect id="Rectangle_253" data-name="Rectangle 253" width="36.777" height="25.829" transform="translate(91.982 270.507)" opacity="0.1"/>
    <rect id="Rectangle_254" data-name="Rectangle 254" width="28.148" height="7.402" transform="translate(98.42 294.557)" fill="#474157"/>
    <path id="Path_655" data-name="Path 655" d="M276.343,439c.643,2.21.951,3.733.951,3.733L272.9,444.66s-.957-.463-2.339-1.324C272.282,441.133,274.222,439.482,276.343,439Z" transform="translate(-161.294 -189.94)" opacity="0.1"/>
    <path id="Path_656" data-name="Path 656" d="M290.084,448.73l-.739.129c-14.733,2.242-4.857-5.706-4.857-5.706s.642-.61,1.561-1.613A9.7,9.7,0,0,1,290.084,448.73Z" transform="translate(-165.115 -190.848)" opacity="0.1"/>
    <path id="Path_657" data-name="Path 657" d="M257.76,462.309s8.25-29.555,19.821-20.432-4.71,23.13-4.71,23.13Z" transform="translate(-156.719 -190.343)" fill="#a92c3d"/>
    <circle id="Ellipse_122" data-name="Ellipse 122" cx="0.925" cy="0.925" r="0.925" transform="translate(104.28 238.652)" opacity="0.1"/>
    <circle id="Ellipse_123" data-name="Ellipse 123" cx="0.925" cy="0.925" r="0.925" transform="translate(104.203 242.976)" opacity="0.1"/>
    <circle id="Ellipse_124" data-name="Ellipse 124" cx="0.925" cy="0.925" r="0.925" transform="translate(131.04 239.5)" opacity="0.1"/>
    <circle id="Ellipse_125" data-name="Ellipse 125" cx="0.925" cy="0.925" r="0.925" transform="translate(109.445 261.634)" opacity="0.1"/>
    <circle id="Ellipse_126" data-name="Ellipse 126" cx="0.925" cy="0.925" r="0.925" transform="translate(129.113 246.677)" opacity="0.1"/>
    <circle id="Ellipse_127" data-name="Ellipse 127" cx="0.925" cy="0.925" r="0.925" transform="translate(119.552 256.237)" opacity="0.1"/>
    <circle id="Ellipse_128" data-name="Ellipse 128" cx="0.925" cy="0.925" r="0.925" transform="translate(107.441 240.502)" opacity="0.1"/>
    <circle id="Ellipse_129" data-name="Ellipse 129" cx="0.925" cy="0.925" r="0.925" transform="translate(128.496 242.282)" opacity="0.1"/>
    <circle id="Ellipse_130" data-name="Ellipse 130" cx="0.925" cy="0.925" r="0.925" transform="translate(125.335 249.452)" opacity="0.1"/>
    <circle id="Ellipse_131" data-name="Ellipse 131" cx="0.925" cy="0.925" r="0.925" transform="translate(115.614 260.94)" opacity="0.1"/>
    <circle id="Ellipse_132" data-name="Ellipse 132" cx="0.925" cy="0.925" r="0.925" transform="translate(113.609 256.391)" opacity="0.1"/>
    <circle id="Ellipse_133" data-name="Ellipse 133" cx="0.925" cy="0.925" r="0.925" transform="translate(108.829 246.137)" opacity="0.1"/>
    <rect id="Rectangle_255" data-name="Rectangle 255" width="28.148" height="2.705" transform="translate(98.42 294.557)" opacity="0.1"/>
    <rect id="Rectangle_256" data-name="Rectangle 256" width="36.777" height="25.829" transform="translate(93.948 270.501)" fill="#474157"/>
    <circle id="Ellipse_134" data-name="Ellipse 134" cx="0.925" cy="0.925" r="0.925" transform="translate(116.847 265.104)" opacity="0.1"/>
    <circle id="Ellipse_135" data-name="Ellipse 135" cx="0.925" cy="0.925" r="0.925" transform="translate(111.296 266.26)" opacity="0.1"/>
    <path id="Path_658" data-name="Path 658" d="M405.376,626s4.581,5.995-2.114,15.041-12.208,16.705-10,22.334c0,0,10.113-16.808,18.344-17.039S414.429,636.113,405.376,626Z" transform="translate(-204.983 -256.79)" fill="#a92c3d"/>
    <path id="Path_659" data-name="Path 659" d="M405.516,626a7.384,7.384,0,0,1,.938,1.876c8.025,9.432,12.3,18.235,4.588,18.459-7.19.225-15.812,13.075-17.881,16.288.071.251.154.5.244.739,0,0,10.113-16.808,18.344-17.039S414.569,636.113,405.516,626Z" transform="translate(-205.123 -256.79)" opacity="0.1"/>
    <path id="Path_660" data-name="Path 660" d="M425.064,637.148c0,2.107-.238,3.817-.527,3.817s-.527-1.709-.527-3.817.3-1.118.585-1.118S425.064,635.034,425.064,637.148Z" transform="translate(-216.151 -260.292)" fill="#ffd037"/>
    <path id="Path_661" data-name="Path 661" d="M428.189,641.014c-1.85,1.009-3.463,1.619-3.6,1.362s1.246-1.285,3.1-2.294,1.118-.276,1.285,0S430.046,640.006,428.189,641.014Z" transform="translate(-216.353 -261.64)" fill="#ffd037"/>
    <path id="Path_662" data-name="Path 662" d="M368.974,626s-4.581,5.995,2.114,15.041,12.208,16.705,9.991,22.334c0,0-10.107-16.808-18.337-17.039S359.921,636.113,368.974,626Z" transform="translate(-192.798 -256.79)" fill="#a92c3d"/>
    <path id="Path_663" data-name="Path 663" d="M368.974,626a7.386,7.386,0,0,0-.938,1.876c-8.025,9.432-12.3,18.235-4.588,18.459,7.19.225,15.812,13.075,17.881,16.288a7.135,7.135,0,0,1-.251.739s-10.107-16.8-18.337-17.02S359.921,636.113,368.974,626Z" transform="translate(-192.798 -256.79)" opacity="0.1"/>
    <path id="Path_664" data-name="Path 664" d="M361.44,637.148c0,2.107.238,3.817.527,3.817s.527-1.709.527-3.817-.3-1.118-.585-1.118S361.44,635.034,361.44,637.148Z" transform="translate(-193.783 -260.292)" fill="#ffd037"/>
    <path id="Path_665" data-name="Path 665" d="M356.249,641.014c1.85,1.009,3.463,1.619,3.6,1.362s-1.246-1.285-3.1-2.294-1.118-.276-1.285,0S354.392,640.006,356.249,641.014Z" transform="translate(-191.516 -261.64)" fill="#ffd037"/>
    <ellipse id="Ellipse_136" data-name="Ellipse 136" cx="47.931" cy="7.357" rx="47.931" ry="7.357" transform="translate(140.35 437.74)" fill="#a92c3d" opacity="0.1"/>
    <path id="Path_666" data-name="Path 666" d="M404.483,670.051l-.231,1.87-.321,2.647-.128,1.1-.328,2.647-.135,1.105-.321,2.641-3.637,30.07c-.328,2.686-4.716,4.774-10,4.774h-19.1c-5.294,0-9.638-2.088-10-4.774l-3.675-30.07-.321-2.641-.135-1.105-.328-2.647-.128-1.1-.321-2.647-.231-1.87c-.186-1.516,2.185-2.8,5.185-2.8H399.3C402.292,667.25,404.669,668.535,404.483,670.051Z" transform="translate(-191.529 -271.536)" fill="#65617d"/>
    <path id="Path_667" data-name="Path 667" d="M303.886,623.15l-.321,2.641H255.331l-.321-2.641Z" transform="translate(-91.163 -222.765)" fill="#9d9cb5"/>
    <path id="Path_668" data-name="Path 668" d="M303.686,628.98l-.321,2.647H256.038l-.328-2.647Z" transform="translate(-91.413 -224.85)" fill="#9d9cb5"/>
    <path id="Path_669" data-name="Path 669" d="M303.481,634.81l-.321,2.647H256.751l-.321-2.647Z" transform="translate(-91.671 -226.934)" fill="#9d9cb5"/>
  </g>
</svg>
