<svg xmlns="http://www.w3.org/2000/svg" width="116.238" height="116.244" viewBox="0 0 116.238 116.244">
  <path id="合体_4" data-name="合体 4" d="M58.388,113.307c-.878.043-1.764.069-2.649.067s-1.768-.023-2.644-.067v2.93A55.8,55.8,0,0,1,0,63.15H2.938q-.065-1.315-.066-2.646t.066-2.646H0A55.8,55.8,0,0,1,50.45,4.951v5.9a49.928,49.928,0,1,0,54.932,54.933h5.9a55.8,55.8,0,0,1-52.9,50.457Zm-19.4-16.887-1.488,3.2c-1.265-.59-2.511-1.221-3.721-1.935A43.125,43.125,0,0,1,27.566,93.2l2.3-2.668-.009.005-.234-.2-.038-.033c-.646-.57-1.27-1.154-1.879-1.763l-.068-.071c-.07-.077-.141-.15-.216-.223q-.787-.807-1.527-1.651c-.061-.071-.13-.136-.192-.207l.009-.009-2.672,2.3a42.839,42.839,0,0,1-6.424-9.929L19.8,77.257c-.391-.846-.77-1.7-1.1-2.576A39.7,39.7,0,0,1,38.143,24.959v3.987A36.161,36.161,0,0,0,21.981,73.418c.311.81.661,1.6,1.022,2.375a36.252,36.252,0,0,0,2.9,5.081c.111.162.219.324.333.483q.285.4.584.8c.165.218.333.434.507.656s.347.442.527.66c.225.274.457.544.692.809.147.164.292.329.438.491.392.432.793.859,1.211,1.273.587.588,1.2,1.15,1.821,1.694a36.247,36.247,0,0,0,5.351,3.874c.545.327,1.1.619,1.661.911q.716.363,1.438.7a36.065,36.065,0,0,0,46.8-15.128h3.989A39.566,39.566,0,0,1,38.985,96.421ZM53.97,88.046A27.608,27.608,0,0,1,50.449,33.4v6.04A21.732,21.732,0,1,0,76.8,65.786h6.036A27.607,27.607,0,0,1,55.763,88.1Q54.872,88.1,53.97,88.046ZM41.639,60.5a14.1,14.1,0,0,1,28.2,0v0a14.1,14.1,0,1,1-28.2,0ZM89.7,72.81a35.967,35.967,0,0,0,1.745-7.025l3.559,0a39.554,39.554,0,0,1-1.583,7.02ZM55.738,25.845v-9.4l0,0A44.053,44.053,0,0,1,99.79,60.5l-9.4.005A34.65,34.65,0,0,0,55.738,25.845Zm0-15.271V0A60.1,60.1,0,0,1,98.518,17.719v0A60.106,60.106,0,0,1,116.238,60.5l-10.574,0A49.923,49.923,0,0,0,55.739,10.574ZM76.3,60.5a20.56,20.56,0,0,0-20.56-20.55V31.722A28.784,28.784,0,0,1,84.52,60.5ZM43.428,22.8a39.394,39.394,0,0,1,7.023-1.57v3.558a35.787,35.787,0,0,0-7.023,1.731Z" fill="#ffffff11"/>
</svg>
