<svg xmlns="http://www.w3.org/2000/svg" width="134.601" height="134.598" viewBox="0 0 134.601 134.598">
  <g id="Icon" transform="translate(0 0)">
    <path id="パス_191" data-name="パス 191" d="M115.361,31.97A108.443,108.443,0,0,0,38.174,0V19.08a90.076,90.076,0,0,1,90.08,90.085l19.079-.005a108.451,108.451,0,0,0-31.973-77.192" transform="translate(-12.733)" fill="#fff"/>
    <path id="パス_192" data-name="パス 192" d="M38.173,11.264V28.22A62.52,62.52,0,0,1,100.7,90.758l16.956-.011A79.485,79.485,0,0,0,38.178,11.267" transform="translate(-12.734 18.412)" fill="#fff"/>
    <path id="パス_193" data-name="パス 193" d="M74.893,36.938a51.611,51.611,0,0,0-36.72-15.212v14.84a37.1,37.1,0,0,1,37.1,37.078l14.835,0a51.592,51.592,0,0,0-15.212-36.71" transform="translate(-12.734 35.51)" fill="#fff"/>
    <path id="パス_194" data-name="パス 194" d="M79.39,57.216a25.433,25.433,0,1,1,0-.006" transform="translate(-28.517 51.945)" fill="#fff"/>
  </g>
</svg>
