<?xml version="1.0" encoding="UTF-8"?>
<!DOCTYPE svg PUBLIC "-//W3C//DTD SVG 1.1//EN" "http://www.w3.org/Graphics/SVG/1.1/DTD/svg11.dtd">
<svg version="1.1" xmlns="http://www.w3.org/2000/svg" xmlns:xlink="http://www.w3.org/1999/xlink" x="0" y="0" width="600" height="350" viewBox="0, 0, 600, 350">
  <g id="レイヤー_1">
    <g>
      <path d="M229.273,168.802 C229.264,168.584 229.257,168.367 229.245,168.149 C229.212,167.494 229.164,166.84 229.104,166.186 C229.103,166.165 229.101,166.145 229.098,166.124 C228.239,156.851 224.711,147.759 218.393,140.178 C210.409,130.598 199.266,124.816 187.015,123.895 C174.822,122.972 163.031,126.991 153.792,135.193 L125.303,160.481 L96.281,135.856 C86.875,127.874 74.999,124.128 62.848,125.316 C50.61,126.51 39.586,132.546 31.806,142.312 C25.654,150.034 22.324,159.203 21.664,168.491 C21.662,168.517 21.66,168.544 21.658,168.57 C21.613,169.22 21.58,169.87 21.56,170.52 C21.553,170.743 21.551,170.965 21.547,171.188 C21.54,171.64 21.536,172.091 21.541,172.543 C21.545,172.971 21.559,173.399 21.574,173.827 C21.584,174.073 21.592,174.319 21.605,174.565 C21.638,175.192 21.684,175.818 21.74,176.444 C21.745,176.493 21.749,176.541 21.753,176.59 C22.618,185.851 26.145,194.933 32.457,202.505 C40.44,212.085 51.585,217.869 63.836,218.789 C64.976,218.874 66.112,218.917 67.244,218.917 C78.205,218.917 88.684,214.925 97.057,207.492 L119.575,187.504 L106.938,176.783 L86.165,195.221 C80.276,200.449 72.773,203.012 65.067,202.429 C58.967,201.971 53.291,199.592 48.656,195.635 L48.676,195.611 C47.152,194.317 45.794,192.893 44.587,191.374 C44.444,191.194 44.312,191.008 44.175,190.825 C43.71,190.212 43.261,189.59 42.848,188.948 C42.713,188.739 42.592,188.523 42.462,188.311 C42.07,187.669 41.692,187.02 41.35,186.355 C41.245,186.15 41.153,185.941 41.053,185.734 C40.719,185.047 40.4,184.354 40.119,183.646 C40.04,183.445 39.974,183.242 39.899,183.041 C39.631,182.323 39.378,181.6 39.164,180.866 C39.098,180.641 39.048,180.413 38.987,180.187 C38.798,179.477 38.621,178.765 38.481,178.045 C38.423,177.747 38.386,177.448 38.337,177.149 C38.23,176.503 38.13,175.855 38.063,175.203 C38.022,174.79 38.005,174.376 37.981,173.962 C37.948,173.425 37.911,172.889 37.904,172.351 C37.899,171.805 37.924,171.26 37.947,170.715 C37.963,170.308 37.97,169.902 38.002,169.495 C38.055,168.834 38.143,168.177 38.237,167.52 C38.279,167.229 38.309,166.936 38.359,166.645 C38.484,165.915 38.647,165.19 38.824,164.469 C38.878,164.25 38.922,164.029 38.98,163.81 C39.182,163.062 39.421,162.326 39.676,161.594 C39.745,161.399 39.803,161.202 39.875,161.009 C40.144,160.286 40.452,159.578 40.775,158.875 C40.867,158.675 40.951,158.472 41.047,158.273 C41.379,157.59 41.748,156.924 42.133,156.264 C42.252,156.059 42.363,155.85 42.488,155.646 C42.894,154.985 43.335,154.342 43.794,153.71 C43.921,153.534 44.041,153.356 44.173,153.182 C45.348,151.633 46.679,150.174 48.179,148.843 L48.157,148.819 C52.712,144.75 58.344,142.24 64.441,141.644 C72.142,140.901 79.675,143.281 85.667,148.365 L112.911,171.481 L125.547,182.203 L137.939,171.203 L164.684,147.463 C170.574,142.234 178.075,139.684 185.784,140.254 C191.883,140.713 197.559,143.092 202.193,147.049 L202.173,147.074 C203.7,148.369 205.062,149.796 206.27,151.318 C206.404,151.489 206.529,151.665 206.66,151.837 C207.132,152.459 207.586,153.092 208.006,153.744 C208.135,153.943 208.251,154.149 208.374,154.351 C208.772,155.003 209.157,155.661 209.504,156.338 C209.603,156.531 209.69,156.729 209.785,156.925 C210.124,157.623 210.448,158.328 210.734,159.047 C210.808,159.233 210.869,159.423 210.939,159.611 C211.214,160.343 211.471,161.081 211.689,161.83 C211.749,162.037 211.795,162.246 211.851,162.453 C212.047,163.181 212.228,163.913 212.371,164.652 C212.424,164.927 212.458,165.205 212.504,165.481 C212.615,166.15 212.719,166.821 212.787,167.496 C212.826,167.882 212.84,168.27 212.864,168.658 C212.901,169.221 212.938,169.785 212.945,170.351 C212.95,170.867 212.925,171.382 212.905,171.897 C212.888,172.334 212.88,172.771 212.846,173.207 C212.795,173.837 212.71,174.463 212.622,175.089 C212.577,175.412 212.542,175.737 212.487,176.059 C212.366,176.759 212.209,177.453 212.041,178.145 C211.98,178.394 211.93,178.646 211.864,178.894 C211.67,179.614 211.438,180.324 211.193,181.029 C211.116,181.25 211.049,181.474 210.967,181.694 C210.706,182.393 210.408,183.078 210.097,183.758 C209.995,183.981 209.901,184.207 209.794,184.428 C209.471,185.091 209.111,185.739 208.74,186.38 C208.61,186.604 208.488,186.83 208.352,187.051 C207.955,187.698 207.523,188.326 207.076,188.945 C206.94,189.134 206.809,189.326 206.668,189.512 C205.495,191.058 204.167,192.513 202.671,193.841 L202.692,193.865 C198.137,197.934 192.504,200.445 186.407,201.04 C178.71,201.785 171.174,199.402 165.182,194.32 L163.284,192.709 L176.441,186.6 L137.724,179.584 L148.472,217.435 L152.937,205.444 L154.568,206.828 C162.834,213.842 173.003,217.582 183.594,217.582 C185.056,217.582 186.526,217.511 188,217.368 C200.239,216.174 211.263,210.137 219.044,200.37 C225.188,192.658 228.518,183.5 229.183,174.223 C229.187,174.169 229.19,174.115 229.194,174.061 C229.236,173.439 229.269,172.817 229.287,172.194 C229.296,171.943 229.299,171.692 229.303,171.441 C229.309,171.018 229.313,170.594 229.308,170.171 C229.304,169.715 229.29,169.258 229.273,168.802" fill="#29ABE2"/>
      <path d="M263.386,112.648 C263.476,114.32 263.856,115.678 264.526,116.721 C265.801,118.674 268.05,119.651 271.271,119.651 C272.714,119.651 274.028,119.437 275.214,119.009 C277.507,118.179 278.654,116.695 278.654,114.554 C278.654,112.949 278.168,111.806 277.196,111.124 C276.211,110.455 274.669,109.873 272.57,109.378 L268.702,108.475 C266.175,107.887 264.388,107.238 263.338,106.529 C261.524,105.298 260.617,103.459 260.617,101.012 C260.617,98.364 261.509,96.189 263.291,94.491 C265.075,92.793 267.6,91.943 270.867,91.943 C273.874,91.943 276.428,92.689 278.53,94.18 C280.632,95.672 281.683,98.056 281.683,101.333 L277.932,101.333 C277.739,99.755 277.329,98.543 276.701,97.701 C275.533,96.163 273.552,95.394 270.757,95.394 C268.499,95.394 266.877,95.889 265.89,96.879 C264.902,97.869 264.409,99.019 264.409,100.33 C264.409,101.774 264.992,102.831 266.159,103.499 C266.923,103.928 268.653,104.463 271.348,105.105 L275.353,106.048 C277.284,106.502 278.775,107.124 279.824,107.913 C281.639,109.291 282.546,111.291 282.546,113.912 C282.546,117.176 281.388,119.51 279.073,120.914 C276.758,122.319 274.067,123.021 271.002,123.021 C267.427,123.021 264.63,122.085 262.608,120.212 C260.585,118.353 259.594,115.832 259.634,112.648 z" fill="#29ABE2"/>
      <path d="M287.702,100.671 L291.274,100.671 L291.274,103.72 C292.129,102.664 292.906,101.895 293.601,101.413 C294.791,100.597 296.142,100.189 297.654,100.189 C299.366,100.189 300.743,100.61 301.787,101.453 C302.375,101.935 302.91,102.644 303.391,103.58 C304.194,102.43 305.137,101.577 306.22,101.022 C307.304,100.467 308.521,100.189 309.872,100.189 C312.761,100.189 314.727,101.232 315.771,103.319 C316.333,104.443 316.613,105.954 316.613,107.853 L316.613,122.158 L312.862,122.158 L312.862,107.231 C312.862,105.8 312.504,104.817 311.788,104.282 C311.072,103.747 310.2,103.48 309.17,103.48 C307.752,103.48 306.532,103.955 305.508,104.904 C304.485,105.854 303.973,107.439 303.973,109.659 L303.973,122.158 L300.302,122.158 L300.302,108.134 C300.302,106.677 300.128,105.613 299.78,104.944 C299.232,103.941 298.209,103.439 296.711,103.439 C295.346,103.439 294.106,103.968 292.989,105.024 C291.872,106.081 291.314,107.994 291.314,110.763 L291.314,122.158 L287.702,122.158 z" fill="#29ABE2"/>
      <path d="M325.842,118.91 C326.605,119.51 327.508,119.811 328.551,119.811 C329.822,119.811 331.053,119.517 332.242,118.93 C334.249,117.955 335.252,116.359 335.252,114.142 L335.252,111.238 C334.812,111.52 334.245,111.755 333.549,111.942 C332.856,112.13 332.176,112.264 331.507,112.344 L329.325,112.624 C328.017,112.798 327.033,113.072 326.374,113.445 C325.257,114.073 324.699,115.074 324.699,116.448 C324.699,117.489 325.081,118.31 325.842,118.91 M333.447,109.154 C334.276,109.047 334.831,108.7 335.112,108.113 C335.272,107.791 335.352,107.328 335.352,106.723 C335.352,105.488 334.916,104.592 334.041,104.034 C333.167,103.477 331.915,103.199 330.286,103.199 C328.405,103.199 327.07,103.71 326.281,104.731 C325.841,105.296 325.555,106.136 325.421,107.252 L322.05,107.252 C322.118,104.595 322.975,102.748 324.625,101.708 C326.276,100.669 328.189,100.149 330.367,100.149 C332.891,100.149 334.942,100.631 336.518,101.593 C338.082,102.557 338.863,104.054 338.863,106.088 L338.863,118.468 C338.863,118.842 338.94,119.144 339.095,119.37 C339.248,119.597 339.573,119.711 340.068,119.711 C340.228,119.711 340.408,119.7 340.608,119.681 C340.81,119.66 341.023,119.631 341.251,119.591 L341.251,122.259 C340.69,122.419 340.261,122.519 339.967,122.559 C339.673,122.599 339.272,122.62 338.763,122.62 C337.519,122.62 336.616,122.178 336.055,121.296 C335.761,120.828 335.553,120.166 335.433,119.31 C334.697,120.273 333.641,121.109 332.262,121.817 C330.885,122.526 329.367,122.881 327.708,122.881 C325.715,122.881 324.086,122.276 322.823,121.067 C321.559,119.858 320.927,118.346 320.927,116.528 C320.927,114.538 321.549,112.995 322.792,111.9 C324.037,110.804 325.668,110.13 327.689,109.875 z" fill="#29ABE2"/>
      <path d="M344.882,100.671 L348.313,100.671 L348.313,104.382 C348.594,103.66 349.283,102.78 350.38,101.744 C351.476,100.708 352.74,100.189 354.172,100.189 C354.238,100.189 354.352,100.196 354.513,100.209 C354.673,100.223 354.948,100.249 355.335,100.289 L355.335,104.102 C355.122,104.061 354.924,104.035 354.744,104.021 C354.563,104.008 354.366,104.001 354.152,104.001 C352.333,104.001 350.934,104.586 349.958,105.756 C348.982,106.927 348.493,108.275 348.493,109.799 L348.493,122.158 L344.882,122.158 z" fill="#29ABE2"/>
      <path d="M361.129,94.672 L364.78,94.672 L364.78,100.671 L368.211,100.671 L368.211,103.62 L364.78,103.62 L364.78,117.644 C364.78,118.393 365.034,118.895 365.543,119.149 C365.823,119.296 366.292,119.369 366.947,119.369 C367.121,119.369 367.308,119.365 367.509,119.356 C367.71,119.348 367.944,119.325 368.211,119.289 L368.211,122.158 C367.797,122.279 367.366,122.366 366.918,122.419 C366.469,122.473 365.985,122.499 365.462,122.499 C363.778,122.499 362.634,122.068 362.032,121.205 C361.43,120.343 361.129,119.222 361.129,117.845 L361.129,103.62 L358.22,103.62 L358.22,100.671 L361.129,100.671 z" fill="#29ABE2"/>
      <path d="M382.982,94.11 C383.825,92.879 385.45,92.264 387.857,92.264 C388.085,92.264 388.319,92.271 388.56,92.284 C388.801,92.297 389.075,92.318 389.382,92.345 L389.382,95.635 C389.003,95.608 388.73,95.591 388.561,95.585 C388.392,95.578 388.233,95.575 388.084,95.575 C386.975,95.575 386.311,95.859 386.095,96.427 C385.879,96.996 385.772,98.444 385.772,100.771 L389.382,100.771 L389.382,103.62 L385.772,103.62 L385.772,122.158 L382.199,122.158 L382.199,103.62 L379.21,103.62 L379.21,100.771 L382.199,100.771 L382.199,97.4 C382.253,95.903 382.515,94.805 382.982,94.11" fill="#29ABE2"/>
      <path d="M392.814,100.671 L396.244,100.671 L396.244,104.382 C396.525,103.66 397.214,102.78 398.31,101.744 C399.407,100.708 400.671,100.189 402.102,100.189 C402.169,100.189 402.283,100.196 402.444,100.209 C402.604,100.223 402.879,100.249 403.266,100.289 L403.266,104.102 C403.052,104.061 402.855,104.035 402.674,104.021 C402.494,104.008 402.297,104.001 402.083,104.001 C400.264,104.001 398.866,104.586 397.889,105.756 C396.913,106.927 396.425,108.275 396.425,109.799 L396.425,122.158 L392.814,122.158 z" fill="#29ABE2"/>
      <path d="M419.722,117.096 C420.603,115.286 421.042,113.272 421.042,111.054 C421.042,109.05 420.725,107.42 420.089,106.164 C419.085,104.187 417.352,103.199 414.893,103.199 C412.71,103.199 411.122,104.04 410.131,105.724 C409.139,107.407 408.643,109.438 408.643,111.816 C408.643,114.1 409.139,116.004 410.131,117.527 C411.122,119.049 412.696,119.811 414.853,119.811 C417.22,119.811 418.843,118.906 419.722,117.096 M421.965,102.815 C423.865,104.659 424.815,107.372 424.815,110.953 C424.815,114.415 423.977,117.275 422.303,119.533 C420.631,121.792 418.034,122.921 414.514,122.921 C411.578,122.921 409.248,121.922 407.521,119.924 C405.794,117.926 404.932,115.243 404.932,111.876 C404.932,108.267 405.84,105.394 407.66,103.256 C409.48,101.118 411.924,100.049 414.992,100.049 C417.742,100.049 420.065,100.971 421.965,102.815" fill="#29ABE2"/>
      <path d="M429.248,100.671 L432.679,100.671 L432.679,103.72 C433.695,102.464 434.772,101.561 435.909,101.011 C437.046,100.463 438.31,100.189 439.701,100.189 C442.75,100.189 444.81,101.253 445.881,103.379 C446.469,104.543 446.763,106.208 446.763,108.375 L446.763,122.158 L443.092,122.158 L443.092,108.615 C443.092,107.305 442.898,106.248 442.51,105.446 C441.868,104.108 440.704,103.439 439.019,103.439 C438.163,103.439 437.461,103.527 436.912,103.7 C435.922,103.995 435.053,104.583 434.304,105.465 C433.702,106.175 433.311,106.907 433.131,107.663 C432.95,108.418 432.859,109.498 432.859,110.903 L432.859,122.158 L429.248,122.158 z" fill="#29ABE2"/>
      <path d="M452.822,94.672 L456.474,94.672 L456.474,100.671 L459.905,100.671 L459.905,103.62 L456.474,103.62 L456.474,117.644 C456.474,118.393 456.728,118.895 457.237,119.149 C457.517,119.296 457.986,119.369 458.641,119.369 C458.814,119.369 459.002,119.365 459.203,119.356 C459.404,119.348 459.637,119.325 459.905,119.289 L459.905,122.158 C459.49,122.279 459.059,122.366 458.611,122.419 C458.163,122.473 457.678,122.499 457.155,122.499 C455.471,122.499 454.328,122.068 453.726,121.205 C453.123,120.343 452.822,119.222 452.822,117.845 L452.822,103.62 L449.914,103.62 L449.914,100.671 L452.822,100.671 z" fill="#29ABE2"/>
      <path d="M512.526,256.166 C512.21,255.037 511.948,254.434 511.422,253.226 C508.902,253.646 496.405,255.72 496.222,255.852 C496.169,255.878 495.853,256.193 495.827,256.219 C495.775,256.272 495.723,256.324 495.617,256.324 C495.406,256.324 495.329,256.087 495.224,255.615 L494.594,252.569 C495.224,252.544 495.985,252.491 497.508,252.36 C499.556,247.161 501.525,241.411 502.68,236.843 L505.778,237.604 C506.014,237.657 506.512,237.841 506.512,238.102 C506.512,238.235 506.46,238.26 506.014,238.524 C505.752,238.654 505.699,238.733 505.462,239.442 C504.072,243.511 501.866,249.208 500.71,252.045 C504.439,251.624 507.196,251.256 510.084,250.757 C509.427,249.681 508.535,248.263 507.064,246.689 L509.848,245.297 C512.42,248.342 514.1,251.256 515.492,254.538 z" fill="#29ABE2"/>
      <path d="M540.536,237.972 C539.749,237.159 538.619,236.449 537.806,235.977 L538.908,234.532 C539.38,234.796 540.747,235.556 541.692,236.528 z M537.858,240.099 C537.07,239.284 536.257,238.681 535.285,238.13 L536.388,236.686 C537.175,237.132 538.173,237.762 539.039,238.655 z M529.85,240.781 C528.118,239.468 525.729,238.706 524.704,238.418 L526.096,235.898 C527.54,236.291 529.745,236.974 531.399,238.234 z M535.206,251.388 C532.529,253.698 529.535,255.615 526.384,257.19 C526.044,257.374 525.99,257.374 525.938,257.584 C525.86,257.926 525.807,258.057 525.676,258.057 C525.439,258.057 525.151,257.506 525.072,257.348 L523.681,254.774 C530.927,251.677 535.942,246.951 539.171,241.937 L541.271,244.535 C540.431,245.822 538.778,248.343 535.206,251.388 M527.173,246.924 C525.518,245.822 523.89,244.981 521.948,244.378 L523.392,241.726 C525.387,242.357 527.12,243.223 528.774,244.457 z" fill="#29ABE2"/>
      <path d="M561.405,249.997 C557.257,253.358 554.763,254.46 551.508,255.851 C551.376,256.219 551.324,256.665 551.113,256.665 C550.956,256.665 550.72,256.508 550.537,256.166 L548.698,253.016 C550.798,252.517 554.238,251.625 558.438,248.474 C562.455,245.48 564.976,242.016 566.131,240.44 L567.943,243.066 C566.919,244.431 564.871,247.187 561.405,249.997 M553.713,242.855 C552.216,241.621 550.431,240.492 548.33,239.547 L549.932,237.079 C551.665,237.841 553.791,238.969 555.445,240.335 z" fill="#29ABE2"/>
      <path d="M430.042,167.248 L420.654,167.248 L410.647,223.998 C410.148,226.828 409.577,229.315 408.948,231.387 C408.309,233.487 407.453,235.267 406.403,236.676 C405.33,238.117 403.955,239.203 402.315,239.904 C400.773,240.56 398.806,240.891 396.476,240.844 L395.12,248.529 C395.727,248.623 396.308,248.671 396.854,248.671 L398.815,248.671 C404.704,248.671 409.336,246.927 412.584,243.49 C415.859,240.024 418.155,234.656 419.411,227.537 z" fill="#29ABE2"/>
      <path d="M326.06,221.016 L336.997,158.787 L295.18,221.033 L289.607,221.035 L269.664,158.824 L258.727,221.053 L250.141,221.058 L265.184,135.474 L271.058,135.47 L294.773,207.926 L343.815,135.43 L349.69,135.428 L334.647,221.012 z" fill="#29ABE2"/>
      <path d="M385.603,220.981 L386.794,214.202 C384.943,216.161 379.133,222.642 368.289,222.648 C357.744,222.654 351.508,215.276 353.762,202.467 L359.852,167.812 L367.987,167.808 L362.029,201.712 C360.52,210.299 364.668,214.966 371.598,214.962 C381.088,214.958 387.169,206.066 388.543,204.257 L394.952,167.793 L403.086,167.79 L393.735,220.977 z" fill="#29ABE2"/>
      <path d="M508.253,220.893 L514.557,185.031 C515.773,178.101 512.651,173.583 506.023,173.587 C496.383,173.591 488.494,182.484 487.025,183.993 L480.537,220.908 L472.402,220.911 L481.751,167.724 L489.887,167.72 L488.562,175.254 C490.004,173.895 497.257,166.059 508.554,166.051 C518.195,166.048 524.887,172.522 522.796,184.424 L516.387,220.886 z" fill="#29ABE2"/>
      <path d="M563.534,220.893 L569.837,185.031 C571.055,178.101 567.933,173.583 561.304,173.587 C551.664,173.591 543.775,182.484 542.307,183.993 L535.818,220.908 L527.683,220.911 L537.032,167.724 L545.168,167.72 L543.843,175.254 C545.285,173.895 552.538,166.059 563.836,166.051 C573.476,166.048 580.168,172.522 578.077,184.424 L571.669,220.886 z" fill="#29ABE2"/>
      <path d="M427.124,148.195 C424.189,148.195 421.8,150.583 421.8,153.519 C421.8,156.456 424.189,158.844 427.124,158.844 C430.06,158.844 432.449,156.456 432.449,153.519 C432.449,150.583 430.06,148.195 427.124,148.195" fill="#29ABE2"/>
      <path d="M446.635,143.582 L445.331,150.975 L454.291,150.975 L455.542,150.975 L444.36,214.594 L443.074,214.594 L434.113,214.594 L432.809,221.987 L461.931,221.987 L463.235,214.594 L454.275,214.594 L453.248,214.594 L464.43,150.975 L465.492,150.975 L474.452,150.975 L475.756,143.582 z" fill="#29ABE2"/>
    </g>
  </g>
</svg>
