<svg xmlns="http://www.w3.org/2000/svg" xmlns:xlink="http://www.w3.org/1999/xlink" width="600" height="350" viewBox="0 0 600 350">
  <defs>
    <clipPath id="clip-logo_smartcheckin_1">
      <rect width="600" height="350"/>
    </clipPath>
  </defs>
  <g id="logo_smartcheckin_1" data-name="logo_smartcheckin – 1" clip-path="url(#clip-logo_smartcheckin_1)">
    <rect width="600" height="350" fill="#fff"/>
    <g id="レイヤー_2" transform="translate(55.356 117.673)">
      <g id="グループ_303" data-name="グループ 303" transform="translate(122.821 37.772)">
        <path id="パス_1080" data-name="パス 1080" d="M54.4,66.943a5.532,5.532,0,0,1,.914-2.97,3.1,3.1,0,0,1,2.513-1.6,4.262,4.262,0,0,1,2.285,1.142A16.44,16.44,0,0,0,64.225,65.8a17.445,17.445,0,0,0,6.169,1.142c5.484,0,8.226-1.828,8.226-5.255a4.948,4.948,0,0,0-2.285-4.341,18.775,18.775,0,0,0-5.712-2.513c-2.285-.685-4.57-1.371-6.626-2.056a12.206,12.206,0,0,1-5.712-3.884A10.566,10.566,0,0,1,56,41.809a13.868,13.868,0,0,1,3.884-9.6C62.626,29.471,66.51,28.1,72.222,28.1a26.882,26.882,0,0,1,9.825,1.6c2.97,1.142,4.341,2.513,4.341,3.884a7.749,7.749,0,0,1-1.142,3.2A3.223,3.223,0,0,1,82.5,38.611,19.333,19.333,0,0,1,78.62,37.24a16.993,16.993,0,0,0-6.4-1.371A8.55,8.55,0,0,0,66.51,37.7a5.106,5.106,0,0,0-2.056,3.884,3.919,3.919,0,0,0,2.285,3.656,27,27,0,0,0,5.712,2.285c2.285.685,4.57,1.371,6.626,2.056a13.2,13.2,0,0,1,5.712,4.341,12.08,12.08,0,0,1,2.285,7.769c0,4.113-1.371,7.312-4.341,9.6s-7.083,3.427-12.338,3.427A24.867,24.867,0,0,1,58.97,72.427C56,70.6,54.4,69,54.4,66.943Z" transform="translate(-54.4 -2.052)" fill="#18326b"/>
        <path id="パス_1081" data-name="パス 1081" d="M72.3,55.59V31.827c0-.914.457-1.6,1.6-2.285a5.95,5.95,0,0,1,3.427-.914,5.507,5.507,0,0,1,3.427.914,2.781,2.781,0,0,1,1.371,2.285V55.59a9.368,9.368,0,0,0,2.97,6.855,9.394,9.394,0,0,0,13.709,0,10.076,10.076,0,0,0,2.742-6.855V31.6a2.781,2.781,0,0,1,1.371-2.285,5.8,5.8,0,0,1,3.656-.914,5.507,5.507,0,0,1,3.427.914,2.781,2.781,0,0,1,1.371,2.285V55.362a17.178,17.178,0,0,1-5.712,13.024A19.574,19.574,0,0,1,91.95,74.1a18.646,18.646,0,0,1-13.709-5.712A15.886,15.886,0,0,1,72.3,55.59Z" transform="translate(-31.4 -1.667)" fill="#18326b"/>
        <path id="パス_1082" data-name="パス 1082" d="M93.5,24.155A4.546,4.546,0,0,1,95.1,20.5a6.569,6.569,0,0,1,4.113-1.6,5.506,5.506,0,0,1,4.113,1.6,4.546,4.546,0,0,1,1.6,3.656,4.867,4.867,0,0,1-1.6,3.656,6.088,6.088,0,0,1-8.226,0A4.867,4.867,0,0,1,93.5,24.155Zm.914,58.265V43.805a2.513,2.513,0,0,1,1.371-2.285,5.8,5.8,0,0,1,3.656-.914,6.229,6.229,0,0,1,3.656.914,2.781,2.781,0,0,1,1.371,2.285V82.192a2.781,2.781,0,0,1-1.371,2.285,5.814,5.814,0,0,1-3.656,1.142,5.612,5.612,0,0,1-3.427-1.142A2.326,2.326,0,0,1,94.414,82.42Z" transform="translate(-4.16 -13.873)" fill="#18326b"/>
        <path id="パス_1083" data-name="パス 1083" d="M102.7,70.125V22.6c0-.914.457-1.6,1.6-2.285a6.883,6.883,0,0,1,6.855,0c1.142.685,1.6,1.371,1.6,2.285V39.964h11.653a2.4,2.4,0,0,1,2.056,1.142,4.951,4.951,0,0,1,0,5.027,2.4,2.4,0,0,1-2.056,1.142H112.754V70.125q0,3.427,1.371,4.8c.914.914,2.742,1.371,5.255,1.371h3.427a4.953,4.953,0,0,1,3.2,1.142,4.812,4.812,0,0,1,1.142,2.97,4.344,4.344,0,0,1-1.142,2.97c-.685.914-1.828,1.142-3.2,1.142H119.38C108.412,84.977,102.7,80.178,102.7,70.125Z" transform="translate(7.661 -13.231)" fill="#18326b"/>
        <path id="パス_1084" data-name="パス 1084" d="M115.4,55.619V46.708a17.178,17.178,0,0,1,5.712-13.024A19.5,19.5,0,0,1,135.05,28.2,18.458,18.458,0,0,1,148.3,33.227a16.452,16.452,0,0,1,5.484,12.567,15.189,15.189,0,0,1-.685,4.8,4.6,4.6,0,0,1-2.056,2.513,12.883,12.883,0,0,1-2.742.914,13.073,13.073,0,0,1-3.2.228H125v2.285a9.128,9.128,0,0,0,3.427,7.54,13.829,13.829,0,0,0,8.911,2.742,16.488,16.488,0,0,0,7.312-1.828,19.629,19.629,0,0,1,4.113-1.828,2.984,2.984,0,0,1,2.742,1.6,5.38,5.38,0,0,1,1.142,2.97c0,1.6-1.6,3.2-4.57,4.8s-6.855,2.285-11.2,2.285c-6.4,0-11.653-1.828-15.766-5.255A19.316,19.316,0,0,1,115.4,55.619Zm10.054-8h15.766a6.562,6.562,0,0,0,2.742-.457c.457-.228.685-1.142.685-2.285a8.646,8.646,0,0,0-2.742-6.4,9.126,9.126,0,0,0-6.855-2.513,10.114,10.114,0,0,0-6.855,2.513,7.972,7.972,0,0,0-2.742,6.4Z" transform="translate(23.979 -1.924)" fill="#18326b"/>
        <path id="パス_1085" data-name="パス 1085" d="M135.9,85.118V20a2.513,2.513,0,0,1,1.371-2.285A5.507,5.507,0,0,1,140.7,16.8a6.229,6.229,0,0,1,3.656.914A2.781,2.781,0,0,1,145.725,20V50.16a15.056,15.056,0,0,1,4.8-5.255,13.047,13.047,0,0,1,7.312-2.056,16.2,16.2,0,0,1,12.11,5.484,18.458,18.458,0,0,1,5.027,13.252v8.683a19.227,19.227,0,0,1-5.027,13.252c-3.427,3.884-7.312,5.712-11.653,5.712a13.452,13.452,0,0,1-7.769-2.285,12.906,12.906,0,0,1-5.255-5.255v3.427A2.781,2.781,0,0,1,143.9,87.4a5.459,5.459,0,0,1-3.2,1.142,5.612,5.612,0,0,1-3.427-1.142A3.119,3.119,0,0,1,135.9,85.118Zm10.054-12.8c0,1.371.914,2.97,2.97,5.027,2.056,1.828,4.113,2.97,6.626,2.97a9.368,9.368,0,0,0,6.855-2.97,10.076,10.076,0,0,0,2.742-6.855V61.813a9.368,9.368,0,0,0-2.97-6.855,8.689,8.689,0,0,0-6.855-2.97,9.539,9.539,0,0,0-6.626,2.742,8.844,8.844,0,0,0-2.97,7.083V72.323Z" transform="translate(50.319 -16.572)" fill="#18326b"/>
        <path id="パス_1086" data-name="パス 1086" d="M156.1,55.619V46.936a17.178,17.178,0,0,1,5.712-13.024A19.706,19.706,0,0,1,175.75,28.2a19.349,19.349,0,0,1,13.709,5.484A17.531,17.531,0,0,1,195.4,46.936v8.683c0,5.027-2.056,9.368-5.941,13.252a19.307,19.307,0,0,1-27.419,0A17.434,17.434,0,0,1,156.1,55.619Zm10.054,0a10.076,10.076,0,0,0,2.742,6.855,8.689,8.689,0,0,0,6.855,2.97,9.368,9.368,0,0,0,6.855-2.97,10.347,10.347,0,0,0,2.97-6.855V46.936a9.368,9.368,0,0,0-2.97-6.855,9.017,9.017,0,0,0-6.855-2.97,8.689,8.689,0,0,0-6.855,2.97,10.076,10.076,0,0,0-2.742,6.855Z" transform="translate(76.274 -1.924)" fill="#18326b"/>
        <path id="パス_1087" data-name="パス 1087" d="M176.3,55.619V46.936a17.178,17.178,0,0,1,5.712-13.024A19.706,19.706,0,0,1,195.95,28.2a19.349,19.349,0,0,1,13.709,5.484A17.531,17.531,0,0,1,215.6,46.936v8.683c0,5.027-2.056,9.368-5.941,13.252a19.307,19.307,0,0,1-27.419,0C178.356,64.987,176.3,60.646,176.3,55.619Zm10.054,0a10.076,10.076,0,0,0,2.742,6.855,8.689,8.689,0,0,0,6.855,2.97,9.368,9.368,0,0,0,6.855-2.97,10.347,10.347,0,0,0,2.97-6.855V46.936a9.368,9.368,0,0,0-2.97-6.855,9.017,9.017,0,0,0-6.855-2.97,8.689,8.689,0,0,0-6.855,2.97,10.076,10.076,0,0,0-2.742,6.855Z" transform="translate(102.229 -1.924)" fill="#18326b"/>
        <path id="パス_1088" data-name="パス 1088" d="M197.4,85.247V19.9a2.513,2.513,0,0,1,1.371-2.285A5.507,5.507,0,0,1,202.2,16.7a6.229,6.229,0,0,1,3.656.914,2.781,2.781,0,0,1,1.371,2.285V62.169L227.1,43.89a3.4,3.4,0,0,1,2.056-.914,4.32,4.32,0,0,1,3.2,1.6,3.99,3.99,0,0,1,1.6,3.2,2.227,2.227,0,0,1-.914,2.056L220.706,60.8l14.852,21.478a2.175,2.175,0,0,1,.457,1.6,5.129,5.129,0,0,1-1.828,3.427,5.655,5.655,0,0,1-3.656,1.6,3.257,3.257,0,0,1-2.742-1.371L213.851,66.968,207,73.137V85.018c0,.914-.457,1.6-1.6,2.285a6.322,6.322,0,0,1-3.656,1.142,5.612,5.612,0,0,1-3.427-1.142A3.4,3.4,0,0,1,197.4,85.247Z" transform="translate(129.341 -16.7)" fill="#18326b"/>
      </g>
      <path id="パス_1089" data-name="パス 1089" d="M15.8,32.5V64.032H63.1V32.5ZM29.281,59.462H20.37V50.551h8.911Zm0-14.166H20.37V36.384h8.911ZM43.676,59.462H34.765V50.551h8.911Zm0-14.166H34.765V36.384h8.911ZM58.071,59.462H49.16V50.551h8.911Zm0-14.166H49.16V36.384h8.911Z" transform="translate(18.824 41.374)" fill="#18326b"/>
      <path id="パス_1090" data-name="パス 1090" d="M116.195,57.194,99.058,40.057V16.523H85.806V26.8L59.072.3,2.178,57.194a3.311,3.311,0,0,0,0,4.8,3.436,3.436,0,0,0,2.513.914A3.436,3.436,0,0,0,7.2,61.992L59.072,10.125l52.1,52.1a3.311,3.311,0,0,0,4.8,0A3.4,3.4,0,0,0,116.195,57.194Z" transform="translate(0)" fill="#18326b"/>
      <path id="パス_1091" data-name="パス 1091" d="M48.829,7.7,9.3,48.371v56.894H88.586V48.371ZM62.31,42.659a2.29,2.29,0,0,1,2.285-2.285,2.457,2.457,0,0,1,2.285,2.285V53.626a2.29,2.29,0,0,1-2.285,2.285,2.457,2.457,0,0,1-2.285-2.285Zm-32.9,0a2.285,2.285,0,1,1,4.57,0V53.626a2.285,2.285,0,1,1-4.57,0ZM75.334,100.01H20.953V50.885h6.855v2.97a4.113,4.113,0,0,0,8.226,0v-2.97H60.71v2.97a4.113,4.113,0,0,0,8.226,0v-2.97h6.626l-.228,49.125Z" transform="translate(10.472 9.508)" fill="#18326b"/>
    </g>
  </g>
</svg>
