<svg xmlns="http://www.w3.org/2000/svg" xmlns:xlink="http://www.w3.org/1999/xlink" width="156" height="157" viewBox="0 0 156 157">
  <defs>
    <clipPath id="clip-path">
      <rect id="Rectangle_102" data-name="Rectangle 102" width="156" height="157" transform="translate(-0.02 -0.252)" fill="#a92c3d" stroke="#707070" stroke-width="1"/>
    </clipPath>
  </defs>
  <g id="Mask_Group_26" data-name="Mask Group 26" transform="translate(0.02 0.252)" clip-path="url(#clip-path)">
    <g id="master-key" transform="translate(-0.311 1.5)">
      <path id="Path_235" data-name="Path 235" d="M67.533,139.831l-.278-4.587a.313.313,0,0,0-.035-.174,24.891,24.891,0,0,0-16.577-20.156l-1.494-.521a14.076,14.076,0,0,1-5.421-3.406L36.5,103.759l-2.467-8.34a11.44,11.44,0,0,0-9.765-8.41l-.382-1.216v-.035a8.9,8.9,0,0,0-8.966-5.7l-.07-.243A10.435,10.435,0,0,0,2.373,72.69a2.119,2.119,0,0,0-1.564,2.4l7.958,42.78c.035.1.035.209.07.278A27.39,27.39,0,0,0,19.124,131.8l17.341,11.955c.035.035.07.035.1.07a5.582,5.582,0,0,1,2.467,3.093l1.321,17.793a2.056,2.056,0,0,0,1.425,1.807l.348.1a38.741,38.741,0,0,0,24.222.174l.869-.278a2.086,2.086,0,0,0,1.46-1.981v-9.974a97.226,97.226,0,0,0-1.112-13.831C67.568,140.457,67.533,140.144,67.533,139.831ZM30.071,96.53V96.6l.7,2.328a11.419,11.419,0,0,0-3.232-1.077L25.657,91.63A7.241,7.241,0,0,1,30.071,96.53ZM19.958,87.008,23.19,97.816a12.329,12.329,0,0,0-2.676.765L16.239,84.263A4.629,4.629,0,0,1,19.958,87.008Zm44.622,76.037a34.4,34.4,0,0,1-20.087-.035l-1.216-16.646a1.745,1.745,0,0,0-.07-.417,9.673,9.673,0,0,0-4.344-5.7l-17.306-11.92A23.033,23.033,0,0,1,12.9,116.895L5.4,76.548a6.175,6.175,0,0,1,5.491,4.414l5.56,18.592.417,1.39-.313.313a2.1,2.1,0,0,0-.626,1.529,1.965,1.965,0,0,0,.7,1.494l8.688,7.958a54.358,54.358,0,0,1,6.881,7.541,2.085,2.085,0,1,0,3.336-2.5,63.049,63.049,0,0,0-7.4-8.132l-6.881-6.255a8.162,8.162,0,0,1,9.8,1.355l9.765,9.765a18.43,18.43,0,0,0,6.985,4.379l1.494.521a20.806,20.806,0,0,1,13.8,16.716l.278,4.518c.035.452.069.869.139,1.286a93.619,93.619,0,0,1,1.077,13.241Z" transform="translate(-0.782 -15.407)" fill="#a92c3d"/>
      <path id="Path_236" data-name="Path 236" d="M171.561,72.647a10.376,10.376,0,0,0-12.476,7.124l-.07.243c-3.962-.174-7.784,2.12-8.966,5.7v.035l-.382,1.216a11.578,11.578,0,0,0-9.8,8.41l-2.467,8.34-7.228,7.228a14.5,14.5,0,0,1-5.421,3.406l-1.494.521a25.007,25.007,0,0,0-16.577,20.156v.174l-.278,4.587a8.612,8.612,0,0,1-.1.938,97.229,97.229,0,0,0-1.112,13.831v9.974a2.086,2.086,0,0,0,1.425,1.981,39.191,39.191,0,0,0,24.6.174l.487-.174a2.051,2.051,0,0,0,1.425-1.772l1.7-17.828a5.541,5.541,0,0,1,2.467-3.128c.035-.035.07-.035.1-.07l17.376-11.955A27.39,27.39,0,0,0,165.063,118.1a.818.818,0,0,0,.07-.278l7.958-42.78A2.036,2.036,0,0,0,171.561,72.647ZM154.046,87a4.5,4.5,0,0,1,3.718-2.745l-4.2,14.04-.07.278a12.33,12.33,0,0,0-2.676-.765Zm-10.113,9.522a7.272,7.272,0,0,1,4.379-4.9l-1.877,6.221A12.2,12.2,0,0,0,143.2,98.92l.7-2.328C143.933,96.557,143.933,96.557,143.933,96.522Zm17.167,20.4a22.946,22.946,0,0,1-8.653,11.4l-17.306,11.92a9.918,9.918,0,0,0-4.344,5.7,1.25,1.25,0,0,0-.069.382l-1.6,16.646A35,35,0,0,1,109.39,163v-8.445a93.622,93.622,0,0,1,1.077-13.24c.07-.417.1-.869.139-1.286l.278-4.518a20.806,20.806,0,0,1,13.8-16.716l1.494-.521a18.323,18.323,0,0,0,6.985-4.379l9.765-9.765a8.264,8.264,0,0,1,9.8-1.355l-6.881,6.255a58.773,58.773,0,0,0-7.4,8.132,2.085,2.085,0,1,0,3.336,2.5,56.616,56.616,0,0,1,6.881-7.541l8.688-7.958a2.235,2.235,0,0,0,.7-1.494,2.279,2.279,0,0,0-.591-1.529l-.313-.313.452-1.425,5.56-18.558a6.175,6.175,0,0,1,5.491-4.414Z" transform="translate(-16.053 -15.398)" fill="#a92c3d"/>
      <g id="Group_217" data-name="Group 217" transform="translate(52.939 0)">
        <g id="Group_216" data-name="Group 216">
          <path id="Path_237" data-name="Path 237" d="M102.181,51.042A13.522,13.522,0,0,0,115.456,27.48c-.035-.035-.07-.035-.139-.07a16.089,16.089,0,0,0,1.077-1.6A13.522,13.522,0,1,0,92.833,12.537,15.951,15.951,0,0,0,92,14.275c-.035-.035-.07-.035-.139-.07A13.522,13.522,0,1,0,78.584,37.767a13.251,13.251,0,0,0,7.923,1.668l-22.971,40.8a5.789,5.789,0,0,0,10.078,5.7l.938-1.668,1.668.938-.938,1.668a1.933,1.933,0,0,0,.73,2.641L82.755,93.3a1.933,1.933,0,0,0,2.641-.73l9.487-16.82a1.933,1.933,0,0,0-.73-2.641l-6.742-3.788a1.933,1.933,0,0,0-2.641.73l-.938,1.668-1.668-.938L96.621,45.134A13.813,13.813,0,0,0,102.181,51.042ZM78.619,73.214l5.039,2.85a1.933,1.933,0,0,0,2.641-.73l.938-1.668,3.371,1.911L83.033,89.026l-3.371-1.911.938-1.668a1.933,1.933,0,0,0-.73-2.641l-5.039-2.85a1.933,1.933,0,0,0-2.641.73l-1.911,3.371a1.938,1.938,0,0,1-3.371-1.911l25.3-44.9a1.946,1.946,0,0,0-.278-2.294,2.231,2.231,0,0,0-.452-.348,1.924,1.924,0,0,0-1.842-.035,9.649,9.649,0,1,1,.313-16.994,10.245,10.245,0,0,1,1.842,1.39,1.93,1.93,0,0,0,3.232-1.147,9.825,9.825,0,0,1,1.112-3.406,9.647,9.647,0,0,1,16.82,9.453,10.207,10.207,0,0,1-2.328,2.745,1.859,1.859,0,0,0-.66,1.877,1.933,1.933,0,0,0,1.355,1.46,9.639,9.639,0,1,1-7.3,17.689,9.711,9.711,0,0,1-4.9-7.715,1.912,1.912,0,0,0-3.579-.8L77.855,70.573A1.976,1.976,0,0,0,78.619,73.214Z" transform="translate(-62.791 -5.644)" fill="#a92c3d"/>
        </g>
      </g>
    </g>
  </g>
</svg>
