<svg xmlns="http://www.w3.org/2000/svg" xmlns:xlink="http://www.w3.org/1999/xlink" width="600" height="350" viewBox="0 0 600 350">
  <defs>
    <clipPath id="clip-logo_hagicity_new">
      <rect width="600" height="350"/>
    </clipPath>
  </defs>
  <g id="logo_hagicity_new" clip-path="url(#clip-logo_hagicity_new)">
    <rect width="600" height="350" fill="#fff"/>
    <g id="グループ_300" data-name="グループ 300" transform="translate(24294.441 -6497.357)">
      <path id="パス_1042" data-name="パス 1042" d="M489.118,583.884c-4.685.67-8.366,1.787-10.263,8.032-.557,2.007-.667,2.344-1.561,2.344-2.231,0-12.383-10.263-16.622-32.576-4.017,10.933-10.04,17.738-16.177,22.2-6.582,4.8-15.171,8.7-26.885,10.6l-.223-1.227c12.717-6.022,27.778-17.4,30.679-37.148a110.545,110.545,0,0,0,1.117-13.944V519.069a17.319,17.319,0,0,1-2.567-.447c-1.117-.447-2.01-1-2.01-2.118V506.015H426.2v8.145c0,1.117-1.343,2.344-3.573,3.347l12.943,8.7a2.3,2.3,0,0,1,1,1.784,1.4,1.4,0,0,1-1.563,1.34c-.557,0-2.341-.223-3.011-.336-1.9.223-9.819.67-11.6.783.557,2.231-1.114,2.788-2.564,3.234v9.149h4.908l4.128-5.131a2.116,2.116,0,0,1,1.787-1c.557,0,.667,0,1.894.78l7.586,4.8a38.529,38.529,0,0,0,.893-10.823h1.114a31.6,31.6,0,0,1,5.131,16.622c0,10.153-5.578,11.38-7.809,11.38a5.811,5.811,0,0,1-5.912-5.915c0-2.454.67-3.234,3.794-6.356a19.9,19.9,0,0,0,1.561-1.787H417.834v3.9c2.341.447,16.735,3.458,16.735,15.174,0,3.792-2.12,7.586-6.695,7.586-4.911,0-5.021-4.018-5.245-8.479a16.781,16.781,0,0,0-4.8-10.823v38.154c0,3.571-7.139,4.238-8.7,4.238-4.572,0-4.572-1.561-4.572-3.568V564.585c-6.585,8.589-11.826,13.384-20.529,18.742l-.557-1c11.49-13.5,15.615-30.122,16.622-37.6H386.151l-1.34-2.564H404.56v-11.6c-6.585.11-13.277.223-19.969,0v-1.227c10.93-1.34,23.76-4.574,33.243-10.82-1.563,0-5.245-.113-5.245-2.9v-9.6H386.038l-1.337-2.454h27.888V492.518l15.061,1.227c.783.113,1.9.223,1.9,1.34,0,.891-.67,1.45-3.345,2.677v5.8h18.4V492.184l15.731,1.114a1.471,1.471,0,0,1,1.674,1.45c0,.893-.557,1.674-3.234,2.9v5.912h9.37l5.021-6.359a1.978,1.978,0,0,1,1.787-1c.444,0,.667,0,2.007.893l8.476,5.578a2.155,2.155,0,0,1,1.117,1.894c0,1.117-1,1.45-1.9,1.45H458.776v8.926c0,.783-1.117,2.231-4.8,3.571l11.043,1.227c.893.11,1.45.557,1.45,1.45,0,1-.334,1.227-3.568,2.9v27.552c3.011-4.238,7.365-13.271,9.259-22.646l13.944,7.255c.78.447,1.337.78,1.337,1.674,0,1.894-2.564,1.894-4.462,1.894-5.242,5.691-14.057,11.714-19.412,14.614,4.241,9.929,12.273,21.53,25.771,28.225Z" transform="translate(-24401.4 6123.782)" fill="#0071be"/>
      <path id="パス_1043" data-name="パス 1043" d="M527.357,512.36H485.078c1.784.336,2.677.67,2.677,2.12s-1,2.12-2.677,2.564v14.167H502.7l4.574-5.688a4.768,4.768,0,0,1,3.347-1.784,5.1,5.1,0,0,1,3.681,1.561l6.469,6.582a1.793,1.793,0,0,1,.67,1.448c0,1.006-.334,1.343-3.234,4.354v38.708c0,2.12-1.563,5.024-2.454,6.138-2.007,2.567-7.586,3.681-11.493,3.681-2.677,0-3.011-.223-3.234-1.561-1.117-5.465-1.784-8.7-13.274-11.38v-1.117c1.117,0,10.373.557,10.6.557,2.677,0,5.465-.221,5.465-4.015v-35.03H485.078v54c0,4.685-6.472,6.359-10.042,6.359s-3.568-1.561-3.568-3.571V533.667H451.722v45.519a3.9,3.9,0,0,1-1.674,3.792,15.512,15.512,0,0,1-8.143,2.677,3.808,3.808,0,0,1-4.13-4.128V523.74l15.061,7.473h18.632V512.36H428.962l-1.337-2.567H471.8v-17.4l15.844,1.227c.557,0,2.007.113,2.007,1.45,0,1.674-2.79,2.788-3.794,3.235v11.49h22.09l6.469-8.256a2.216,2.216,0,0,1,1.787-1.114c.891,0,1.114.447,2.118,1.114l9.932,7.252a3.816,3.816,0,0,1,1,2.007C529.257,511.8,528.474,512.36,527.357,512.36Z" transform="translate(-24326.746 6124.132)" fill="#0071be"/>
      <path id="パス_1044" data-name="パス 1044" d="M391.119,510.826V485.216H366.272l-.382.371Z" transform="translate(-24431.135 6112.001)" fill="#0071be"/>
      <path id="パス_1045" data-name="パス 1045" d="M396.363,485.588l-.382-.371h-67.56l34.161,34.153Z" transform="translate(-24494.49 6112.001)" fill="#0071be"/>
      <path id="パス_1046" data-name="パス 1046" d="M469.984,560.52v-49.7l-25.23-25.238.382-.371H411.49l.382.371-33.781,33.781L343.93,485.216H319.249v8.194l42.4,42.406-33.265,33.249-9.138-9.138v51.167l9.138-9.141,33.639,33.641-.339.35h33.577l-.35-.35,33.259-33.251,33.607,33.6h8.2V611.262l-25.37-25.37ZM378.478,619.15l-33.65-33.636,33.262-33.259,33.641,33.639Zm16.051-83.334,33.787-33.787,33.636,33.647-33.779,33.776Z" transform="translate(-24509.998 6112)" fill="#fff"/>
      <path id="パス_1047" data-name="パス 1047" d="M328.387,528.6l-9.138,9.141v24.85h42.438l.339-.35Z" transform="translate(-24509.998 6185.355)" fill="#0071be"/>
      <path id="パス_1048" data-name="パス 1048" d="M347.368,561.995l.35.35h66.516l-33.606-33.6Z" transform="translate(-24462.453 6185.6)" fill="#0071be"/>
      <path id="パス_1049" data-name="パス 1049" d="M361.652,530.667l-42.4-42.406v66.516l9.138,9.138Z" transform="translate(-24509.998 6117.15)" fill="#0071be"/>
      <path id="パス_1050" data-name="パス 1050" d="M365.838,538.574l25.37,25.37V513.2Z" transform="translate(-24431.223 6159.32)" fill="#0071be"/>
      <rect id="長方形_343" data-name="長方形 343" width="47.775" height="47.575" transform="translate(-24115.471 6647.814) rotate(-45)" fill="#0071be"/>
      <rect id="長方形_344" data-name="長方形 344" width="47.034" height="47.576" transform="matrix(0.707, -0.707, 0.707, 0.707, -24165.168, 6697.519)" fill="#0071be"/>
    </g>
  </g>
</svg>
