<?xml version="1.0" encoding="UTF-8"?>
<!DOCTYPE svg PUBLIC "-//W3C//DTD SVG 1.1//EN" "http://www.w3.org/Graphics/SVG/1.1/DTD/svg11.dtd">
<svg version="1.1" xmlns="http://www.w3.org/2000/svg" xmlns:xlink="http://www.w3.org/1999/xlink" x="0" y="0" width="600" height="350" viewBox="0, 0, 600, 350">
  <g id="レイヤー_1">
    <g id="nicigas_norim">
      <path d="M343.265,205.861 L377.594,205.861 L377.594,203.878 C373.988,203.773 371.734,203.507 370.065,202.323 C368.179,200.872 368.026,198.644 368.021,195.901 L368.016,148.269 C368.026,145.531 368.175,143.303 370.077,141.839 C371.732,140.663 373.986,140.399 377.591,140.296 L377.591,138.312 L343.459,138.312 L343.459,140.296 C347.069,140.397 349.319,140.663 350.988,141.848 C352.878,143.303 353.032,145.531 353.037,148.269 L353.037,195.901 C353.037,198.643 352.878,200.883 350.95,202.34 C349.266,203.516 346.971,203.773 343.265,203.878 z" fill="#1A1919"/>
      <path d="M240.165,205.862 L274.494,205.862 L274.494,203.881 C270.888,203.778 268.634,203.511 266.965,202.328 C265.079,200.876 264.926,198.649 264.921,195.903 L264.916,148.271 C264.926,145.533 265.077,143.309 266.977,141.844 C268.632,140.669 270.884,140.404 274.491,140.299 L274.491,138.315 L240.359,138.315 L240.359,140.299 C243.969,140.401 246.221,140.669 247.89,141.853 C249.779,143.309 249.934,145.537 249.937,148.275 L249.937,195.903 C249.937,198.646 249.779,200.888 247.85,202.345 C246.166,203.519 243.873,203.778 240.165,203.881 z" fill="#1A1919"/>
      <path d="M163.215,138.315 L163.215,140.298 C166.825,140.401 169.077,140.663 170.742,141.851 C172.625,143.307 172.958,145.58 173.018,148.271 L173.02,195.889 C173.015,198.629 172.865,200.845 170.981,202.306 C169.336,203.487 167.108,203.753 163.545,203.856 L163.545,205.84 L184.682,205.84 L184.682,203.856 C181.07,203.753 179.68,203.488 178.011,202.302 C176.125,200.85 175.97,198.624 175.962,195.881 L175.962,151.088 L216.587,205.837 L227.861,205.837 L227.976,149.165 C227.985,146.424 227.992,143.341 229.873,141.868 C231.517,140.693 233.725,140.324 236.59,140.324 L236.59,138.288 L215.887,138.288 L215.887,140.324 C219.497,140.428 220.461,140.693 222.125,141.875 C224.011,143.333 225.103,146.433 225.036,149.169 L225.036,193.167 L184.412,138.313 z" fill="#1A1919"/>
      <path d="M182.044,220.233 L181.961,220.25 C181.266,220.446 180.658,220.604 180.457,220.647 C179.632,220.829 178.422,221.012 177.22,221.129 C175.952,221.244 174.771,221.337 174.106,221.361 C173.947,221.363 173.809,221.366 173.682,221.366 C173.224,221.366 172.977,221.328 172.797,221.237 C172.596,221.167 172.388,221.031 172.187,220.877 C171.837,221.062 171.487,221.248 171.138,221.431 L172.963,223.498 L173.061,223.477 C173.595,223.342 173.761,223.294 173.866,223.277 C174.202,223.204 174.757,223.136 175.117,223.115 C177.572,222.882 180.202,222.655 182.21,222.587 C182.838,222.562 182.95,222.547 183.297,222.535 L183.367,222.532 L183.413,222.477 L183.94,221.836 z" fill="#1A1919"/>
      <path d="M186.714,229.571 L184.627,227.81 L184.533,227.851 C183.7,228.241 182.619,228.279 182.287,228.301 C181.599,228.345 180.349,228.416 179.218,228.466 C177.411,228.555 174.891,228.718 172.457,228.903 C171.65,228.972 170.934,229.017 170.414,229.017 C169.969,229.013 169.748,228.948 169.163,228.411 C168.789,228.557 168.409,228.709 168.026,228.845 L170.258,231.334 L170.351,231.318 C171.003,231.207 171.344,231.088 171.621,230.999 C172.05,230.858 172.402,230.773 173.135,230.701 C175.44,230.38 178.518,230.222 180.571,230.196 C182.157,230.196 183.283,230.292 184.15,230.419 C184.653,230.491 185.164,230.608 185.631,230.608 C185.822,230.618 185.988,230.568 186.119,230.436 C186.252,230.321 186.393,230.138 186.723,229.813 L186.845,229.684 z" fill="#1A1919"/>
      <path d="M213.767,222.351 L213.677,222.415 C213.677,222.415 213.092,222.798 212.792,222.877 C212.493,222.954 211.662,223.005 211.228,223.028 C209.965,223.136 209.151,223.227 207.894,223.316 C207.932,222.837 207.956,222.102 207.989,221.939 C208.013,221.793 208.035,221.675 208.083,221.599 C208.274,221.273 208.507,220.561 208.519,220.35 L208.519,220.201 L207.047,220.103 C208.008,219.833 208.972,219.538 209.946,219.198 C210.133,219.15 210.54,219.026 210.919,219.026 C211.031,219.026 211.14,219.04 211.237,219.066 L211.367,219.097 L211.921,217.902 L207.843,216.122 L207.39,216.845 L207.544,216.929 C208.083,217.215 208.286,217.42 208.281,217.531 C208.281,217.56 208.27,217.583 208.047,217.732 C207.779,217.911 207.491,218.067 206.961,218.299 C204.662,219.31 202.247,220.068 198.718,220.649 L198.574,220.669 L198.646,221.531 L198.802,221.521 C200.888,221.392 202.942,221.086 205.018,220.612 C205.189,220.647 205.369,220.685 205.514,220.746 C205.663,220.767 205.785,221.103 205.776,221.584 C205.79,221.812 205.797,222.264 205.793,222.707 C205.797,223.005 205.793,223.304 205.785,223.531 C203.195,223.776 201.361,224.003 199.724,224.164 C199.283,224.21 198.996,224.229 198.654,224.229 C198.278,224.229 197.806,224.075 197.432,223.678 C197.228,223.726 197.024,223.779 196.821,223.841 C196.732,223.867 196.595,223.896 196.438,223.939 L198.311,226.464 L198.424,226.416 C198.8,226.265 199.188,226.141 199.43,226.04 C199.719,225.93 200.076,225.815 200.718,225.704 C202.13,225.434 203.667,225.172 205.67,224.942 C205.241,229.447 203.289,231.988 199.719,234.192 C199.926,234.436 200.125,234.674 200.309,234.932 C204.832,232.956 207.343,230.052 207.846,224.705 C209.251,224.615 210.265,224.578 211.606,224.578 C212.246,224.578 212.842,224.619 213.509,224.713 C213.952,224.779 214.361,224.796 214.836,224.894 L214.915,224.909 L216.022,223.953 z" fill="#1A1919"/>
      <path d="M240.67,218.323 L240.586,218.319 L240.474,218.663 L240.553,218.704 C241.113,219.03 241.585,219.601 241.841,220.02 C241.841,220.02 242.043,220.357 242.107,220.621 L242.124,220.703 L242.534,220.748 L243.27,220.079 L243.255,220.012 C242.836,218.34 240.675,218.328 240.67,218.323" fill="#1A1919"/>
      <path d="M242.786,216.687 L242.701,216.685 L242.589,217.023 L242.67,217.071 C243.229,217.392 243.701,217.969 243.954,218.388 C243.954,218.388 244.16,218.721 244.22,218.985 L244.239,219.066 L244.649,219.116 L245.387,218.443 L245.371,218.378 C244.951,216.707 242.792,216.694 242.786,216.687" fill="#1A1919"/>
      <path d="M234.677,232.273 C234.677,232.273 236.83,232.772 237.067,234.221 L237.11,234.455 L238.519,233.572 C239.202,233.109 239.625,232.513 239.882,231.727 C240.514,229.695 241.07,227.08 241.418,224.313 C241.456,223.968 241.648,223.683 241.889,223.392 L242.558,222.643 L240.212,220.813 L239.463,221.442 C239.314,221.618 239.111,221.661 238.72,221.709 C237.484,221.819 236.394,221.943 234.976,222.037 C235.101,221.402 235.225,220.884 235.378,220.213 L235.956,217.548 L235.761,217.548 L232.261,217.461 C232.324,217.73 232.382,218.003 232.434,218.278 C232.441,218.297 232.449,218.333 232.458,218.366 C232.82,218.432 233.098,218.518 233.191,218.577 C233.251,218.614 233.28,218.702 233.28,218.908 C233.28,219.768 233.15,220.808 232.908,222.204 C230.984,222.367 229.597,222.471 228.762,222.471 L228.543,222.471 C227.911,222.466 227.571,222.356 226.932,221.776 L226.896,221.742 C226.763,221.84 226.629,221.941 226.498,222.044 C226.383,222.14 226.258,222.245 226.121,222.36 L227.921,224.578 L228.019,224.548 C228.495,224.428 228.632,224.373 228.819,224.322 C229.025,224.279 229.353,224.178 229.83,224.107 C230.637,223.936 231.454,223.819 232.604,223.713 C232.012,226.021 231.275,227.793 230.299,229.298 C229.248,230.895 227.717,232.379 225.726,233.574 L225.592,233.655 L225.983,234.395 L226.117,234.345 C229.111,233.244 231.129,231.394 232.352,229.422 C233.409,227.741 234.126,225.814 234.702,223.512 C236.694,223.294 237.99,223.184 239.508,223.112 C239.515,223.112 239.518,223.115 239.527,223.119 C239.223,226.239 238.672,228.84 237.984,230.67 C237.808,231.203 237.573,231.425 237.453,231.487 C237.345,231.573 237.081,231.603 236.804,231.629 C236.428,231.629 235.592,231.461 234.847,231.308" fill="#1A1919"/>
      <path d="M272.36,231.015 C271.924,230.347 271.744,230.163 271.191,229.635 C269.805,228.333 267.688,226.962 265.196,226.006 C266.282,224.768 267.34,223.333 268.244,222.029 C268.534,221.606 268.804,221.382 269.14,221.253 L269.169,221.241 L270.108,220.357 L267.434,218.558 L266.998,219.056 C266.595,219.401 266.49,219.456 265.874,219.533 C264.023,219.739 261.852,219.948 260.491,220.041 C259.962,220.086 259.224,220.108 258.87,220.132 C258.451,220.132 258.156,220.086 257.942,219.965 C257.888,219.936 257.84,219.914 257.791,219.881 C257.512,220.005 257.236,220.127 256.955,220.242 C256.888,220.273 256.817,220.304 256.749,220.34 C256.738,220.343 256.731,220.345 256.719,220.35 C256.701,220.367 256.682,220.389 256.658,220.403 L258.348,222.453 L259.224,222.087 C259.588,221.931 260.161,221.817 260.897,221.701 C262.114,221.541 263.812,221.291 266.217,220.966 C265.232,222.588 263.929,224.301 262.973,225.417 C260.324,228.459 257.664,230.52 254.052,232.177 L253.913,232.24 L254.232,233.025 L254.371,232.982 C258.747,231.718 261.83,229.583 264.42,226.88 C266.449,228.031 269.295,231.157 270.57,233.025 L270.692,233.202 L270.829,233.04 L272.427,231.111 z" fill="#1A1919"/>
      <path d="M552.431,167.573 C542.221,163.315 531.338,160.551 531.043,152.499 C531.043,152.485 531.041,152.465 531.041,152.441 C531.038,148.194 533.082,145.029 536.004,143.082 C538.92,141.115 542.662,140.25 546.313,140.243 L546.332,140.243 C546.375,140.241 546.418,140.241 546.458,140.241 C555.174,140.227 562.361,144.615 564.963,153.671 L567.959,153.726 L567.025,143.329 C561.896,140.722 556.285,137.701 545.802,137.68 L545.783,137.68 C545.759,137.68 545.749,137.678 545.749,137.678 L545.749,137.68 L545.749,137.678 C539.84,137.678 534.133,139.594 529.963,142.782 C525.785,145.979 523.152,150.374 523.152,155.446 C523.156,163.344 528.523,167.821 535.741,171.413 C542.93,174.963 551.693,177.328 557.733,180.998 C561.743,183.42 564.701,186.644 564.701,191.26 L564.701,191.262 L564.421,191.262 L564.701,191.27 C564.67,198.219 557.745,204 547.922,204.005 L547.683,204.005 C535.379,204.033 527.886,198.79 524.385,186.854 L521.458,187.137 L522.246,199.075 C528.899,203.761 538.024,206.571 547.626,206.571 C562.435,206.515 572.571,198.955 572.587,187.712 L572.587,187.65 C572.604,176.941 562.825,171.781 552.433,167.573 z" fill="#5DBCB1"/>
      <path d="M473.96,175.317 L483.979,147.947 L492.972,175.317 z M498.541,203.792 L498.541,203.792 C497.058,204.209 494.957,204.376 491.867,204.408 L491.865,205.79 L517.907,205.787 L517.907,204.405 C514.06,204.271 511.377,202.639 510.471,199.793 L489.232,138.289 L480.081,138.291 L482.06,143.806 L463.831,192.484 C462.193,196.923 461.228,199.695 459.817,201.583 C458.451,203.377 455.018,204.063 452.572,204.317 L452.572,205.759 L472.444,205.759 L472.444,204.251 C470.599,204.003 467.662,203.792 466.651,203.368 C465.053,202.749 464.698,201.641 464.71,200.989 C464.71,200.653 464.785,200.435 464.795,200.409 L472.801,178.48 L494.012,178.475 L501.246,200.704 C501.246,200.704 502.236,202.929 498.541,203.792" fill="#5DBCB1"/>
      <path d="M95.905,171.636 L95.905,154.655 C95.905,119.608 61.765,115.068 61.765,115.068 L61.765,155.226 z" fill="#5DBCB1"/>
      <path d="M61.765,155.226 L27.413,155.24 L27.413,193.605 z" fill="#5DBCB1"/>
      <path d="M61.765,172.479 L61.765,189.466 C61.765,224.509 95.905,229.049 95.905,229.049 L95.905,188.889 z" fill="#1A1919"/>
      <path d="M95.905,188.889 L130.256,188.874 L130.256,151.565 z" fill="#1A1919"/>
      <path d="M428.129,175.023 L428.129,176.415 C431.481,176.48 434.428,176.762 435.923,178.082 C437.47,179.584 437.571,181.74 437.588,184.794 L437.072,199.966 L436.583,200.236 C432.288,202.58 427.126,204.003 422.296,204.008 L421.953,204.008 L421.947,204.003 C414.621,203.95 408.174,201.894 403.593,196.833 C398.949,191.701 396.333,183.659 396.333,171.932 C396.333,162.228 398.97,154.318 403.567,148.81 C408.153,143.297 414.719,140.241 422.279,140.243 L422.282,140.246 C422.306,140.243 422.328,140.243 422.351,140.243 C431.714,140.221 440.299,145.384 441.825,157.504 L444.595,157.504 L444.595,144.551 C437.558,140.277 429.637,137.697 421.378,137.684 L421.372,137.685 L421.304,137.685 C401.455,137.718 386.093,152.037 386.074,172.224 C386.113,193.788 401.366,206.484 421.307,206.576 L421.307,206.575 C430.295,206.376 438.352,204.161 445.605,200.8 L446.176,184.165 C446.293,181.639 446.398,179.759 447.479,178.305 C448.548,176.978 450.952,176.537 453.269,176.427 L453.269,175.023 z" fill="#5DBCB1"/>
      <path d="M338.076,188.311 C332.882,196.227 326.198,201.14 317.146,201.154 L317.138,201.156 L317.045,201.156 C316.999,201.154 316.999,201.15 316.999,201.15 C310.632,201.164 305.156,198.687 301.438,193.706 C297.715,188.718 295.721,181.383 295.716,171.636 C295.721,161.303 297.738,153.568 301.143,148.307 C304.568,143.015 310.23,140.341 315.545,140.341 L315.567,140.341 C326.189,140.344 333.167,148.637 334.152,157.499 L336.995,157.499 L336.995,145.955 L336.995,145.954 C330.171,141.068 322.234,137.991 313.593,137.991 C293.8,138.03 278.593,152.298 278.561,172.524 C278.645,193.536 292.197,206.185 311.125,206.273 C324.291,206.237 333.979,200.09 339.638,189.279 z" fill="#1A1919"/>
    </g>
  </g>
</svg>
