<?xml version="1.0" encoding="UTF-8"?>
<!DOCTYPE svg PUBLIC "-//W3C//DTD SVG 1.1//EN" "http://www.w3.org/Graphics/SVG/1.1/DTD/svg11.dtd">
<svg version="1.1" xmlns="http://www.w3.org/2000/svg" xmlns:xlink="http://www.w3.org/1999/xlink" x="0" y="0" width="412" height="93.314" viewBox="0, 0, 412, 93.314">
  <defs>
    <linearGradient id="Gradient_1" gradientUnits="userSpaceOnUse" x1="8.249" y1="2.014" x2="36.786" y2="32.71" gradientTransform="matrix(1, 0, 0, 1, 358.342, 12)">
      <stop offset="0" stop-color="#FC575E"/>
      <stop offset="1" stop-color="#F7B42C"/>
    </linearGradient>
    <clipPath id="Clip_1">
      <path d="M-0,26.195 L251.847,26.195 L251.847,93.314 L-0,93.314 z"/>
    </clipPath>
  </defs>
  <g id="グループ_4504">
    <path d="M256.827,70.488 L265.021,70.488 L265.021,52.304 C269.507,52.304 273.335,52.364 276.983,50.151 C280.539,48.03 282.632,44.118 282.426,39.983 C282.502,36.651 281.254,33.425 278.957,31.011 C276.266,28.379 272.378,27.542 266.816,27.542 L256.827,27.542 z M265.021,35.559 L268.49,35.559 C272.378,35.559 274.411,37.114 274.411,39.985 C274.411,42.916 272.557,44.351 268.849,44.351 L265.021,44.351 z M290.859,70.488 L298.814,70.488 L298.814,26.468 L290.859,26.468 z M308.204,53.263 C308.093,55.501 308.194,57.744 308.504,59.963 C309.76,67.379 314.485,71.263 322.141,71.263 C326.567,71.263 329.857,70.063 332.369,67.256 C335.717,63.55 336.071,59.244 336.071,53.383 L336.071,38.729 L328.121,38.729 L328.121,55.655 C328.121,61.038 326.387,63.969 322.14,63.969 C317.953,63.969 316.159,60.979 316.159,55.297 L316.159,38.729 L308.204,38.729 z M355.215,58.104 C357.428,59.24 358.744,60.257 358.744,61.633 C358.744,63.068 357.189,64.205 355.215,64.205 C353.122,64.205 350.43,62.65 348.576,60.497 L343.671,65.883 C346.27,69.403 350.422,71.434 354.796,71.326 C361.734,71.326 366.22,67.079 366.22,61.398 C366.22,56.673 363.409,53.922 358.146,51.23 L355.215,49.73 C353.481,48.83 352.344,48.295 352.344,47.098 C352.344,45.842 353.6,45.184 355.215,45.184 C357.129,45.184 358.923,46.32 360.715,48.115 L365.615,43.151 C363.168,39.825 359.278,37.869 355.148,37.888 C349.048,37.888 344.861,42.075 344.861,47.039 C344.861,51.046 347.433,54.156 352.517,56.728 z" fill="#108CF7" id="パス_3673"/>
    <g id="plus-mark">
      <path d="M367.73,39.665 L358.359,42.865 C358.475,42.816 359.174,42.386 360.574,38.822 C361.931,35.372 364.381,28.076 364.952,26.367 C366.531,18.087 373.736,12.073 382.166,11.999 C390.595,11.926 397.904,17.813 399.627,26.064 C401.351,34.316 397.01,42.637 389.256,45.943 C381.502,49.25 372.492,46.623 367.73,39.667 z M358.359,42.865 L358.342,42.87 z" fill="url(#Gradient_1)" id="合体_10-2"/>
      <path d="M384.445,28.155 C384.246,28.155 384.084,27.993 384.084,27.794 L384.084,19.855 L380.481,19.855 L380.481,27.79 C380.481,27.989 380.319,28.151 380.12,28.151 L372.181,28.151 L372.181,31.755 L380.116,31.755 C380.315,31.755 380.477,31.917 380.477,32.116 L380.477,40.055 L384.081,40.055 L384.081,32.119 C384.081,31.92 384.243,31.758 384.442,31.758 L392.381,31.758 L392.381,28.155 z M384.445,28.155" fill="#FFFFFF" id="add"/>
    </g>
    <g clip-path="url(#Clip_1)" id="グループ_3572">
      <path d="M182.348,36.333 L170.821,36.333 C170.271,36.333 169.824,35.889 169.821,35.339 L169.821,32.822 C169.824,32.272 170.271,31.828 170.821,31.828 L182.347,31.828 C182.896,31.828 183.341,32.273 183.341,32.822 L183.341,35.338 C183.338,35.886 182.895,36.329 182.347,36.332" fill="#222222" id="パス_3723"/>
      <path d="M178.836,52.69 L170.501,52.69 C170.128,52.691 169.827,52.992 169.826,53.365 L169.826,70.036 C169.826,70.409 170.128,70.711 170.501,70.712 L173.656,70.712 C173.835,70.712 174.007,70.641 174.134,70.514 C174.26,70.387 174.331,70.215 174.331,70.036 L174.331,69.674 C174.331,69.3 174.633,68.998 175.007,68.997 L178.162,68.997 C178.535,68.998 178.838,69.301 178.837,69.674 L178.837,70.036 C178.837,70.409 179.14,70.712 179.513,70.712 L182.666,70.712 C182.845,70.712 183.018,70.641 183.145,70.514 C183.272,70.388 183.343,70.215 183.343,70.036 L183.343,53.365 C183.342,52.992 183.039,52.689 182.666,52.69 z M178.161,64.49 L175.007,64.49 C174.634,64.49 174.332,64.188 174.331,63.815 L174.331,57.872 C174.331,57.693 174.402,57.521 174.529,57.394 C174.656,57.268 174.828,57.197 175.007,57.197 L178.162,57.197 C178.341,57.197 178.513,57.268 178.64,57.394 C178.766,57.521 178.837,57.693 178.837,57.872 L178.837,63.819 C178.837,64.192 178.535,64.494 178.162,64.494" fill="#222222" id="パス_3724"/>
      <path d="M180.095,43.092 L173.074,43.092 C172.81,43.092 172.557,42.988 172.371,42.801 C172.184,42.615 172.08,42.362 172.08,42.098 L172.08,39.58 C172.08,39.316 172.184,39.063 172.371,38.877 C172.557,38.69 172.81,38.586 173.074,38.586 L180.095,38.586 C180.643,38.589 181.087,39.032 181.09,39.58 L181.09,42.099 C181.087,42.647 180.643,43.09 180.095,43.093" fill="#222222" id="パス_3725"/>
      <path d="M180.095,49.85 L173.074,49.85 C172.81,49.85 172.557,49.746 172.371,49.559 C172.184,49.373 172.08,49.12 172.08,48.856 L172.08,46.339 C172.08,46.075 172.184,45.822 172.371,45.636 C172.557,45.449 172.81,45.345 173.074,45.345 L180.095,45.345 C180.643,45.348 181.087,45.791 181.09,46.339 L181.09,48.855 C181.09,49.119 180.985,49.372 180.799,49.558 C180.612,49.745 180.359,49.849 180.095,49.849" fill="#222222" id="パス_3726"/>
      <path d="M177.842,30.701 L175.326,30.701 C174.776,30.701 174.329,30.257 174.326,29.707 L174.326,27.195 C174.326,26.643 174.774,26.195 175.326,26.195 L177.842,26.195 C178.392,26.198 178.837,26.645 178.837,27.195 L178.837,29.706 C178.834,30.254 178.39,30.697 177.842,30.7" fill="#222222" id="パス_3727"/>
      <path d="M208.123,35.657 L208.123,32.506 C208.122,32.133 207.82,31.831 207.447,31.831 L185.145,31.831 C184.772,31.832 184.471,32.133 184.47,32.506 L184.47,35.66 C184.47,36.033 184.772,36.335 185.145,36.335 L193.368,36.335 C193.741,36.336 194.043,36.638 194.043,37.011 L194.043,37.911 C194.042,38.284 193.741,38.585 193.368,38.586 L185.145,38.586 C184.772,38.587 184.47,38.889 184.47,39.262 L184.47,41.289 C184.47,41.662 184.772,41.964 185.145,41.965 L193.368,41.965 C193.741,41.966 194.043,42.268 194.043,42.641 L194.043,43.541 C194.044,43.914 193.741,44.217 193.368,44.218 L185.145,44.218 C184.772,44.218 184.47,44.52 184.47,44.893 L184.47,48.047 C184.471,48.42 184.772,48.722 185.145,48.723 L207.445,48.723 C207.818,48.723 208.121,48.42 208.121,48.047 L208.121,44.894 C208.121,44.715 208.05,44.543 207.923,44.416 C207.796,44.29 207.624,44.219 207.445,44.219 L199.225,44.219 C199.046,44.219 198.873,44.148 198.747,44.021 C198.62,43.894 198.549,43.721 198.549,43.542 L198.549,42.642 C198.549,42.269 198.852,41.966 199.225,41.966 L207.445,41.966 C207.818,41.966 208.121,41.663 208.121,41.29 L208.121,39.262 C208.121,38.889 207.818,38.586 207.445,38.586 L199.225,38.586 C199.046,38.586 198.874,38.515 198.747,38.389 C198.62,38.262 198.549,38.09 198.549,37.911 L198.549,37.011 C198.549,36.638 198.852,36.335 199.225,36.335 L207.445,36.335 C207.624,36.335 207.796,36.264 207.923,36.138 C208.05,36.011 208.121,35.839 208.121,35.66" fill="#222222" id="パス_3728"/>
      <path d="M200.688,49.875 L198.661,49.875 C198.288,49.875 197.986,50.177 197.985,50.55 L197.985,54.266 C197.986,54.639 197.684,54.942 197.311,54.943 L192.467,54.943 C192.093,54.942 191.791,54.64 191.791,54.266 L191.791,53.928 C191.792,53.555 192.094,53.253 192.467,53.253 L196.185,53.253 C196.558,53.252 196.86,52.95 196.86,52.577 L196.86,50.55 C196.86,50.177 196.558,49.875 196.185,49.875 L185.145,49.875 C184.772,49.875 184.47,50.177 184.47,50.55 L184.47,52.577 C184.47,52.95 184.772,53.252 185.145,53.253 L187.737,53.253 C188.11,53.253 188.412,53.555 188.413,53.928 L188.413,54.266 C188.413,54.64 188.111,54.942 187.737,54.943 L185.145,54.943 C184.772,54.943 184.47,55.245 184.47,55.618 L184.47,58.773 C184.471,59.146 184.772,59.447 185.145,59.448 L187.737,59.448 C188.11,59.449 188.412,59.751 188.413,60.124 L188.413,60.462 C188.412,60.835 188.11,61.137 187.737,61.137 L185.145,61.137 C184.772,61.138 184.471,61.44 184.47,61.813 L184.47,63.841 C184.472,64.212 184.774,64.512 185.145,64.513 L187.737,64.513 C188.11,64.514 188.412,64.816 188.413,65.189 L188.413,65.527 C188.412,65.9 188.11,66.201 187.737,66.202 L185.145,66.202 C184.772,66.203 184.471,66.504 184.47,66.877 L184.47,70.031 C184.47,70.404 184.772,70.706 185.145,70.706 L191.116,70.706 C191.489,70.706 191.791,70.404 191.791,70.031 L191.791,65.193 C191.791,64.82 192.094,64.517 192.467,64.517 L197.311,64.517 C197.684,64.518 197.985,64.82 197.985,65.193 L197.985,70.036 C197.986,70.409 198.288,70.711 198.661,70.711 L207.445,70.711 C207.624,70.711 207.796,70.64 207.923,70.514 C208.05,70.387 208.121,70.215 208.121,70.036 L208.121,61.813 C208.121,61.44 207.818,61.137 207.445,61.137 L205.417,61.137 C205.044,61.138 204.743,61.44 204.742,61.813 L204.742,65.531 C204.741,65.904 204.439,66.206 204.066,66.206 L202.038,66.206 C201.666,66.205 201.364,65.903 201.363,65.531 L201.363,65.193 C201.364,64.82 201.665,64.518 202.038,64.517 L202.938,64.517 C203.311,64.517 203.613,64.215 203.614,63.842 L203.614,61.813 C203.614,61.44 203.311,61.137 202.938,61.137 L202.038,61.137 C201.665,61.136 201.364,60.835 201.363,60.462 L201.363,60.124 C201.363,59.751 201.665,59.449 202.038,59.448 L207.445,59.448 C207.624,59.448 207.796,59.377 207.923,59.251 C208.05,59.124 208.121,58.952 208.121,58.773 L208.121,55.619 C208.121,55.44 208.05,55.268 207.923,55.141 C207.796,55.015 207.624,54.944 207.445,54.944 L202.038,54.944 C201.665,54.943 201.363,54.64 201.363,54.267 L201.363,50.55 C201.363,50.371 201.292,50.199 201.165,50.072 C201.038,49.946 200.866,49.875 200.687,49.875 M197.309,61.138 L192.465,61.138 C192.286,61.138 192.114,61.067 191.987,60.941 C191.86,60.814 191.789,60.642 191.789,60.463 L191.789,60.125 C191.789,59.752 192.092,59.449 192.465,59.449 L197.309,59.449 C197.682,59.45 197.984,59.752 197.983,60.125 L197.983,60.463 C197.983,60.642 197.912,60.814 197.786,60.94 C197.66,61.067 197.488,61.138 197.309,61.138" fill="#222222" id="パス_3729"/>
      <path d="M203.166,53.253 L207.446,53.253 C207.625,53.253 207.797,53.182 207.924,53.056 C208.051,52.929 208.122,52.757 208.122,52.578 L208.122,50.549 C208.122,50.37 208.051,50.198 207.924,50.071 C207.797,49.945 207.625,49.874 207.446,49.874 L203.166,49.874 C202.793,49.875 202.492,50.176 202.491,50.549 L202.491,52.577 C202.492,52.95 202.793,53.251 203.166,53.252" fill="#222222" id="パス_3730"/>
      <path d="M194.496,26.195 L191.341,26.195 C190.968,26.196 190.667,26.497 190.666,26.87 L190.666,30.025 C190.666,30.398 190.968,30.7 191.341,30.7 L194.496,30.7 C194.869,30.7 195.171,30.398 195.171,30.025 L195.171,26.87 C195.17,26.497 194.869,26.196 194.496,26.195" fill="#222222" id="パス_3731"/>
      <path d="M201.251,26.195 L198.098,26.195 C197.725,26.195 197.423,26.497 197.422,26.87 L197.422,30.025 C197.422,30.204 197.493,30.376 197.62,30.503 C197.747,30.629 197.919,30.7 198.098,30.7 L201.251,30.7 C201.43,30.7 201.602,30.629 201.729,30.503 C201.856,30.376 201.927,30.204 201.927,30.025 L201.927,26.87 C201.926,26.497 201.624,26.195 201.251,26.195" fill="#222222" id="パス_3732"/>
      <path d="M47.416,69.52 L31.508,56.109 C31.355,55.98 31.152,55.926 30.955,55.96 C30.758,55.995 30.586,56.115 30.486,56.288 L28.313,60.052 C28.149,60.335 28.212,60.695 28.461,60.907 L39.904,70.555 C40.026,70.657 40.181,70.713 40.34,70.713 L46.979,70.713 C47.263,70.713 47.517,70.536 47.614,70.269 C47.712,70.002 47.632,69.703 47.415,69.52" fill="#222222" id="パス_3733"/>
      <path d="M38.317,26.195 L17.917,26.195 C17.676,26.195 17.453,26.324 17.332,26.533 L14.86,30.814 C14.739,31.023 14.738,31.281 14.859,31.49 C14.98,31.7 15.203,31.828 15.445,31.828 L33.893,31.828 C34.134,31.828 34.358,31.956 34.478,32.165 C34.599,32.374 34.599,32.632 34.478,32.841 L0.092,92.295 C-0.029,92.504 -0.03,92.762 0.091,92.972 C0.212,93.181 0.435,93.31 0.677,93.31 L5.619,93.31 C5.86,93.31 6.083,93.181 6.204,92.972 L41.568,31.828 L44.234,27.209 C44.355,27 44.355,26.742 44.234,26.533 C44.113,26.324 43.89,26.195 43.648,26.195 z" fill="#222222" id="パス_3734"/>
      <path d="M233.354,26.195 L230.201,26.195 C229.828,26.196 229.526,26.497 229.525,26.87 L229.525,30.025 C229.526,30.398 229.828,30.7 230.201,30.7 L233.354,30.7 C233.533,30.7 233.705,30.629 233.832,30.503 C233.959,30.376 234.03,30.204 234.03,30.025 L234.03,26.87 C234.029,26.497 233.727,26.195 233.354,26.195" fill="#222222" id="パス_3735"/>
      <path d="M217.775,36.333 L245.775,36.333 C246.064,36.333 246.321,36.517 246.415,36.79 L247.54,40.08 C247.633,40.354 247.891,40.538 248.18,40.538 L251.169,40.538 C251.379,40.538 251.577,40.44 251.705,40.274 C251.832,40.107 251.875,39.891 251.821,39.688 L250.921,36.338 L249.849,32.338 C249.77,32.043 249.502,31.838 249.196,31.838 L214.353,31.838 C214.047,31.838 213.78,32.043 213.7,32.338 L212.627,36.338 L211.727,39.688 C211.673,39.891 211.716,40.107 211.843,40.274 C211.971,40.44 212.169,40.538 212.379,40.538 L215.367,40.538 C215.656,40.537 215.913,40.354 216.007,40.08 L217.131,36.79 C217.225,36.517 217.482,36.333 217.771,36.333" fill="#222222" id="パス_3736"/>
      <path d="M234.706,61.701 L242.365,61.701 C242.738,61.701 243.04,61.399 243.041,61.026 L243.041,57.871 C243.041,57.692 242.97,57.52 242.843,57.393 C242.716,57.266 242.544,57.195 242.365,57.195 L234.706,57.195 C234.333,57.195 234.03,56.892 234.03,56.519 L234.03,53.365 C234.031,52.992 234.333,52.69 234.706,52.69 L239.717,52.69 C239.958,52.69 240.182,52.819 240.302,53.028 L240.802,53.887 C240.988,54.211 241.401,54.322 241.725,54.136 L244.455,52.558 C244.61,52.469 244.724,52.321 244.77,52.148 C244.817,51.975 244.793,51.79 244.703,51.635 L240.11,43.678 L244.62,43.678 C244.799,43.679 244.971,43.608 245.098,43.481 C245.225,43.354 245.296,43.182 245.296,43.003 L245.296,39.848 C245.295,39.475 244.993,39.173 244.62,39.173 L218.94,39.173 C218.567,39.173 218.264,39.475 218.263,39.848 L218.263,43.002 C218.263,43.181 218.334,43.353 218.461,43.48 C218.588,43.607 218.761,43.678 218.94,43.677 L223.362,43.677 C223.6,43.678 223.82,43.804 223.942,44.009 C224.063,44.214 224.067,44.468 223.953,44.677 L220.098,51.685 C219.984,51.894 219.988,52.149 220.11,52.354 C220.232,52.559 220.452,52.685 220.691,52.685 L228.852,52.685 C229.224,52.686 229.526,52.988 229.526,53.36 L229.526,56.514 C229.526,56.887 229.225,57.189 228.852,57.19 L221.191,57.19 C221.012,57.19 220.84,57.261 220.713,57.388 C220.587,57.515 220.516,57.687 220.516,57.866 L220.516,61.02 C220.517,61.393 220.818,61.694 221.191,61.695 L228.852,61.695 C229.224,61.696 229.525,61.998 229.526,62.37 L229.526,65.533 C229.525,65.905 229.224,66.207 228.852,66.208 L214.431,66.208 C214.058,66.207 213.755,66.51 213.754,66.883 L213.754,70.033 C213.754,70.212 213.825,70.385 213.952,70.511 C214.079,70.638 214.252,70.709 214.431,70.709 L249.124,70.709 C249.497,70.708 249.799,70.406 249.799,70.033 L249.799,66.882 C249.798,66.509 249.497,66.208 249.124,66.207 L234.706,66.207 C234.333,66.207 234.031,65.905 234.03,65.532 L234.03,62.376 C234.031,62.003 234.333,61.701 234.706,61.701 M227.606,47.17 L229.427,44.016 C229.547,43.807 229.771,43.678 230.012,43.678 L238.676,43.678 L236.435,44.972 C236.28,45.062 236.166,45.209 236.12,45.382 C236.074,45.555 236.098,45.74 236.188,45.895 L236.923,47.171 C237.044,47.38 237.044,47.638 236.923,47.847 C236.802,48.056 236.579,48.185 236.338,48.185 L228.189,48.185 C227.948,48.185 227.725,48.056 227.604,47.847 C227.483,47.638 227.483,47.38 227.604,47.171" fill="#222222" id="パス_3737"/>
      <path d="M78.364,38.206 C78.533,38.005 78.569,37.724 78.458,37.486 C78.347,37.248 78.109,37.096 77.846,37.096 L42.304,37.096 C42.063,37.096 41.84,37.225 41.719,37.434 L39.251,41.714 C39.13,41.923 39.13,42.181 39.251,42.39 C39.372,42.599 39.595,42.728 39.836,42.728 L65.768,42.728 C66.031,42.727 66.271,42.88 66.382,43.118 C66.493,43.356 66.456,43.638 66.287,43.839 L55.387,56.826 C55.27,56.966 55.101,57.052 54.919,57.065 C54.737,57.079 54.558,57.019 54.421,56.898 L48.23,51.433 C48.093,51.312 47.914,51.252 47.732,51.266 C47.55,51.279 47.381,51.365 47.264,51.505 L44.519,54.775 C44.281,55.059 44.317,55.482 44.599,55.723 L61.969,70.551 C62.092,70.655 62.247,70.712 62.408,70.712 L68.941,70.712 C69.225,70.712 69.478,70.534 69.576,70.268 C69.673,70.001 69.593,69.702 69.376,69.519 L59.765,61.419 C59.48,61.178 59.444,60.753 59.683,60.467 L74.569,42.728 z" fill="#222222" id="パス_3738"/>
      <path d="M71.079,51.33 L67.488,55.61 C67.319,55.811 67.282,56.092 67.393,56.331 C67.504,56.569 67.743,56.721 68.006,56.721 L96.937,56.721 C97.31,56.72 97.612,56.418 97.612,56.045 L97.612,51.765 C97.612,51.392 97.31,51.09 96.937,51.089 L71.6,51.089 C71.4,51.09 71.211,51.178 71.083,51.331" fill="#222222" id="パス_3739"/>
      <path d="M152.932,61.828 L153.842,63.407 C153.957,63.607 153.963,63.852 153.856,64.057 C153.749,64.261 153.545,64.397 153.315,64.417 L140.379,65.549 C140.128,65.571 139.885,65.451 139.75,65.239 C139.614,65.026 139.609,64.755 139.735,64.537 L146.055,53.592 C146.176,53.383 146.399,53.255 146.64,53.254 L159.979,53.254 C160.221,53.254 160.444,53.383 160.565,53.592 L162.176,56.383 C162.297,56.592 162.52,56.721 162.762,56.721 L166.403,56.721 C166.644,56.72 166.867,56.591 166.988,56.382 C167.109,56.173 167.109,55.915 166.988,55.706 L150.145,26.533 C150.024,26.324 149.801,26.195 149.559,26.195 L145.138,26.195 C144.896,26.195 144.673,26.324 144.552,26.533 L127.709,55.706 C127.588,55.915 127.588,56.173 127.709,56.382 C127.83,56.591 128.053,56.72 128.295,56.72 L131.936,56.72 C132.178,56.72 132.401,56.591 132.522,56.382 L134.133,53.591 C134.254,53.382 134.478,53.253 134.72,53.253 L139.878,53.253 C140.119,53.253 140.343,53.381 140.463,53.59 C140.584,53.799 140.584,54.057 140.463,54.266 L133.788,65.836 C133.678,66.027 133.482,66.153 133.262,66.171 L131.404,66.334 C131.199,66.352 131.014,66.462 130.9,66.633 C130.786,66.804 130.756,67.018 130.819,67.214 L131.805,70.293 C131.9,70.593 132.191,70.787 132.505,70.76 L156.431,68.667 C156.693,68.644 156.944,68.775 157.075,69.002 L158.964,72.274 C159.054,72.429 159.201,72.543 159.374,72.589 C159.547,72.635 159.732,72.611 159.887,72.521 L162.618,70.943 C162.773,70.854 162.886,70.706 162.933,70.533 C162.979,70.36 162.954,70.176 162.864,70.021 L156.834,59.575 C156.744,59.42 156.597,59.307 156.424,59.261 C156.25,59.215 156.066,59.239 155.911,59.329 L153.18,60.905 C153.025,60.994 152.911,61.142 152.865,61.315 C152.818,61.488 152.843,61.673 152.933,61.828 M147.933,31.714 L151.98,38.723 C152.101,38.932 152.102,39.19 151.981,39.4 C151.86,39.609 151.637,39.738 151.395,39.738 L143.302,39.738 C143.06,39.738 142.837,39.609 142.716,39.4 C142.595,39.19 142.596,38.932 142.717,38.723 L146.763,31.714 C146.884,31.505 147.107,31.377 147.348,31.377 C147.589,31.377 147.812,31.505 147.933,31.714 M139.92,44.242 L154.777,44.242 C155.019,44.242 155.242,44.372 155.362,44.581 L157.188,47.735 C157.308,47.944 157.308,48.202 157.187,48.41 C157.066,48.619 156.843,48.748 156.602,48.748 L138.102,48.748 C137.861,48.748 137.637,48.62 137.516,48.411 C137.395,48.202 137.395,47.944 137.515,47.735 L139.336,44.581 C139.456,44.372 139.679,44.242 139.921,44.242" fill="#222222" id="パス_3740"/>
      <path d="M125.728,51.089 L105.499,51.089 L105.499,37.772 C105.498,37.399 105.195,37.096 104.822,37.097 L100.542,37.097 C100.169,37.098 99.868,37.399 99.867,37.772 L99.867,70.037 C99.868,70.41 100.169,70.711 100.542,70.712 L104.819,70.712 C105.192,70.713 105.495,70.41 105.496,70.037 L105.496,56.719 L123.254,56.719 C123.496,56.719 123.72,56.59 123.841,56.381 L126.312,52.101 C126.433,51.892 126.433,51.634 126.312,51.425 C126.191,51.216 125.968,51.087 125.726,51.087" fill="#222222" id="パス_3741"/>
    </g>
  </g>
</svg>
