<?xml version="1.0" encoding="UTF-8"?>
<!DOCTYPE svg PUBLIC "-//W3C//DTD SVG 1.1//EN" "http://www.w3.org/Graphics/SVG/1.1/DTD/svg11.dtd">
<svg version="1.1" xmlns="http://www.w3.org/2000/svg" xmlns:xlink="http://www.w3.org/1999/xlink" x="0" y="0" width="600" height="350" viewBox="0, 0, 600, 350">
  <defs>
    <linearGradient id="Gradient_1" gradientUnits="userSpaceOnUse" x1="183.533" y1="106.895" x2="224.967" y2="151.463" gradientTransform="matrix(1, 0, 0, 1, 358.342, 12)">
      <stop offset="0" stop-color="#FC575E"/>
      <stop offset="1" stop-color="#F7B42C"/>
    </linearGradient>
    <clipPath id="Clip_1">
      <path d="M9.614,136.58 L375.276,136.58 L375.276,234.032 L9.614,234.032 z"/>
    </clipPath>
  </defs>
  <g id="グループ_4504">
    <g>
      <path d="M382.507,200.891 L394.404,200.891 L394.404,174.489 C400.917,174.489 406.475,174.576 411.772,171.363 C416.934,168.283 419.974,162.604 419.674,156.6 C419.784,151.762 417.973,147.079 414.638,143.573 C410.731,139.752 405.086,138.537 397.01,138.537 L382.507,138.537 z M394.404,150.177 L399.441,150.177 C405.086,150.177 408.037,152.434 408.037,156.603 C408.037,160.858 405.346,162.942 399.962,162.942 L394.404,162.942 z M431.919,200.891 L443.469,200.891 L443.469,136.977 L431.919,136.977 z M457.102,175.881 C456.942,179.13 457.087,182.387 457.538,185.609 C459.361,196.377 466.222,202.016 477.338,202.016 C483.764,202.016 488.541,200.274 492.188,196.198 C497.049,190.817 497.563,184.565 497.563,176.056 L497.563,154.779 L486.02,154.779 L486.02,179.354 C486.02,187.17 483.502,191.426 477.336,191.426 C471.257,191.426 468.652,187.084 468.652,178.835 L468.652,154.779 L457.102,154.779 z M525.358,182.91 C528.571,184.56 530.482,186.036 530.482,188.034 C530.482,190.117 528.224,191.768 525.358,191.768 C522.319,191.768 518.411,189.511 515.719,186.385 L508.597,194.205 C512.371,199.315 518.399,202.264 524.75,202.107 C534.823,202.107 541.337,195.941 541.337,187.693 C541.337,180.832 537.255,176.838 529.614,172.93 L525.358,170.752 C522.841,169.445 521.19,168.668 521.19,166.93 C521.19,165.107 523.013,164.151 525.358,164.151 C528.137,164.151 530.742,165.801 533.344,168.407 L540.458,161.2 C536.905,156.37 531.257,153.53 525.261,153.558 C516.404,153.558 510.325,159.637 510.325,166.845 C510.325,172.662 514.06,177.178 521.441,180.912 z" fill="#108CF7" id="パス_3673"/>
      <g id="plus-mark">
        <path d="M543.529,156.138 L529.923,160.784 C530.091,160.713 531.106,160.088 533.139,154.914 C535.109,149.905 538.666,139.311 539.495,136.83 C541.788,124.808 552.249,116.076 564.488,115.969 C576.727,115.862 587.339,124.41 589.841,136.391 C592.344,148.371 586.04,160.452 574.782,165.253 C563.524,170.054 550.442,166.24 543.529,156.141 z M529.923,160.784 L529.898,160.791 z" fill="url(#Gradient_1)" id="合体_10-2"/>
        <path d="M567.797,139.426 C567.508,139.426 567.273,139.192 567.273,138.902 L567.273,127.375 L562.042,127.375 L562.042,138.896 C562.042,139.186 561.807,139.42 561.518,139.42 L549.991,139.42 L549.991,144.653 L561.512,144.653 C561.802,144.653 562.036,144.888 562.036,145.177 L562.036,156.704 L567.269,156.704 L567.269,145.182 C567.269,144.892 567.504,144.657 567.793,144.657 L579.32,144.657 L579.32,139.426 z M567.797,139.426" fill="#FFFFFF" id="add"/>
      </g>
      <g clip-path="url(#Clip_1)" id="グループ_3572">
        <path d="M274.369,151.3 L257.633,151.3 C256.834,151.3 256.185,150.655 256.181,149.857 L256.181,146.202 C256.185,145.404 256.834,144.759 257.633,144.759 L274.367,144.759 C275.164,144.759 275.811,145.405 275.811,146.202 L275.811,149.855 C275.806,150.65 275.162,151.294 274.367,151.299" fill="#222222" id="パス_3723"/>
        <path d="M269.27,175.049 L257.168,175.049 C256.627,175.05 256.189,175.488 256.188,176.029 L256.188,200.234 C256.188,200.776 256.626,201.215 257.168,201.216 L261.749,201.216 C262.009,201.216 262.258,201.112 262.442,200.928 C262.626,200.744 262.729,200.494 262.729,200.234 L262.729,199.708 C262.729,199.166 263.168,198.726 263.71,198.725 L268.291,198.725 C268.833,198.726 269.272,199.166 269.271,199.708 L269.271,200.234 C269.271,200.776 269.71,201.216 270.253,201.216 L274.83,201.216 C275.091,201.216 275.341,201.113 275.525,200.929 C275.71,200.744 275.813,200.495 275.813,200.234 L275.813,176.029 C275.813,175.487 275.373,175.048 274.83,175.049 z M268.29,192.182 L263.71,192.182 C263.169,192.182 262.729,191.743 262.729,191.202 L262.729,182.573 C262.729,182.313 262.832,182.063 263.016,181.879 C263.2,181.696 263.45,181.592 263.71,181.593 L268.291,181.593 C268.551,181.592 268.801,181.696 268.984,181.879 C269.168,182.063 269.271,182.313 269.271,182.573 L269.271,191.207 C269.271,191.749 268.832,192.188 268.291,192.188" fill="#222222" id="パス_3724"/>
        <path d="M271.098,161.114 L260.904,161.114 C260.521,161.114 260.153,160.962 259.883,160.691 C259.612,160.42 259.46,160.053 259.46,159.67 L259.46,156.014 C259.46,155.631 259.612,155.264 259.883,154.993 C260.153,154.723 260.521,154.571 260.904,154.571 L271.098,154.571 C271.893,154.575 272.537,155.219 272.542,156.014 L272.542,159.672 C272.537,160.467 271.893,161.111 271.098,161.115" fill="#222222" id="パス_3725"/>
        <path d="M271.098,170.926 L260.904,170.926 C260.521,170.926 260.153,170.774 259.883,170.503 C259.612,170.233 259.46,169.865 259.46,169.482 L259.46,165.828 C259.46,165.445 259.612,165.078 259.883,164.807 C260.153,164.536 260.521,164.384 260.904,164.385 L271.098,164.385 C271.893,164.389 272.537,165.032 272.542,165.828 L272.542,169.481 C272.542,169.864 272.39,170.231 272.119,170.502 C271.848,170.773 271.481,170.925 271.098,170.924" fill="#222222" id="パス_3726"/>
        <path d="M267.826,143.123 L264.173,143.123 C263.375,143.123 262.726,142.478 262.721,141.68 L262.721,138.032 C262.721,137.23 263.371,136.58 264.173,136.58 L267.826,136.58 C268.625,136.584 269.271,137.233 269.271,138.032 L269.271,141.678 C269.266,142.474 268.622,143.117 267.826,143.121" fill="#222222" id="パス_3727"/>
        <path d="M311.792,150.318 L311.792,145.743 C311.791,145.202 311.352,144.763 310.811,144.763 L278.43,144.763 C277.889,144.764 277.451,145.203 277.45,145.743 L277.45,150.323 C277.45,150.864 277.889,151.303 278.43,151.303 L290.369,151.303 C290.91,151.304 291.349,151.743 291.349,152.284 L291.349,153.591 C291.348,154.132 290.91,154.57 290.369,154.571 L278.43,154.571 C277.888,154.572 277.45,155.011 277.45,155.553 L277.45,158.496 C277.45,159.037 277.888,159.476 278.43,159.477 L290.369,159.477 C290.91,159.478 291.349,159.917 291.349,160.459 L291.349,161.765 C291.35,162.307 290.911,162.748 290.369,162.748 L278.43,162.748 C277.889,162.748 277.45,163.187 277.45,163.728 L277.45,168.308 C277.451,168.849 277.889,169.288 278.43,169.289 L310.808,169.289 C311.35,169.289 311.789,168.85 311.789,168.308 L311.789,163.73 C311.789,163.47 311.686,163.22 311.502,163.036 C311.317,162.853 311.068,162.749 310.808,162.75 L298.873,162.75 C298.612,162.75 298.362,162.646 298.178,162.462 C297.994,162.277 297.891,162.027 297.891,161.767 L297.891,160.46 C297.891,159.918 298.331,159.479 298.873,159.479 L310.808,159.479 C311.35,159.479 311.789,159.039 311.789,158.497 L311.789,155.553 C311.789,155.011 311.35,154.571 310.808,154.571 L298.873,154.571 C298.613,154.572 298.363,154.468 298.179,154.285 C297.995,154.101 297.891,153.851 297.891,153.591 L297.891,152.284 C297.891,151.742 298.331,151.303 298.873,151.303 L310.808,151.303 C311.068,151.303 311.317,151.2 311.502,151.016 C311.686,150.833 311.789,150.583 311.789,150.323" fill="#222222" id="パス_3728"/>
        <path d="M300.997,170.962 L298.054,170.962 C297.512,170.962 297.073,171.4 297.072,171.942 L297.072,177.337 C297.073,177.879 296.635,178.319 296.094,178.32 L289.061,178.32 C288.518,178.319 288.079,177.88 288.079,177.337 L288.079,176.847 C288.08,176.305 288.519,175.866 289.061,175.866 L294.459,175.866 C295,175.866 295.439,175.426 295.439,174.885 L295.439,171.942 C295.439,171.401 295,170.962 294.459,170.962 L278.43,170.962 C277.888,170.962 277.45,171.401 277.45,171.942 L277.45,174.885 C277.45,175.426 277.888,175.866 278.43,175.866 L282.193,175.866 C282.735,175.866 283.174,176.305 283.175,176.847 L283.175,177.337 C283.175,177.88 282.735,178.319 282.193,178.32 L278.43,178.32 C277.888,178.32 277.45,178.759 277.45,179.3 L277.45,183.881 C277.451,184.422 277.889,184.86 278.43,184.861 L282.193,184.861 C282.735,184.862 283.174,185.301 283.175,185.843 L283.175,186.333 C283.174,186.875 282.735,187.313 282.193,187.313 L278.43,187.313 C277.889,187.315 277.451,187.754 277.45,188.295 L277.45,191.239 C277.453,191.779 277.891,192.214 278.43,192.215 L282.193,192.215 C282.735,192.216 283.174,192.655 283.175,193.197 L283.175,193.687 C283.173,194.229 282.734,194.667 282.193,194.667 L278.43,194.667 C277.889,194.668 277.451,195.106 277.45,195.647 L277.45,200.227 C277.45,200.768 277.888,201.207 278.43,201.207 L287.099,201.207 C287.64,201.207 288.079,200.768 288.079,200.227 L288.079,193.202 C288.079,192.66 288.519,192.221 289.061,192.221 L296.094,192.221 C296.635,192.222 297.072,192.661 297.072,193.202 L297.072,200.234 C297.073,200.776 297.512,201.214 298.054,201.214 L310.808,201.214 C311.068,201.214 311.317,201.111 311.502,200.928 C311.686,200.744 311.789,200.494 311.789,200.234 L311.789,188.295 C311.789,187.753 311.35,187.313 310.808,187.313 L307.863,187.313 C307.322,187.315 306.884,187.754 306.883,188.295 L306.883,193.693 C306.882,194.235 306.443,194.673 305.902,194.673 L302.957,194.673 C302.416,194.672 301.979,194.234 301.977,193.693 L301.977,193.202 C301.978,192.661 302.416,192.222 302.957,192.221 L304.264,192.221 C304.805,192.221 305.244,191.782 305.245,191.241 L305.245,188.295 C305.245,187.753 304.806,187.313 304.264,187.313 L302.957,187.313 C302.416,187.313 301.978,186.874 301.977,186.333 L301.977,185.843 C301.977,185.301 302.416,184.862 302.957,184.861 L310.808,184.861 C311.068,184.861 311.317,184.758 311.502,184.575 C311.686,184.391 311.789,184.141 311.789,183.881 L311.789,179.302 C311.789,179.042 311.686,178.792 311.502,178.608 C311.317,178.424 311.068,178.321 310.808,178.322 L302.957,178.322 C302.415,178.32 301.977,177.88 301.977,177.339 L301.977,171.942 C301.977,171.682 301.874,171.432 301.689,171.248 C301.505,171.065 301.256,170.961 300.996,170.962 M296.091,187.315 L289.058,187.315 C288.798,187.315 288.548,187.212 288.364,187.028 C288.18,186.844 288.076,186.595 288.076,186.335 L288.076,185.844 C288.076,185.302 288.516,184.863 289.058,184.863 L296.091,184.863 C296.632,184.863 297.07,185.303 297.07,185.844 L297.07,186.335 C297.07,186.595 296.967,186.844 296.783,187.028 C296.6,187.212 296.351,187.315 296.091,187.315" fill="#222222" id="パス_3729"/>
        <path d="M304.595,175.866 L310.809,175.866 C311.069,175.867 311.319,175.764 311.503,175.58 C311.687,175.396 311.791,175.147 311.791,174.886 L311.791,171.94 C311.791,171.68 311.687,171.431 311.503,171.247 C311.319,171.063 311.069,170.96 310.809,170.96 L304.595,170.96 C304.054,170.961 303.616,171.4 303.615,171.94 L303.615,174.885 C303.616,175.426 304.054,175.864 304.595,175.865" fill="#222222" id="パス_3730"/>
        <path d="M292.007,136.58 L287.426,136.58 C286.885,136.581 286.447,137.02 286.446,137.56 L286.446,142.141 C286.446,142.683 286.885,143.121 287.426,143.121 L292.007,143.121 C292.548,143.121 292.987,142.683 292.987,142.141 L292.987,137.56 C292.986,137.02 292.548,136.581 292.007,136.58" fill="#222222" id="パス_3731"/>
        <path d="M301.814,136.58 L297.236,136.58 C296.695,136.58 296.256,137.019 296.255,137.56 L296.255,142.141 C296.255,142.401 296.358,142.651 296.543,142.835 C296.727,143.019 296.976,143.122 297.236,143.121 L301.814,143.121 C302.075,143.122 302.324,143.019 302.508,142.835 C302.692,142.651 302.796,142.401 302.796,142.141 L302.796,137.56 C302.795,137.019 302.356,136.58 301.814,136.58" fill="#222222" id="パス_3732"/>
        <path d="M78.458,199.485 L55.361,180.013 C55.139,179.826 54.845,179.747 54.559,179.797 C54.272,179.847 54.023,180.021 53.877,180.273 L50.722,185.738 C50.484,186.149 50.575,186.672 50.937,186.979 L67.551,200.988 C67.729,201.136 67.953,201.217 68.184,201.217 L77.824,201.217 C78.236,201.217 78.605,200.96 78.746,200.572 C78.888,200.185 78.772,199.751 78.457,199.485" fill="#222222" id="パス_3733"/>
        <path d="M65.247,136.58 L35.628,136.58 C35.278,136.581 34.954,136.768 34.779,137.071 L31.189,143.287 C31.013,143.59 31.013,143.965 31.188,144.269 C31.363,144.573 31.688,144.76 32.039,144.759 L58.824,144.759 C59.174,144.759 59.498,144.945 59.674,145.249 C59.849,145.553 59.849,145.926 59.673,146.23 L9.748,232.552 C9.572,232.856 9.571,233.231 9.746,233.535 C9.922,233.839 10.246,234.026 10.597,234.026 L17.772,234.026 C18.123,234.026 18.446,233.839 18.622,233.535 L69.967,144.759 L73.838,138.053 C74.014,137.749 74.014,137.375 73.838,137.071 C73.662,136.767 73.338,136.58 72.987,136.58 z" fill="#222222" id="パス_3734"/>
        <path d="M348.425,136.58 L343.848,136.58 C343.306,136.581 342.868,137.019 342.866,137.56 L342.866,142.141 C342.867,142.683 343.306,143.121 343.848,143.121 L348.425,143.121 C348.686,143.122 348.935,143.019 349.119,142.835 C349.303,142.651 349.407,142.401 349.407,142.141 L349.407,137.56 C349.406,137.019 348.967,136.58 348.425,136.58" fill="#222222" id="パス_3735"/>
        <path d="M325.806,151.3 L366.46,151.3 C366.879,151.301 367.252,151.567 367.389,151.964 L369.022,156.74 C369.158,157.138 369.531,157.405 369.952,157.405 L374.291,157.405 C374.596,157.405 374.884,157.264 375.069,157.022 C375.255,156.78 375.317,156.466 375.238,156.171 L373.931,151.307 L372.375,145.5 C372.26,145.071 371.871,144.773 371.427,144.774 L320.837,144.774 C320.394,144.774 320.005,145.071 319.889,145.5 L318.331,151.307 L317.025,156.171 C316.946,156.466 317.008,156.78 317.194,157.022 C317.379,157.264 317.667,157.405 317.971,157.405 L322.31,157.405 C322.73,157.404 323.103,157.137 323.239,156.74 L324.871,151.964 C325.007,151.567 325.38,151.3 325.8,151.3" fill="#222222" id="パス_3736"/>
        <path d="M350.388,188.132 L361.509,188.132 C362.05,188.132 362.489,187.694 362.49,187.152 L362.49,182.571 C362.491,182.311 362.387,182.061 362.203,181.877 C362.019,181.693 361.769,181.59 361.509,181.59 L350.388,181.59 C349.846,181.59 349.407,181.15 349.407,180.608 L349.407,176.029 C349.408,175.488 349.847,175.049 350.388,175.049 L357.664,175.049 C358.015,175.049 358.339,175.236 358.513,175.54 L359.239,176.787 C359.51,177.257 360.109,177.419 360.579,177.149 L364.543,174.857 C364.769,174.728 364.934,174.513 365.001,174.262 C365.069,174.011 365.034,173.743 364.903,173.517 L358.235,161.964 L364.783,161.964 C365.043,161.965 365.293,161.862 365.477,161.678 C365.661,161.494 365.765,161.245 365.764,160.984 L365.764,156.403 C365.763,155.862 365.324,155.423 364.783,155.423 L327.497,155.423 C326.956,155.423 326.516,155.862 326.514,156.403 L326.514,160.983 C326.514,161.243 326.618,161.493 326.803,161.677 C326.987,161.861 327.237,161.964 327.497,161.963 L333.918,161.963 C334.264,161.964 334.583,162.147 334.759,162.445 C334.935,162.743 334.942,163.111 334.776,163.415 L329.179,173.59 C329.013,173.894 329.019,174.263 329.196,174.561 C329.373,174.859 329.693,175.042 330.04,175.042 L341.889,175.042 C342.43,175.043 342.867,175.481 342.867,176.022 L342.867,180.601 C342.867,181.142 342.43,181.581 341.889,181.583 L330.766,181.583 C330.505,181.583 330.256,181.686 330.072,181.87 C329.888,182.054 329.785,182.304 329.786,182.564 L329.786,187.144 C329.786,187.684 330.225,188.123 330.766,188.124 L341.889,188.124 C342.429,188.125 342.867,188.563 342.867,189.104 L342.867,193.696 C342.867,194.236 342.429,194.674 341.889,194.676 L320.951,194.676 C320.409,194.675 319.969,195.114 319.968,195.656 L319.968,200.23 C319.968,200.49 320.071,200.74 320.256,200.924 C320.44,201.108 320.69,201.212 320.951,201.211 L371.322,201.211 C371.864,201.21 372.302,200.771 372.302,200.23 L372.302,195.655 C372.301,195.114 371.863,194.675 371.322,194.675 L350.388,194.675 C349.847,194.675 349.408,194.236 349.407,193.695 L349.407,189.112 C349.408,188.571 349.847,188.132 350.388,188.132 M340.08,167.034 L342.724,162.455 C342.898,162.151 343.222,161.964 343.573,161.964 L356.152,161.964 L352.899,163.843 C352.673,163.973 352.509,164.187 352.441,164.439 C352.374,164.69 352.41,164.958 352.54,165.183 L353.607,167.036 C353.783,167.339 353.783,167.713 353.607,168.017 C353.432,168.321 353.108,168.508 352.758,168.508 L340.926,168.508 C340.576,168.508 340.252,168.321 340.077,168.017 C339.901,167.713 339.902,167.339 340.077,167.036" fill="#222222" id="パス_3737"/>
        <path d="M123.392,154.019 C123.637,153.727 123.69,153.32 123.529,152.974 C123.368,152.629 123.021,152.408 122.64,152.408 L71.036,152.408 C70.685,152.408 70.362,152.595 70.187,152.899 L66.603,159.113 C66.428,159.416 66.428,159.79 66.603,160.094 C66.778,160.398 67.102,160.585 67.453,160.585 L105.104,160.585 C105.486,160.584 105.834,160.805 105.995,161.151 C106.157,161.497 106.103,161.906 105.857,162.198 L90.031,181.054 C89.861,181.257 89.616,181.382 89.352,181.402 C89.088,181.421 88.827,181.334 88.629,181.159 L79.64,173.224 C79.442,173.049 79.181,172.961 78.917,172.981 C78.653,173.001 78.408,173.126 78.238,173.329 L74.252,178.076 C73.907,178.489 73.958,179.103 74.368,179.453 L99.588,200.982 C99.766,201.132 99.992,201.215 100.225,201.216 L109.711,201.216 C110.123,201.215 110.491,200.957 110.632,200.57 C110.773,200.183 110.658,199.749 110.342,199.483 L96.388,187.723 C95.974,187.373 95.921,186.756 96.269,186.341 L117.882,160.585 z" fill="#222222" id="パス_3738"/>
        <path d="M112.815,173.074 L107.601,179.289 C107.356,179.581 107.302,179.989 107.463,180.335 C107.624,180.681 107.972,180.902 108.353,180.902 L150.359,180.902 C150.9,180.901 151.339,180.462 151.339,179.92 L151.339,173.706 C151.339,173.165 150.9,172.725 150.359,172.725 L113.571,172.725 C113.282,172.725 113.007,172.854 112.821,173.076" fill="#222222" id="パス_3739"/>
        <path d="M231.659,188.317 L232.98,190.609 C233.148,190.9 233.155,191.255 233,191.553 C232.845,191.85 232.549,192.047 232.215,192.076 L213.433,193.719 C213.068,193.751 212.716,193.577 212.52,193.268 C212.323,192.96 212.315,192.567 212.498,192.25 L221.674,176.359 C221.85,176.056 222.173,175.869 222.524,175.868 L241.891,175.868 C242.241,175.869 242.565,176.055 242.742,176.359 L245.081,180.411 C245.257,180.714 245.581,180.901 245.931,180.902 L251.218,180.902 C251.568,180.901 251.892,180.713 252.067,180.41 C252.242,180.106 252.242,179.732 252.067,179.428 L227.613,137.071 C227.437,136.767 227.113,136.58 226.762,136.58 L220.343,136.58 C219.992,136.581 219.668,136.768 219.492,137.071 L195.037,179.428 C194.862,179.732 194.862,180.106 195.037,180.41 C195.213,180.714 195.537,180.901 195.888,180.9 L201.175,180.9 C201.525,180.9 201.849,180.713 202.025,180.41 L204.364,176.357 C204.541,176.053 204.865,175.867 205.217,175.866 L212.706,175.866 C213.056,175.866 213.38,176.053 213.555,176.356 C213.731,176.66 213.731,177.034 213.555,177.337 L203.863,194.136 C203.704,194.414 203.419,194.596 203.1,194.622 L200.402,194.859 C200.105,194.885 199.835,195.045 199.67,195.293 C199.505,195.542 199.462,195.852 199.553,196.137 L200.984,200.607 C201.123,201.043 201.545,201.325 202.001,201.285 L236.739,198.246 C237.119,198.213 237.484,198.403 237.674,198.733 L240.417,203.483 C240.547,203.709 240.761,203.873 241.013,203.941 C241.264,204.008 241.532,203.972 241.757,203.842 L245.722,201.551 C245.948,201.421 246.112,201.207 246.179,200.956 C246.246,200.705 246.21,200.437 246.08,200.212 L237.324,185.046 C237.194,184.82 236.98,184.656 236.728,184.589 C236.477,184.522 236.209,184.558 235.984,184.688 L232.019,186.977 C231.793,187.106 231.629,187.321 231.561,187.572 C231.494,187.824 231.53,188.092 231.66,188.317 M224.401,144.594 L230.277,154.77 C230.453,155.074 230.453,155.448 230.278,155.752 C230.103,156.056 229.778,156.244 229.427,156.244 L217.677,156.244 C217.326,156.244 217.002,156.056 216.826,155.752 C216.651,155.448 216.652,155.074 216.828,154.77 L222.702,144.594 C222.878,144.29 223.201,144.104 223.552,144.104 C223.902,144.104 224.225,144.29 224.401,144.594 M212.767,162.783 L234.338,162.783 C234.689,162.784 235.012,162.971 235.187,163.275 L237.838,167.855 C238.013,168.158 238.013,168.532 237.837,168.836 C237.662,169.139 237.338,169.326 236.988,169.326 L210.127,169.326 C209.776,169.326 209.452,169.14 209.276,168.836 C209.101,168.533 209.1,168.159 209.275,167.855 L211.919,163.275 C212.094,162.971 212.417,162.784 212.768,162.783" fill="#222222" id="パス_3740"/>
        <path d="M192.161,172.725 L162.79,172.725 L162.79,153.389 C162.789,152.847 162.349,152.408 161.807,152.409 L155.593,152.409 C155.052,152.41 154.614,152.848 154.613,153.389 L154.613,200.236 C154.614,200.776 155.052,201.215 155.593,201.216 L161.803,201.216 C162.345,201.216 162.785,200.778 162.786,200.236 L162.786,180.899 L188.569,180.899 C188.92,180.899 189.245,180.712 189.421,180.408 L193.009,174.194 C193.184,173.89 193.184,173.516 193.009,173.212 C192.833,172.908 192.509,172.721 192.158,172.722" fill="#222222" id="パス_3741"/>
      </g>
    </g>
  </g>
</svg>
