<?xml version="1.0" encoding="UTF-8"?>
<!DOCTYPE svg PUBLIC "-//W3C//DTD SVG 1.1//EN" "http://www.w3.org/Graphics/SVG/1.1/DTD/svg11.dtd">
<svg version="1.1" xmlns="http://www.w3.org/2000/svg" xmlns:xlink="http://www.w3.org/1999/xlink" x="0" y="0" width="216" height="126" viewBox="0, 0, 216, 126">
  <defs>
    <linearGradient id="Gradient_1" gradientUnits="userSpaceOnUse" x1="-160.802" y1="30.23" x2="-145.463" y2="46.729" gradientTransform="matrix(1, 0, 0, 1, 358.342, 12)">
      <stop offset="0" stop-color="#FC575E"/>
      <stop offset="1" stop-color="#F7B42C"/>
    </linearGradient>
    <clipPath id="Clip_1">
      <path d="M0.501,48.777 L135.867,48.777 L135.867,84.853 L0.501,84.853 z"/>
    </clipPath>
  </defs>
  <g id="グループ_4504">
    <g>
      <path d="M138.543,72.585 L142.948,72.585 L142.948,62.811 C145.359,62.811 147.416,62.843 149.377,61.654 C151.288,60.513 152.414,58.411 152.303,56.188 C152.343,54.398 151.673,52.664 150.438,51.366 C148.992,49.951 146.902,49.501 143.912,49.501 L138.543,49.501 z M142.948,53.81 L144.812,53.81 C146.902,53.81 147.995,54.646 147.995,56.189 C147.995,57.765 146.998,58.536 145.005,58.536 L142.948,58.536 z M156.835,72.585 L161.111,72.585 L161.111,48.924 L156.835,48.924 z M166.158,63.326 C166.099,64.529 166.153,65.735 166.319,66.927 C166.994,70.913 169.534,73.001 173.649,73.001 C176.028,73.001 177.796,72.356 179.147,70.847 C180.946,68.855 181.136,66.541 181.136,63.391 L181.136,55.514 L176.863,55.514 L176.863,64.612 C176.863,67.505 175.931,69.081 173.649,69.081 C171.398,69.081 170.434,67.474 170.434,64.419 L170.434,55.514 L166.158,55.514 z M191.426,65.928 C192.616,66.539 193.323,67.085 193.323,67.825 C193.323,68.596 192.487,69.207 191.426,69.207 C190.301,69.207 188.854,68.372 187.858,67.214 L185.221,70.109 C186.618,72.001 188.85,73.093 191.201,73.035 C194.93,73.035 197.341,70.752 197.341,67.699 C197.341,65.159 195.83,63.68 193.002,62.234 L191.426,61.427 C190.494,60.944 189.883,60.656 189.883,60.013 C189.883,59.338 190.558,58.984 191.426,58.984 C192.455,58.984 193.419,59.594 194.382,60.559 L197.016,57.891 C195.701,56.103 193.61,55.052 191.39,55.062 C188.111,55.062 185.861,57.313 185.861,59.981 C185.861,62.135 187.243,63.806 189.976,65.189 z" fill="#108CF7" id="パス_3673"/>
      <g id="plus-mark">
        <path d="M198.153,56.017 L193.116,57.737 C193.178,57.711 193.554,57.48 194.306,55.564 C195.036,53.71 196.353,49.788 196.659,48.87 C197.508,44.419 201.381,41.187 205.912,41.147 C210.442,41.108 214.371,44.272 215.297,48.707 C216.224,53.142 213.89,57.615 209.722,59.392 C205.555,61.169 200.712,59.757 198.153,56.018 z M193.116,57.737 L193.107,57.74 z" fill="url(#Gradient_1)" id="合体_10-2"/>
        <path d="M207.137,49.831 C207.03,49.831 206.943,49.744 206.943,49.637 L206.943,45.37 L205.006,45.37 L205.006,49.635 C205.006,49.742 204.919,49.829 204.812,49.829 L200.545,49.829 L200.545,51.766 L204.81,51.766 C204.917,51.766 205.004,51.853 205.004,51.96 L205.004,56.227 L206.941,56.227 L206.941,51.961 C206.941,51.854 207.028,51.767 207.135,51.767 L211.402,51.767 L211.402,49.831 z M207.137,49.831" fill="#FFFFFF" id="add"/>
      </g>
      <g clip-path="url(#Clip_1)" id="グループ_3572">
        <path d="M98.511,54.226 L92.316,54.226 C92.02,54.226 91.78,53.988 91.778,53.692 L91.778,52.339 C91.78,52.044 92.02,51.805 92.316,51.805 L98.511,51.805 C98.806,51.805 99.045,52.044 99.045,52.339 L99.045,53.692 C99.043,53.986 98.805,54.224 98.511,54.226" fill="#222222" id="パス_3723"/>
        <path d="M96.624,63.018 L92.144,63.018 C91.944,63.018 91.781,63.181 91.781,63.381 L91.781,72.341 C91.781,72.542 91.943,72.705 92.144,72.705 L93.84,72.705 C93.936,72.705 94.028,72.667 94.096,72.598 C94.164,72.53 94.203,72.438 94.202,72.341 L94.202,72.147 C94.202,71.946 94.365,71.783 94.566,71.783 L96.262,71.783 C96.462,71.783 96.625,71.946 96.624,72.147 L96.624,72.341 C96.624,72.542 96.787,72.705 96.988,72.705 L98.682,72.705 C98.779,72.705 98.871,72.667 98.94,72.599 C99.008,72.53 99.046,72.438 99.046,72.341 L99.046,63.381 C99.046,63.18 98.883,63.018 98.682,63.018 z M96.261,69.361 L94.566,69.361 C94.365,69.361 94.203,69.198 94.202,68.998 L94.202,65.803 C94.202,65.707 94.241,65.615 94.309,65.547 C94.377,65.479 94.469,65.44 94.566,65.441 L96.262,65.441 C96.358,65.44 96.45,65.479 96.518,65.547 C96.586,65.615 96.624,65.707 96.624,65.803 L96.624,69 C96.624,69.2 96.462,69.363 96.262,69.363" fill="#222222" id="パス_3724"/>
        <path d="M97.3,57.859 L93.527,57.859 C93.385,57.859 93.249,57.803 93.149,57.703 C93.049,57.603 92.992,57.467 92.992,57.325 L92.992,55.972 C92.992,55.83 93.049,55.694 93.149,55.594 C93.249,55.493 93.385,55.437 93.527,55.437 L97.3,55.437 C97.595,55.439 97.834,55.677 97.835,55.972 L97.835,57.326 C97.834,57.62 97.595,57.858 97.3,57.86" fill="#222222" id="パス_3725"/>
        <path d="M97.3,61.492 L93.527,61.492 C93.385,61.492 93.249,61.436 93.149,61.335 C93.049,61.235 92.992,61.099 92.992,60.957 L92.992,59.605 C92.992,59.463 93.049,59.327 93.149,59.227 C93.249,59.126 93.385,59.07 93.527,59.07 L97.3,59.07 C97.595,59.072 97.834,59.31 97.835,59.605 L97.835,60.957 C97.835,61.099 97.779,61.235 97.679,61.335 C97.578,61.435 97.442,61.491 97.3,61.491" fill="#222222" id="パス_3726"/>
        <path d="M96.09,51.199 L94.737,51.199 C94.442,51.199 94.201,50.961 94.2,50.665 L94.2,49.315 C94.2,49.018 94.44,48.777 94.737,48.777 L96.09,48.777 C96.385,48.779 96.624,49.019 96.624,49.315 L96.624,50.664 C96.623,50.959 96.384,51.197 96.09,51.199" fill="#222222" id="パス_3727"/>
        <path d="M112.365,53.863 L112.365,52.169 C112.365,51.969 112.202,51.807 112.002,51.807 L100.015,51.807 C99.815,51.807 99.652,51.969 99.652,52.169 L99.652,53.865 C99.652,54.065 99.814,54.227 100.015,54.227 L104.435,54.227 C104.635,54.228 104.797,54.39 104.797,54.591 L104.797,55.075 C104.797,55.275 104.635,55.437 104.435,55.437 L100.015,55.437 C99.814,55.438 99.652,55.6 99.652,55.801 L99.652,56.89 C99.652,57.091 99.814,57.253 100.015,57.254 L104.435,57.254 C104.635,57.254 104.797,57.416 104.797,57.617 L104.797,58.101 C104.798,58.301 104.635,58.464 104.435,58.465 L100.015,58.465 C99.814,58.465 99.652,58.627 99.652,58.827 L99.652,60.523 C99.652,60.723 99.814,60.885 100.015,60.886 L112.001,60.886 C112.202,60.886 112.364,60.723 112.364,60.523 L112.364,58.828 C112.364,58.732 112.326,58.639 112.258,58.571 C112.19,58.503 112.097,58.465 112.001,58.465 L107.583,58.465 C107.486,58.465 107.394,58.427 107.326,58.358 C107.257,58.29 107.219,58.198 107.219,58.101 L107.219,57.617 C107.219,57.417 107.382,57.254 107.583,57.254 L112.001,57.254 C112.202,57.254 112.364,57.091 112.364,56.891 L112.364,55.801 C112.364,55.6 112.202,55.437 112.001,55.437 L107.583,55.437 C107.486,55.438 107.394,55.399 107.326,55.331 C107.258,55.263 107.219,55.171 107.219,55.075 L107.219,54.591 C107.219,54.39 107.382,54.227 107.583,54.227 L112.001,54.227 C112.097,54.228 112.19,54.189 112.258,54.121 C112.326,54.053 112.364,53.961 112.364,53.865" fill="#222222" id="パス_3728"/>
        <path d="M108.369,61.505 L107.28,61.505 C107.079,61.505 106.916,61.667 106.916,61.868 L106.916,63.865 C106.916,64.066 106.754,64.229 106.554,64.229 L103.95,64.229 C103.75,64.229 103.587,64.066 103.587,63.865 L103.587,63.684 C103.587,63.483 103.75,63.321 103.95,63.321 L105.949,63.321 C106.149,63.32 106.312,63.158 106.312,62.957 L106.312,61.868 C106.312,61.668 106.149,61.505 105.949,61.505 L100.015,61.505 C99.814,61.505 99.652,61.668 99.652,61.868 L99.652,62.957 C99.652,63.158 99.814,63.32 100.015,63.321 L101.408,63.321 C101.608,63.321 101.771,63.483 101.771,63.684 L101.771,63.865 C101.771,64.066 101.609,64.229 101.408,64.229 L100.015,64.229 C99.814,64.229 99.652,64.392 99.652,64.592 L99.652,66.288 C99.652,66.488 99.815,66.65 100.015,66.651 L101.408,66.651 C101.609,66.651 101.771,66.813 101.771,67.014 L101.771,67.196 C101.771,67.396 101.608,67.558 101.408,67.558 L100.015,67.558 C99.814,67.559 99.652,67.721 99.652,67.922 L99.652,69.012 C99.653,69.211 99.815,69.373 100.015,69.373 L101.408,69.373 C101.609,69.373 101.771,69.536 101.771,69.736 L101.771,69.918 C101.771,70.118 101.608,70.28 101.408,70.281 L100.015,70.281 C99.815,70.281 99.652,70.443 99.652,70.644 L99.652,72.339 C99.652,72.539 99.814,72.702 100.015,72.702 L103.224,72.702 C103.425,72.702 103.587,72.539 103.587,72.339 L103.587,69.738 C103.587,69.538 103.75,69.375 103.95,69.375 L106.554,69.375 C106.754,69.376 106.916,69.538 106.916,69.738 L106.916,72.341 C106.916,72.542 107.079,72.704 107.28,72.704 L112.001,72.704 C112.097,72.704 112.19,72.666 112.258,72.598 C112.326,72.53 112.364,72.438 112.364,72.341 L112.364,67.922 C112.364,67.721 112.202,67.558 112.001,67.558 L110.911,67.558 C110.71,67.559 110.548,67.721 110.548,67.922 L110.548,69.92 C110.548,70.121 110.385,70.283 110.185,70.283 L109.095,70.283 C108.895,70.282 108.732,70.12 108.732,69.92 L108.732,69.738 C108.732,69.538 108.894,69.376 109.095,69.375 L109.578,69.375 C109.779,69.375 109.941,69.213 109.942,69.012 L109.942,67.922 C109.942,67.721 109.779,67.558 109.578,67.558 L109.095,67.558 C108.894,67.558 108.732,67.396 108.732,67.196 L108.732,67.014 C108.732,66.813 108.894,66.651 109.095,66.651 L112.001,66.651 C112.097,66.651 112.19,66.613 112.258,66.544 C112.326,66.476 112.364,66.384 112.364,66.288 L112.364,64.592 C112.364,64.496 112.326,64.404 112.258,64.336 C112.19,64.268 112.097,64.23 112.001,64.23 L109.095,64.23 C108.894,64.229 108.732,64.066 108.732,63.866 L108.732,61.868 C108.732,61.772 108.694,61.679 108.625,61.611 C108.557,61.543 108.465,61.505 108.368,61.505 M106.553,67.559 L103.949,67.559 C103.853,67.559 103.761,67.521 103.692,67.453 C103.624,67.385 103.586,67.292 103.586,67.196 L103.586,67.014 C103.586,66.814 103.749,66.651 103.949,66.651 L106.553,66.651 C106.753,66.651 106.915,66.814 106.915,67.014 L106.915,67.196 C106.915,67.292 106.877,67.385 106.809,67.453 C106.741,67.521 106.649,67.559 106.553,67.559" fill="#222222" id="パス_3729"/>
        <path d="M109.701,63.321 L112.001,63.321 C112.098,63.321 112.19,63.283 112.258,63.215 C112.326,63.147 112.365,63.054 112.365,62.958 L112.365,61.867 C112.365,61.771 112.326,61.679 112.258,61.611 C112.19,61.543 112.098,61.504 112.001,61.505 L109.701,61.505 C109.501,61.505 109.338,61.667 109.338,61.867 L109.338,62.957 C109.338,63.158 109.501,63.32 109.701,63.32" fill="#222222" id="パス_3730"/>
        <path d="M105.041,48.777 L103.345,48.777 C103.145,48.778 102.983,48.94 102.982,49.14 L102.982,50.836 C102.982,51.036 103.145,51.199 103.345,51.199 L105.041,51.199 C105.241,51.199 105.404,51.036 105.404,50.836 L105.404,49.14 C105.403,48.94 105.241,48.778 105.041,48.777" fill="#222222" id="パス_3731"/>
        <path d="M108.672,48.777 L106.977,48.777 C106.776,48.777 106.614,48.94 106.614,49.14 L106.614,50.836 C106.614,50.932 106.652,51.025 106.72,51.093 C106.788,51.161 106.881,51.199 106.977,51.199 L108.672,51.199 C108.768,51.199 108.86,51.161 108.929,51.093 C108.997,51.025 109.035,50.932 109.035,50.836 L109.035,49.14 C109.035,48.94 108.872,48.777 108.672,48.777" fill="#222222" id="パス_3732"/>
        <path d="M25.987,72.064 L17.436,64.856 C17.354,64.787 17.245,64.757 17.139,64.776 C17.033,64.794 16.941,64.859 16.887,64.952 L15.719,66.975 C15.631,67.127 15.664,67.321 15.799,67.435 L21.949,72.62 C22.015,72.675 22.098,72.705 22.183,72.705 L25.752,72.705 C25.905,72.705 26.041,72.61 26.093,72.467 C26.146,72.323 26.103,72.162 25.986,72.064" fill="#222222" id="パス_3733"/>
        <path d="M21.096,48.777 L10.131,48.777 C10.002,48.777 9.882,48.847 9.817,48.959 L8.488,51.26 C8.423,51.372 8.423,51.511 8.488,51.624 C8.553,51.736 8.673,51.805 8.803,51.805 L18.718,51.805 C18.848,51.805 18.968,51.874 19.033,51.986 C19.098,52.099 19.098,52.237 19.033,52.349 L0.55,84.305 C0.485,84.418 0.485,84.557 0.55,84.669 C0.615,84.782 0.735,84.851 0.865,84.851 L3.521,84.851 C3.651,84.851 3.771,84.782 3.836,84.669 L22.843,51.805 L24.276,49.322 C24.341,49.21 24.341,49.071 24.276,48.959 C24.211,48.846 24.091,48.777 23.961,48.777 z" fill="#222222" id="パス_3734"/>
        <path d="M125.927,48.777 L124.232,48.777 C124.032,48.778 123.869,48.94 123.869,49.14 L123.869,50.836 C123.869,51.036 124.032,51.199 124.232,51.199 L125.927,51.199 C126.023,51.199 126.115,51.161 126.184,51.093 C126.252,51.025 126.29,50.932 126.29,50.836 L126.29,49.14 C126.29,48.94 126.127,48.777 125.927,48.777" fill="#222222" id="パス_3735"/>
        <path d="M117.553,54.226 L132.603,54.226 C132.758,54.227 132.896,54.325 132.947,54.472 L133.552,56.24 C133.602,56.388 133.74,56.487 133.896,56.487 L135.502,56.487 C135.615,56.487 135.721,56.434 135.79,56.345 C135.859,56.255 135.882,56.139 135.853,56.03 L135.369,54.229 L134.793,52.079 C134.75,51.92 134.606,51.81 134.442,51.81 L115.714,51.81 C115.55,51.811 115.406,51.921 115.363,52.079 L114.786,54.229 L114.302,56.03 C114.273,56.139 114.296,56.255 114.365,56.345 C114.434,56.434 114.54,56.487 114.653,56.487 L116.259,56.487 C116.414,56.486 116.552,56.387 116.603,56.24 L117.207,54.472 C117.257,54.325 117.396,54.226 117.551,54.226" fill="#222222" id="パス_3736"/>
        <path d="M126.653,67.861 L130.77,67.861 C130.971,67.861 131.133,67.699 131.133,67.499 L131.133,65.803 C131.134,65.706 131.095,65.614 131.027,65.546 C130.959,65.478 130.866,65.439 130.77,65.44 L126.653,65.44 C126.453,65.44 126.29,65.277 126.29,65.076 L126.29,63.381 C126.29,63.181 126.453,63.018 126.653,63.018 L129.347,63.018 C129.477,63.018 129.597,63.087 129.661,63.2 L129.93,63.662 C130.03,63.835 130.252,63.895 130.426,63.795 L131.893,62.947 C131.977,62.899 132.038,62.82 132.063,62.727 C132.088,62.634 132.075,62.535 132.027,62.451 L129.558,58.174 L131.982,58.174 C132.078,58.175 132.171,58.136 132.239,58.068 C132.307,58 132.346,57.908 132.345,57.811 L132.345,56.116 C132.345,55.915 132.183,55.753 131.982,55.753 L118.179,55.753 C117.979,55.753 117.816,55.915 117.815,56.116 L117.815,57.811 C117.815,57.907 117.854,58 117.922,58.068 C117.99,58.136 118.083,58.174 118.179,58.174 L120.556,58.174 C120.684,58.174 120.803,58.242 120.868,58.352 C120.933,58.462 120.935,58.599 120.874,58.711 L118.802,62.478 C118.74,62.591 118.743,62.727 118.808,62.837 C118.874,62.948 118.992,63.015 119.12,63.015 L123.507,63.015 C123.707,63.016 123.869,63.178 123.869,63.378 L123.869,65.074 C123.869,65.274 123.707,65.436 123.507,65.437 L119.389,65.437 C119.293,65.437 119.201,65.475 119.132,65.543 C119.064,65.611 119.026,65.704 119.026,65.8 L119.026,67.495 C119.027,67.696 119.189,67.858 119.389,67.858 L123.507,67.858 C123.707,67.859 123.869,68.021 123.869,68.221 L123.869,69.921 C123.869,70.121 123.707,70.283 123.507,70.284 L115.756,70.284 C115.555,70.284 115.392,70.446 115.392,70.647 L115.392,72.34 C115.392,72.436 115.43,72.529 115.499,72.597 C115.567,72.665 115.659,72.703 115.756,72.703 L134.403,72.703 C134.603,72.703 134.766,72.54 134.766,72.34 L134.766,70.646 C134.765,70.446 134.603,70.284 134.403,70.283 L126.653,70.283 C126.453,70.283 126.29,70.121 126.29,69.921 L126.29,68.224 C126.29,68.024 126.453,67.861 126.653,67.861 M122.837,60.051 L123.816,58.356 C123.881,58.243 124.001,58.174 124.13,58.174 L128.787,58.174 L127.583,58.87 C127.499,58.918 127.438,58.997 127.413,59.09 C127.389,59.183 127.402,59.283 127.45,59.366 L127.845,60.052 C127.91,60.164 127.91,60.303 127.845,60.415 C127.78,60.527 127.66,60.597 127.531,60.597 L123.151,60.597 C123.021,60.597 122.901,60.527 122.836,60.415 C122.771,60.303 122.771,60.164 122.836,60.052" fill="#222222" id="パス_3737"/>
        <path d="M42.621,55.233 C42.712,55.125 42.731,54.974 42.672,54.846 C42.612,54.718 42.484,54.637 42.343,54.637 L23.239,54.637 C23.109,54.636 22.989,54.706 22.925,54.818 L21.598,57.119 C21.533,57.231 21.533,57.369 21.598,57.482 C21.663,57.594 21.783,57.664 21.913,57.664 L35.851,57.664 C35.992,57.663 36.121,57.745 36.181,57.873 C36.241,58.001 36.221,58.153 36.13,58.261 L30.271,65.241 C30.208,65.316 30.117,65.363 30.02,65.37 C29.922,65.377 29.825,65.345 29.752,65.28 L26.424,62.343 C26.351,62.278 26.254,62.245 26.156,62.253 C26.059,62.26 25.968,62.306 25.905,62.381 L24.43,64.139 C24.302,64.292 24.321,64.519 24.473,64.648 L33.809,72.618 C33.875,72.674 33.958,72.705 34.045,72.705 L37.556,72.705 C37.709,72.705 37.845,72.609 37.897,72.466 C37.95,72.323 37.907,72.162 37.79,72.064 L32.624,67.71 C32.471,67.581 32.451,67.352 32.58,67.198 L40.581,57.664 z" fill="#222222" id="パス_3738"/>
        <path d="M38.705,62.287 L36.775,64.588 C36.684,64.696 36.664,64.847 36.724,64.975 C36.784,65.103 36.912,65.185 37.054,65.185 L52.604,65.185 C52.804,65.184 52.967,65.022 52.967,64.821 L52.967,62.521 C52.967,62.321 52.804,62.158 52.604,62.158 L38.985,62.158 C38.878,62.158 38.776,62.206 38.708,62.288" fill="#222222" id="パス_3739"/>
        <path d="M82.701,67.93 L83.19,68.778 C83.252,68.886 83.255,69.018 83.197,69.128 C83.14,69.238 83.03,69.311 82.906,69.321 L75.953,69.93 C75.818,69.942 75.688,69.877 75.615,69.763 C75.543,69.648 75.539,69.503 75.607,69.386 L79.004,63.503 C79.069,63.391 79.189,63.322 79.319,63.321 L86.488,63.321 C86.618,63.322 86.738,63.391 86.803,63.503 L87.669,65.003 C87.734,65.115 87.854,65.185 87.984,65.185 L89.941,65.185 C90.071,65.184 90.191,65.115 90.256,65.003 C90.32,64.89 90.32,64.752 90.256,64.639 L81.203,48.959 C81.138,48.846 81.018,48.777 80.888,48.777 L78.511,48.777 C78.382,48.778 78.262,48.847 78.196,48.959 L69.143,64.639 C69.079,64.752 69.079,64.89 69.144,65.003 C69.209,65.115 69.329,65.184 69.458,65.184 L71.415,65.184 C71.545,65.184 71.665,65.115 71.73,65.003 L72.596,63.502 C72.662,63.39 72.782,63.321 72.912,63.321 L75.684,63.321 C75.814,63.321 75.934,63.39 75.999,63.502 C76.064,63.614 76.064,63.753 75.999,63.865 L72.411,70.084 C72.352,70.187 72.246,70.254 72.128,70.264 L71.13,70.352 C71.019,70.361 70.92,70.42 70.858,70.513 C70.797,70.605 70.781,70.719 70.815,70.825 L71.345,72.48 C71.396,72.641 71.553,72.745 71.721,72.731 L84.581,71.606 C84.722,71.593 84.857,71.664 84.927,71.786 L85.943,73.544 C85.991,73.628 86.07,73.689 86.163,73.714 C86.256,73.739 86.355,73.725 86.439,73.677 L87.907,72.829 C87.99,72.781 88.051,72.702 88.076,72.609 C88.101,72.516 88.087,72.417 88.039,72.333 L84.798,66.719 C84.75,66.635 84.67,66.575 84.577,66.55 C84.484,66.525 84.385,66.538 84.302,66.587 L82.834,67.434 C82.75,67.482 82.689,67.561 82.664,67.654 C82.64,67.747 82.653,67.846 82.701,67.93 M80.014,51.744 L82.189,55.511 C82.254,55.623 82.254,55.762 82.189,55.875 C82.124,55.987 82.004,56.057 81.874,56.057 L77.525,56.057 C77.395,56.057 77.275,55.987 77.21,55.875 C77.145,55.762 77.145,55.623 77.21,55.511 L79.385,51.744 C79.45,51.632 79.57,51.562 79.699,51.562 C79.829,51.562 79.949,51.632 80.014,51.744 M75.707,58.477 L83.692,58.477 C83.822,58.478 83.942,58.547 84.007,58.66 L84.988,60.355 C85.053,60.467 85.053,60.606 84.988,60.718 C84.923,60.83 84.803,60.899 84.673,60.899 L74.73,60.899 C74.6,60.9 74.48,60.83 74.415,60.718 C74.35,60.606 74.349,60.467 74.414,60.355 L75.393,58.66 C75.458,58.547 75.577,58.478 75.707,58.477" fill="#222222" id="パス_3740"/>
        <path d="M68.079,62.158 L57.206,62.158 L57.206,55 C57.206,54.799 57.043,54.637 56.842,54.637 L54.541,54.637 C54.341,54.637 54.179,54.8 54.179,55 L54.179,72.342 C54.179,72.542 54.341,72.705 54.541,72.705 L56.84,72.705 C57.041,72.705 57.204,72.543 57.204,72.342 L57.204,65.184 L66.749,65.184 C66.879,65.184 66.999,65.115 67.064,65.002 L68.393,62.702 C68.458,62.589 68.458,62.451 68.393,62.338 C68.328,62.226 68.208,62.156 68.078,62.157" fill="#222222" id="パス_3741"/>
      </g>
    </g>
  </g>
</svg>
