<svg xmlns="http://www.w3.org/2000/svg" xmlns:xlink="http://www.w3.org/1999/xlink" width="412" height="93.314" viewBox="0 0 412 93.314">
  <defs>
    <linearGradient id="linear-gradient" x1="0.198" y1="0.057" x2="0.883" y2="0.925" gradientUnits="objectBoundingBox">
      <stop offset="0" stop-color="#fc575e"/>
      <stop offset="1" stop-color="#f7b42c"/>
    </linearGradient>
    <filter id="合体_10" x="346.342" y="0" width="65.658" height="59.358" filterUnits="userSpaceOnUse">
      <feOffset input="SourceAlpha"/>
      <feGaussianBlur stdDeviation="4" result="blur"/>
      <feFlood flood-color="#fff" flood-opacity="0.102"/>
      <feComposite operator="in" in2="blur"/>
      <feComposite in="SourceGraphic"/>
    </filter>
    <clipPath id="clip-path">
      <rect id="長方形_1932" data-name="長方形 1932" width="251.847" height="67.119" fill="#222"/>
    </clipPath>
  </defs>
  <g id="グループ_4504" data-name="グループ 4504" transform="translate(0 12)">
    <path id="パス_3673" data-name="パス 3673" d="M6.156-11.916H14.35V-30.1c4.486,0,8.314.06,11.962-2.153a11.191,11.191,0,0,0,5.443-10.168,12.6,12.6,0,0,0-3.469-8.972c-2.691-2.632-6.579-3.469-12.141-3.469H6.156ZM14.35-46.845h3.469c3.888,0,5.921,1.555,5.921,4.426,0,2.931-1.854,4.366-5.562,4.366H14.35ZM40.188-11.916h7.955v-44.02H40.188ZM57.533-29.141a35.685,35.685,0,0,0,.3,6.7c1.256,7.416,5.981,11.3,13.637,11.3,4.426,0,7.716-1.2,10.228-4.007C85.046-18.854,85.4-23.16,85.4-29.021V-43.675H77.45v16.926c0,5.383-1.734,8.314-5.981,8.314-4.187,0-5.981-2.99-5.981-8.672V-43.675H57.533ZM104.544-24.3c2.213,1.136,3.529,2.153,3.529,3.529,0,1.435-1.555,2.572-3.529,2.572-2.093,0-4.785-1.555-6.639-3.708L93-16.521a13.417,13.417,0,0,0,11.125,5.443c6.938,0,11.424-4.247,11.424-9.928,0-4.725-2.811-7.476-8.074-10.168l-2.931-1.5c-1.734-.9-2.871-1.435-2.871-2.632,0-1.256,1.256-1.914,2.871-1.914,1.914,0,3.708,1.136,5.5,2.931l4.9-4.964a12.92,12.92,0,0,0-10.467-5.263c-6.1,0-10.287,4.187-10.287,9.151,0,4.007,2.572,7.117,7.656,9.689Z" transform="translate(250.671 70.404)" fill="#108cf7"/>
    <g id="plus-mark" transform="translate(358.342)">
      <g transform="matrix(1, 0, 0, 1, -358.34, -12)" filter="url(#合体_10)">
        <path id="合体_10-2" data-name="合体 10" d="M9.388,27.665l-9.371,3.2c.116-.049.815-.479,2.215-4.043,1.357-3.45,3.807-10.746,4.378-12.455a17.681,17.681,0,1,1,2.778,13.3Zm-9.371,3.2L0,30.87Z" transform="translate(358.34 12)" fill="url(#linear-gradient)"/>
      </g>
      <path id="add" d="M12.264,8.3a.361.361,0,0,1-.361-.361V0H8.3V7.935a.361.361,0,0,1-.361.361H0V11.9H7.935a.361.361,0,0,1,.361.361V20.2H11.9V12.264a.361.361,0,0,1,.361-.361H20.2V8.3Zm0,0" transform="translate(13.839 7.855)" fill="#fff"/>
    </g>
    <g id="グループ_3573" data-name="グループ 3573" transform="translate(0 14.195)">
      <g id="グループ_3572" data-name="グループ 3572" transform="translate(0 0)" clip-path="url(#clip-path)">
        <path id="パス_3723" data-name="パス 3723" d="M230.271,11.727H218.744a1,1,0,0,1-1-.994V8.216a1,1,0,0,1,1-.994h11.526a.994.994,0,0,1,.994.994v2.516a1,1,0,0,1-.994.994" transform="translate(-47.923 -1.589)" fill="#222"/>
        <path id="パス_3724" data-name="パス 3724" d="M226.759,33.971h-8.335a.676.676,0,0,0-.675.675V51.317a.676.676,0,0,0,.675.676h3.155a.675.675,0,0,0,.675-.676v-.362a.677.677,0,0,1,.676-.677h3.155a.676.676,0,0,1,.675.677v.362a.676.676,0,0,0,.676.676h3.153a.676.676,0,0,0,.677-.676V34.646a.676.676,0,0,0-.677-.675Zm-.675,11.8H222.93a.676.676,0,0,1-.676-.675V39.153a.675.675,0,0,1,.676-.675h3.155a.674.674,0,0,1,.675.675V45.1a.675.675,0,0,1-.675.675" transform="translate(-47.923 -7.476)" fill="#222"/>
        <path id="パス_3725" data-name="パス 3725" d="M228.654,20.393h-7.021a.993.993,0,0,1-.994-.994V16.881a.993.993,0,0,1,.994-.994h7.021a1,1,0,0,1,.995.994V19.4a1,1,0,0,1-.995.994" transform="translate(-48.559 -3.496)" fill="#222"/>
        <path id="パス_3726" data-name="パス 3726" d="M228.654,29.058h-7.021a.993.993,0,0,1-.994-.994V25.547a.993.993,0,0,1,.994-.994h7.021a1,1,0,0,1,.995.994v2.516a.994.994,0,0,1-.995.994" transform="translate(-48.559 -5.403)" fill="#222"/>
        <path id="パス_3727" data-name="パス 3727" d="M227.036,4.506H224.52a1,1,0,0,1-1-.994V1a1,1,0,0,1,1-1h2.516a1,1,0,0,1,.995,1V3.511a1,1,0,0,1-.995.994" transform="translate(-49.194 0)" fill="#222"/>
        <path id="パス_3728" data-name="パス 3728" d="M260.178,11.051V7.9a.676.676,0,0,0-.676-.675H237.2a.676.676,0,0,0-.675.675v3.154a.675.675,0,0,0,.675.675h8.223a.676.676,0,0,1,.675.676v.9a.676.676,0,0,1-.675.675H237.2a.676.676,0,0,0-.675.676v2.027a.676.676,0,0,0,.675.676h8.223a.676.676,0,0,1,.675.676v.9a.676.676,0,0,1-.675.677H237.2a.675.675,0,0,0-.675.675v3.154a.677.677,0,0,0,.675.676h22.3a.676.676,0,0,0,.676-.676V20.288a.675.675,0,0,0-.676-.675H251.28a.676.676,0,0,1-.676-.677v-.9a.676.676,0,0,1,.676-.676H259.5a.676.676,0,0,0,.676-.676V14.656a.676.676,0,0,0-.676-.676H251.28a.675.675,0,0,1-.676-.675v-.9a.676.676,0,0,1,.676-.676H259.5a.675.675,0,0,0,.676-.675" transform="translate(-52.055 -1.589)" fill="#222"/>
        <path id="パス_3729" data-name="パス 3729" d="M252.743,30.362h-2.027a.676.676,0,0,0-.676.675v3.716a.676.676,0,0,1-.674.677h-4.844a.677.677,0,0,1-.676-.677v-.338a.676.676,0,0,1,.676-.675h3.718a.676.676,0,0,0,.675-.676V31.037a.675.675,0,0,0-.675-.675H237.2a.675.675,0,0,0-.675.675v2.027a.676.676,0,0,0,.675.676h2.592a.676.676,0,0,1,.676.675v.338a.677.677,0,0,1-.676.677H237.2a.675.675,0,0,0-.675.675V39.26a.676.676,0,0,0,.675.675h2.592a.677.677,0,0,1,.676.676v.338a.676.676,0,0,1-.676.675H237.2a.677.677,0,0,0-.675.676v2.028A.676.676,0,0,0,237.2,45h2.592a.677.677,0,0,1,.676.676v.338a.677.677,0,0,1-.676.675H237.2a.676.676,0,0,0-.675.675v3.154a.675.675,0,0,0,.675.675h5.971a.675.675,0,0,0,.675-.675V45.68a.676.676,0,0,1,.676-.676h4.844a.676.676,0,0,1,.674.676v4.843a.676.676,0,0,0,.676.675H259.5a.675.675,0,0,0,.676-.675V42.3a.676.676,0,0,0-.676-.676h-2.028a.677.677,0,0,0-.675.676v3.718a.676.676,0,0,1-.676.675h-2.028a.677.677,0,0,1-.675-.675V45.68a.677.677,0,0,1,.675-.676h.9a.676.676,0,0,0,.676-.675V42.3a.676.676,0,0,0-.676-.676h-.9a.676.676,0,0,1-.675-.675v-.338a.676.676,0,0,1,.675-.676H259.5a.675.675,0,0,0,.676-.675V36.106a.675.675,0,0,0-.676-.675h-5.407a.677.677,0,0,1-.675-.677V31.037a.675.675,0,0,0-.676-.675m-3.378,11.263h-4.844a.675.675,0,0,1-.676-.675v-.338a.676.676,0,0,1,.676-.676h4.844a.675.675,0,0,1,.674.676v.338a.674.674,0,0,1-.674.675" transform="translate(-52.055 -6.682)" fill="#222"/>
        <path id="パス_3730" data-name="パス 3730" d="M260.307,33.74h4.28a.675.675,0,0,0,.676-.675V31.036a.675.675,0,0,0-.676-.675h-4.28a.676.676,0,0,0-.675.675v2.028a.676.676,0,0,0,.675.675" transform="translate(-57.141 -6.682)" fill="#222"/>
        <path id="パス_3731" data-name="パス 3731" d="M248.3,0h-3.155a.676.676,0,0,0-.675.675V3.83a.675.675,0,0,0,.675.675H248.3a.675.675,0,0,0,.675-.675V.675A.676.676,0,0,0,248.3,0" transform="translate(-53.804 0)" fill="#222"/>
        <path id="パス_3732" data-name="パス 3732" d="M256.962,0h-3.153a.676.676,0,0,0-.676.675V3.83a.675.675,0,0,0,.676.675h3.153a.675.675,0,0,0,.676-.675V.675A.676.676,0,0,0,256.962,0" transform="translate(-55.711 0)" fill="#222"/>
        <path id="パス_3733" data-name="パス 3733" d="M55.38,51.721,39.472,38.31a.677.677,0,0,0-1.022.179l-2.173,3.764a.677.677,0,0,0,.148.855l11.443,9.648a.678.678,0,0,0,.436.158h6.639a.676.676,0,0,0,.436-1.193" transform="translate(-7.964 -8.396)" fill="#222"/>
        <path id="パス_3734" data-name="パス 3734" d="M38.317,0h-20.4a.676.676,0,0,0-.585.338L14.86,4.619a.675.675,0,0,0,.585,1.014H33.893a.675.675,0,0,1,.585,1.013L.092,66.1a.676.676,0,0,0,.585,1.015H5.619a.676.676,0,0,0,.585-.338L41.568,5.633l2.666-4.619A.676.676,0,0,0,43.648,0Z" transform="translate(0 0)" fill="#222"/>
        <path id="パス_3735" data-name="パス 3735" d="M298.123,0h-3.153a.677.677,0,0,0-.676.675V3.83a.676.676,0,0,0,.676.675h3.153a.675.675,0,0,0,.676-.675V.675A.676.676,0,0,0,298.123,0" transform="translate(-64.769 0)" fill="#222"/>
        <path id="パス_3736" data-name="パス 3736" d="M277.516,11.727h28a.678.678,0,0,1,.64.457l1.125,3.29a.676.676,0,0,0,.64.458l2.989,0a.675.675,0,0,0,.652-.85l-.9-3.35-1.072-4a.675.675,0,0,0-.653-.5H274.094a.677.677,0,0,0-.653.5l-1.073,4-.9,3.35a.675.675,0,0,0,.652.85l2.988,0a.678.678,0,0,0,.64-.458l1.124-3.29a.677.677,0,0,1,.64-.457" transform="translate(-59.741 -1.589)" fill="#222"/>
        <path id="パス_3737" data-name="パス 3737" d="M295.025,39.168h7.659a.676.676,0,0,0,.676-.675V35.338a.675.675,0,0,0-.676-.676h-7.659a.676.676,0,0,1-.676-.676V30.832a.676.676,0,0,1,.676-.675h5.011a.674.674,0,0,1,.585.338l.5.859a.676.676,0,0,0,.923.249l2.73-1.578a.675.675,0,0,0,.248-.923l-4.593-7.957h4.51a.674.674,0,0,0,.676-.675V17.315a.676.676,0,0,0-.676-.675h-25.68a.677.677,0,0,0-.677.675v3.154a.675.675,0,0,0,.677.675h4.422a.676.676,0,0,1,.591,1l-3.855,7.008a.676.676,0,0,0,.593,1h8.161a.675.675,0,0,1,.674.675v3.154a.676.676,0,0,1-.674.676h-7.661a.675.675,0,0,0-.675.676v3.154a.676.676,0,0,0,.675.675h7.661a.676.676,0,0,1,.674.675V43a.676.676,0,0,1-.674.675H274.75a.676.676,0,0,0-.677.675V47.5a.676.676,0,0,0,.677.676h34.693a.676.676,0,0,0,.675-.676V44.349a.676.676,0,0,0-.675-.675H295.025a.676.676,0,0,1-.676-.675V39.843a.676.676,0,0,1,.676-.675m-7.1-14.531,1.821-3.154a.674.674,0,0,1,.585-.338h8.664l-2.241,1.294a.675.675,0,0,0-.247.923l.735,1.276a.676.676,0,0,1-.585,1.014h-8.149a.676.676,0,0,1-.585-1.014" transform="translate(-60.319 -3.662)" fill="#222"/>
        <path id="パス_3738" data-name="パス 3738" d="M89.413,15.087a.676.676,0,0,0-.518-1.11H53.353a.675.675,0,0,0-.585.338L50.3,18.595a.676.676,0,0,0,.585,1.014H76.817a.676.676,0,0,1,.519,1.111l-10.9,12.987a.677.677,0,0,1-.966.072l-6.191-5.465a.677.677,0,0,0-.966.072l-2.745,3.27a.676.676,0,0,0,.08.948l17.37,14.828a.684.684,0,0,0,.439.161H79.99a.676.676,0,0,0,.435-1.193l-9.611-8.1a.677.677,0,0,1-.082-.952L85.618,19.609Z" transform="translate(-11.049 -3.076)" fill="#222"/>
        <path id="パス_3739" data-name="パス 3739" d="M90.079,32.159l-3.591,4.28a.676.676,0,0,0,.518,1.111h28.931a.676.676,0,0,0,.675-.676v-4.28a.676.676,0,0,0-.675-.676H90.6a.677.677,0,0,0-.517.242" transform="translate(-19 -7.024)" fill="#222"/>
        <path id="パス_3740" data-name="パス 3740" d="M188.944,35.633l.91,1.579a.675.675,0,0,1-.527,1.01l-12.936,1.132a.676.676,0,0,1-.644-1.012l6.32-10.945a.679.679,0,0,1,.585-.338h13.339a.679.679,0,0,1,.586.338l1.611,2.791a.679.679,0,0,0,.586.338h3.641A.677.677,0,0,0,203,29.511L186.157.338A.676.676,0,0,0,185.571,0H181.15a.679.679,0,0,0-.586.338L163.721,29.511a.676.676,0,0,0,.586,1.014h3.641a.679.679,0,0,0,.586-.338l1.611-2.791a.679.679,0,0,1,.587-.338h5.158a.675.675,0,0,1,.585,1.013L169.8,39.641a.67.67,0,0,1-.526.335l-1.858.163a.676.676,0,0,0-.585.88l.986,3.079a.673.673,0,0,0,.7.467l23.926-2.093a.676.676,0,0,1,.644.335l1.889,3.272a.675.675,0,0,0,.923.247l2.731-1.578a.673.673,0,0,0,.246-.922L192.846,33.38a.675.675,0,0,0-.923-.246l-2.731,1.576a.674.674,0,0,0-.247.923m-5-30.114,4.047,7.009a.676.676,0,0,1-.585,1.015h-8.093a.676.676,0,0,1-.585-1.015l4.046-7.009a.676.676,0,0,1,1.17,0m-8.013,12.528h14.857a.676.676,0,0,1,.585.339L193.2,21.54a.676.676,0,0,1-.586,1.013h-18.5a.676.676,0,0,1-.587-1.013l1.821-3.154a.676.676,0,0,1,.585-.339" transform="translate(-36.012 0)" fill="#222"/>
        <path id="パス_3741" data-name="パス 3741" d="M153.909,27.97H133.68V14.653a.676.676,0,0,0-.677-.675h-4.28a.676.676,0,0,0-.675.675V46.918a.676.676,0,0,0,.675.675H133a.676.676,0,0,0,.677-.675V33.6h17.758a.677.677,0,0,0,.587-.338l2.471-4.28a.676.676,0,0,0-.586-1.014" transform="translate(-28.181 -3.076)" fill="#222"/>
      </g>
    </g>
  </g>
</svg>
