<svg xmlns="http://www.w3.org/2000/svg" xmlns:xlink="http://www.w3.org/1999/xlink" width="199.794" height="199.795" viewBox="0 0 199.794 199.795">
  <defs>
    <clipPath id="clip-path">
      <rect id="Rectangle_110" data-name="Rectangle 110" width="143.037" height="143.037" transform="translate(0 0)" fill="#a92c3d" stroke="#707070" stroke-width="1"/>
    </clipPath>
  </defs>
  <g id="Mask_Group_19" data-name="Mask Group 19" transform="matrix(0.809, 0.588, -0.588, 0.809, 84.075, 0)" clip-path="url(#clip-path)">
    <g id="key" transform="translate(29.799 0)">
      <g id="Group_188" data-name="Group 188" transform="translate(0 0)">
        <path id="Path_207" data-name="Path 207" d="M62.579,65.559a20.86,20.86,0,1,0,0-41.719c-.076,0-.148,0-.224,0a20.16,20.16,0,0,0,.224-2.983,20.86,20.86,0,0,0-41.719,0,20.157,20.157,0,0,0,.224,2.983c-.076,0-.148,0-.224,0A20.86,20.86,0,1,0,32.78,61.814V134.1a8.94,8.94,0,0,0,17.88,0v-2.98h2.98v2.98a2.978,2.978,0,0,0,2.98,2.98h11.92a2.978,2.978,0,0,0,2.98-2.98V104.3a2.978,2.978,0,0,0-2.98-2.98H56.619a2.978,2.978,0,0,0-2.98,2.98v2.98h-2.98V61.813A20.789,20.789,0,0,0,62.579,65.559Zm-14.9,47.679h8.94a2.978,2.978,0,0,0,2.98-2.98v-2.98h5.96v23.839H59.6v-2.98a2.978,2.978,0,0,0-2.98-2.98h-8.94a2.978,2.978,0,0,0-2.98,2.98v5.96a2.98,2.98,0,1,1-5.96,0V54.561a2.977,2.977,0,0,0-2.118-2.852,2.939,2.939,0,0,0-.861-.128,2.979,2.979,0,0,0-2.482,1.333A14.9,14.9,0,1,1,20.86,29.8a14.607,14.607,0,0,1,3.542.48,3.029,3.029,0,0,0,2.951-.934,2.976,2.976,0,0,0,.53-3.05,14.9,14.9,0,1,1,27.675,0,2.98,2.98,0,0,0,3.481,3.984,14.609,14.609,0,0,1,3.542-.48A14.9,14.9,0,1,1,50.162,52.914,2.98,2.98,0,0,0,44.7,54.561v55.7A2.978,2.978,0,0,0,47.679,113.238Z" transform="translate(0)" fill="#a92c3d"/>
      </g>
    </g>
  </g>
</svg>
