<svg xmlns="http://www.w3.org/2000/svg" xmlns:xlink="http://www.w3.org/1999/xlink" width="591.584" height="534.039" viewBox="0 0 591.584 534.039">
  <defs>
    <clipPath id="clip-path">
      <rect id="Rectangle_244" data-name="Rectangle 244" width="85.418" height="85.418" transform="translate(0 0)" fill="#a92c3d" stroke="#707070" stroke-width="1"/>
    </clipPath>
    <linearGradient id="linear-gradient" x1="1.226" y1="-0.498" x2="1.226" y2="0.502" gradientUnits="objectBoundingBox">
      <stop offset="0" stop-color="gray" stop-opacity="0.251"/>
      <stop offset="0.535" stop-color="gray" stop-opacity="0.122"/>
      <stop offset="1" stop-color="gray" stop-opacity="0.102"/>
    </linearGradient>
    <linearGradient id="linear-gradient-2" x1="2.956" y1="-10.123" x2="2.956" y2="-9.123" xlink:href="#linear-gradient"/>
    <linearGradient id="linear-gradient-3" x1="0.5" y1="-2.228" x2="0.5" y2="-1.228" xlink:href="#linear-gradient"/>
  </defs>
  <g id="Group_297" data-name="Group 297" transform="translate(-710.144 -4384.167)">
    <g id="Group_264" data-name="Group 264" transform="translate(1074.268 4533.844)">
      <ellipse id="Ellipse_156" data-name="Ellipse 156" cx="88.787" cy="11.522" rx="88.787" ry="11.522" transform="translate(10.861 361.319)" fill="#e6e6e6"/>
      <path id="Path_748" data-name="Path 748" d="M736.713,564.421s4.771,16.433,7.952,20.674,5.831,11.132,4.241,12.192-4.771,13.782-.53,14.313,13.782-13.783,14.313-18.553,2.65-21.734,2.65-21.734,3.711-14.843-2.12-15.9-14.843-1.59-14.843-1.59Z" transform="translate(-632.168 -231.698)" fill="#2f2e41"/>
      <path id="Path_749" data-name="Path 749" d="M693.387,599.519s-6.891,18.023-8.481,19.083-7.422,10.6,4.241,10.6,18.023-3.181,18.023-3.181l3.71-4.241s0-11.132-1.06-12.722,0-9.542,0-9.542Z" transform="translate(-611.106 -249.302)" fill="#2f2e41"/>
      <path id="Path_750" data-name="Path 750" d="M621.185,326.545s-8.482,57.251-1.061,75.8S634.968,426.2,634.968,426.2l56.19,52.48s17.493-9.011,15.9-14.843c0,0-3.711-2.12-4.241-3.711s-7.422-2.12-7.422-2.12-3.18-3.711-3.18-5.831-27.565-39.757-36.577-42.408c0,0-4.771-5.831-4.241-6.891s-1.59-4.771-1.59-4.771l5.3-20.674,33.4-5.3s13.783-48.769,2.12-52.48S621.185,326.545,621.185,326.545Z" transform="translate(-586.083 -141.188)" fill="#2f2e41"/>
      <path id="Path_751" data-name="Path 751" d="M711.582,391.715l1.06,8.481s0,22.264-1.06,24.385-1.59,5.3,0,7.421,4.241,7.422,3.181,9.542,2.12,62.021-2.12,66.262-2.65,9.542-2.12,10.072-.53,2.651-.53,2.651-21.734,3.71-20.144,0,1.59-5.831,2.65-6.892,0-2.65,0-2.65,1.59-16.963,0-18.023-6.361-51.949-6.361-52.479-1.59-1.59-1.59-3.711,0-9.012-2.65-10.072-2.12-27.035-2.12-27.035Z" transform="translate(-610.218 -169.252)" fill="#2f2e41"/>
      <path id="Path_752" data-name="Path 752" d="M654.043,83.888s2.12,15.9,8.481,19.084,10.6,4.771,10.6,4.771l-5.3,18.553-2.12,15.9H641.321l-13.253-10.6,4.241-17.493,2.12-3.18s2.651-11.662.53-15.373S654.043,83.888,654.043,83.888Z" transform="translate(-590.316 -50.67)" fill="#ffb9b9"/>
      <path id="Path_753" data-name="Path 753" d="M632.48,135.539l3.711,6.892s2.65-9.542,6.361-11.132,12.722-4.241,12.722-6.361-.53-7.422,1.59-7.422,22.794,6.361,25.974,8.482,3.711,4.241,3.711,4.241L680.719,191.2s8.481,28.625,5.831,39.758-4.771,12.722-11.132,14.313-2.651-3.711-21.2,1.59-30.215,3.71-34.456,3.71a14.826,14.826,0,0,0-7.952,2.651c-1.06.53-.531-2.651,3.18-7.422s2.12-12.722,2.12-12.722-4.241-13.783-1.59-19.083,6.361-12.192,3.181-14.313-7.422-18.023-7.422-18.023l-11.662-41.347,23.854-16.433s-1.06,7.421,2.65,9.011S632.48,135.539,632.48,135.539Z" transform="translate(-579.354 -63.624)" fill="#575a89"/>
      <path id="Path_754" data-name="Path 754" d="M599.473,153.731h-3.18s-5.3,9.012-5.3,15.373,2.65,42.408,2.65,42.408l15.373,15.9,3.711-12.192,1.06-27.035Z" transform="translate(-576.033 -77.575)" fill="#575a89"/>
      <path id="Path_755" data-name="Path 755" d="M607.947,244.185s-17.493-4.771-16.963,2.65,3.181,16.433,11.662,18.553,11.132-9.542,11.132-9.542S614.838,245.245,607.947,244.185Z" transform="translate(-576.025 -111.838)" fill="#575a89"/>
      <path id="Path_756" data-name="Path 756" d="M720.853,284.8s-1.06,24.385-7.421,27.035l15.372,3.711s7.422-25.445,6.361-26.5S720.853,284.8,720.853,284.8Z" transform="translate(-623.2 -128.064)" fill="#ffb9b9"/>
      <path id="Path_757" data-name="Path 757" d="M577.082,201.493l9.1-3.977a1.4,1.4,0,0,1,1.842.722l10.121,23.168a1.709,1.709,0,0,1-.882,2.249h0l-8.536,3.729a1.709,1.709,0,0,1-2.25-.882h0l-10.12-23.167a1.4,1.4,0,0,1,.722-1.842Z" transform="translate(-570.351 -94.396)" fill="#2f2e41"/>
      <path id="Path_758" data-name="Path 758" d="M577.082,201.493l9.1-3.977a1.4,1.4,0,0,1,1.842.722l10.121,23.168a1.709,1.709,0,0,1-.882,2.249h0l-8.536,3.729a1.709,1.709,0,0,1-2.25-.882h0l-10.12-23.167a1.4,1.4,0,0,1,.722-1.842Z" transform="translate(-570.351 -94.396)" opacity="0.1" style="isolation: isolate"/>
      <path id="Path_759" data-name="Path 759" d="M577.922,203.736l7.937-3.467a1.4,1.4,0,0,1,1.842.722l9.6,21.986a1.708,1.708,0,0,1-.882,2.249h0l-7.369,3.22a1.709,1.709,0,0,1-2.25-.882h0l-9.6-21.985a1.4,1.4,0,0,1,.722-1.842Z" transform="translate(-570.675 -95.457)" fill="#2f2e41"/>
      <ellipse id="Ellipse_157" data-name="Ellipse 157" cx="2.546" cy="2.581" rx="2.546" ry="2.581" transform="translate(10.147 113.946) rotate(-23.598)" fill="#f2f2f2"/>
      <path id="Path_760" data-name="Path 760" d="M722.836,146.7l3.446-5.036S739,161.273,737.944,174.526s-2.12,13.782-2.12,15.9-2.65,2.12,0,4.771,6.361,6.361,4.241,8.481-3.711,2.12-3.181,4.771a35.046,35.046,0,0,1,.531,5.831s-4.506,8.746-6.1,8.746-16.7,14.048-16.7,12.457,1.59-12.722,1.59-14.313.53-6.891,1.59-8.481,1.06-1.06,0-2.65-1.06,0-1.06-1.59.531-3.711-1.06-4.241-3.181,0-2.12-2.65,0-4.771-.53-4.771-3.181-.53-1.59-2.12-3.181-32.335-3.181-32.335S709.054,154.647,722.836,146.7Z" transform="translate(-621.207 -72.925)" opacity="0.1" style="isolation: isolate"/>
      <path id="Path_761" data-name="Path 761" d="M721.081,131.313l9.011,4.241s12.723,19.613,11.662,32.866-2.12,13.782-2.12,15.9-2.65,2.12,0,4.771,6.361,6.361,4.241,8.481-3.711,2.12-3.18,4.771a35.071,35.071,0,0,1,.53,5.831s-4.771,25.444-6.361,25.444-16.433-2.65-16.433-4.241,1.59-12.722,1.59-14.313.53-6.891,1.59-8.481,1.06-1.06,0-2.65-1.06,0-1.06-1.59.53-3.711-1.061-4.241-3.18,0-2.12-2.65,0-4.771-.53-4.771-3.18-.53-1.59-2.12-3.18-32.335-3.18-32.335S707.3,139.264,721.081,131.313Z" transform="translate(-622.367 -68.939)" fill="#575a89"/>
      <path id="Path_762" data-name="Path 762" d="M591.383,238.281a2.222,2.222,0,0,1-2.556-1.153c-2.436-4.87-9.036-19.156-2.883-19.6,5.676-.405,10.732,10.663,12.8,15.891a2.524,2.524,0,0,1-1.42,3.277,2.448,2.448,0,0,1-.287.094Z" transform="translate(-573.106 -102.148)" fill="#ffb9b9"/>
      <ellipse id="Ellipse_158" data-name="Ellipse 158" cx="19.614" cy="19.614" rx="19.614" ry="19.614" transform="translate(29.271 8.834)" fill="#ffb9b9"/>
      <path id="Path_763" data-name="Path 763" d="M625.658,47.007a38.569,38.569,0,0,1-7.54,1.78c-1.932.3-4.192.456-5.55-.951-1.332-1.38-1.116-3.683-.208-5.373s2.364-3.015,3.457-4.592c1.717-2.481,2.731-5.77,5.478-7.02a10.067,10.067,0,0,1,3.565-.666c7.126-.455,14.545-.864,21.145,1.863a15.558,15.558,0,0,1,6.383,4.541,16.948,16.948,0,0,1,2.551,4.946,32.284,32.284,0,0,1-5.808,31c-2.405-2.167-1.359-7.175-4.4-8.279-1-.362-2.128-.11-3.15-.4-3.215-.9-3.053-5.869-5.729-7.865a5.1,5.1,0,0,1-1.524-1.252,3.116,3.116,0,0,1-.3-1.579c-.02-1.861.855-6.588-.92-7.864C631.3,44,627.395,46.38,625.658,47.007Z" transform="translate(-583.981 -29.855)" fill="#2f2e41"/>
      <path id="Path_764" data-name="Path 764" d="M597.66,562.923s-1.442-31.011-31-27.407" transform="translate(-566.66 -224.535)" fill="#e6e6e6"/>
      <path id="Path_765" data-name="Path 765" d="M819.811,444.793s1.442-31.011,31-27.407" transform="translate(-664.179 -179.029)" fill="#e6e6e6"/>
      <path id="Path_766" data-name="Path 766" d="M818.561,585.087c-.037-.327-3.549-32.847,10.668-50.057a28.936,28.936,0,0,1,20.9-10.572l.095,1.226a27.75,27.75,0,0,0-20.04,10.126c-13.884,16.8-10.432,48.816-10.4,49.137Z" transform="translate(-663.54 -220.387)" fill="#e6e6e6"/>
      <rect id="Rectangle_268" data-name="Rectangle 268" width="1.23" height="67.626" transform="translate(29.906 302.298)" fill="#e6e6e6"/>
      <rect id="Rectangle_269" data-name="Rectangle 269" width="1.23" height="135.866" transform="translate(154.091 234.057)" fill="#e6e6e6"/>
      <ellipse id="Ellipse_159" data-name="Ellipse 159" cx="10.093" cy="10.093" rx="10.093" ry="10.093" transform="translate(20.907 284.307)" fill="#a92c3d"/>
      <ellipse id="Ellipse_160" data-name="Ellipse 160" cx="10.093" cy="10.093" rx="10.093" ry="10.093" transform="translate(145.539 214.567)" fill="#a92c3d"/>
      <ellipse id="Ellipse_161" data-name="Ellipse 161" cx="10.093" cy="10.093" rx="10.093" ry="10.093" transform="translate(176.539 294.59)" fill="#e6e6e6"/>
    </g>
    <g id="Union_1" data-name="Union 1" transform="translate(1266.832 4384.167) rotate(74)" fill="#fff">
      <path d="M 114.4222640991211 136.1749420166016 L 97.58015441894531 116.4423446655273 L 97.29822540283203 116.1120376586914 L 96.93170166015625 116.3449325561523 C 86.88788604736328 122.7269668579102 75.25811767578125 126.1003112792969 63.29970169067383 126.1003112792969 C 54.82153701782227 126.1003112792969 46.59726715087891 124.4399795532227 38.85531997680664 121.1654205322266 C 35.13428497314453 119.5915679931641 31.54530143737793 117.6435317993164 28.18808364868164 115.3754348754883 C 24.86262893676758 113.1287994384766 21.73550224304199 110.5486907958984 18.89355659484863 107.7067489624023 C 16.05162811279297 104.8648223876953 13.47150135040283 101.7376937866211 11.22488307952881 98.41221618652344 C 8.956792831420898 95.05500030517578 7.008756160736084 91.46601867675781 5.434901714324951 87.74497985839844 C 2.160338163375854 80.00303649902344 0.5000107884407043 71.77876281738281 0.5000107884407043 63.30060195922852 C 0.5000107884407043 54.82243728637695 2.160338163375854 46.59811019897461 5.434901714324951 38.85607528686523 C 7.008756160736084 35.13500213623047 8.956792831420898 31.54596519470215 11.22488307952881 28.18869209289551 C 13.47151947021484 24.86318397521973 16.05162811279297 21.73598289489746 18.89355659484863 18.89400100708008 C 21.73550224304199 16.052001953125 24.86262893676758 13.47183799743652 28.18808364868164 11.22514724731445 C 31.54532051086426 8.957001686096191 35.13428497314453 7.008928775787354 38.85531997680664 5.435019493103027 C 46.59728240966797 2.160383462905884 54.82155609130859 0.5000015497207642 63.29970169067383 0.5000015497207642 C 71.77784729003906 0.5000015497207642 80.00212097167969 2.160383462905884 87.74408721923828 5.435019493103027 C 91.46511840820313 7.008928775787354 95.05410003662109 8.957001686096191 98.41132354736328 11.22514724731445 C 101.7367706298828 13.47183799743652 104.8639221191406 16.052001953125 107.7058486938477 18.89400100708008 C 110.5477752685547 21.73598289489746 113.1278991699219 24.86318397521973 115.3745346069336 28.18869209289551 C 117.6426315307617 31.54596519470215 119.5906677246094 35.13500213623047 121.1645202636719 38.85607528686523 C 124.4390640258789 46.59811019897461 126.0994110107422 54.82243728637695 126.0994110107422 63.30060195922852 C 126.0994110107422 68.01103973388672 125.575813293457 72.7069091796875 124.5431594848633 77.25778198242188 C 123.5386505126953 81.68461608886719 122.0445938110352 86.01134490966797 120.1024856567383 90.11778259277344 C 118.1953887939453 94.15022277832031 115.8457412719727 97.99342346191406 113.1187744140625 101.5406341552734 C 110.4113006591797 105.0625076293945 107.3209915161133 108.3071136474609 103.9336624145508 111.1842727661133 L 103.6507720947266 111.4245681762695 L 103.7988815307617 111.764892578125 L 114.4222640991211 136.1749420166016 Z" stroke="none"/>
      <path d="M 112.6257553100586 133.2999420166016 L 103.3404312133789 111.9644165039063 L 103.0442123413086 111.2837677001953 L 103.609977722168 110.8031997680664 C 106.9704818725586 107.9487991333008 110.0363388061523 104.7298889160156 112.7223739624023 101.2359085083008 C 115.4276504516602 97.71689605712891 117.7586135864258 93.90428924560547 119.6504821777344 89.90402221679688 C 121.5770111083984 85.83049011230469 123.05908203125 81.53847503662109 124.055534362793 77.14714813232422 C 125.0799713134766 72.63250732421875 125.5994110107422 67.973876953125 125.5994110107422 63.30060195922852 C 125.5994110107422 54.88970947265625 123.9523544311523 46.73091125488281 120.7040100097656 39.05085754394531 C 119.1427383422852 35.35951232910156 117.2102508544922 31.79911041259766 114.9602279663086 28.46858406066895 C 112.7314071655273 25.16943740844727 110.1717224121094 22.06703758239746 107.3522872924805 19.2475471496582 C 104.532844543457 16.42805671691895 101.4305038452148 13.86832904815674 98.13140869140625 11.63945579528809 C 94.80094146728516 9.389383316040039 91.24059295654297 7.456856250762939 87.54930114746094 5.895528793334961 C 79.86931610107422 2.647092342376709 71.7105712890625 1.000001549720764 63.29970169067383 1.000001549720764 C 54.88882827758789 1.000001549720764 46.73008346557617 2.647092342376709 39.05010223388672 5.895528793334961 C 35.35881042480469 7.456856250762939 31.79846572875977 9.389383316040039 28.46799278259277 11.63945579528809 C 25.16890144348145 13.86832904815674 22.06655693054199 16.42805671691895 19.24711990356445 19.2475471496582 C 16.42768287658691 22.06703758239746 13.86801052093506 25.16943740844727 11.63919258117676 28.46858406066895 C 9.389174461364746 31.79911041259766 7.45668363571167 35.35951232910156 5.895392417907715 39.05085754394531 C 2.647065401077271 46.73091125488281 1.00001072883606 54.88970947265625 1.00001072883606 63.30060195922852 C 1.00001072883606 71.71149444580078 2.647065401077271 79.8702392578125 5.895392417907715 87.55021667480469 C 7.45668363571167 91.24150848388672 9.389174461364746 94.80185699462891 11.63919258117676 98.13233184814453 C 13.86801052093506 101.4314193725586 16.42768287658691 104.5337677001953 19.24711990356445 107.3532028198242 C 22.06653785705566 110.1726379394531 25.16890144348145 112.732307434082 28.46799278259277 114.9611282348633 C 31.79846572875977 117.2111434936523 35.35879135131836 119.1436386108398 39.05010223388672 120.7049255371094 C 46.73006439208984 123.953254699707 54.88880920410156 125.6003112792969 63.29970169067383 125.6003112792969 C 75.16299438476563 125.6003112792969 86.70001220703125 122.2539291381836 96.66353607177734 115.9229278564453 L 97.39661407470703 115.4571075439453 L 97.96046447753906 116.1177444458008 L 112.6257553100586 133.2999420166016 M 116.2188110351563 139.0500030517578 L 97.19984436035156 116.7669448852539 C 87.39913940429688 122.9944915771484 75.77155303955078 126.6003112792969 63.29970169067383 126.6003112792969 C 28.34010124206543 126.6003112792969 1.078158311429434e-05 98.26020050048828 1.078158311429434e-05 63.30060195922852 C 1.078158311429434e-05 28.34100151062012 28.34010124206543 1.525878928987368e-06 63.29970169067383 1.525878928987368e-06 C 98.25930023193359 1.525878928987368e-06 126.5994110107422 28.34100151062012 126.5994110107422 63.30060195922852 C 126.5994110107422 82.64103698730469 117.9269714355469 99.95443725585938 104.2573547363281 111.5653686523438 L 116.2188110351563 139.0500030517578 Z" stroke="none" fill="#707070"/>
    </g>
    <g id="Group_265" data-name="Group 265" transform="matrix(0.985, 0.174, -0.174, 0.985, 1171.728, 4394.649)">
      <g id="Group_254" data-name="Group 254" transform="translate(0)">
        <g id="Mask_Group_60" data-name="Mask Group 60" transform="matrix(0.809, 0.588, -0.588, 0.809, 50.207, 0)" clip-path="url(#clip-path)">
          <g id="key" transform="translate(17.795 0)">
            <g id="Group_252" data-name="Group 252" transform="translate(0 0)">
              <path id="Path_592" data-name="Path 592" d="M37.371,39.15a12.457,12.457,0,1,0,0-24.914c-.045,0-.089,0-.134,0a12.039,12.039,0,0,0,.134-1.781,12.457,12.457,0,0,0-24.914,0,12.037,12.037,0,0,0,.134,1.781c-.045,0-.089,0-.134,0a12.457,12.457,0,1,0,7.118,22.677V80.079a5.339,5.339,0,0,0,10.677,0V78.3h1.78v1.78a1.779,1.779,0,0,0,1.78,1.78H40.93a1.779,1.779,0,0,0,1.78-1.78v-17.8a1.779,1.779,0,0,0-1.78-1.78H33.811a1.779,1.779,0,0,0-1.78,1.78v1.78H30.252V36.913A12.414,12.414,0,0,0,37.371,39.15Zm-8.9,28.473h5.339a1.779,1.779,0,0,0,1.78-1.78V64.064H39.15V78.3H35.591V76.52a1.779,1.779,0,0,0-1.78-1.78H28.473a1.779,1.779,0,0,0-1.78,1.78v3.559a1.78,1.78,0,1,1-3.559,0v-47.5a1.778,1.778,0,0,0-1.265-1.7,1.755,1.755,0,0,0-.514-.076,1.779,1.779,0,0,0-1.482.8,8.9,8.9,0,1,1-7.415-13.8,8.723,8.723,0,0,1,2.115.287,1.809,1.809,0,0,0,1.762-.558A1.777,1.777,0,0,0,16.65,15.7a8.9,8.9,0,1,1,16.527,0,1.78,1.78,0,0,0,2.079,2.379,8.724,8.724,0,0,1,2.115-.287,8.9,8.9,0,1,1-7.415,13.8,1.779,1.779,0,0,0-3.262.983v33.26A1.778,1.778,0,0,0,28.473,67.623Z" fill="#a92c3d"/>
            </g>
          </g>
        </g>
      </g>
      <path id="Path_670" data-name="Path 670" d="M-10137.327,6904.2l4.226,4.394v5.576l-3.042,5.408-1.184,2.2,4.226,3.549,2.534,4.224v5.746l-5.576,5.07-4.731,1.351-9.633-3.548-1.689-6.76-18.926,26.361,3.38,2.535,3.041-1.69,5.07,3.042-10.14,14.533-6.083-3.718,1.689-4.393-3.718-2.2-3.549,4.224-5.069-3.21,28.9-40.725h-6.253l-7.266-4.394v-8.45l3.38-5.745,5.576-1.183,6.422,1.183,1.858,1.69,6.421-7.267h5.746Z" transform="translate(10220.308 -6877.18)" fill="#a92c3d"/>
    </g>
    <g id="Group_268" data-name="Group 268" transform="translate(710.144 4372.224)">
      <path id="Path_767" data-name="Path 767" d="M79.005,483.02c0,8.933-5.311,12.053-11.861,12.053q-.229,0-.455-.006c-.3-.006-.6-.019-.9-.041-5.913-.418-10.506-3.7-10.506-12.005,0-8.6,10.984-19.445,11.812-20.25h0l.048-.047S79.005,474.086,79.005,483.02Z" transform="translate(-29.126 -184.372)" fill="#3f3d56"/>
      <path id="Path_768" data-name="Path 768" d="M74.129,493.706l4.339-6.062-4.35,6.727-.011.7c-.3-.006-.6-.019-.9-.041l.467-8.937,0-.069.008-.013.044-.844-4.36-6.744,4.373,6.111.011.179.353-6.753-3.733-6.968,3.778,5.782.368-14,0-.048v.047l-.061,11.039,3.716-4.377-3.731,5.327-.1,6.046,3.47-5.8-3.485,6.692-.054,3.361,5.037-8.077-5.056,9.249Z" transform="translate(-36.544 -184.372)" fill="#f2f2f2"/>
      <path id="Path_769" data-name="Path 769" d="M309.7,246.993c-3.169-11.5-20.766-19.982-34.5-22.17V219.3q.381-.142.757-.292a12.232,12.232,0,0,0-.66-3.238,33.328,33.328,0,0,0,14.6-11.548,37.547,37.547,0,0,0-7.414-57.884,7.367,7.367,0,0,0-3.294-13.571,14.379,14.379,0,0,0-22.385-16.7,14.375,14.375,0,0,1,21.127,12.694c0,.126-.008.25-.011.376a14.377,14.377,0,1,0-27.87,5.378,7.19,7.19,0,0,0-4.758,10.53,37.55,37.55,0,0,0-9.157,59.719,33.332,33.332,0,0,0,13.542,10.731V224.7c-13.875,1.982-32.148,10.618-35.341,22.406-2.782,10.271-5.752,21.552-7.23,28.175,12.666,8.9,39.245,14.126,55.9,14.126,15.826,0,41.692-4.717,53.986-12.821C315.667,269.308,312.6,257.532,309.7,246.993ZM284.326,140.736c0,.131-.006.261-.012.39a7.19,7.19,0,0,0-5.971-6.677q.209-.354.4-.72A7.191,7.191,0,0,1,284.326,140.736Z" transform="translate(-109.118 0)" fill="url(#linear-gradient)"/>
      <path id="Path_770" data-name="Path 770" d="M264.728,410.3c15.375,0,40.5-4.582,52.448-12.456-1.294-7.07-4.27-18.511-7.091-28.749-3.593-13.039-26.264-22.079-39.79-22.079H257.262c-13.567,0-36.272,9.092-39.819,22.187-2.7,9.979-5.589,20.938-7.024,27.373C222.724,405.227,248.546,410.3,264.728,410.3Z" transform="translate(-110.861 -123.414)" fill="#a92c3d"/>
      <circle id="Ellipse_163" data-name="Ellipse 163" cx="36.475" cy="36.475" r="36.475" transform="translate(117.144 142.455)" fill="#3d2a2a"/>
      <path id="Path_771" data-name="Path 771" d="M300.686,306.181h19.084a2.855,2.855,0,0,1,2.855,2.855h0V328.55A11.724,11.724,0,0,1,310.9,340.274h-1.346a11.724,11.724,0,0,1-11.724-11.724h0V309.036a2.855,2.855,0,0,1,2.855-2.855Z" transform="translate(-156.915 -101.897)" fill="#fda57d"/>
      <path id="Path_772" data-name="Path 772" d="M312.3,326.153a32.161,32.161,0,0,0,11.987-2.31,11.879,11.879,0,0,0-11.85-11.111h-1.016a11.886,11.886,0,0,0-11.835,10.816A32.153,32.153,0,0,0,312.3,326.153Z" transform="translate(-157.838 -105.348)" opacity="0.05" style="isolation: isolate"/>
      <circle id="Ellipse_164" data-name="Ellipse 164" cx="32.27" cy="32.27" r="32.27" transform="translate(121.414 153.166)" fill="#fda57d"/>
      <circle id="Ellipse_165" data-name="Ellipse 165" cx="6.985" cy="6.985" r="6.985" transform="translate(135.77 136.246)" fill="#3d2a2a"/>
      <circle id="Ellipse_166" data-name="Ellipse 166" cx="6.985" cy="6.985" r="6.985" transform="translate(160.604 136.246)" fill="#3d2a2a"/>
      <circle id="Ellipse_167" data-name="Ellipse 167" cx="13.969" cy="13.969" r="13.969" transform="translate(140.426 117.621)" fill="#3d2a2a"/>
      <path id="Path_773" data-name="Path 773" d="M353.145,159.1a6.951,6.951,0,0,0-3.9,1.189,6.981,6.981,0,0,1,6.244,12.368,6.981,6.981,0,0,0-2.346-13.557Z" transform="translate(-184.004 -24.406)" fill="#3d2a2a"/>
      <path id="Path_774" data-name="Path 774" d="M321.348,118.094a13.91,13.91,0,0,0-8.884,3.188A13.968,13.968,0,0,1,327.9,144.4a13.967,13.967,0,0,0-6.556-26.3Z" transform="translate(-164.624 -2.802)" fill="#3d2a2a"/>
      <path id="Path_775" data-name="Path 775" d="M275.472,194.657s3.881,25.611,52.773,11.641l-24.058-20.954Z" transform="translate(-145.135 -38.233)" fill="#3d2a2a"/>
      <rect id="Rectangle_270" data-name="Rectangle 270" width="33.619" height="14.306" rx="7.153" transform="translate(21.399 303.091)" fill="#a92c3d"/>
      <g id="Group_266" data-name="Group 266" transform="translate(255.808 288.797)" opacity="0.7">
        <path id="Path_776" data-name="Path 776" d="M566.432,489.957V484.8H540.658v23.842a5.026,5.026,0,0,0,5.026,5.026h15.722a5.026,5.026,0,0,0,5.026-5.026V503.36a6.7,6.7,0,1,0,.011-13.4Zm0,10.826v-8.248a4.124,4.124,0,1,1,0,8.248Z" transform="translate(-540.658 -484.802)" fill="url(#linear-gradient-2)"/>
      </g>
      <path id="Path_777" data-name="Path 777" d="M586.568,497.4a6.119,6.119,0,1,0,6.119,6.119,6.119,6.119,0,0,0-6.119-6.119Zm0,9.884a3.765,3.765,0,1,1,3.765-3.765h0A3.765,3.765,0,0,1,586.568,507.287Z" transform="translate(-305.815 -202.644)" fill="#a92c3d"/>
      <path id="Path_778" data-name="Path 778" d="M586.568,497.4a6.119,6.119,0,1,0,6.119,6.119,6.119,6.119,0,0,0-6.119-6.119Zm0,9.884a3.765,3.765,0,1,1,3.765-3.765h0A3.765,3.765,0,0,1,586.568,507.287Z" transform="translate(-305.815 -202.644)" opacity="0.1" style="isolation: isolate"/>
      <rect id="Rectangle_271" data-name="Rectangle 271" width="305.463" height="10.355" transform="translate(0 316.41)" fill="#e0e0e0"/>
      <g id="Group_267" data-name="Group 267" transform="translate(87.779 241.605)" opacity="0.7">
        <rect id="Rectangle_272" data-name="Rectangle 272" width="129.904" height="74.804" rx="14.5" fill="url(#linear-gradient-3)"/>
      </g>
      <rect id="Rectangle_273" data-name="Rectangle 273" width="125.197" height="73.424" rx="26.835" transform="translate(90.133 242.986)" fill="#535461"/>
      <circle id="Ellipse_168" data-name="Ellipse 168" cx="4.236" cy="4.236" r="4.236" transform="translate(148.495 275.462)" fill="#fff"/>
      <rect id="Rectangle_274" data-name="Rectangle 274" width="279.576" height="4.236" transform="translate(12.943 326.764)" fill="#e0e0e0"/>
      <rect id="Rectangle_275" data-name="Rectangle 275" width="279.576" height="1.412" transform="translate(12.943 326.764)" opacity="0.1" style="isolation: isolate"/>
      <path id="Path_779" data-name="Path 779" d="M579.318,487.455v21.768a4.589,4.589,0,0,1-4.589,4.589h2.353a4.589,4.589,0,0,0,4.589-4.589V487.455Z" transform="translate(-302.801 -197.403)" opacity="0.1" style="isolation: isolate"/>
      <path id="Path_780" data-name="Path 780" d="M552.2,449.7a1.374,1.374,0,0,0-1.039.528c-.309.56.251,1.191.761,1.575a10.135,10.135,0,0,1,2.578,2.4,3.008,3.008,0,0,1,.141,3.326c-.915,1.241-3.1,1.508-3.309,3.035-.136.981.712,1.817,1.571,2.309,2.12,1.214,4.853,1.538,6.388,3.438a4.952,4.952,0,0,1,3.472-2.384c1.416-.323,2.888-.3,4.324-.517a1.5,1.5,0,0,0,1.193-.633c.4-.815-.742-1.792-.348-2.609.3-.622,1.183-.574,1.828-.823a2.38,2.38,0,0,0,1.185-2.842,5.353,5.353,0,0,0-2.024-2.628,22.68,22.68,0,0,0-8.153-3.769,20.9,20.9,0,0,0-4.333-1A21.664,21.664,0,0,0,552.2,449.7Z" transform="translate(-290.338 -177.195)" fill="#eee"/>
    </g>
  </g>
</svg>
