<svg xmlns="http://www.w3.org/2000/svg" xmlns:xlink="http://www.w3.org/1999/xlink" width="547.096" height="529.597" viewBox="0 0 547.096 529.597">
  <defs>
    <linearGradient id="linear-gradient" x1="0.5" y1="1" x2="0.5" gradientUnits="objectBoundingBox">
      <stop offset="0" stop-color="gray" stop-opacity="0.251"/>
      <stop offset="0.54" stop-color="gray" stop-opacity="0.122"/>
      <stop offset="1" stop-color="gray" stop-opacity="0.102"/>
    </linearGradient>
    <linearGradient id="linear-gradient-2" x1="0.5" y1="1" x2="0.5" y2="0" xlink:href="#linear-gradient"/>
    <clipPath id="clip-path">
      <rect id="Rectangle_244" data-name="Rectangle 244" width="85.418" height="85.418" transform="translate(0 0)" fill="#a92c3d" stroke="#707070" stroke-width="1"/>
    </clipPath>
    <clipPath id="clip-path-2">
      <rect id="Rectangle_244-2" data-name="Rectangle 244" width="85.418" height="85.418" transform="translate(0 0)" fill="#e2c9cf" stroke="#707070" stroke-width="1"/>
    </clipPath>
  </defs>
  <g id="Group_274" data-name="Group 274" transform="translate(-686.052 -5448.853)">
    <g id="undraw_app_installation_mbdv" transform="translate(838.209 5647.485)">
      <path id="Path_451" data-name="Path 451" d="M159.49,57.4c-14.85,2.659-31.9,7.4-37.91,21.963-5.49,13.317.953,28.32,5.288,42.1a143.226,143.226,0,0,1,6.574,42.036c.111,20.061-3.8,41.214,4.142,59.442,8.958,20.566,31.126,32.462,38.9,53.541,3.258,8.839,3.653,18.511,5.206,27.851a109.406,109.406,0,0,0,26.656,55.386c9.18,10.067,21.133,18.515,34.372,18.717,10.043.156,19.526-4.4,28.829-8.391a293.216,293.216,0,0,1,33.312-11.957c4.775-1.393,9.693-2.675,14.632-2.239,9.517.822,17.455,7.807,26.487,11.094,24.478,8.876,49.781-10.412,75.607-12.446,22.14-1.746,44.378,9.385,66.131,4.738,3.205-.686,6.632-1.931,8.313-4.89,2.782-4.9-.67-11.686,1.8-16.769s9.151-5.609,13.071-9.476c3.99-3.936,4.315-10.733,2.281-16.079s-5.958-9.6-9.73-13.765a590.235,590.235,0,0,1-51.441-65.572c-15.894-23.5-30.769-51.142-26.3-79.622,1.545-9.8,5.342-19.074,7.063-28.842s1.015-20.829-5.3-28.2c-3.772-4.4-9.065-6.948-14.2-9.373-47.9-22.612-99.23-45.767-151.095-37.208-8.444,1.393-16.8,3.628-25.345,3.932-12.364.444-24-5.083-36.078-3.287C187.045,52.11,173.189,54.945,159.49,57.4Z" transform="translate(-119.47 -47.475)" fill="#a92c3d" opacity="0.1"/>
      <path id="Path_452" data-name="Path 452" d="M250.206,157.29s-16.9-9.278-21.914-23.492a29.211,29.211,0,0,0-11.246-14.665,49.133,49.133,0,0,0-7.906-4.273" transform="translate(-172.296 -87.087)" fill="none" stroke="#535461" stroke-miterlimit="10" stroke-width="2"/>
      <path id="Path_453" data-name="Path 453" d="M191.479,91.571c1.6,1.607,3.32,9.163,3.32,9.163s-7.544-1.767-9.143-3.378a4.109,4.109,0,0,1,5.823-5.786Z" transform="translate(-157.841 -72.736)" fill="#a92c3d"/>
      <path id="Path_454" data-name="Path 454" d="M223,98.717c.468,2.219-2.19,9.5-2.19,9.5s-5.371-5.584-5.839-7.807A4.109,4.109,0,0,1,223,98.713Z" transform="translate(-175.7 -75.76)" fill="#a92c3d"/>
      <path id="Path_455" data-name="Path 455" d="M259.488,132.923c-.715,2.149-6.685,7.092-6.685,7.092s-1.816-7.532-1.1-9.685a4.113,4.113,0,0,1,7.807,2.593Z" transform="translate(-197.271 -94.54)" fill="#a92c3d"/>
      <path id="Path_456" data-name="Path 456" d="M280.327,168.208c-.341,2.239-5.391,8.12-5.391,8.12s-3.065-7.117-2.724-9.356a4.109,4.109,0,1,1,8.115,1.233Z" transform="translate(-209.436 -115.611)" fill="#a92c3d"/>
      <path id="Path_457" data-name="Path 457" d="M209.181,130.03c2.268-.025,8.793-4.208,8.793-4.208s-6.62-4.027-8.888-4a4.109,4.109,0,1,0,.094,8.218Z" transform="translate(-169.872 -91.187)" fill="#a92c3d"/>
      <path id="Path_458" data-name="Path 458" d="M232.781,170.526c2.153-.7,7.129-6.644,7.129-6.644s-7.524-1.861-9.677-1.159a4.109,4.109,0,0,0,2.548,7.807Z" transform="translate(-183.138 -115.189)" fill="#a92c3d"/>
      <path id="Path_459" data-name="Path 459" d="M263.1,205.925c2.244-.329,8.152-5.342,8.152-5.342s-7.1-3.106-9.34-2.778a4.109,4.109,0,1,0,1.192,8.124Z" transform="translate(-201.212 -135.935)" fill="#a92c3d"/>
      <path id="Path_460" data-name="Path 460" d="M213.206,295.29s-16.9-9.278-21.914-23.492a29.211,29.211,0,0,0-11.247-14.665,49.129,49.129,0,0,0-7.906-4.273" transform="translate(-150.5 -168.382)" fill="none" stroke="#535461" stroke-miterlimit="10" stroke-width="2"/>
      <path id="Path_461" data-name="Path 461" d="M154.479,229.571c1.6,1.607,3.32,9.163,3.32,9.163s-7.544-1.767-9.143-3.378a4.109,4.109,0,0,1,5.823-5.786Z" transform="translate(-136.044 -154.03)" fill="#a92c3d"/>
      <path id="Path_462" data-name="Path 462" d="M186,236.717c.468,2.219-2.19,9.5-2.19,9.5s-5.371-5.584-5.839-7.807A4.109,4.109,0,0,1,186,236.713Z" transform="translate(-153.903 -157.055)" fill="#a92c3d"/>
      <path id="Path_463" data-name="Path 463" d="M222.488,270.923c-.715,2.149-6.685,7.092-6.685,7.092s-1.816-7.532-1.1-9.685a4.113,4.113,0,1,1,7.807,2.593Z" transform="translate(-175.474 -175.835)" fill="#a92c3d"/>
      <path id="Path_464" data-name="Path 464" d="M243.327,306.208c-.341,2.239-5.391,8.119-5.391,8.119s-3.065-7.117-2.724-9.356a4.109,4.109,0,1,1,8.115,1.233Z" transform="translate(-187.64 -196.906)" fill="#a92c3d"/>
      <path id="Path_465" data-name="Path 465" d="M172.181,268.03c2.268-.025,8.793-4.208,8.793-4.208s-6.62-4.027-8.888-4a4.109,4.109,0,1,0,.094,8.218Z" transform="translate(-148.075 -172.482)" fill="#a92c3d"/>
      <path id="Path_466" data-name="Path 466" d="M195.363,308.526c2.153-.7,7.129-6.644,7.129-6.644s-7.524-1.861-9.677-1.159a4.109,4.109,0,1,0,2.548,7.807Z" transform="translate(-160.923 -196.484)" fill="#a92c3d"/>
      <path id="Path_467" data-name="Path 467" d="M226.1,343.925c2.244-.329,8.152-5.342,8.152-5.342s-7.1-3.106-9.34-2.778a4.109,4.109,0,1,0,1.192,8.124Z" transform="translate(-179.416 -217.23)" fill="#a92c3d"/>
      <path id="Path_468" data-name="Path 468" d="M450.1,47.27H259.2A17.488,17.488,0,0,0,241.69,64.734V329.242A17.488,17.488,0,0,0,259.2,346.71H450.1a17.488,17.488,0,0,0,17.513-17.464V64.729A17.488,17.488,0,0,0,450.1,47.27Z" transform="translate(-191.471 -47.27)" fill="url(#linear-gradient)"/>
      <rect id="Rectangle_215" data-name="Rectangle 215" width="220.542" height="293.157" rx="20" transform="translate(52.91 3.587)" fill="#535461"/>
      <rect id="Rectangle_216" data-name="Rectangle 216" width="198.131" height="237.697" transform="translate(64.115 31.319)" fill="#f1f1f4"/>
      <circle id="Ellipse_98" data-name="Ellipse 98" cx="2.691" cy="2.691" r="2.691" transform="translate(159.594 14.341)" fill="#fff"/>
      <circle id="Ellipse_99" data-name="Ellipse 99" cx="8.07" cy="8.07" r="8.07" transform="translate(154.215 274.33)" fill="#fff"/>
      <rect id="Rectangle_217" data-name="Rectangle 217" width="38.625" height="38.625" rx="11.85" transform="translate(87.985 62.195)" fill="#a92c3d"/>
      <rect id="Rectangle_218" data-name="Rectangle 218" width="38.625" height="38.625" rx="11.85" transform="translate(238.377 100.82) rotate(180)" fill="#a92c3d" opacity="0.2"/>
      <rect id="Rectangle_219" data-name="Rectangle 219" width="38.625" height="38.625" rx="11.85" transform="translate(143.868 62.195)" fill="#a92c3d"/>
      <rect id="Rectangle_220" data-name="Rectangle 220" width="38.625" height="38.625" rx="11.85" transform="translate(87.985 130.405)" fill="#a92c3d"/>
      <rect id="Rectangle_221" data-name="Rectangle 221" width="38.625" height="38.625" rx="11.85" transform="translate(238.377 169.031) rotate(180)" fill="#a92c3d" opacity="0.2"/>
      <rect id="Rectangle_222" data-name="Rectangle 222" width="38.625" height="38.625" rx="11.85" transform="translate(143.868 130.405)" fill="#a92c3d" opacity="0.2"/>
      <rect id="Rectangle_223" data-name="Rectangle 223" width="38.625" height="38.625" rx="11.85" transform="translate(87.985 198.616)" fill="#a92c3d"/>
      <rect id="Rectangle_224" data-name="Rectangle 224" width="38.625" height="38.625" rx="11.85" transform="translate(238.377 237.241) rotate(180)" fill="#a92c3d"/>
      <rect id="Rectangle_225" data-name="Rectangle 225" width="38.625" height="38.625" rx="11.85" transform="translate(143.868 198.616)" fill="#a92c3d"/>
      <path id="Path_469" data-name="Path 469" d="M782.87,279.517a3.234,3.234,0,0,0-.489-1.233,7.147,7.147,0,0,0-.966-.933c-1.939-1.824-.9-5.112-1.644-7.647-.822-2.708-3.7-4.783-6.2-6.164a5.007,5.007,0,0,0-1.29-.522,10.766,10.766,0,0,0-1.709-.136,8.219,8.219,0,0,1-2.605-.592c-1.187-.485-2.248-1.233-3.464-1.644a1.762,1.762,0,0,0-.74-.1c-1.327-.123-1.372,1.529-2.8,2.486a2.242,2.242,0,0,0-1.155,1.685c0,.966.986,1.6,1.865,2.026s1.081.341,1.253.337h.074c.119.021.251.123.592.5a11.247,11.247,0,0,0-9.512,11.049,11.017,11.017,0,0,0,.966,4.52c-.037.263-.078.534-.123.822a29.357,29.357,0,0,1-2.605,8.493c-1.126.23-1.837.411-1.837.411a1.049,1.049,0,0,1,.021.164l-.411.3-1.726,1.233c-3.4-5.634-6.87-12.627-7.01-17.879,0,0-.411.284-1.109.727v-3.731l-.222-.041.222-.411,1.6-3.033a8.191,8.191,0,0,0,.949-3.7c.074-4.767-.082-16.518-3.378-18.47-4.154-2.465-4.984,8.193-7.2,13.654-1.644,4.072-.822,9.973-.32,12.705.037.185.07.353.1.51a31.077,31.077,0,0,0-3.932,1.8c.875.345,1.529,3.086,1.89,5.058.037.21.074.411.107.6a20.432,20.432,0,0,1-2.552.625l7.142,15.582c-1.525,1.767-4.7,4.861-7.142,3.259-3.324-2.186-13.56-1.093-13.56-1.093s-5.851-15.536-5.572-20.188c0,0-.308.156-.822.411v-4.236a4.641,4.641,0,0,1-.6.341l.218-.386.316-.563a8.289,8.289,0,0,0,1.052-3.476c.345-4.779.851-17.049-2.93-18.581-4.709-1.911-6.094,11.74-6.094,11.74l1,12.36.021.275c-2.235.2-4.072.2-4.072.2.563.555.744,3.616.822,5.535v.547a5.1,5.1,0,0,1-2.757-.074l7.479,20.2s.555,4.931,10.248,7.1c5.7,1.286,9.673,2.465,11.982,3.238-3.953,9.369-17.669,43.145-13.646,51.363,0,0,2.153-.822,4.356-1.545.51,7.084,1.393,17.813,2.465,24.687a71.151,71.151,0,0,0-2.342,8.395c-.025.144-.045.279-.062.411-.822,6.554-7.478,19.115,2.494,29.762,0,0,6.924,4.109,7.479,9.011.464,4.134,7.783,14.439,10.1,17.62-1.853,3.185-7.08,11.583-11.764,13.782-5.814,2.733-1.109,6.554,4.43,5.753S751.6,460.493,751.6,460.493s-.127-8.58-1.861-9.2h0l-1.664-3.435a12.329,12.329,0,0,0,2.7-.74c7.478-3,17.726-8.465,17.726-8.465s.2-6.414-2.7-8.765c-1.487-4.59-8.374-8.711-8.374-8.711s-4.992-12.841-17.18-16.4a11.182,11.182,0,0,1-1.894-5.95c.8-1.537,1.344-2.515,1.344-2.515l6.3-14.957a20.407,20.407,0,0,0,4.109-5.058q.14-.255.271-.514c3.8.448,6.78.9,6.78.9l-.275-13.108c-2.511-27.046,5.247-34.964,5.247-34.964s11.094-13.379,12.187-22.937c1.023-8.822-6.447-9.266-7.6-9.282a9.751,9.751,0,0,1,.144-3.936l.131.094a1.541,1.541,0,0,0,.822.341.944.944,0,0,0,.181,0h.1a1.6,1.6,0,0,0,.768-.238c2.9-1.52,5.153-4.269,8.333-5.062.666-.164,1.36-.238,2.013-.452a5.6,5.6,0,0,0,3.287-3.082A7.446,7.446,0,0,0,782.87,279.517ZM742.19,424.157c.555,1.911,9.418,8.465,9.418,8.465l.341,2.354a83.828,83.828,0,0,1-7.162,6.061l-3.152-6.5s-4.709-15.019-8.863-16.654c-.768-.3-1.015-1.233-.908-2.535,2.7,1.976,9.866,7.281,10.314,8.826Z" transform="translate(-458.248 -165.326)" fill="url(#linear-gradient-2)"/>
      <path id="Path_470" data-name="Path 470" d="M748.806,399.73s-18.836,43.589-14.263,53.007c0,0,7.536-2.958,8.629-2.42s11.838-56.237,11.838-56.237Z" transform="translate(-481.386 -251.573)" fill="#575988"/>
      <path id="Path_471" data-name="Path 471" d="M748.806,399.73s-18.836,43.589-14.263,53.007c0,0,7.536-2.958,8.629-2.42s11.838-56.237,11.838-56.237Z" transform="translate(-481.386 -251.573)" opacity="0.05"/>
      <path id="Path_472" data-name="Path 472" d="M774.083,742.229s-6.459,12.109-12.109,14.793-1.077,6.459,4.306,5.65,23.142-13.724,23.142-13.724-.123-8.452-1.812-9.069S774.083,742.229,774.083,742.229Z" transform="translate(-496.44 -455.232)" fill="#575988"/>
      <path id="Path_473" data-name="Path 473" d="M815.9,691.25s-9.147,9.147-13.186,9.956,3.5,6.188,10.762,3.23,17.221-8.341,17.221-8.341.267-8.629-4.306-9.418S815.9,691.25,815.9,691.25Z" transform="translate(-521.298 -423.893)" fill="#575988"/>
      <path id="Path_474" data-name="Path 474" d="M744.74,512.412s1.882,32.827,4.306,37.393,11.571,18.565,11.571,18.565,10.495,7.536,11.033,9.418,9.147,8.341,9.147,8.341l.538,3.768s14.263-.822,13.453-5.65-8.341-9.418-8.341-9.418-4.845-12.648-16.683-16.145c0,0-3.768-5.383-.538-9.685,0,0,8.074-20.18,12.648-22.6s-1.886-16.4-1.886-16.4Z" transform="translate(-487.815 -319.861)" fill="#67647e"/>
      <path id="Path_475" data-name="Path 475" d="M744.74,512.412s1.882,32.827,4.306,37.393,11.571,18.565,11.571,18.565,10.495,7.536,11.033,9.418,9.147,8.341,9.147,8.341l.538,3.768s14.263-.822,13.453-5.65-8.341-9.418-8.341-9.418-4.845-12.648-16.683-16.145c0,0-3.768-5.383-.538-9.685,0,0,8.074-20.18,12.648-22.6s-1.886-16.4-1.886-16.4Z" transform="translate(-487.815 -319.861)" opacity="0.05"/>
      <path id="Path_476" data-name="Path 476" d="M767.809,594.927l8.629,18.026c-1.344,4.573-14.263,2.959-14.263,2.959s-9.956-13.453-10.495-18.3-7.265-8.88-7.265-8.88c-9.685-10.495-3.23-22.871-2.42-29.331a3.494,3.494,0,0,1,.057-.411c.715-4.331,5.071-16.79,8.456-26.121,2.285-6.287,4.13-11.152,4.13-11.152s18.026.822,21.778,7.265c1.726,2.959.953,6.036-.39,8.5a20.041,20.041,0,0,1-3.978,4.984l-6.127,14.768s-10.758,19.658-6.706,21.277S767.809,594.927,767.809,594.927Z" transform="translate(-484.516 -326.765)" fill="#67647e"/>
      <path id="Path_477" data-name="Path 477" d="M718.145,285.091a8.25,8.25,0,0,1-1.019,3.427l-.308.555-1.516,2.733h-4.845l-.1-1.274-.974-12.179s1.344-13.453,5.921-11.571C718.971,268.293,718.482,280.382,718.145,285.091Z" transform="translate(-466.984 -176.476)" fill="#f7c4a7"/>
      <path id="Path_478" data-name="Path 478" d="M718.214,321.28l-1.516,2.733h-4.845l-.1-1.274A18.407,18.407,0,0,0,718.214,321.28Z" transform="translate(-468.381 -208.687)" opacity="0.1"/>
      <path id="Path_479" data-name="Path 479" d="M712.936,321.39v6.188l-9.956,2.691s0-.645-.029-1.541c-.058-1.89-.234-4.906-.781-5.453C702.174,323.284,710.244,323.284,712.936,321.39Z" transform="translate(-462.737 -208.752)" fill="#e6e6f0"/>
      <path id="Path_480" data-name="Path 480" d="M714.055,330.22v2.56l-9.956,2.691s0-.645-.029-1.541C707.386,333.351,712.173,331.136,714.055,330.22Z" transform="translate(-463.856 -213.954)" opacity="0.1"/>
      <path id="Path_481" data-name="Path 481" d="M842.963,337.941c-1.964,5.671.588,8.218.588,8.218s-24.219,1.615-18.3-2.691c3.456-2.515,4.988-8.062,5.662-12.237a41.723,41.723,0,0,0,.53-5.235s19.354-.284,15.339,5.112a25.886,25.886,0,0,0-3.821,6.833Z" transform="translate(-534.695 -211.464)" fill="#f7c4a7"/>
      <path id="Path_482" data-name="Path 482" d="M856.243,331.1c-1.972,2.654-2.617,3.045-3.287,4.96a10.825,10.825,0,0,1-1.833.152c-4.615,0-9.106-.949-10.753-4.972A41.708,41.708,0,0,0,840.9,326S860.25,325.7,856.243,331.1Z" transform="translate(-544.15 -211.464)" opacity="0.1"/>
      <circle id="Ellipse_100" data-name="Ellipse 100" cx="11.033" cy="11.033" r="11.033" transform="translate(295.403 103.487)" fill="#f7c4a7"/>
      <path id="Path_483" data-name="Path 483" d="M711.043,330.55s-10.495,5.383-13.453,4.035l7.265,19.913s.538,4.845,9.956,6.985a96.5,96.5,0,0,1,13.991,4.035L746.291,344.8l-8.88,2.42s-4.573,6.459-7.807,4.306-13.178-1.068-13.178-1.068S710.776,335.128,711.043,330.55Z" transform="translate(-460.039 -214.148)" fill="#575988"/>
      <path id="Path_484" data-name="Path 484" d="M711.043,330.55s-10.495,5.383-13.453,4.035l7.265,19.913s.538,4.845,9.956,6.985a96.5,96.5,0,0,1,13.991,4.035L746.291,344.8l-8.88,2.42s-4.573,6.459-7.807,4.306-13.178-1.068-13.178-1.068S710.776,335.128,711.043,330.55Z" transform="translate(-460.039 -214.148)" opacity="0.05"/>
      <path id="Path_485" data-name="Path 485" d="M777.884,359.9s14.226-4.068,15.721,3.489c0,0-6.575-3.205-15.993,2.465-.707.411-1.4.875-2.055,1.348a41.66,41.66,0,0,0-16.4,25l-6.012,26.339-.538,7.08s-8.629,1.7-10.223-.851-.538-11.049,1.882-13.88,6.176-15.023,6.176-15.023l2.355-7.068a47.253,47.253,0,0,1,9.217-16.161h0l.567-.686a35.339,35.339,0,0,1,13.12-9.812C777.075,361.546,778.073,360.794,777.884,359.9Z" transform="translate(-485.979 -230.795)" opacity="0.1"/>
      <path id="Path_486" data-name="Path 486" d="M777.884,358.592s14.226-4.068,15.721,3.489c0,0-6.575-3.205-15.993,2.465-.707.411-1.4.875-2.055,1.348a41.66,41.66,0,0,0-16.4,25l-6.012,26.339-.538,7.08s-8.629,1.7-10.223-.851-.538-11.049,1.882-13.88,6.188-15.015,6.188-15.015l2.354-7.068a47.254,47.254,0,0,1,9.217-16.161h0l.567-.686a35.338,35.338,0,0,1,13.12-9.812C777.075,360.236,778.073,359.484,777.884,358.592Z" transform="translate(-485.979 -230.024)" fill="#e6e6f0"/>
      <path id="Path_487" data-name="Path 487" d="M742.81,414.895l.119,4.635,3.768-2.42s6.71-24.42,11.436-31.077c.555-.785.822-1.956,1.344-2.153l19.239-18.565V361s-9.821,7.265-10.63,8.629c-.345.571-5.5,3.39-8.629,7.807a97.542,97.542,0,0,0-7.4,12.779l-6.459,14.53Z" transform="translate(-486.678 -232.086)" opacity="0.1"/>
      <path id="Path_488" data-name="Path 488" d="M778.336,360.35v4.171l-19.51,18.7c-.518.2-.789,1.368-1.344,2.153-4.73,6.661-11.436,31.077-11.436,31.077l-3.768,2.42-.119-4.635,2.811-10.158,6.459-14.53a97.525,97.525,0,0,1,7.4-12.779c3.106-4.413,8.267-7.232,8.629-7.807.7-1.159,8.284-6.714,10.371-8.218Z" transform="translate(-486.295 -231.703)" fill="#787c9c"/>
      <path id="Path_489" data-name="Path 489" d="M853.692,288.72c-.851-.411-1.812-1.048-1.812-2A2.135,2.135,0,0,1,853,285.08c1.537-1.048,1.418-2.942,3.185-2.35,1.183.411,2.215,1.146,3.365,1.623a7.876,7.876,0,0,0,2.531.584,10.325,10.325,0,0,1,1.645.132,4.83,4.83,0,0,1,1.231.513,10.807,10.807,0,0,1,5.079,6.34c.732,2.5.658,5.457,2.539,7.252a6.979,6.979,0,0,1,.937.916,3.212,3.212,0,0,1,.473,1.233,7.437,7.437,0,0,1-.37,4.467,5.473,5.473,0,0,1-3.209,3.037c-.637.21-1.307.279-1.956.444-3.09.781-5.28,3.493-8.1,4.988a1.546,1.546,0,0,1-.748.234,1.488,1.488,0,0,1-.789-.337,4.2,4.2,0,0,1-1.956-3.324,6.723,6.723,0,0,1,.719-2.4,23.214,23.214,0,0,0,1.348-4.335,2.112,2.112,0,0,0,.029-1.048c-.205-.653-.929-.957-1.43-1.422a3.643,3.643,0,0,1-.715-3.641,24.194,24.194,0,0,1,1.644-3.538,2.787,2.787,0,0,0,.325-1.146c0-1.574-2.128-2.428-3.024-3.468C854.588,288.416,855.356,289.542,853.692,288.72Z" transform="translate(-550.93 -185.912)" opacity="0.1"/>
      <path id="Path_490" data-name="Path 490" d="M854.352,288.72c-.851-.411-1.812-1.048-1.812-2a2.135,2.135,0,0,1,1.122-1.644c1.537-1.048,1.418-2.942,3.185-2.35,1.183.411,2.215,1.146,3.365,1.623a7.877,7.877,0,0,0,2.531.584c.555.033,2.35-.822,2.876-.69a4.827,4.827,0,0,1,1.233.514,10.807,10.807,0,0,1,5.079,6.34c.731,2.5.222,5.621,2.1,7.4.316.3-.115,1.233.14,1.574a3.213,3.213,0,0,1,.473,1.233,7.437,7.437,0,0,1-.37,4.467,5.474,5.474,0,0,1-3.209,3.037c-.637.21-1.307.279-1.956.444-3.09.781-5.28,3.493-8.1,4.988a1.545,1.545,0,0,1-.748.234,1.487,1.487,0,0,1-.789-.337,4.2,4.2,0,0,1-1.956-3.324,6.722,6.722,0,0,1,.719-2.4,23.214,23.214,0,0,0,1.348-4.335,2.111,2.111,0,0,0,.029-1.048c-.206-.653-.929-.957-1.43-1.422a3.643,3.643,0,0,1-.715-3.641,24.193,24.193,0,0,1,1.644-3.538,2.787,2.787,0,0,0,.325-1.146c0-1.574-2.128-2.428-3.024-3.468C855.248,288.416,856.016,289.542,854.352,288.72Z" transform="translate(-551.319 -185.912)" fill="#b96b6b"/>
      <path id="Path_491" data-name="Path 491" d="M792.308,537.536c-4.931-.583-11.144-1.155-13.872-.7-4.393.731-10.556-3.185-11.666-3.916,2.285-6.287,4.13-11.152,4.13-11.152s18.026.822,21.778,7.265C794.424,531.993,793.651,535.071,792.308,537.536Z" transform="translate(-500.792 -326.795)" opacity="0.1"/>
      <path id="Path_492" data-name="Path 492" d="M815.209,374.908c-1.077,9.418-11.838,22.6-11.838,22.6s-7.536,7.807-5.112,34.442l.267,12.915s-15.877-2.42-20.718-1.615-11.838-4.035-11.838-4.035-2.7-46.556,8.892-56.233a68.341,68.341,0,0,1,4.635-6.349c3.107-3.76,7.331-8,11.284-9.04a7.059,7.059,0,0,1,1.557-.238s12.109-6.727,15.339-1.615C807.673,365.762,816.282,365.49,815.209,374.908Z" transform="translate(-500.161 -233.75)" fill="#575988"/>
      <path id="Path_493" data-name="Path 493" d="M766.68,502.515s4.306-1.882,11.571-1.344,20.2-5.921,20.2-5.921" transform="translate(-500.739 -311.172)" opacity="0.1"/>
      <path id="Path_494" data-name="Path 494" d="M774.483,659s.267.822-3.23,1.882-4.573,2.153-4.573,2.153" transform="translate(-500.739 -407.636)" opacity="0.05"/>
      <rect id="Rectangle_226" data-name="Rectangle 226" width="38.625" height="38.625" rx="11.85" transform="translate(282.484 106.425) rotate(180)" fill="#a92c3d"/>
      <path id="Path_495" data-name="Path 495" d="M795.556,270.3a8.165,8.165,0,0,1-.92,3.649l-1.553,2.991-1.077,2.055-6.727.538s-.14-.555-.312-1.471c-.5-2.691-1.294-8.506.312-12.52,2.153-5.383,2.959-15.877,6.985-13.453C795.477,254.018,795.63,265.6,795.556,270.3Z" transform="translate(-511.132 -167.716)" fill="#f7c4a7"/>
      <path id="Path_496" data-name="Path 496" d="M794.005,312.609v.082l-1.077,2.055-6.727.538s-.14-.555-.312-1.471C788.3,312.9,791.454,312.042,794.005,312.609Z" transform="translate(-512.056 -203.472)" opacity="0.1"/>
      <path id="Path_497" data-name="Path 497" d="M788.668,313.918v4.857l-9.685,5.112s-.111-.875-.316-2.009c-.353-1.944-.986-4.647-1.837-4.984C776.83,316.881,783.824,312.842,788.668,313.918Z" transform="translate(-506.719 -204.243)" fill="#e6e6f0"/>
      <path id="Path_498" data-name="Path 498" d="M828.093,392.814a11.4,11.4,0,0,1-8.7,2.786c-17.036-1.73-17.5-7.75-17.5-7.75l-2.613-5.81c3.106-3.76,7.331-8,11.284-9.04,2.823,4.549,5.342,7.832,5.342,7.832s12.648-9.685,16.416-.538C834.5,385.639,831.216,390.057,828.093,392.814Z" transform="translate(-519.944 -239.155)" opacity="0.05"/>
      <path id="Path_499" data-name="Path 499" d="M791.3,321.4v1.89l-9.685,5.112s-.111-.875-.316-2.009A46.036,46.036,0,0,0,791.3,321.4Z" transform="translate(-509.352 -208.758)" opacity="0.1"/>
      <path id="Path_500" data-name="Path 500" d="M788.973,321.39s-7.265,5.112-13.453,6.188l12.648,27.983s.464,6.02,17.5,7.75a11.4,11.4,0,0,0,8.7-2.786c3.123-2.757,6.4-7.174,4.208-12.5-3.768-9.147-16.416.538-16.416.538S789.24,331.613,788.973,321.39Z" transform="translate(-505.947 -208.752)" fill="#575988"/>
      <rect id="Rectangle_227" data-name="Rectangle 227" width="64.101" height="5.753" rx="2.67" transform="translate(324.902 293.531)" fill="#a92c3d"/>
      <rect id="Rectangle_228" data-name="Rectangle 228" width="64.101" height="5.753" rx="2.67" transform="translate(317.916 287.779)" fill="#a92c3d"/>
      <rect id="Rectangle_229" data-name="Rectangle 229" width="64.101" height="5.753" rx="2.67" transform="translate(317.916 287.779)" opacity="0.05"/>
    </g>
    <g id="Union_2" data-name="Union 2" transform="translate(1093.832 5468.167) rotate(74)" fill="#fff">
      <path d="M 114.4222640991211 136.1749420166016 L 97.58015441894531 116.4423446655273 L 97.29822540283203 116.1120376586914 L 96.93170166015625 116.3449325561523 C 86.88788604736328 122.7269668579102 75.25811767578125 126.1003112792969 63.29970169067383 126.1003112792969 C 54.82153701782227 126.1003112792969 46.59726715087891 124.4399795532227 38.85531997680664 121.1654205322266 C 35.13428497314453 119.5915679931641 31.54530143737793 117.6435317993164 28.18808364868164 115.3754348754883 C 24.86262893676758 113.1287994384766 21.73550224304199 110.5486907958984 18.89355659484863 107.7067489624023 C 16.05162811279297 104.8648223876953 13.47150135040283 101.7376937866211 11.22488307952881 98.41221618652344 C 8.956792831420898 95.05500030517578 7.008756160736084 91.46601867675781 5.434901714324951 87.74497985839844 C 2.160338163375854 80.00303649902344 0.5000107884407043 71.77876281738281 0.5000107884407043 63.30060195922852 C 0.5000107884407043 54.82243728637695 2.160338163375854 46.59811019897461 5.434901714324951 38.85607528686523 C 7.008756160736084 35.13500213623047 8.956792831420898 31.54596519470215 11.22488307952881 28.18869209289551 C 13.47151947021484 24.86318397521973 16.05162811279297 21.73598289489746 18.89355659484863 18.89400100708008 C 21.73550224304199 16.052001953125 24.86262893676758 13.47183799743652 28.18808364868164 11.22514724731445 C 31.54532051086426 8.957001686096191 35.13428497314453 7.008928775787354 38.85531997680664 5.435019493103027 C 46.59728240966797 2.160383462905884 54.82155609130859 0.5000015497207642 63.29970169067383 0.5000015497207642 C 71.77784729003906 0.5000015497207642 80.00212097167969 2.160383462905884 87.74408721923828 5.435019493103027 C 91.46511840820313 7.008928775787354 95.05410003662109 8.957001686096191 98.41132354736328 11.22514724731445 C 101.7367706298828 13.47183799743652 104.8639221191406 16.052001953125 107.7058486938477 18.89400100708008 C 110.5477752685547 21.73598289489746 113.1278991699219 24.86318397521973 115.3745346069336 28.18869209289551 C 117.6426315307617 31.54596519470215 119.5906677246094 35.13500213623047 121.1645202636719 38.85607528686523 C 124.4390640258789 46.59811019897461 126.0994110107422 54.82243728637695 126.0994110107422 63.30060195922852 C 126.0994110107422 68.01103973388672 125.575813293457 72.7069091796875 124.5431594848633 77.25778198242188 C 123.5386505126953 81.68461608886719 122.0445938110352 86.01134490966797 120.1024856567383 90.11778259277344 C 118.1953887939453 94.15022277832031 115.8457412719727 97.99342346191406 113.1187744140625 101.5406341552734 C 110.4113006591797 105.0625076293945 107.3209915161133 108.3071136474609 103.9336624145508 111.1842727661133 L 103.6507720947266 111.4245681762695 L 103.7988815307617 111.764892578125 L 114.4222640991211 136.1749420166016 Z" stroke="none"/>
      <path d="M 112.6257553100586 133.2999420166016 L 103.3404312133789 111.9644165039063 L 103.0442123413086 111.2837677001953 L 103.609977722168 110.8031997680664 C 106.9704818725586 107.9487991333008 110.0363388061523 104.7298889160156 112.7223739624023 101.2359085083008 C 115.4276504516602 97.71689605712891 117.7586135864258 93.90428924560547 119.6504821777344 89.90402221679688 C 121.5770111083984 85.83049011230469 123.05908203125 81.53847503662109 124.055534362793 77.14714813232422 C 125.0799713134766 72.63250732421875 125.5994110107422 67.973876953125 125.5994110107422 63.30060195922852 C 125.5994110107422 54.88970947265625 123.9523544311523 46.73091125488281 120.7040100097656 39.05085754394531 C 119.1427383422852 35.35951232910156 117.2102508544922 31.79911041259766 114.9602279663086 28.46858406066895 C 112.7314071655273 25.16943740844727 110.1717224121094 22.06703758239746 107.3522872924805 19.2475471496582 C 104.532844543457 16.42805671691895 101.4305038452148 13.86832904815674 98.13140869140625 11.63945579528809 C 94.80094146728516 9.389383316040039 91.24059295654297 7.456856250762939 87.54930114746094 5.895528793334961 C 79.86931610107422 2.647092342376709 71.7105712890625 1.000001549720764 63.29970169067383 1.000001549720764 C 54.88882827758789 1.000001549720764 46.73008346557617 2.647092342376709 39.05010223388672 5.895528793334961 C 35.35881042480469 7.456856250762939 31.79846572875977 9.389383316040039 28.46799278259277 11.63945579528809 C 25.16890144348145 13.86832904815674 22.06655693054199 16.42805671691895 19.24711990356445 19.2475471496582 C 16.42768287658691 22.06703758239746 13.86801052093506 25.16943740844727 11.63919258117676 28.46858406066895 C 9.389174461364746 31.79911041259766 7.45668363571167 35.35951232910156 5.895392417907715 39.05085754394531 C 2.647065401077271 46.73091125488281 1.00001072883606 54.88970947265625 1.00001072883606 63.30060195922852 C 1.00001072883606 71.71149444580078 2.647065401077271 79.8702392578125 5.895392417907715 87.55021667480469 C 7.45668363571167 91.24150848388672 9.389174461364746 94.80185699462891 11.63919258117676 98.13233184814453 C 13.86801052093506 101.4314193725586 16.42768287658691 104.5337677001953 19.24711990356445 107.3532028198242 C 22.06653785705566 110.1726379394531 25.16890144348145 112.732307434082 28.46799278259277 114.9611282348633 C 31.79846572875977 117.2111434936523 35.35879135131836 119.1436386108398 39.05010223388672 120.7049255371094 C 46.73006439208984 123.953254699707 54.88880920410156 125.6003112792969 63.29970169067383 125.6003112792969 C 75.16299438476563 125.6003112792969 86.70001220703125 122.2539291381836 96.66353607177734 115.9229278564453 L 97.39661407470703 115.4571075439453 L 97.96046447753906 116.1177444458008 L 112.6257553100586 133.2999420166016 M 116.2188110351563 139.0500030517578 L 97.19984436035156 116.7669448852539 C 87.39913940429688 122.9944915771484 75.77155303955078 126.6003112792969 63.29970169067383 126.6003112792969 C 28.34010124206543 126.6003112792969 1.078158311429434e-05 98.26020050048828 1.078158311429434e-05 63.30060195922852 C 1.078158311429434e-05 28.34100151062012 28.34010124206543 1.525878928987368e-06 63.29970169067383 1.525878928987368e-06 C 98.25930023193359 1.525878928987368e-06 126.5994110107422 28.34100151062012 126.5994110107422 63.30060195922852 C 126.5994110107422 82.64103698730469 117.9269714355469 99.95443725585938 104.2573547363281 111.5653686523438 L 116.2188110351563 139.0500030517578 Z" stroke="none" fill="#707070"/>
    </g>
    <g id="Group_270" data-name="Group 270" transform="matrix(0.985, 0.174, -0.174, 0.985, 998.728, 5478.649)">
      <g id="Group_254" data-name="Group 254" transform="translate(0)">
        <g id="Mask_Group_60" data-name="Mask Group 60" transform="matrix(0.809, 0.588, -0.588, 0.809, 50.207, 0)" clip-path="url(#clip-path)">
          <g id="key" transform="translate(17.795 0)">
            <g id="Group_252" data-name="Group 252" transform="translate(0 0)">
              <path id="Path_592" data-name="Path 592" d="M37.371,39.15a12.457,12.457,0,1,0,0-24.914c-.045,0-.089,0-.134,0a12.039,12.039,0,0,0,.134-1.781,12.457,12.457,0,0,0-24.914,0,12.037,12.037,0,0,0,.134,1.781c-.045,0-.089,0-.134,0a12.457,12.457,0,1,0,7.118,22.677V80.079a5.339,5.339,0,0,0,10.677,0V78.3h1.78v1.78a1.779,1.779,0,0,0,1.78,1.78H40.93a1.779,1.779,0,0,0,1.78-1.78v-17.8a1.779,1.779,0,0,0-1.78-1.78H33.811a1.779,1.779,0,0,0-1.78,1.78v1.78H30.252V36.913A12.414,12.414,0,0,0,37.371,39.15Zm-8.9,28.473h5.339a1.779,1.779,0,0,0,1.78-1.78V64.064H39.15V78.3H35.591V76.52a1.779,1.779,0,0,0-1.78-1.78H28.473a1.779,1.779,0,0,0-1.78,1.78v3.559a1.78,1.78,0,1,1-3.559,0v-47.5a1.778,1.778,0,0,0-1.265-1.7,1.755,1.755,0,0,0-.514-.076,1.779,1.779,0,0,0-1.482.8,8.9,8.9,0,1,1-7.415-13.8,8.723,8.723,0,0,1,2.115.287,1.809,1.809,0,0,0,1.762-.558A1.777,1.777,0,0,0,16.65,15.7a8.9,8.9,0,1,1,16.527,0,1.78,1.78,0,0,0,2.079,2.379,8.724,8.724,0,0,1,2.115-.287,8.9,8.9,0,1,1-7.415,13.8,1.779,1.779,0,0,0-3.262.983v33.26A1.778,1.778,0,0,0,28.473,67.623Z" fill="#a92c3d"/>
            </g>
          </g>
        </g>
      </g>
      <path id="Path_670" data-name="Path 670" d="M-10137.327,6904.2l4.226,4.394v5.576l-3.042,5.408-1.184,2.2,4.226,3.549,2.534,4.224v5.746l-5.576,5.07-4.731,1.351-9.633-3.548-1.689-6.76-18.926,26.361,3.38,2.535,3.041-1.69,5.07,3.042-10.14,14.533-6.083-3.718,1.689-4.393-3.718-2.2-3.549,4.224-5.069-3.21,28.9-40.725h-6.253l-7.266-4.394v-8.45l3.38-5.745,5.576-1.183,6.422,1.183,1.858,1.69,6.421-7.267h5.746Z" transform="translate(10220.308 -6877.18)" fill="#a92c3d"/>
    </g>
    <g id="Union_3" data-name="Union 3" transform="translate(811.577 5448.853) rotate(11)" fill="#fff">
      <path d="M 114.4222640991211 136.1749420166016 L 97.58015441894531 116.4423446655273 L 97.29822540283203 116.1120376586914 L 96.93170166015625 116.3449325561523 C 86.88788604736328 122.7269668579102 75.25811767578125 126.1003112792969 63.29970169067383 126.1003112792969 C 54.82153701782227 126.1003112792969 46.59726715087891 124.4399795532227 38.85531997680664 121.1654205322266 C 35.13428497314453 119.5915679931641 31.54530143737793 117.6435317993164 28.18808364868164 115.3754348754883 C 24.86262893676758 113.1287994384766 21.73550224304199 110.5486907958984 18.89355659484863 107.7067489624023 C 16.05162811279297 104.8648223876953 13.47150135040283 101.7376937866211 11.22488307952881 98.41221618652344 C 8.956792831420898 95.05500030517578 7.008756160736084 91.46601867675781 5.434901714324951 87.74497985839844 C 2.160338163375854 80.00303649902344 0.5000107884407043 71.77876281738281 0.5000107884407043 63.30060195922852 C 0.5000107884407043 54.82243728637695 2.160338163375854 46.59811019897461 5.434901714324951 38.85607528686523 C 7.008756160736084 35.13500213623047 8.956792831420898 31.54596519470215 11.22488307952881 28.18869209289551 C 13.47151947021484 24.86318397521973 16.05162811279297 21.73598289489746 18.89355659484863 18.89400100708008 C 21.73550224304199 16.052001953125 24.86262893676758 13.47183799743652 28.18808364868164 11.22514724731445 C 31.54532051086426 8.957001686096191 35.13428497314453 7.008928775787354 38.85531997680664 5.435019493103027 C 46.59728240966797 2.160383462905884 54.82155609130859 0.5000015497207642 63.29970169067383 0.5000015497207642 C 71.77784729003906 0.5000015497207642 80.00212097167969 2.160383462905884 87.74408721923828 5.435019493103027 C 91.46511840820313 7.008928775787354 95.05410003662109 8.957001686096191 98.41132354736328 11.22514724731445 C 101.7367706298828 13.47183799743652 104.8639221191406 16.052001953125 107.7058486938477 18.89400100708008 C 110.5477752685547 21.73598289489746 113.1278991699219 24.86318397521973 115.3745346069336 28.18869209289551 C 117.6426315307617 31.54596519470215 119.5906677246094 35.13500213623047 121.1645202636719 38.85607528686523 C 124.4390640258789 46.59811019897461 126.0994110107422 54.82243728637695 126.0994110107422 63.30060195922852 C 126.0994110107422 68.01103973388672 125.575813293457 72.7069091796875 124.5431594848633 77.25778198242188 C 123.5386505126953 81.68461608886719 122.0445938110352 86.01134490966797 120.1024856567383 90.11778259277344 C 118.1953887939453 94.15022277832031 115.8457412719727 97.99342346191406 113.1187744140625 101.5406341552734 C 110.4113006591797 105.0625076293945 107.3209915161133 108.3071136474609 103.9336624145508 111.1842727661133 L 103.6507720947266 111.4245681762695 L 103.7988815307617 111.764892578125 L 114.4222640991211 136.1749420166016 Z" stroke="none"/>
      <path d="M 112.6257553100586 133.2999420166016 L 103.3404312133789 111.9644165039063 L 103.0442123413086 111.2837677001953 L 103.609977722168 110.8031997680664 C 106.9704818725586 107.9487991333008 110.0363388061523 104.7298889160156 112.7223739624023 101.2359085083008 C 115.4276504516602 97.71689605712891 117.7586135864258 93.90428924560547 119.6504821777344 89.90402221679688 C 121.5770111083984 85.83049011230469 123.05908203125 81.53847503662109 124.055534362793 77.14714813232422 C 125.0799713134766 72.63250732421875 125.5994110107422 67.973876953125 125.5994110107422 63.30060195922852 C 125.5994110107422 54.88970947265625 123.9523544311523 46.73091125488281 120.7040100097656 39.05085754394531 C 119.1427383422852 35.35951232910156 117.2102508544922 31.79911041259766 114.9602279663086 28.46858406066895 C 112.7314071655273 25.16943740844727 110.1717224121094 22.06703758239746 107.3522872924805 19.2475471496582 C 104.532844543457 16.42805671691895 101.4305038452148 13.86832904815674 98.13140869140625 11.63945579528809 C 94.80094146728516 9.389383316040039 91.24059295654297 7.456856250762939 87.54930114746094 5.895528793334961 C 79.86931610107422 2.647092342376709 71.7105712890625 1.000001549720764 63.29970169067383 1.000001549720764 C 54.88882827758789 1.000001549720764 46.73008346557617 2.647092342376709 39.05010223388672 5.895528793334961 C 35.35881042480469 7.456856250762939 31.79846572875977 9.389383316040039 28.46799278259277 11.63945579528809 C 25.16890144348145 13.86832904815674 22.06655693054199 16.42805671691895 19.24711990356445 19.2475471496582 C 16.42768287658691 22.06703758239746 13.86801052093506 25.16943740844727 11.63919258117676 28.46858406066895 C 9.389174461364746 31.79911041259766 7.45668363571167 35.35951232910156 5.895392417907715 39.05085754394531 C 2.647065401077271 46.73091125488281 1.00001072883606 54.88970947265625 1.00001072883606 63.30060195922852 C 1.00001072883606 71.71149444580078 2.647065401077271 79.8702392578125 5.895392417907715 87.55021667480469 C 7.45668363571167 91.24150848388672 9.389174461364746 94.80185699462891 11.63919258117676 98.13233184814453 C 13.86801052093506 101.4314193725586 16.42768287658691 104.5337677001953 19.24711990356445 107.3532028198242 C 22.06653785705566 110.1726379394531 25.16890144348145 112.732307434082 28.46799278259277 114.9611282348633 C 31.79846572875977 117.2111434936523 35.35879135131836 119.1436386108398 39.05010223388672 120.7049255371094 C 46.73006439208984 123.953254699707 54.88880920410156 125.6003112792969 63.29970169067383 125.6003112792969 C 75.16299438476563 125.6003112792969 86.70001220703125 122.2539291381836 96.66353607177734 115.9229278564453 L 97.39661407470703 115.4571075439453 L 97.96046447753906 116.1177444458008 L 112.6257553100586 133.2999420166016 M 116.2188110351563 139.0500030517578 L 97.19984436035156 116.7669448852539 C 87.39913940429688 122.9944915771484 75.77155303955078 126.6003112792969 63.29970169067383 126.6003112792969 C 28.34010124206543 126.6003112792969 1.078158311429434e-05 98.26020050048828 1.078158311429434e-05 63.30060195922852 C 1.078158311429434e-05 28.34100151062012 28.34010124206543 1.525878928987368e-06 63.29970169067383 1.525878928987368e-06 C 98.25930023193359 1.525878928987368e-06 126.5994110107422 28.34100151062012 126.5994110107422 63.30060195922852 C 126.5994110107422 82.64103698730469 117.9269714355469 99.95443725585938 104.2573547363281 111.5653686523438 L 116.2188110351563 139.0500030517578 Z" stroke="none" fill="#707070"/>
    </g>
    <g id="Group_271" data-name="Group 271" transform="matrix(0.985, 0.174, -0.174, 0.985, 810.728, 5452.649)">
      <g id="Group_254-2" data-name="Group 254" transform="translate(0)">
        <g id="Mask_Group_60-2" data-name="Mask Group 60" transform="matrix(0.809, 0.588, -0.588, 0.809, 50.207, 0)" clip-path="url(#clip-path-2)">
          <g id="key-2" data-name="key" transform="translate(17.795 0)">
            <g id="Group_252-2" data-name="Group 252" transform="translate(0 0)">
              <path id="Path_592-2" data-name="Path 592" d="M37.371,39.15a12.457,12.457,0,1,0,0-24.914c-.045,0-.089,0-.134,0a12.039,12.039,0,0,0,.134-1.781,12.457,12.457,0,0,0-24.914,0,12.037,12.037,0,0,0,.134,1.781c-.045,0-.089,0-.134,0a12.457,12.457,0,1,0,7.118,22.677V80.079a5.339,5.339,0,0,0,10.677,0V78.3h1.78v1.78a1.779,1.779,0,0,0,1.78,1.78H40.93a1.779,1.779,0,0,0,1.78-1.78v-17.8a1.779,1.779,0,0,0-1.78-1.78H33.811a1.779,1.779,0,0,0-1.78,1.78v1.78H30.252V36.913A12.414,12.414,0,0,0,37.371,39.15Zm-8.9,28.473h5.339a1.779,1.779,0,0,0,1.78-1.78V64.064H39.15V78.3H35.591V76.52a1.779,1.779,0,0,0-1.78-1.78H28.473a1.779,1.779,0,0,0-1.78,1.78v3.559a1.78,1.78,0,1,1-3.559,0v-47.5a1.778,1.778,0,0,0-1.265-1.7,1.755,1.755,0,0,0-.514-.076,1.779,1.779,0,0,0-1.482.8,8.9,8.9,0,1,1-7.415-13.8,8.723,8.723,0,0,1,2.115.287,1.809,1.809,0,0,0,1.762-.558A1.777,1.777,0,0,0,16.65,15.7a8.9,8.9,0,1,1,16.527,0,1.78,1.78,0,0,0,2.079,2.379,8.724,8.724,0,0,1,2.115-.287,8.9,8.9,0,1,1-7.415,13.8,1.779,1.779,0,0,0-3.262.983v33.26A1.778,1.778,0,0,0,28.473,67.623Z" fill="#e2c9cf"/>
            </g>
          </g>
        </g>
      </g>
      <path id="Path_670-2" data-name="Path 670" d="M-10137.327,6904.2l4.226,4.394v5.576l-3.042,5.408-1.184,2.2,4.226,3.549,2.534,4.224v5.746l-5.576,5.07-4.731,1.351-9.633-3.548-1.689-6.76-18.926,26.361,3.38,2.535,3.041-1.69,5.07,3.042-10.14,14.533-6.083-3.718,1.689-4.393-3.718-2.2-3.549,4.224-5.069-3.21,28.9-40.725h-6.253l-7.266-4.394v-8.45l3.38-5.745,5.576-1.183,6.422,1.183,1.858,1.69,6.421-7.267h5.746Z" transform="translate(10220.308 -6877.18)" fill="#e2c9cf"/>
    </g>
    <g id="Union_4" data-name="Union 4" transform="translate(686.052 5598.412) rotate(-9)" fill="#fff">
      <path d="M 114.4222640991211 136.1749420166016 L 97.58015441894531 116.4423446655273 L 97.29822540283203 116.1120376586914 L 96.93170166015625 116.3449325561523 C 86.88788604736328 122.7269668579102 75.25811767578125 126.1003112792969 63.29970169067383 126.1003112792969 C 54.82153701782227 126.1003112792969 46.59726715087891 124.4399795532227 38.85531997680664 121.1654205322266 C 35.13428497314453 119.5915679931641 31.54530143737793 117.6435317993164 28.18808364868164 115.3754348754883 C 24.86262893676758 113.1287994384766 21.73550224304199 110.5486907958984 18.89355659484863 107.7067489624023 C 16.05162811279297 104.8648223876953 13.47150135040283 101.7376937866211 11.22488307952881 98.41221618652344 C 8.956792831420898 95.05500030517578 7.008756160736084 91.46601867675781 5.434901714324951 87.74497985839844 C 2.160338163375854 80.00303649902344 0.5000107884407043 71.77876281738281 0.5000107884407043 63.30060195922852 C 0.5000107884407043 54.82243728637695 2.160338163375854 46.59811019897461 5.434901714324951 38.85607528686523 C 7.008756160736084 35.13500213623047 8.956792831420898 31.54596519470215 11.22488307952881 28.18869209289551 C 13.47151947021484 24.86318397521973 16.05162811279297 21.73598289489746 18.89355659484863 18.89400100708008 C 21.73550224304199 16.052001953125 24.86262893676758 13.47183799743652 28.18808364868164 11.22514724731445 C 31.54532051086426 8.957001686096191 35.13428497314453 7.008928775787354 38.85531997680664 5.435019493103027 C 46.59728240966797 2.160383462905884 54.82155609130859 0.5000015497207642 63.29970169067383 0.5000015497207642 C 71.77784729003906 0.5000015497207642 80.00212097167969 2.160383462905884 87.74408721923828 5.435019493103027 C 91.46511840820313 7.008928775787354 95.05410003662109 8.957001686096191 98.41132354736328 11.22514724731445 C 101.7367706298828 13.47183799743652 104.8639221191406 16.052001953125 107.7058486938477 18.89400100708008 C 110.5477752685547 21.73598289489746 113.1278991699219 24.86318397521973 115.3745346069336 28.18869209289551 C 117.6426315307617 31.54596519470215 119.5906677246094 35.13500213623047 121.1645202636719 38.85607528686523 C 124.4390640258789 46.59811019897461 126.0994110107422 54.82243728637695 126.0994110107422 63.30060195922852 C 126.0994110107422 68.01103973388672 125.575813293457 72.7069091796875 124.5431594848633 77.25778198242188 C 123.5386505126953 81.68461608886719 122.0445938110352 86.01134490966797 120.1024856567383 90.11778259277344 C 118.1953887939453 94.15022277832031 115.8457412719727 97.99342346191406 113.1187744140625 101.5406341552734 C 110.4113006591797 105.0625076293945 107.3209915161133 108.3071136474609 103.9336624145508 111.1842727661133 L 103.6507720947266 111.4245681762695 L 103.7988815307617 111.764892578125 L 114.4222640991211 136.1749420166016 Z" stroke="none"/>
      <path d="M 112.6257553100586 133.2999420166016 L 103.3404312133789 111.9644165039063 L 103.0442123413086 111.2837677001953 L 103.609977722168 110.8031997680664 C 106.9704818725586 107.9487991333008 110.0363388061523 104.7298889160156 112.7223739624023 101.2359085083008 C 115.4276504516602 97.71689605712891 117.7586135864258 93.90428924560547 119.6504821777344 89.90402221679688 C 121.5770111083984 85.83049011230469 123.05908203125 81.53847503662109 124.055534362793 77.14714813232422 C 125.0799713134766 72.63250732421875 125.5994110107422 67.973876953125 125.5994110107422 63.30060195922852 C 125.5994110107422 54.88970947265625 123.9523544311523 46.73091125488281 120.7040100097656 39.05085754394531 C 119.1427383422852 35.35951232910156 117.2102508544922 31.79911041259766 114.9602279663086 28.46858406066895 C 112.7314071655273 25.16943740844727 110.1717224121094 22.06703758239746 107.3522872924805 19.2475471496582 C 104.532844543457 16.42805671691895 101.4305038452148 13.86832904815674 98.13140869140625 11.63945579528809 C 94.80094146728516 9.389383316040039 91.24059295654297 7.456856250762939 87.54930114746094 5.895528793334961 C 79.86931610107422 2.647092342376709 71.7105712890625 1.000001549720764 63.29970169067383 1.000001549720764 C 54.88882827758789 1.000001549720764 46.73008346557617 2.647092342376709 39.05010223388672 5.895528793334961 C 35.35881042480469 7.456856250762939 31.79846572875977 9.389383316040039 28.46799278259277 11.63945579528809 C 25.16890144348145 13.86832904815674 22.06655693054199 16.42805671691895 19.24711990356445 19.2475471496582 C 16.42768287658691 22.06703758239746 13.86801052093506 25.16943740844727 11.63919258117676 28.46858406066895 C 9.389174461364746 31.79911041259766 7.45668363571167 35.35951232910156 5.895392417907715 39.05085754394531 C 2.647065401077271 46.73091125488281 1.00001072883606 54.88970947265625 1.00001072883606 63.30060195922852 C 1.00001072883606 71.71149444580078 2.647065401077271 79.8702392578125 5.895392417907715 87.55021667480469 C 7.45668363571167 91.24150848388672 9.389174461364746 94.80185699462891 11.63919258117676 98.13233184814453 C 13.86801052093506 101.4314193725586 16.42768287658691 104.5337677001953 19.24711990356445 107.3532028198242 C 22.06653785705566 110.1726379394531 25.16890144348145 112.732307434082 28.46799278259277 114.9611282348633 C 31.79846572875977 117.2111434936523 35.35879135131836 119.1436386108398 39.05010223388672 120.7049255371094 C 46.73006439208984 123.953254699707 54.88880920410156 125.6003112792969 63.29970169067383 125.6003112792969 C 75.16299438476563 125.6003112792969 86.70001220703125 122.2539291381836 96.66353607177734 115.9229278564453 L 97.39661407470703 115.4571075439453 L 97.96046447753906 116.1177444458008 L 112.6257553100586 133.2999420166016 M 116.2188110351563 139.0500030517578 L 97.19984436035156 116.7669448852539 C 87.39913940429688 122.9944915771484 75.77155303955078 126.6003112792969 63.29970169067383 126.6003112792969 C 28.34010124206543 126.6003112792969 1.078158311429434e-05 98.26020050048828 1.078158311429434e-05 63.30060195922852 C 1.078158311429434e-05 28.34100151062012 28.34010124206543 1.525878928987368e-06 63.29970169067383 1.525878928987368e-06 C 98.25930023193359 1.525878928987368e-06 126.5994110107422 28.34100151062012 126.5994110107422 63.30060195922852 C 126.5994110107422 82.64103698730469 117.9269714355469 99.95443725585938 104.2573547363281 111.5653686523438 L 116.2188110351563 139.0500030517578 Z" stroke="none" fill="#707070"/>
    </g>
    <g id="Group_272" data-name="Group 272" transform="matrix(0.985, 0.174, -0.174, 0.985, 710.728, 5587.649)">
      <g id="Group_254-3" data-name="Group 254" transform="translate(0)">
        <g id="Mask_Group_60-3" data-name="Mask Group 60" transform="matrix(0.809, 0.588, -0.588, 0.809, 50.207, 0)" clip-path="url(#clip-path)">
          <g id="key-3" data-name="key" transform="translate(17.795 0)">
            <g id="Group_252-3" data-name="Group 252" transform="translate(0 0)">
              <path id="Path_592-3" data-name="Path 592" d="M37.371,39.15a12.457,12.457,0,1,0,0-24.914c-.045,0-.089,0-.134,0a12.039,12.039,0,0,0,.134-1.781,12.457,12.457,0,0,0-24.914,0,12.037,12.037,0,0,0,.134,1.781c-.045,0-.089,0-.134,0a12.457,12.457,0,1,0,7.118,22.677V80.079a5.339,5.339,0,0,0,10.677,0V78.3h1.78v1.78a1.779,1.779,0,0,0,1.78,1.78H40.93a1.779,1.779,0,0,0,1.78-1.78v-17.8a1.779,1.779,0,0,0-1.78-1.78H33.811a1.779,1.779,0,0,0-1.78,1.78v1.78H30.252V36.913A12.414,12.414,0,0,0,37.371,39.15Zm-8.9,28.473h5.339a1.779,1.779,0,0,0,1.78-1.78V64.064H39.15V78.3H35.591V76.52a1.779,1.779,0,0,0-1.78-1.78H28.473a1.779,1.779,0,0,0-1.78,1.78v3.559a1.78,1.78,0,1,1-3.559,0v-47.5a1.778,1.778,0,0,0-1.265-1.7,1.755,1.755,0,0,0-.514-.076,1.779,1.779,0,0,0-1.482.8,8.9,8.9,0,1,1-7.415-13.8,8.723,8.723,0,0,1,2.115.287,1.809,1.809,0,0,0,1.762-.558A1.777,1.777,0,0,0,16.65,15.7a8.9,8.9,0,1,1,16.527,0,1.78,1.78,0,0,0,2.079,2.379,8.724,8.724,0,0,1,2.115-.287,8.9,8.9,0,1,1-7.415,13.8,1.779,1.779,0,0,0-3.262.983v33.26A1.778,1.778,0,0,0,28.473,67.623Z" fill="#a92c3d"/>
            </g>
          </g>
        </g>
      </g>
      <path id="Path_670-3" data-name="Path 670" d="M-10137.327,6904.2l4.226,4.394v5.576l-3.042,5.408-1.184,2.2,4.226,3.549,2.534,4.224v5.746l-5.576,5.07-4.731,1.351-9.633-3.548-1.689-6.76-18.926,26.361,3.38,2.535,3.041-1.69,5.07,3.042-10.14,14.533-6.083-3.718,1.689-4.393-3.718-2.2-3.549,4.224-5.069-3.21,28.9-40.725h-6.253l-7.266-4.394v-8.45l3.38-5.745,5.576-1.183,6.422,1.183,1.858,1.69,6.421-7.267h5.746Z" transform="translate(10220.308 -6877.18)" fill="#a92c3d"/>
    </g>
  </g>
</svg>
