<svg xmlns="http://www.w3.org/2000/svg" xmlns:xlink="http://www.w3.org/1999/xlink" width="410" height="244" viewBox="0 0 410 244">
  <defs>
    <clipPath id="clip-path">
      <rect id="Rectangle_149" data-name="Rectangle 149" width="410" height="244" transform="translate(1110 3548)" fill="#d5d5d5"/>
    </clipPath>
  </defs>
  <g id="Mask_Group_34" data-name="Mask Group 34" transform="translate(-1110 -3548)" clip-path="url(#clip-path)">
    <g id="undraw_Login_re_4vu2" transform="translate(1141.128 3551.417)">
      <path id="Path_282" data-name="Path 282" d="M349.695,251.276h-171.4V75.414A67.919,67.919,0,0,1,246.15,7.558h35.689a67.919,67.919,0,0,1,67.856,67.856Z" transform="translate(-103.629 -7.558)" fill="#f2f2f2"/>
      <path id="Path_283" data-name="Path 283" d="M314.006,251.292H178.294V75.43a67.206,67.206,0,0,1,12.961-39.868c.329-.423.61-.845.939-1.268a68.365,68.365,0,0,1,14.463-14.041,11.39,11.39,0,0,1,.939-.657,67.292,67.292,0,0,1,14.792-7.748,7.453,7.453,0,0,1,.939-.329,65.4,65.4,0,0,1,14.6-3.428A6.364,6.364,0,0,1,238.871,8a69.011,69.011,0,0,1,14.6,0c.329.047.61.047.939.094a68.083,68.083,0,0,1,14.6,3.428c.329.094.61.235.939.329a68.557,68.557,0,0,1,14.6,7.607c.329.235.61.423.939.657a71.265,71.265,0,0,1,8.641,7.326,63.659,63.659,0,0,1,5.964,6.856c.329.423.61.845.939,1.268A67.31,67.31,0,0,1,314.006,75.43Z" transform="translate(-103.629 -7.574)" fill="#ccc"/>
      <circle id="Ellipse_70" data-name="Ellipse 70" cx="7.513" cy="7.513" r="7.513" transform="translate(191.828 150.035)" fill="#a92c3d"/>
      <path id="Path_284" data-name="Path 284" d="M404.594,346.164h-5.776l-2.724-22.212h8.5Z" transform="translate(-172.568 -107.705)" fill="#ffb8b8"/>
      <path id="Path_285" data-name="Path 285" d="M390.861,354.046h11.082v7H383.864a6.984,6.984,0,0,1,7-7Z" transform="translate(-168.697 -117.23)" fill="#2f2e41"/>
      <path id="Path_286" data-name="Path 286" d="M446.5,346.164h-5.776l-2.724-22.212h8.5Z" transform="translate(-185.834 -107.705)" fill="#ffb8b8"/>
      <path id="Path_287" data-name="Path 287" d="M432.772,354.046h11.082v7H425.775a6.984,6.984,0,0,1,7-7Z" transform="translate(-181.963 -117.23)" fill="#2f2e41"/>
      <path id="Path_288" data-name="Path 288" d="M365.873,211.843a5.011,5.011,0,0,1,1.362-7,2.61,2.61,0,0,1,.8-.423l19.582-53.956,9.627,5.259-22.353,51.561a5.078,5.078,0,0,1-3.005,6.527A5.235,5.235,0,0,1,365.873,211.843Z" transform="translate(-162.727 -52.793)" fill="#ffb8b8"/>
      <path id="Path_289" data-name="Path 289" d="M442.677,225.071a5.109,5.109,0,0,1-1.878-6.9,7.168,7.168,0,0,1,.517-.751l-6.058-57.055,10.941.517,2.536,56.116a5.06,5.06,0,0,1,.141,7.185,4.926,4.926,0,0,1-6.2.892Z" transform="translate(-184.964 -55.924)" fill="#ffb8b8"/>
      <circle id="Ellipse_71" data-name="Ellipse 71" cx="11.552" cy="11.552" r="11.552" transform="translate(228.691 64.569)" fill="#ffb8b8"/>
      <path id="Path_290" data-name="Path 290" d="M429.951,206.3H395.2l.047-.282c.047-.423,6.2-40.573,1.69-53.721a5.544,5.544,0,0,1,2.865-6.856h0c6.48-3.052,18.878-6.809,29.349,2.3a13.206,13.206,0,0,1,4.461,10.988Z" transform="translate(-172.286 -50.118)" fill="#a92c3d"/>
      <path id="Path_291" data-name="Path 291" d="M397.715,173.155l-15.637-3.193,7.326-17.375a6.572,6.572,0,0,1,12.726,3.287Z" transform="translate(-168.132 -51.906)" fill="#a92c3d"/>
      <path id="Path_292" data-name="Path 292" d="M433.8,179.659l-.939-21.554c-.7-4.038,1.6-7.889,5.165-8.5s7.044,2.207,7.8,6.293l3.522,20.146Z" transform="translate(-184.166 -52.493)" fill="#a92c3d"/>
      <path id="Path_293" data-name="Path 293" d="M427.891,232.3c5.588,21.319,6.2,48.415,4.7,77.952l-7.513-.939-13.618-56.351-7.513,57.29-8.453-.47c-2.536-30.993-4.978-57.619-.939-75.135Z" transform="translate(-171.4 -78.694)" fill="#2f2e41"/>
      <path id="Path_294" data-name="Path 294" d="M421.727,120.055a3.722,3.722,0,0,1-6.433-2.066v-.751c.141-1.409.939-2.63.751-4.132a2.278,2.278,0,0,0-.376-.986c-1.737-2.3-5.729,1.033-7.373-1.033-.986-1.268.188-3.287-.61-4.7-.986-1.878-3.992-.939-5.87-1.972-2.066-1.127-1.972-4.32-.564-6.293a9.984,9.984,0,0,1,7.467-3.8,20.255,20.255,0,0,1,8.453,1.644c3.052,1.174,6.1,2.865,7.983,5.541,2.3,3.287,2.489,7.654,1.362,11.5C425.859,115.312,423.464,118.177,421.727,120.055Z" transform="translate(-173.876 -35.012)" fill="#2f2e41"/>
      <path id="Path_295" data-name="Path 295" d="M416.314,364.036H69.614a.564.564,0,0,1,0-1.127h346.7a.543.543,0,0,1,.564.564A.571.571,0,0,1,416.314,364.036Z" transform="translate(-69.05 -120.036)" fill="#3f3d56"/>
      <path id="Path_296" data-name="Path 296" d="M292.549,223.7H231.5a3.037,3.037,0,0,1-3.052-3.005V84.423a3.007,3.007,0,0,1,3.052-3.005h61.047a3.037,3.037,0,0,1,3.052,3.005V220.7A3.037,3.037,0,0,1,292.549,223.7Z" transform="translate(-119.504 -30.936)" fill="#fff"/>
      <rect id="Rectangle_153" data-name="Rectangle 153" width="67.152" height="0.939" transform="translate(108.945 94.576)" fill="#ccc"/>
      <rect id="Rectangle_154" data-name="Rectangle 154" width="67.152" height="0.939" transform="translate(109.18 148.156)" fill="#ccc"/>
      <rect id="Rectangle_155" data-name="Rectangle 155" width="0.939" height="142.756" transform="translate(130.077 50.481)" fill="#ccc"/>
      <rect id="Rectangle_156" data-name="Rectangle 156" width="0.939" height="142.756" transform="translate(153.557 50.481)" fill="#ccc"/>
      <g id="Group_235" data-name="Group 235" transform="translate(191.359 111.059)">
        <path id="Path_297" data-name="Path 297" d="M364.057,197.849a4.71,4.71,0,0,1-4.7,4.7h-5.635a4.71,4.71,0,0,1-4.7-4.7v-23.1a4.71,4.71,0,0,1,4.7-4.7h5.635a4.71,4.71,0,0,1,4.7,4.7Z" transform="translate(-349.03 -170.049)" fill="#2f2e41"/>
      </g>
    </g>
  </g>
</svg>
