<svg xmlns="http://www.w3.org/2000/svg" xmlns:xlink="http://www.w3.org/1999/xlink" width="393" height="234" viewBox="0 0 393 234">
  <defs>
    <clipPath id="clip-path">
      <rect id="Rectangle_164" data-name="Rectangle 164" width="393" height="234" transform="translate(211.277 3548)" fill="#d5d5d5"/>
    </clipPath>
  </defs>
  <g id="Mask_Group_35" data-name="Mask Group 35" transform="translate(-211.277 -3548)" clip-path="url(#clip-path)">
    <g id="undraw_web_developer_p3e5" transform="translate(239.824 3548)">
      <path id="Path_298" data-name="Path 298" d="M119.606,295.573h13.524L166.5,282.527s23.7-9.665,21.755,8.71-5.329,43.033-5.329,43.033-10.62-4.851-16.427-3.381-1.948-29.51-1.948-29.51-47.37,22.711-51.743,19.808-5.329-23.225-5.329-23.225Z" transform="translate(-66.43 -117.964)" fill="#2f2e41"/>
      <path id="Path_299" data-name="Path 299" d="M119.606,295.573h13.524L166.5,282.527s23.7-9.665,21.755,8.71-5.329,43.033-5.329,43.033-10.62-4.851-16.427-3.381-1.948-29.51-1.948-29.51-47.37,22.711-51.743,19.808-5.329-23.225-5.329-23.225Z" transform="translate(-66.43 -117.964)" opacity="0.1"/>
      <path id="Path_300" data-name="Path 300" d="M152.161,239.065l16.39,23.556,38.182,31.9s35.316,8.232,30.465,14.038-34.324-5.806-34.324-5.806-44.025-31.9-45.459-34.324S140,243.291,140,243.291Z" transform="translate(-77.633 -103.865)" fill="#a0616a"/>
      <path id="Path_301" data-name="Path 301" d="M152.161,239.065l16.39,23.556,38.182,31.9s35.316,8.232,30.465,14.038-34.324-5.806-34.324-5.806-44.025-31.9-45.459-34.324S140,243.291,140,243.291Z" transform="translate(-77.633 -103.865)" opacity="0.1"/>
      <path id="Path_302" data-name="Path 302" d="M135.294,210.079l10.62,20.8s-2.425,10.143-6.284,11.135c-3.859.955-20.322-12.568-20.322-12.568Z" transform="translate(-70.506 -93.878)" fill="#d0cde1"/>
      <path id="Path_303" data-name="Path 303" d="M135.294,210.079l10.62,20.8s-2.425,10.143-6.284,11.135c-3.859.955-20.322-12.568-20.322-12.568Z" transform="translate(-70.506 -93.878)" opacity="0.1"/>
      <path id="Path_304" data-name="Path 304" d="M334.015,287.024,337.175,300a.9.9,0,0,1,0,.441l-14.259,44.54a.794.794,0,0,1-1.029.515.843.843,0,0,1-.551-.661l-1.984-17.346a1.018,1.018,0,0,1,.037-.331l13.083-40.167a.794.794,0,0,1,1.029-.514A.857.857,0,0,1,334.015,287.024Z" transform="translate(-139.428 -120.183)" fill="#2f2e41"/>
      <path id="Path_305" data-name="Path 305" d="M333.322,289.02l2.9,11.135-12.568,40.608-2.9-12.568Z" transform="translate(-139.911 -121.077)" fill="#f2f2f2"/>
      <path id="Path_306" data-name="Path 306" d="M243.241,369.542c.478,1.433,50.273-.478,50.787-.955a11.01,11.01,0,0,0,1.066-1.948c.441-.955.882-1.948.882-1.948l-1.948-15.655-49.317-1.764s-1.249,13.266-1.47,19.33A17.64,17.64,0,0,0,243.241,369.542Z" transform="translate(-113.186 -141.147)" fill="#2f2e41"/>
      <path id="Path_307" data-name="Path 307" d="M300.233,353.216l.955,13.524H279.433V353.216Z" transform="translate(-125.674 -143.194)" opacity="0.1"/>
      <path id="Path_308" data-name="Path 308" d="M261.781,359.812l.11-.037-.588,5.843h-12.09v-5.806Z" transform="translate(-115.263 -145.454)" opacity="0.1"/>
      <path id="Path_309" data-name="Path 309" d="M243.238,379.722c.478,1.433,50.273-.478,50.787-.956a11.008,11.008,0,0,0,1.066-1.948H243.2A20.209,20.209,0,0,0,243.238,379.722Z" transform="translate(-113.183 -151.327)" opacity="0.1"/>
      <circle id="Ellipse_72" data-name="Ellipse 72" cx="21.755" cy="21.755" r="21.755" transform="translate(50.273 65.928)" fill="#a0616a"/>
      <path id="Path_310" data-name="Path 310" d="M135.151,186.2s-7.24,12.568-8.71,19.33-21.755-13.524-21.755-13.524l-2.646-7.019s19.11-8.93,17.64-16.206S135.151,186.2,135.151,186.2Z" transform="translate(-64.556 -79.188)" fill="#a0616a"/>
      <path id="Path_311" data-name="Path 311" d="M146.253,253.586l19.808,26.129,47.37,35.316s34.324,7.24,26.606,12.568-29.987-4.851-29.987-4.851-47.847-25.614-57.99-36.271-29-28.517-29-28.517Z" transform="translate(-71.8 -108.868)" fill="#a0616a"/>
      <path id="Path_312" data-name="Path 312" d="M95.306,314.021l5.806,9.187L135.73,312.33A27.319,27.319,0,0,1,158.4,315.05c6.027,3.822,9.922,9.849,1.213,18.816-17.419,17.9-29,8.232-29,8.232s-58.5,27.562-68.17,14.038S52.31,335.813,52.31,335.813,89.5,312.551,95.306,314.021Z" transform="translate(-47.422 -128.658)" fill="#2f2e41"/>
      <path id="Path_313" data-name="Path 313" d="M201.848,361.962s15.471,10.143-2.9,14.994-31.9-1.948-31.9-1.948-15.949,0-15.949-8.232,5.329-9.187,5.329-9.187l16.427,2.425S192.661,354.722,201.848,361.962Z" transform="translate(-81.458 -144.701)" fill="#d0cde1"/>
      <path id="Path_314" data-name="Path 314" d="M157.514,144.341a15.7,15.7,0,0,0,4.557,1.617,4.121,4.121,0,0,0,4.189-1.8,6.053,6.053,0,0,0,.478-2.572c.074-2.646-.147-5.512-1.8-7.57-1.066-1.323-2.646-2.131-3.748-3.418a14.733,14.733,0,0,1-1.874-3.087c-2.168-4.042-5.365-7.938-9.775-9.114a21.075,21.075,0,0,0-5.7-.441l-11.172.147a20.2,20.2,0,0,0-5.365.588c-3.6,1.1-6.211,4.116-8.6,7.019a42.1,42.1,0,0,0-4.924,6.8,23.732,23.732,0,0,0-2.83,11.723,10.788,10.788,0,0,0,.4,3.087A17.623,17.623,0,0,0,112.569,150c2.095,4.116,3.344,9.261.992,13.23,4.116-1.69,8.158-3.859,10.841-7.387,1.213-1.58,2.168-3.418,3.785-4.557s4.226-1.249,5.255.441a4.67,4.67,0,0,1,.551,2.2,10.05,10.05,0,0,0,.625,3.748,2.742,2.742,0,0,0,3.05,1.727c2.095-.588,1.911-3.822,3.528-5.292,1.249-1.1,3.124-.919,4.7-1.4a6.878,6.878,0,0,0,4.006-3.969c.588-1.36.588-4.851,1.727-5.586C152.957,142.283,156.191,143.753,157.514,144.341Z" transform="translate(-67.625 -62.133)" fill="#2f2e41"/>
      <path id="Path_315" data-name="Path 315" d="M80.61,190.635a5.837,5.837,0,0,1,2.977,0c3.087.845,10.069,3.05,11.539,6.394,1.948,4.336,8.71,11.135,8.71,11.135s9.187,9.187,7.24,15.471-9.187,13.524-9.187,13.524,1.948,29.987-7.754,37.7-13.524,2.425-13.524,9.665-29.951,29.987-35.757,15.986c0,0,2.9-26.129,1.948-35.316C45.845,256.159,47.241,199.675,80.61,190.635Z" transform="translate(-44.853 -87.113)" fill="#d0cde1"/>
      <path id="Path_316" data-name="Path 316" d="M111.209,208.685s29.51,21.755,24.181,30.943c0,0-17.9,8.71-21.755,8.232s-18.852-17.419-22.711-18.852S85.081,201.446,111.209,208.685Z" transform="translate(-59.944 -92.962)" fill="#d0cde1"/>
      <circle id="Ellipse_73" data-name="Ellipse 73" cx="18.889" cy="18.889" r="18.889" transform="translate(148.797 50.089)" fill="#f2f2f2"/>
      <path id="Path_317" data-name="Path 317" d="M483.049,88.99H377.212V66.831H483.049Zm-105.36-.478H482.571v-21.2H377.689Z" transform="translate(-159.363 -44.524)" fill="#3f3d56"/>
      <rect id="Rectangle_157" data-name="Rectangle 157" width="105.36" height="21.682" transform="translate(210.609 26.753)" fill="#a92c3d"/>
      <circle id="Ellipse_74" data-name="Ellipse 74" cx="1.617" cy="1.617" r="1.617" transform="translate(142.403 2.793)" fill="#a92c3d"/>
      <circle id="Ellipse_75" data-name="Ellipse 75" cx="1.617" cy="1.617" r="1.617" transform="translate(147.989 2.793)" fill="#a92c3d"/>
      <circle id="Ellipse_76" data-name="Ellipse 76" cx="1.617" cy="1.617" r="1.617" transform="translate(153.575 2.793)" fill="#a92c3d"/>
      <path id="Path_318" data-name="Path 318" d="M453.732,160.538H257.455V32.8H453.732Zm-195.8-.478H453.254V33.276H257.933Z" transform="translate(-118.102 -32.799)" fill="#3f3d56"/>
      <rect id="Rectangle_158" data-name="Rectangle 158" width="195.799" height="0.478" transform="translate(139.573 7.056)" fill="#3f3d56"/>
      <path id="Path_319" data-name="Path 319" d="M264.319,39.35a1.874,1.874,0,1,1,1.874-1.874A1.906,1.906,0,0,1,264.319,39.35Zm0-3.271a1.4,1.4,0,1,0,1.4,1.4A1.4,1.4,0,0,0,264.319,36.08Z" transform="translate(-119.821 -33.764)" fill="#3f3d56"/>
      <path id="Path_320" data-name="Path 320" d="M272.841,39.35a1.874,1.874,0,1,1,1.874-1.874A1.882,1.882,0,0,1,272.841,39.35Zm0-3.271a1.4,1.4,0,1,0,1.4,1.4A1.4,1.4,0,0,0,272.841,36.08Z" transform="translate(-122.758 -33.764)" fill="#3f3d56"/>
      <path id="Path_321" data-name="Path 321" d="M281.363,39.35a1.874,1.874,0,1,1,1.874-1.874h0A1.882,1.882,0,0,1,281.363,39.35Zm0-3.271a1.4,1.4,0,1,0,1.4,1.4h0A1.4,1.4,0,0,0,281.363,36.08Z" transform="translate(-125.694 -33.764)" fill="#3f3d56"/>
      <rect id="Rectangle_159" data-name="Rectangle 159" width="0.478" height="120.39" transform="translate(200.834 7.313)" fill="#3f3d56"/>
      <rect id="Rectangle_160" data-name="Rectangle 160" width="34.25" height="4.667" transform="translate(223.104 66.479)" fill="#f2f2f2"/>
      <rect id="Rectangle_161" data-name="Rectangle 161" width="34.25" height="4.667" transform="translate(276.941 66.479)" fill="#f2f2f2"/>
      <path id="Path_322" data-name="Path 322" d="M422.424,135.442H387.7V130.3h34.728Zm-34.25-.478h33.809v-4.189H388.174Z" transform="translate(-162.975 -66.391)" fill="#3f3d56"/>
      <rect id="Rectangle_162" data-name="Rectangle 162" width="34.25" height="4.667" transform="translate(223.104 102.604)" fill="#f2f2f2"/>
      <path id="Path_323" data-name="Path 323" d="M422.424,190.555H387.7V185.41h34.728Zm-34.25-.441h33.809v-4.226H388.174Z" transform="translate(-162.975 -85.379)" fill="#3f3d56"/>
      <rect id="Rectangle_163" data-name="Rectangle 163" width="88.124" height="4.667" transform="translate(223.214 84.082)" fill="#f2f2f2"/>
      <path id="Path_324" data-name="Path 324" d="M476.486,163.027H387.92v-5.145h88.565Zm-88.124-.478h87.647v-4.189H388.361Z" transform="translate(-163.053 -75.894)" fill="#3f3d56"/>
      <path id="Path_325" data-name="Path 325" d="M504.6,135.442H469.833V130.3h34.728v5.145Zm-34.287-.478H504.12v-4.189H470.31Z" transform="translate(-191.274 -66.391)" fill="#3f3d56"/>
      <path id="Path_326" data-name="Path 326" d="M295.476,139.173a19.183,19.183,0,1,1,19.183-19.183A19.2,19.2,0,0,1,295.476,139.173Zm0-37.778a18.6,18.6,0,1,0,18.6,18.6A18.617,18.617,0,0,0,295.476,101.395Z" transform="translate(-124.593 -56.23)" fill="#3f3d56"/>
    </g>
  </g>
</svg>
