<?xml version="1.0" encoding="UTF-8"?>
<!DOCTYPE svg PUBLIC "-//W3C//DTD SVG 1.1//EN" "http://www.w3.org/Graphics/SVG/1.1/DTD/svg11.dtd">
<svg version="1.1" xmlns="http://www.w3.org/2000/svg" xmlns:xlink="http://www.w3.org/1999/xlink" x="0" y="0" width="946.209" height="412.093" viewBox="0, 0, 946.209, 412.093">
  <defs>
    <linearGradient id="Gradient_1" gradientUnits="userSpaceOnUse" x1="177.067" y1="354.333" x2="177.067" y2="0.198" gradientTransform="matrix(1, 0, 0, 1, 0, 0)">
      <stop offset="0" stop-color="#2E8BAD"/>
      <stop offset="0.09" stop-color="#046DA8"/>
      <stop offset="1" stop-color="#00A3DA"/>
    </linearGradient>
    <linearGradient id="Gradient_2" gradientUnits="userSpaceOnUse" x1="138.062" y1="-333.272" x2="138.062" y2="-65.476" gradientTransform="matrix(1, 0, 0, -1, 0, 0)">
      <stop offset="0" stop-color="#42A3CF" stop-opacity="0.3"/>
      <stop offset="1" stop-color="#80CDE8" stop-opacity="0.5"/>
    </linearGradient>
    <clipPath id="Clip_1">
      <path d="M138.063,333.279 C213.376,332.294 270.064,274 271.952,199.376 L271.952,199.368 C270.966,124.057 212.688,67.371 138.063,65.483 C64.116,65.483 4.173,125.425 4.173,199.372 C4.173,273.319 64.116,333.279 138.063,333.279 z"/>
    </clipPath>
    <clipPath id="Clip_2">
      <path d="M4.173,65.483 L271.952,65.483 L271.952,333.279 L4.173,333.279 z"/>
    </clipPath>
    <linearGradient id="Gradient_3" gradientUnits="userSpaceOnUse" x1="216.483" y1="-333.279" x2="216.483" y2="-65.483" gradientTransform="matrix(1, 0, 0, -1, 0, 0)">
      <stop offset="0" stop-color="#42A3CF" stop-opacity="0.3"/>
      <stop offset="1" stop-color="#80CDE8" stop-opacity="0.5"/>
    </linearGradient>
    <clipPath id="Clip_3">
      <path d="M216.484,333.279 C291.797,332.294 348.485,274 350.373,199.376 L350.373,199.368 C349.387,124.057 291.109,67.371 216.484,65.483 C141.179,66.468 84.48,124.739 82.593,199.364 L82.593,199.38 C83.579,274.687 141.858,331.392 216.484,333.279 z"/>
    </clipPath>
    <clipPath id="Clip_4">
      <path d="M82.593,65.483 L350.373,65.483 L350.373,333.279 L82.593,333.279 z"/>
    </clipPath>
    <linearGradient id="Gradient_4" gradientUnits="userSpaceOnUse" x1="177.293" y1="-327.438" x2="177.293" y2="-232.462" gradientTransform="matrix(1, 0, 0, -1, 0, 0)">
      <stop offset="0" stop-color="#4282A0" stop-opacity="0.3"/>
      <stop offset="1" stop-color="#93C1D1"/>
    </linearGradient>
    <clipPath id="Clip_5">
      <path d="M177.273,327.438 C222.032,313.785 255.652,277.266 267.829,232.462 L267.829,232.462 C240.258,257.504 207.196,268.605 170.213,267.616 C137.902,265.922 108.869,252.906 86.756,232.613 C98.311,277.842 132.89,313.862 177.273,327.438 z"/>
    </clipPath>
    <linearGradient id="Gradient_5" gradientUnits="userSpaceOnUse" x1="177.067" y1="354.333" x2="177.067" y2="0.198" gradientTransform="matrix(1, 0, 0, 1, 0, 0)">
      <stop offset="0" stop-color="#1A2534" stop-opacity="0.4"/>
      <stop offset="1" stop-color="#1A2534" stop-opacity="0"/>
    </linearGradient>
    <radialGradient id="Gradient_6" gradientUnits="userSpaceOnUse" cx="298.566" cy="102.765" r="52.035" gradientTransform="matrix(1, 0, 0, 1, 0, 0)">
      <stop offset="0" stop-color="#2C365E"/>
      <stop offset="0" stop-color="#2C365E" stop-opacity="0.36"/>
      <stop offset="1" stop-color="#2C365E" stop-opacity="0"/>
    </radialGradient>
    <clipPath id="Clip_6">
      <path d="M43.329,-0 L311.107,-0 L311.107,267.803 L43.329,267.803 z"/>
    </clipPath>
    <radialGradient id="Gradient_7" gradientUnits="userSpaceOnUse" cx="34.243" cy="-53.111" r="85.329" gradientTransform="matrix(1, 0, 0, -1, 0, 0)">
      <stop offset="0" stop-color="#FFFFFE"/>
      <stop offset="1" stop-color="#FFFFFF" stop-opacity="0"/>
    </radialGradient>
    <clipPath id="Clip_7">
      <path d="M177.103,267.803 C249.929,265.8 305.258,213.682 310.921,140.899 L311.107,134.031 L311.107,133.997 C309.106,61.181 257.007,5.848 184.229,0.186 L177.365,-0 L177.325,-0 C104.513,2.004 49.177,54.112 43.516,126.885 C39.645,200.731 96.367,263.746 170.213,267.616 L177.103,267.803 z"/>
    </clipPath>
  </defs>
  <g id="レイヤー_1">
    <g>
      <path d="M280.532,393.668 C280.532,403.844 234.209,412.093 177.067,412.093 C119.926,412.093 73.603,403.844 73.603,393.668 C73.603,383.492 119.926,375.243 177.067,375.243 C234.209,375.243 280.532,383.492 280.532,393.668" fill="#B0B1AF"/>
      <path d="M177.067,0.198 C274.859,0.198 354.134,79.474 354.134,177.265 C354.134,275.057 274.859,354.333 177.067,354.333 C79.275,354.333 -0,275.057 -0,177.265 C-0,79.474 79.275,0.198 177.067,0.198 z M177.273,71.322 C122.46,88.085 82.593,139.069 82.593,199.372 C82.593,210.84 84.037,221.971 86.75,232.595 C110.577,254.453 142.339,267.799 177.221,267.799 C212.173,267.799 243.986,254.402 267.826,232.47 C270.518,221.884 271.952,210.796 271.952,199.372 C271.952,139.069 232.087,88.085 177.273,71.322 z" fill="url(#Gradient_1)"/>
      <g>
        <g clip-path="url(#Clip_2)" opacity="0.9">
          <g clip-path="url(#Clip_1)" opacity="0.8">
            <path d="M138.063,65.483 C149.375,65.351 160.545,67.107 171.525,69.698 C173.391,70.138 175.187,70.836 177.018,71.406 C120.102,89.39 83.815,140.174 82.593,199.372 C82.593,210.84 84.037,221.971 86.75,232.595 C110.577,254.453 142.339,267.799 177.221,267.799 C211.492,267.778 242.264,254.944 267.808,232.485 C250.682,292.911 200.898,331.69 138.063,333.279 C64.116,333.279 4.173,273.319 4.173,199.372 C4.173,125.425 64.116,65.483 138.063,65.483 z" fill="url(#Gradient_2)"/>
          </g>
        </g>
        <g clip-path="url(#Clip_4)" opacity="0.9">
          <g clip-path="url(#Clip_3)" opacity="0.8">
            <path d="M216.484,65.483 C290.431,65.483 350.373,125.425 350.373,199.372 C350.373,273.319 290.431,333.279 216.484,333.279 C165.867,331.891 118.368,303.768 96.111,257.702 C91.4,247.953 90.243,243.199 87.023,232.834 C112.166,255.842 143.424,266.992 177.221,267.799 C212.173,267.799 243.986,254.402 267.826,232.47 C270.518,221.884 271.952,210.796 271.952,199.372 C271.922,140.717 233.084,89.63 177.833,71.505 C190.261,67.228 203.434,65.965 216.484,65.483 z" fill="url(#Gradient_3)"/>
          </g>
        </g>
        <g clip-path="url(#Clip_5)">
          <path d="M177.273,327.438 C221.706,313.846 256.314,277.762 267.829,232.462 C242.265,255.967 207.638,269.577 170.213,267.616 C138.914,266.135 110.096,253.15 86.756,232.613 L86.756,232.613 C98.29,277.909 133.16,313.152 177.273,327.438 z" fill="url(#Gradient_4)"/>
        </g>
      </g>
      <path d="M177.067,0.198 C274.859,0.198 354.134,79.474 354.134,177.265 C354.134,275.057 274.859,354.333 177.067,354.333 C79.275,354.333 -0,275.057 -0,177.265 C-0,79.474 79.275,0.198 177.067,0.198 z M177.273,71.322 C122.46,88.085 82.593,139.069 82.593,199.372 C82.593,210.84 84.037,221.971 86.75,232.595 C110.577,254.453 142.339,267.799 177.221,267.799 C212.173,267.799 243.986,254.402 267.826,232.47 C270.518,221.884 271.952,210.796 271.952,199.372 C271.952,139.069 232.087,88.085 177.273,71.322 z" fill="url(#Gradient_5)"/>
      <path d="M177.067,0.198 C274.859,0.198 354.134,79.474 354.134,177.265 C354.134,275.057 274.859,354.333 177.067,354.333 C79.275,354.333 -0,275.057 -0,177.265 C-0,79.474 79.275,0.198 177.067,0.198 z M177.273,71.322 C122.46,88.085 82.593,139.069 82.593,199.372 C82.593,210.84 84.037,221.971 86.75,232.595 C110.577,254.453 142.339,267.799 177.221,267.799 C212.173,267.799 243.986,254.402 267.826,232.47 C270.518,221.884 271.952,210.796 271.952,199.372 C271.952,139.069 232.087,88.085 177.273,71.322 z" fill="url(#Gradient_6)"/>
      <g>
        <path d="M177.273,71.322 C122.46,88.085 82.593,139.069 82.593,199.372 C82.593,210.84 84.037,221.971 86.75,232.595 C110.577,254.453 142.339,267.799 177.221,267.799 C212.173,267.799 243.986,254.402 267.826,232.47 C270.518,221.884 271.952,210.796 271.952,199.372 C271.952,139.069 232.087,88.085 177.273,71.322" fill="#FFFFFE" display="none"/>
        <g clip-path="url(#Clip_6)" opacity="0.3">
          <path d="M177.338,-0.001 L184.228,0.186 C258.083,4.057 314.79,67.053 310.921,140.899 C308.867,175.556 293.796,208.89 267.883,232.229 C270.714,221.498 271.779,210.437 271.952,199.372 C271.952,139.069 232.087,88.085 177.273,71.322 C122.46,88.085 82.593,139.069 82.593,199.372 C82.493,210.506 84.109,221.54 86.69,232.345 C56.327,204.92 42.419,167.317 43.515,126.885 C46.95,66.662 91.221,14.608 150.591,2.644 C162.352,0.274 165.349,0.583 177.338,-0.001 z" fill="#FFFFFE"/>
        </g>
        <g clip-path="url(#Clip_7)">
          <path d="M177.361,-0 L184.229,0.186 C257.007,5.848 309.106,61.181 311.107,133.997 L311.107,134.031 L310.921,140.899 C308.361,175.727 293.29,207.894 267.972,231.857 C270.75,221.245 271.781,210.309 271.952,199.372 C271.952,139.069 232.087,88.085 177.273,71.322 C122.46,88.085 82.593,139.069 82.593,199.372 C82.493,210.506 84.109,221.54 86.69,232.345 C56.327,204.919 42.42,167.317 43.516,126.885 C49.177,54.11 104.515,2.003 177.327,-0 L177.361,-0 z" fill="url(#Gradient_7)"/>
        </g>
      </g>
    </g>
    <g>
      <path d="M607.844,124.726 C607.482,130.408 606.913,135.27 606.903,140.132 C606.828,176.587 606.867,213.042 606.856,249.497 C606.854,255.428 601.028,258.9 596.109,255.64 C594.655,254.677 593.357,252.261 593.351,250.507 C593.203,203.232 593.169,155.957 593.421,108.684 C593.433,106.291 595.617,102.733 597.74,101.732 C606.988,97.37 616.834,95.889 625.818,101.978 C629.166,104.247 631.497,108.578 633.326,112.428 C640.207,126.917 646.69,141.594 653.323,156.201 C663.272,178.112 673.217,200.025 683.185,221.927 C683.496,222.611 684.034,223.192 684.822,224.339 C685.743,222.582 686.504,221.184 687.216,219.761 C704.653,184.952 722.243,150.216 739.39,115.264 C742.972,107.964 745.971,100.579 754.873,98.98 C761.984,97.702 769.437,96.705 775.365,102.519 C776.605,103.734 777.588,105.873 777.593,107.589 C777.711,155.197 777.705,202.804 777.667,250.412 C777.662,256.854 768.744,262.375 761.526,260.567 C751.345,258.016 749.074,255.056 749.074,244.323 C749.073,206.537 749.074,168.75 749.074,130.963 L749.074,125.71 C748.715,125.62 748.357,125.531 747.998,125.441 C744.233,133.328 740.527,141.244 736.691,149.096 C722.427,178.293 708.154,207.484 693.793,236.633 C691.701,240.879 689.288,244.996 686.709,248.967 C682.839,254.925 673.879,256.352 668.66,251.965 C667.606,251.078 666.709,249.838 666.125,248.581 C653.98,222.44 641.918,196.26 629.778,170.117 C623.017,155.558 616.148,141.051 609.311,126.528 C609.126,126.135 608.753,125.83 607.844,124.726" fill="#373736"/>
      <path d="M808.292,104.309 L814.386,104.309 C855.34,104.309 896.294,104.276 937.248,104.378 C940.208,104.386 944.661,102.344 944.608,108.623 C944.559,114.254 941.052,113.967 937.218,113.963 C905.92,113.928 874.622,113.943 843.324,113.943 L837.011,113.943 L837.011,169.243 L842.613,169.243 C874.077,169.243 905.542,169.242 937.006,169.244 C945.164,169.245 946.958,172.188 943.106,179.784 L837.067,179.784 L837.067,244.167 L842.952,244.167 C874.417,244.167 905.881,244.167 937.346,244.169 C938.678,244.169 940.386,243.674 941.264,244.312 C943.22,245.733 945.296,247.499 946.184,249.605 C946.502,250.362 943.722,252.752 942.024,253.912 C940.926,254.663 939.227,254.765 937.796,254.766 C895.844,254.807 853.891,254.8 811.938,254.792 C810.81,254.791 809.681,254.683 808.292,254.612 z" fill="#373736"/>
      <path d="M442.029,165.425 C442.029,181.566 442.477,197.722 441.908,213.843 C441.29,231.376 452.062,240.239 465.555,243.943 C484.941,249.266 504.572,248.991 523.711,242.115 C535.779,237.78 544.692,230.097 547.768,217.025 C548.177,215.285 548.256,213.435 548.257,211.636 C548.285,179.188 548.265,146.74 548.289,114.293 C548.294,107.443 550.109,105.363 555.847,105.309 C561.125,105.259 562.897,107.001 562.899,112.416 C562.914,141.369 562.982,170.323 562.848,199.276 C562.818,205.688 562.649,212.208 561.481,218.481 C559.411,229.6 552.091,236.956 542.338,242.074 C528.024,249.586 512.785,253.736 496.605,253.736 C484.807,253.736 472.927,253.885 461.232,252.604 C447.347,251.082 433.805,247.517 422.92,237.847 C416.101,231.791 413.486,223.71 413.457,214.866 C413.351,181.42 413.414,147.974 413.415,114.527 C413.415,106.997 413.331,106.484 421.001,105.203 C426.211,104.333 431.728,104.854 437.059,105.318 C440.691,105.634 442.101,108.272 442.078,112.011 C441.968,129.815 442.029,147.62 442.029,165.425" fill="#373736"/>
    </g>
  </g>
</svg>
