<svg id="white" xmlns="http://www.w3.org/2000/svg" width="422.998" height="79.607" viewBox="0 0 422.998 79.607">
  <path id="パス_175" data-name="パス 175" d="M345.628,44.087H307.985v-6.2h37.643Z" fill="#fff"/>
  <path id="パス_176" data-name="パス 176" d="M353.192,70.819H308.634a11.5,11.5,0,0,1-11.482-11.483V22.644a11.5,11.5,0,0,1,11.482-11.483h44.558v6.2H308.634a5.294,5.294,0,0,0-5.288,5.288V59.336a5.294,5.294,0,0,0,5.288,5.288h44.558Z" fill="#fff"/>
  <path id="パス_177" data-name="パス 177" d="M141.787,70.819h-41.4A11.5,11.5,0,0,1,88.9,59.336V11.166h6.2v48.17a5.294,5.294,0,0,0,5.288,5.288h41.4Z" fill="#fff"/>
  <path id="パス_178" data-name="パス 178" d="M151.08,70.848h7.8v-7.8h-7.8Z" fill="#fff"/>
  <path id="パス_179" data-name="パス 179" d="M158.884,11.2h-7.805V59.262h7.805Z" fill="#fff"/>
  <path id="パス_180" data-name="パス 180" d="M359.386,11.187l28.558,37.695V70.814h6.194v-24l-.325-.429-.026,0,.026-.02-26.671-35.2h-7.727Z" fill="#fff"/>
  <path id="パス_181" data-name="パス 181" d="M394.1,39.074l3.886,5.129L423,11.188l-.028-.022h-7.726Z" fill="#fff"/>
  <path id="パス_182" data-name="パス 182" d="M240.716,70.815h-6.2V11.166h6.2Z" fill="#fff"/>
  <path id="パス_183" data-name="パス 183" d="M249.7,40.019l38.485-28.853H277.853l-33.345,25v7.743l.021-.015L280.6,70.819h10.354v0Z" fill="#fff"/>
  <path id="パス_184" data-name="パス 184" d="M219.034,11.2V64.657h-.068L179.044,13.225h0a5.024,5.024,0,0,0-4.031-2.024v0H173.2v0a4.994,4.994,0,0,0-2.873.906l4.107,5.292h.006l39.918,51.43a5.02,5.02,0,0,0,4.031,2.025H220.2a5.026,5.026,0,0,0,5.025-5.026V11.2Z" fill="#fff"/>
  <path id="パス_185" data-name="パス 185" d="M168.225,15.562a5.046,5.046,0,0,0-.048.654V70.848h6.195V23.481Z" fill="#fff"/>
  <path id="パス_186" data-name="パス 186" d="M62.5,53.485H59.768A24.7,24.7,0,0,1,27.714,63.846q-.495-.232-.985-.481c-.382-.2-.765-.4-1.138-.624a24.788,24.788,0,0,1-3.665-2.653c-.428-.372-.845-.757-1.247-1.16-.286-.284-.561-.576-.829-.872-.1-.11-.2-.224-.3-.336-.161-.182-.32-.366-.474-.554-.123-.149-.242-.3-.361-.452s-.234-.3-.347-.449c-.136-.181-.27-.362-.4-.545-.078-.109-.152-.22-.228-.331a24.894,24.894,0,0,1-1.986-3.48c-.248-.533-.487-1.072-.7-1.627A24.766,24.766,0,0,1,26.123,19.824v-2.73A27.186,27.186,0,0,0,12.807,51.147c.229.6.488,1.185.756,1.764L11.377,53.93a29.358,29.358,0,0,0,4.4,6.8l1.83-1.576h0l-.006.006c.042.049.089.093.131.142q.507.577,1.046,1.13c.051.05.1.1.148.153l.047.049c.417.417.844.817,1.287,1.207l.026.023.16.14L20.452,62l-1.573,1.828A29.564,29.564,0,0,0,23.133,66.9c.828.489,1.681.921,2.548,1.325L26.7,66.036A27.116,27.116,0,0,0,62.5,53.485" fill="#fff"/>
  <path id="パス_187" data-name="パス 187" d="M62.627,45.055a24.629,24.629,0,0,1-1.195,4.811l2.548,0a27.082,27.082,0,0,0,1.084-4.808Z" fill="#fff"/>
  <path id="パス_188" data-name="パス 188" d="M76.217,45.056H72.173A34.192,34.192,0,0,1,13.994,65.613,34.193,34.193,0,0,1,34.552,7.434V3.39A38.219,38.219,0,0,0,0,39.625H2.012v0q-.045.9-.045,1.812t.045,1.812H0A38.215,38.215,0,0,0,36.363,79.607V77.6h0c.6.03,1.205.044,1.811.046s1.212-.016,1.814-.046h0l0,2.012A38.215,38.215,0,0,0,76.217,45.056" fill="#fff"/>
  <path id="パス_189" data-name="パス 189" d="M34.552,14.541a27,27,0,0,0-4.81,1.076v2.546a24.525,24.525,0,0,1,4.81-1.185Z" fill="#fff"/>
  <path id="パス_190" data-name="パス 190" d="M56.734,45.055H52.6A14.884,14.884,0,1,1,34.551,27.01V22.874A18.908,18.908,0,1,0,56.734,45.055" fill="#fff"/>
  <path id="パス_191" data-name="パス 191" d="M67.472,12.135A41.162,41.162,0,0,0,38.174,0V7.242A34.19,34.19,0,0,1,72.366,41.434h7.242a41.165,41.165,0,0,0-12.136-29.3" fill="#fff"/>
  <path id="パス_192" data-name="パス 192" d="M38.173,11.264V17.7A23.73,23.73,0,0,1,61.907,41.434h6.436a30.171,30.171,0,0,0-30.17-30.169" fill="#fff"/>
  <path id="パス_193" data-name="パス 193" d="M52.111,27.5a19.59,19.59,0,0,0-13.938-5.774v5.633A14.082,14.082,0,0,1,52.254,41.434h5.631A19.583,19.583,0,0,0,52.111,27.5" fill="#fff"/>
  <path id="パス_194" data-name="パス 194" d="M47.827,41.435a9.655,9.655,0,1,1-9.654-9.655,9.657,9.657,0,0,1,9.654,9.655" fill="#fff"/>
</svg>
