<?xml version="1.0" encoding="utf-8"?>
<!-- Generator: Adobe Illustrator 22.0.1, SVG Export Plug-In . SVG Version: 6.00 Build 0)  -->
<svg version="1.1" id="Layer_1" xmlns="http://www.w3.org/2000/svg" xmlns:xlink="http://www.w3.org/1999/xlink" x="0px" y="0px"
	 viewBox="0 0 282 52.8" style="enable-background:new 0 0 282 52.8;" xml:space="preserve">
<style type="text/css">
	.st0{fill:#787978;}
	.st1{fill:#A92C3D;}
</style>
<g>
	<g>
		<g id="Mask_Group_1">
			<g id="レイヤー_1" transform="translate(0 20.464)">
				<g id="Linkey_Logo">
					<path id="Path_1" class="st0" d="M230.4,8.9h-25.1V4.8h25.1V8.9z"/>
					<path id="Path_2" class="st0" d="M235.5,26.7h-29.7c-4.2,0-7.7-3.4-7.7-7.7V-5.4c0-4.2,3.4-7.7,7.7-7.7h29.7v4.1h-29.7
						c-1.9,0-3.5,1.6-3.5,3.5v24.5c0,1.9,1.6,3.5,3.5,3.5h29.7V26.7z"/>
					<path id="Path_3" class="st0" d="M94.5,26.7H66.9c-4.2,0-7.7-3.4-7.7-7.7V-13h4.1v32.1c0,1.9,1.6,3.5,3.5,3.5h27.6V26.7z"/>
					<path id="Path_4" class="st1" d="M100.7,26.8h5.2v-5.2h-5.2V26.8z"/>
					<path id="Path_5" class="st1" d="M105.9-13h-5.2v32h5.2V-13z"/>
					<path id="Path_6" class="st0" d="M239.6-13l19,25.1v14.6h4.1v-16l-0.2-0.3h0l0,0L244.8-13L239.6-13L239.6-13z"/>
					<path id="Path_7" class="st0" d="M262.7,5.6l2.6,3.4L282-13l0,0h-5.2L262.7,5.6z"/>
					<path id="Path_8" class="st0" d="M160.5,26.7h-4.1V-13h4.1V26.7z"/>
					<path id="Path_9" class="st0" d="M166.5,6.2L192.1-13h-6.9L163,3.6v5.2l0,0l24,18h6.9L166.5,6.2z"/>
					<path id="Path_10" class="st0" d="M146-13v35.6h0l-26.6-34.3l0,0c-0.6-0.8-1.6-1.3-2.7-1.3h-1.2c-0.7,0-1.4,0.2-1.9,0.6
						l2.7,3.5l0,0l26.6,34.3c0.6,0.8,1.6,1.4,2.7,1.3h1.2c1.9,0,3.4-1.5,3.4-3.3c0,0,0,0,0,0V-13H146z"/>
					<path id="Path_11" class="st0" d="M112.2-10.1c0,0.1,0,0.3,0,0.4v36.4h4.1V-4.8L112.2-10.1z"/>
					<path id="Path_12" class="st0" d="M41.7,15.2h-1.8c-4.2,7.6-13.5,10.6-21.4,6.9c-0.2-0.1-0.4-0.2-0.7-0.3
						c-0.3-0.1-0.5-0.3-0.8-0.4c-0.9-0.5-1.7-1.1-2.4-1.8c-0.3-0.2-0.6-0.5-0.8-0.8c-0.2-0.2-0.4-0.4-0.6-0.6
						c-0.1-0.1-0.1-0.1-0.2-0.2c-0.1-0.1-0.2-0.2-0.3-0.4c-0.1-0.1-0.2-0.2-0.2-0.3s-0.2-0.2-0.2-0.3c-0.1-0.1-0.2-0.2-0.3-0.4
						c-0.1-0.1-0.1-0.1-0.2-0.2c-0.5-0.7-0.9-1.5-1.3-2.3c-0.2-0.4-0.3-0.7-0.5-1.1C7.1,5.4,10.3-3.2,17.4-7.2v-1.8
						C9-4.9,5.2,4.9,8.5,13.6C8.7,14,8.9,14.4,9,14.8l-1.5,0.7c0.8,1.6,1.8,3.2,2.9,4.5l1.2-1.1l0,0l0,0c0,0,0.1,0.1,0.1,0.1
						c0.2,0.3,0.5,0.5,0.7,0.8c0,0,0.1,0.1,0.1,0.1l0,0c0.3,0.3,0.6,0.5,0.9,0.8l0,0l0.1,0.1l0,0l-1,1.2c0.9,0.8,1.8,1.5,2.8,2.1
						c0.6,0.3,1.1,0.6,1.7,0.9l0.7-1.5C26.7,27.7,37.3,24,41.7,15.2"/>
					<path id="Path_13" class="st0" d="M41.8,9.6c-0.2,1.1-0.4,2.2-0.8,3.2h1.7c0.3-1,0.6-2.1,0.7-3.2L41.8,9.6z"/>
					<path id="Path_14" class="st0" d="M50.8,9.6h-2.7C46.8,22.1,35.5,31.2,23,29.8c-5.2-0.6-10-2.9-13.7-6.5
						C0.4,14.4,0.4-0.1,9.3-9c3.7-3.7,8.5-6,13.7-6.5v-2.7C10.4-17,0.6-6.7,0,6h1.3c0,0.4,0,0.8,0,1.2s0,0.8,0,1.2H0
						C0.6,21.5,11.1,32,24.2,32.6v-1.3l0,0c0.4,0,0.8,0,1.2,0s0.8,0,1.2,0l0,0v1.3C39.3,32,49.6,22.2,50.8,9.6"/>
					<path id="Path_15" class="st0" d="M23-10.8c-1.1,0.1-2.2,0.4-3.2,0.7v1.7c1-0.4,2.1-0.6,3.2-0.8V-10.8z"/>
					<path id="Path_16" class="st0" d="M37.8,9.6h-2.8c-1.3,5.3-6.7,8.6-12,7.2c-5.3-1.3-8.6-6.7-7.2-12c0.9-3.6,3.7-6.3,7.2-7.2
						v-2.8c-6.8,1.3-11.3,8-10,14.8s8,11.3,14.8,10C32.9,18.5,36.8,14.6,37.8,9.6"/>
					<path id="Path_17" class="st1" d="M45-12.4c-5.2-5.2-12.2-8.1-19.5-8.1v4.8C38-15.6,48.2-5.4,48.2,7.2c0,0,0,0,0,0h4.8
						C53.1-0.2,50.2-7.2,45-12.4"/>
					<path id="Path_18" class="st1" d="M25.4-13v4.3c8.7,0,15.8,7.1,15.8,15.8c0,0,0,0,0,0h4.3C45.6-3.9,36.6-13,25.4-13"/>
					<path id="Path_19" class="st1" d="M34.7-2.1C32.3-4.6,28.9-6,25.4-6v3.8c5.2,0,9.4,4.2,9.4,9.4h3.8C38.6,3.7,37.2,0.3,34.7-2.1
						"/>
					<path id="Path_20" class="st1" d="M31.9,7.2c0,3.6-2.9,6.4-6.4,6.4S19,10.7,19,7.2c0-3.6,2.9-6.4,6.4-6.4c0,0,0,0,0,0
						C29,0.7,31.9,3.6,31.9,7.2"/>
				</g>
			</g>
		</g>
	</g>
</g>
</svg>
